<?xml version="1.0" encoding="UTF-8" standalone="no"?>
<svg
   xmlns:dc="http://purl.org/dc/elements/1.1/"
   xmlns:cc="http://creativecommons.org/ns#"
   xmlns:rdf="http://www.w3.org/1999/02/22-rdf-syntax-ns#"
   xmlns:svg="http://www.w3.org/2000/svg"
   xmlns="http://www.w3.org/2000/svg"
   viewBox="0 0 440.66666 169.33333"
   height="169.33333"
   width="440.66666"
   xml:space="preserve"
   id="svg2"
   version="1.1"><metadata
     id="metadata8"><rdf:RDF><cc:Work
         rdf:about=""><dc:format>image/svg+xml</dc:format><dc:type
           rdf:resource="http://purl.org/dc/dcmitype/StillImage" /></cc:Work></rdf:RDF></metadata><defs
     id="defs6"><clipPath
       id="clipPath18"
       clipPathUnits="userSpaceOnUse"><path
         id="path16"
         d="M 0,127 H 330.5 V 0 H 0 Z" /></clipPath></defs><g
     transform="matrix(1.3333333,0,0,-1.3333333,0,169.33333)"
     id="g10"><g
       id="g12"><g
         clip-path="url(#clipPath18)"
         id="g14"><g
           transform="translate(85.4237,109.0462)"
           id="g20"><path
             id="path22"
             style="fill:#175299;fill-opacity:1;fill-rule:nonzero;stroke:none"
             d="M 0,0 C 6.238,-5.902 21.946,-53.024 25.53,-63.776 V 0 H 0" /></g><g
           transform="translate(94.4036,45.2681)"
           id="g24"><path
             id="path26"
             style="fill:#175299;fill-opacity:1;fill-rule:nonzero;stroke:none"
             d="M 0,0 C -3.583,10.964 -17.184,57.558 -24.413,63.672 H -48.808 V 0.002 h 0.526 L -24.667,62.091 -44.401,0.002 h 0.633 L -22.244,57.876 -40.165,0.004 h 0.844 l 19.502,52.81 -15.988,-52.76 h 0.738 l 10.086,21.662 h -2.425 l 9.803,26.038 -7.378,-26.034 h 2.212 L -31.732,0 H 0" /></g><g
           transform="translate(148.6545,66.2649)"
           id="g28"><path
             id="path30"
             style="fill:#175299;fill-opacity:1;fill-rule:nonzero;stroke:none"
             d="m 0,0 h -11.923 c 0.003,0.006 0.005,0.02 0.005,0.02 0.008,0.02 5.558,17.05 5.558,17.05 0.078,0.232 0.138,0.355 0.182,0.427 0.044,-0.072 0.104,-0.195 0.182,-0.429 0.002,-0.004 5.992,-17.036 5.992,-17.036 V 0.034 C -0.004,0.032 -0.002,0.014 0,0 M 44.155,0 H 32.232 c 0.002,0.006 0.004,0.02 0.004,0.02 0.008,0.02 5.558,17.05 5.558,17.05 0.078,0.232 0.138,0.355 0.182,0.427 0.042,-0.072 0.104,-0.195 0.182,-0.429 C 38.16,17.064 44.153,0.032 44.153,0.032 44.15,0.038 44.15,0.038 44.15,0.034 44.15,0.032 44.153,0.014 44.155,0 M 88.309,0 H 76.387 c 0.002,0.006 0.004,0.02 0.004,0.02 0.008,0.02 5.558,17.05 5.558,17.05 0.078,0.232 0.138,0.355 0.182,0.427 0.044,-0.072 0.104,-0.195 0.182,-0.429 0.002,-0.004 5.994,-17.036 5.994,-17.036 -0.002,0.004 -0.002,0.006 -0.002,0.002 0,-0.002 0.002,-0.02 0.004,-0.034 m 18.895,-19.995 c -0.61,0 -1.526,0.062 -2.425,0.362 -1.392,0.398 -3.091,1.516 -5.238,6.826 -2.743,6.833 -8.553,22.006 -12.024,31.074 l -2.673,6.96 c -0.739,1.909 -1.049,2.465 -1.673,2.465 -0.62,0 -0.914,-0.568 -1.676,-2.663 L 67.177,-14.143 c -1.214,-3.37 -2.429,-5.388 -5.05,-5.73 0,0 -0.15,-0.01 -0.358,-0.024 -0.37,0.056 -0.756,0.134 -1.146,0.264 -1.391,0.398 -3.089,1.516 -5.236,6.826 -2.747,6.843 -8.563,22.036 -12.039,31.114 l -2.659,6.92 c -0.738,1.909 -1.048,2.465 -1.672,2.465 -0.621,0 -0.915,-0.568 -1.677,-2.663 L 23.021,-14.143 c -1.213,-3.37 -2.427,-5.388 -5.048,-5.73 0,0 -0.15,-0.01 -0.358,-0.024 -0.369,0.056 -0.757,0.134 -1.145,0.264 -1.392,0.398 -3.091,1.516 -5.238,6.826 C 8.489,-5.974 2.679,9.199 -0.792,18.267 l -2.673,6.96 c -0.739,1.909 -1.049,2.465 -1.673,2.465 -0.62,0 -0.914,-0.568 -1.677,-2.663 l -14.319,-39.172 c -1.212,-3.37 -2.427,-5.388 -5.048,-5.73 -0.002,0 -1.791,-0.122 -1.791,-0.122 -0.524,0 -0.874,-0.277 -0.874,-0.687 0,-0.81 1.017,-0.81 1.505,-0.81 l 5.69,0.14 1.438,0.048 1.601,-0.068 3.319,-0.12 c 1.037,0 1.255,0.44 1.255,0.81 0,0.256 -0.122,0.687 -0.939,0.687 h -0.632 c -0.808,0 -2.089,0.412 -2.089,1.522 0,1.108 0.306,2.573 0.865,4.122 0.002,0.006 3.787,11.17 3.787,11.17 0.108,0.272 0.228,0.296 0.338,0.296 H 0.854 c 0.166,0 0.202,-0.026 0.294,-0.208 0,-0.006 5.853,-15.49 5.853,-15.49 0.092,-0.242 0.138,-0.468 0.138,-0.666 0,-0.148 -0.026,-0.282 -0.08,-0.392 -0.084,-0.174 -0.2,-0.228 -0.246,-0.244 -0.565,-0.14 -0.651,-0.521 -0.651,-0.733 0,-0.64 0.713,-0.676 1.893,-0.734 l 0.29,-0.016 c 2.367,-0.068 5.234,-0.11 8.215,-0.122 0.092,-0.002 0.178,-0.002 0.252,-0.002 h 0.088 1.365 c 0.264,0 0.496,0.016 0.694,0.052 l 3.543,0.088 1.439,0.048 1.599,-0.068 3.321,-0.12 c 1.036,0 1.252,0.44 1.252,0.81 0,0.256 -0.122,0.687 -0.936,0.687 h -0.632 c -0.809,0 -2.089,0.412 -2.089,1.522 0,1.108 0.306,2.573 0.864,4.122 0.002,0.006 3.788,11.17 3.788,11.17 0.108,0.272 0.228,0.296 0.34,0.296 h 13.561 c 0.166,0 0.202,-0.026 0.294,-0.208 0,-0.004 5.854,-15.49 5.854,-15.49 0.09,-0.242 0.136,-0.468 0.136,-0.666 0,-0.148 -0.026,-0.282 -0.08,-0.392 -0.082,-0.174 -0.2,-0.228 -0.246,-0.244 -0.564,-0.14 -0.65,-0.521 -0.65,-0.733 0,-0.64 0.712,-0.676 1.892,-0.734 l 0.291,-0.016 c 2.366,-0.068 5.234,-0.11 8.215,-0.122 0.092,-0.002 0.178,-0.002 0.252,-0.002 h 0.09 1.362 c 0.264,0 0.497,0.016 0.695,0.052 l 3.543,0.088 1.438,0.048 1.601,-0.068 3.319,-0.12 c 1.037,0 1.255,0.44 1.255,0.81 0,0.256 -0.122,0.687 -0.939,0.687 h -0.63 c -0.81,0 -2.091,0.412 -2.091,1.522 0,1.108 0.307,2.573 0.865,4.122 0.002,0.006 3.787,11.17 3.787,11.17 0.108,0.272 0.228,0.296 0.34,0.296 h 13.561 c 0.166,0 0.202,-0.026 0.294,-0.208 0,-0.006 5.853,-15.49 5.853,-15.49 0.092,-0.242 0.138,-0.468 0.138,-0.666 0,-0.148 -0.026,-0.282 -0.078,-0.392 -0.084,-0.174 -0.202,-0.228 -0.248,-0.244 -0.565,-0.14 -0.651,-0.521 -0.651,-0.733 0,-0.64 0.713,-0.676 1.893,-0.734 l 0.29,-0.016 c 2.817,-0.08 6.336,-0.124 9.92,-0.124 1.04,0 1.568,0.272 1.568,0.81 0,0.456 -0.316,0.687 -0.938,0.687" /></g><g
           transform="translate(273.8998,72.3808)"
           id="g32"><path
             id="path34"
             style="fill:#e22739;fill-opacity:1;fill-rule:nonzero;stroke:none"
             d="m 0,0 -1.767,1.389 c -6.09,4.987 -7.579,7.02 -7.579,10.355 0,4.192 2.996,7.009 7.453,7.009 5.304,0 7.093,-2.225 7.615,-3.183 0.346,-0.634 0.722,-2.287 0.782,-3.031 0.06,-0.472 0.138,-1.103 0.813,-1.103 0.748,0 0.748,1.145 0.748,1.759 0,3.361 0.154,5.362 0.222,6.214 l 0.03,0.472 c 0,0.663 -0.502,0.749 -0.938,0.749 -0.448,0 -0.905,0.048 -2.143,0.308 -1.809,0.434 -3.697,0.638 -5.93,0.638 -8.119,0 -13.365,-4.578 -13.365,-11.662 0,-4.262 1.414,-8.263 8.313,-13.926 l 2.837,-2.332 c 5.608,-4.63 7.143,-7.019 7.143,-11.117 0,-4.017 -2.994,-8.085 -8.714,-8.085 -2.339,0 -7.903,0.605 -9.035,6.189 -0.182,0.856 -0.182,1.71 -0.182,2.275 0,0.374 0,1 -0.75,1 -0.693,0 -0.769,-0.838 -0.809,-1.289 -0.002,-0.008 -0.056,-0.76 -0.056,-0.76 -0.098,-1.272 -0.262,-3.403 -0.262,-5.954 0,-1.677 0.046,-2.137 1.117,-2.671 l 0.003,-0.002 c 2.391,-1.168 5.201,-1.735 8.588,-1.735 3.809,0 7.162,0.937 9.699,2.705 4.05,2.877 5.492,7.425 5.492,10.722 C 9.325,-10.18 7.801,-6.148 0,0" /></g><g
           transform="translate(17.9892,27.8398)"
           id="g36"><path
             id="path38"
             style="fill:#231f20;fill-opacity:1;fill-rule:nonzero;stroke:none"
             d="M 0,0 H -0.356 L -4.23,-8.447 h 0.677 l 1.328,2.903 h 4.094 l 1.328,-2.903 h 0.676 z m 1.623,-5.004 h -3.602 l 1.795,3.946 z" /></g><g
           transform="translate(25.3424,27.7783)"
           id="g40"><path
             id="path42"
             style="fill:#231f20;fill-opacity:1;fill-rule:nonzero;stroke:none"
             d="m 0,0 v -8.387 h 3.049 c 3.319,0 4.464,2.251 4.464,4.193 C 7.513,-2.349 6.504,0 2.939,0 Z m 0.652,-0.54 h 2.323 c 2.275,0 3.838,-1.501 3.838,-3.654 0,-2.358 -1.783,-3.651 -3.8,-3.651 H 0.652 v 7.305" /></g><g
           transform="translate(39.1899,19.3068)"
           id="g44"><path
             id="path46"
             style="fill:#231f20;fill-opacity:1;fill-rule:nonzero;stroke:none"
             d="m 0,0 h -0.184 l -3.529,8.471 h 0.652 l 2.975,-7.094 2.951,7.094 h 0.652 z" /></g><g
           transform="translate(48.7465,27.8398)"
           id="g48"><path
             id="path50"
             style="fill:#231f20;fill-opacity:1;fill-rule:nonzero;stroke:none"
             d="M 0,0 H -0.356 L -4.23,-8.447 h 0.677 l 1.328,2.903 h 4.094 l 1.328,-2.903 h 0.676 z m 1.623,-5.004 h -3.602 l 1.795,3.946 z" /></g><g
           transform="translate(63.6491,19.392)"
           id="g52"><path
             id="path54"
             style="fill:#231f20;fill-opacity:1;fill-rule:nonzero;stroke:none"
             d="M 0,0 H -0.54 L -6.911,7.329 V 0 h -0.652 v 8.387 h 0.554 L -0.652,1.058 V 8.387 H 0 Z" /></g><g
           transform="translate(75.0228,26.4744)"
           id="g56"><path
             id="path58"
             style="fill:#231f20;fill-opacity:1;fill-rule:nonzero;stroke:none"
             d="m 0,0 c -1.044,0.554 -1.991,0.812 -2.987,0.812 -2.091,0 -3.666,-1.586 -3.666,-3.713 0,-2.165 1.563,-3.689 3.752,-3.689 0.946,0 1.845,0.258 2.987,0.86 v -0.674 c -0.97,-0.519 -2.005,-0.789 -2.975,-0.789 -2.557,0 -4.464,1.833 -4.464,4.292 0,2.569 2.103,4.316 4.402,4.316 C -2.017,1.415 -1.02,1.18 0,0.714 V 0" /></g><path
           id="path60"
           style="fill:#231f20;fill-opacity:1;fill-rule:nonzero;stroke:none"
           d="M 79.462,19.392 H 78.81 v 8.387 h 0.652 z" /><g
           transform="translate(91.3893,19.392)"
           id="g62"><path
             id="path64"
             style="fill:#231f20;fill-opacity:1;fill-rule:nonzero;stroke:none"
             d="M 0,0 H -0.542 L -6.911,7.329 V 0 h -0.652 v 8.387 h 0.554 L -0.652,1.058 V 8.387 H 0 Z" /></g><g
           transform="translate(102.8,26.4382)"
           id="g66"><path
             id="path68"
             style="fill:#231f20;fill-opacity:1;fill-rule:nonzero;stroke:none"
             d="m 0,0 c -1.02,0.578 -1.967,0.848 -2.975,0.848 -2.129,0 -3.702,-1.574 -3.702,-3.701 0,-1.881 1.241,-3.701 3.886,-3.701 0.97,0 1.635,0.186 2.299,0.516 v 2.263 h -1.771 v 0.54 H 0.16 v -3.207 c -0.996,-0.481 -2.005,-0.715 -2.977,-0.715 -2.605,0 -4.56,1.845 -4.56,4.328 0,2.461 1.905,4.28 4.5,4.28 0.946,0 1.697,-0.185 2.877,-0.713 L 0,0" /></g><g
           transform="translate(116.9033,26.6469)"
           id="g70"><path
             id="path72"
             style="fill:#231f20;fill-opacity:1;fill-rule:nonzero;stroke:none"
             d="m 0,0 c -0.86,0.492 -1.302,0.64 -1.881,0.64 -1.008,0 -1.77,-0.69 -1.77,-1.598 0,-2.237 3.995,-1.169 3.995,-4.108 0,-1.29 -1.068,-2.299 -2.435,-2.299 -0.688,0 -1.414,0.246 -2.151,0.739 v 0.762 c 0.935,-0.678 1.463,-0.899 2.115,-0.899 0.997,0 1.771,0.727 1.771,1.673 0,2.385 -3.998,1.339 -3.998,4.106 0,1.244 1.083,2.226 2.411,2.226 0.652,0 1.291,-0.172 1.943,-0.528 L 0,0" /></g><g
           transform="translate(128.1665,26.4744)"
           id="g74"><path
             id="path76"
             style="fill:#231f20;fill-opacity:1;fill-rule:nonzero;stroke:none"
             d="m 0,0 c -1.046,0.554 -1.993,0.812 -2.987,0.812 -2.091,0 -3.666,-1.586 -3.666,-3.713 0,-2.165 1.563,-3.689 3.752,-3.689 0.946,0 1.843,0.258 2.987,0.86 v -0.674 c -0.97,-0.519 -2.005,-0.789 -2.975,-0.789 -2.557,0 -4.464,1.833 -4.464,4.292 0,2.569 2.103,4.316 4.402,4.316 C -2.017,1.415 -1.02,1.18 0,0.714 V 0" /></g><path
           id="path78"
           style="fill:#231f20;fill-opacity:1;fill-rule:nonzero;stroke:none"
           d="m 132.606,19.392 h -0.652 v 8.387 h 0.652 z" /><g
           transform="translate(141.5693,27.2375)"
           id="g80"><path
             id="path82"
             style="fill:#231f20;fill-opacity:1;fill-rule:nonzero;stroke:none"
             d="m 0,0 h -3.922 v -3.357 h 3.824 v -0.54 h -3.824 v -3.408 h 4.02 v -0.54 H -4.574 V 0.54 H 0 Z" /></g><g
           transform="translate(153.0168,19.392)"
           id="g84"><path
             id="path86"
             style="fill:#231f20;fill-opacity:1;fill-rule:nonzero;stroke:none"
             d="M 0,0 H -0.542 L -6.911,7.329 V 0 h -0.652 v 8.387 h 0.554 L -0.652,1.058 V 8.387 H 0 Z" /></g><g
           transform="translate(164.3905,26.4744)"
           id="g88"><path
             id="path90"
             style="fill:#231f20;fill-opacity:1;fill-rule:nonzero;stroke:none"
             d="m 0,0 c -1.046,0.554 -1.993,0.812 -2.987,0.812 -2.091,0 -3.666,-1.586 -3.666,-3.713 0,-2.165 1.563,-3.689 3.75,-3.689 0.948,0 1.845,0.258 2.989,0.86 v -0.674 c -0.972,-0.519 -2.005,-0.789 -2.975,-0.789 -2.559,0 -4.464,1.833 -4.464,4.292 0,2.569 2.103,4.316 4.402,4.316 C -2.017,1.415 -1.02,1.18 0,0.714 V 0" /></g><g
           transform="translate(172.7762,27.2375)"
           id="g92"><path
             id="path94"
             style="fill:#231f20;fill-opacity:1;fill-rule:nonzero;stroke:none"
             d="m 0,0 h -3.924 v -3.357 h 3.826 v -0.54 h -3.826 v -3.408 h 4.022 v -0.54 H -4.574 V 0.54 H 0 Z" /></g><g
           transform="translate(177.1904,19.6505)"
           id="g96"><path
             id="path98"
             style="fill:#231f20;fill-opacity:1;fill-rule:nonzero;stroke:none"
             d="m 0,0 c 0,-0.626 -0.258,-1.302 -0.8,-1.697 v 0.431 c 0.222,0.332 0.258,0.59 0.258,1.008 H -0.8 V 0.934 H 0 V 0" /></g><g
           transform="translate(190.1517,26.6469)"
           id="g100"><path
             id="path102"
             style="fill:#231f20;fill-opacity:1;fill-rule:nonzero;stroke:none"
             d="m 0,0 c -0.86,0.492 -1.302,0.64 -1.881,0.64 -1.008,0 -1.77,-0.69 -1.77,-1.598 0,-2.237 3.995,-1.169 3.995,-4.108 0,-1.29 -1.068,-2.299 -2.435,-2.299 -0.688,0 -1.414,0.246 -2.151,0.739 v 0.762 c 0.935,-0.678 1.463,-0.899 2.115,-0.899 0.997,0 1.771,0.727 1.771,1.673 0,2.385 -3.996,1.339 -3.996,4.106 0,1.244 1.081,2.226 2.409,2.226 0.652,0 1.291,-0.172 1.943,-0.528 L 0,0" /></g><g
           transform="translate(199.0176,27.2375)"
           id="g104"><path
             id="path106"
             style="fill:#231f20;fill-opacity:1;fill-rule:nonzero;stroke:none"
             d="m 0,0 h -3.922 v -3.357 h 3.824 v -0.54 h -3.824 v -3.408 h 4.02 v -0.54 H -4.574 V 0.54 H 0 Z" /></g><g
           transform="translate(202.9154,27.7783)"
           id="g108"><path
             id="path110"
             style="fill:#231f20;fill-opacity:1;fill-rule:nonzero;stroke:none"
             d="m 0,0 v -8.387 h 0.652 v 4.021 h 1.131 c 1.008,0 1.328,-0.134 2.337,-1.72 l 1.462,-2.301 h 0.762 l -1.892,2.903 c -0.395,0.59 -0.727,1.07 -1.121,1.278 1.071,0.395 1.599,1.071 1.599,2.041 C 4.93,-1.046 4.206,0 2.151,0 Z m 0.652,-0.54 h 1.365 c 1.536,0 2.213,-0.69 2.213,-1.637 0,-1.008 -0.715,-1.646 -2.189,-1.646 H 0.652 v 3.283" /></g><g
           transform="translate(214.8325,19.3068)"
           id="g112"><path
             id="path114"
             style="fill:#231f20;fill-opacity:1;fill-rule:nonzero;stroke:none"
             d="m 0,0 h -0.184 l -3.529,8.471 h 0.652 l 2.975,-7.094 2.951,7.094 h 0.652 z" /></g><path
           id="path116"
           style="fill:#231f20;fill-opacity:1;fill-rule:nonzero;stroke:none"
           d="m 222.456,19.392 h -0.652 v 8.387 h 0.652 z" /><g
           transform="translate(234.3833,19.392)"
           id="g118"><path
             id="path120"
             style="fill:#231f20;fill-opacity:1;fill-rule:nonzero;stroke:none"
             d="M 0,0 H -0.54 L -6.911,7.329 V 0 h -0.652 v 8.387 h 0.554 L -0.652,1.058 V 8.387 H 0 Z" /></g><g
           transform="translate(245.7939,26.4382)"
           id="g122"><path
             id="path124"
             style="fill:#231f20;fill-opacity:1;fill-rule:nonzero;stroke:none"
             d="m 0,0 c -1.02,0.578 -1.967,0.848 -2.975,0.848 -2.127,0 -3.702,-1.574 -3.702,-3.701 0,-1.881 1.243,-3.701 3.886,-3.701 0.97,0 1.635,0.186 2.301,0.516 v 2.263 h -1.771 v 0.54 H 0.16 v -3.207 c -0.996,-0.481 -2.005,-0.715 -2.975,-0.715 -2.607,0 -4.562,1.845 -4.562,4.328 0,2.461 1.905,4.28 4.5,4.28 0.946,0 1.697,-0.185 2.877,-0.713 V 0" /></g><g
           transform="translate(259.8978,26.6469)"
           id="g126"><path
             id="path128"
             style="fill:#231f20;fill-opacity:1;fill-rule:nonzero;stroke:none"
             d="m 0,0 c -0.86,0.492 -1.305,0.64 -1.881,0.64 -1.008,0 -1.77,-0.69 -1.77,-1.598 0,-2.237 3.995,-1.169 3.995,-4.108 0,-1.29 -1.07,-2.299 -2.435,-2.299 -0.688,0 -1.414,0.246 -2.151,0.739 v 0.762 c 0.935,-0.678 1.463,-0.899 2.115,-0.899 0.994,0 1.771,0.727 1.771,1.673 0,2.385 -3.998,1.339 -3.998,4.106 0,1.244 1.083,2.226 2.411,2.226 0.65,0 1.291,-0.172 1.943,-0.528 L 0,0" /></g><g
           transform="translate(272.71,23.5852)"
           id="g130"><path
             id="path132"
             style="fill:#231f20;fill-opacity:1;fill-rule:nonzero;stroke:none"
             d="m 0,0 c 0,2.411 -1.955,4.304 -4.452,4.304 -2.483,0 -4.425,-1.893 -4.425,-4.304 0,-2.409 1.942,-4.304 4.425,-4.304 C -1.955,-4.304 0,-2.409 0,0 m -0.7,0 c 0,-2.091 -1.623,-3.701 -3.728,-3.701 -2.1,0 -3.749,1.61 -3.749,3.701 0,2.091 1.649,3.701 3.749,3.701 2.105,0 3.728,-1.61 3.728,-3.701" /></g><g
           transform="translate(283.7399,26.4744)"
           id="g134"><path
             id="path136"
             style="fill:#231f20;fill-opacity:1;fill-rule:nonzero;stroke:none"
             d="m 0,0 c -1.046,0.554 -1.993,0.812 -2.987,0.812 -2.093,0 -3.666,-1.586 -3.666,-3.713 0,-2.165 1.563,-3.689 3.75,-3.689 0.948,0 1.844,0.258 2.989,0.86 v -0.674 c -0.972,-0.519 -2.005,-0.789 -2.977,-0.789 -2.557,0 -4.462,1.833 -4.462,4.292 0,2.569 2.101,4.316 4.402,4.316 C -2.017,1.415 -1.02,1.18 0,0.714 V 0" /></g><path
           id="path138"
           style="fill:#231f20;fill-opacity:1;fill-rule:nonzero;stroke:none"
           d="m 288.178,19.392 h -0.652 v 8.387 h 0.652 z" /><g
           transform="translate(297.1415,27.2375)"
           id="g140"><path
             id="path142"
             style="fill:#231f20;fill-opacity:1;fill-rule:nonzero;stroke:none"
             d="m 0,0 h -3.924 v -3.357 h 3.826 v -0.54 h -3.826 v -3.408 h 4.022 v -0.54 H -4.574 V 0.54 H 0 Z" /></g><g
           transform="translate(307.0647,27.2375)"
           id="g144"><path
             id="path146"
             style="fill:#231f20;fill-opacity:1;fill-rule:nonzero;stroke:none"
             d="M 0,0 H -3.147 V -7.845 H -3.8 V 0 H -6.947 V 0.54 H 0 Z" /></g><g
           transform="translate(313.4832,23.8923)"
           id="g148"><path
             id="path150"
             style="fill:#231f20;fill-opacity:1;fill-rule:nonzero;stroke:none"
             d="M 0,0 V -4.5 H -0.652 V 0 L -3.91,3.885 h 0.787 L -0.32,0.566 2.471,3.885 h 0.786 z" /></g></g></g></g></svg>