<?xml version="1.0" encoding="utf-8"?><svg version="1.2" xmlns="http://www.w3.org/2000/svg" xmlns:xlink="http://www.w3.org/1999/xlink" overflow="visible" preserveAspectRatio="none" viewBox="0 0 147.0800018310547 53.869998931884766" width="91" height="33"><g transform="translate(1, 1)"><defs><style>.cls-1_1587154597830{fill:#fff;}.cls-2_1587154597830{fill:#e60013;}</style></defs><g id="Layer_2_1587154597830"><g id="white_1587154597830"><rect height="51.79" width="8.07" x="54.3" class="cls-1_1587154597830" vector-effect="non-scaling-stroke"/><rect height="51.79" width="8.07" x="14.95" class="cls-1_1587154597830" vector-effect="non-scaling-stroke"/><path d="M6.17,26.05a24.05,24.05,0,0,0,34,1.8L36.85,24.2A19.14,19.14,0,0,1,5,8L.13,7.48A24,24,0,0,0,6.17,26.05Z" class="cls-2_1587154597830" vector-effect="non-scaling-stroke"/><path d="M37.2,24l3.28,3.65A19.14,19.14,0,0,1,72.32,43.81l4.88.51A24,24,0,0,0,54.55,17.81,23.85,23.85,0,0,0,37.2,24Z" class="cls-2_1587154597830" vector-effect="non-scaling-stroke"/><rect height="51.79" width="8.07" x="34.63" class="cls-1_1587154597830" vector-effect="non-scaling-stroke"/><path d="M125.46,0q8.3,0,12.61,3.63t4.32,10.56A11.12,11.12,0,0,1,141,19.84a11.15,11.15,0,0,1-4.12,4.06,10.79,10.79,0,0,1,6,4.39,13.42,13.42,0,0,1,2.2,7.74,17.34,17.34,0,0,1-1.35,6.83,14.42,14.42,0,0,1-3.74,5.3A14.21,14.21,0,0,1,134.66,51a31.87,31.87,0,0,1-8.39.85h-12V0Zm-3.79,44.82h5.92c3.48,0,6-.65,7.67-1.94s2.46-3.3,2.46-6c0-3-.86-5.17-2.57-6.7s-4.23-2.27-7.56-2.27h-5.92Zm.07-23.14h2.39q5.82,0,8.3-1.76c1.65-1.18,2.49-3.11,2.49-5.82a6.29,6.29,0,0,0-2.25-5.32q-2.25-1.72-6.89-1.73h-4Z" class="cls-1_1587154597830" vector-effect="non-scaling-stroke"/><path d="M78.36,32.5a24.19,24.19,0,0,1,1.78,11.86l-1.78-.19v7.7h7.47V0H78.36Z" class="cls-1_1587154597830" vector-effect="non-scaling-stroke"/><polygon points="114.78 0.01 105.72 0.01 86.12 26.12 104.81 51.87 114.26 51.87 94.61 25.77 114.78 0.01" class="cls-1_1587154597830" vector-effect="non-scaling-stroke"/></g></g></g></svg>