<?xml version="1.0" encoding="UTF-8" standalone="no"?>
<!-- Created with Inkscape (http://www.inkscape.org/) -->

<svg
   xmlns:dc="http://purl.org/dc/elements/1.1/"
   xmlns:cc="http://creativecommons.org/ns#"
   xmlns:rdf="http://www.w3.org/1999/02/22-rdf-syntax-ns#"
   xmlns:svg="http://www.w3.org/2000/svg"
   xmlns="http://www.w3.org/2000/svg"
   xmlns:sodipodi="http://sodipodi.sourceforge.net/DTD/sodipodi-0.dtd"
   xmlns:inkscape="http://www.inkscape.org/namespaces/inkscape"
   width="106.83333mm"
   height="18.96167mm"
   viewBox="0 0 106.83333 18.96167"
   version="1.1"
   id="svg6141"
   inkscape:version="0.92.0 r15299"
   sodipodi:docname="mcdonalds 1953.svg">
  <defs
     id="defs6135" />
  <sodipodi:namedview
     id="base"
     pagecolor="#ffffff"
     bordercolor="#666666"
     borderopacity="1.0"
     inkscape:pageopacity="0.0"
     inkscape:pageshadow="2"
     inkscape:zoom="0.35"
     inkscape:cx="-55.714309"
     inkscape:cy="248.22904"
     inkscape:document-units="mm"
     inkscape:current-layer="layer1"
     showgrid="false"
     fit-margin-top="0"
     fit-margin-left="0"
     fit-margin-right="0"
     fit-margin-bottom="0"
     inkscape:window-width="1280"
     inkscape:window-height="744"
     inkscape:window-x="-4"
     inkscape:window-y="-4"
     inkscape:window-maximized="1" />
  <metadata
     id="metadata6138">
    <rdf:RDF>
      <cc:Work
         rdf:about="">
        <dc:format>image/svg+xml</dc:format>
        <dc:type
           rdf:resource="http://purl.org/dc/dcmitype/StillImage" />
        <dc:title></dc:title>
      </cc:Work>
    </rdf:RDF>
  </metadata>
  <g
     inkscape:label="Layer 1"
     inkscape:groupmode="layer"
     id="layer1"
     transform="translate(-27.214292,-195.54893)">
    <g
       id="g6112"
       transform="translate(-850.71246,-373.49897)">
      <path
         sodipodi:nodetypes="cccsccccccscccccccssc"
         inkscape:connector-curvature="0"
         id="path2995"
         d="m 880.28023,587.41249 c -1.17726,-0.0457 -2.21672,-2.65824 -1.73126,-3.92357 1.60619,-4.33402 6.34505,-11.30599 8.71594,-13.69615 0.72612,-0.50692 1.85583,0.0148 2.19618,1.16926 0.28741,0.97489 -0.10979,2.46609 -0.27826,4.01106 0.0892,0.0481 0.0726,0.27247 0.3366,0.0293 l 4.61011,-5.16313 c 0.90177,-1.01106 2.09857,0.81965 2.58944,2.27593 0.2381,0.85217 0.12626,1.48521 0.006,2.07694 -1.1546,4.38267 -3.29022,9.50065 -4.47482,12.25431 -0.30213,0.84116 -0.75509,1.22347 -1.53062,1.00065 -0.95098,-0.27323 -1.96524,-1.14146 -1.71894,-1.97702 l 1.59616,-5.08222 c 0.0197,-0.21097 -0.1664,-0.28461 -0.29709,-0.0945 -1.57934,2.0067 -3.295,5.65267 -4.47133,5.55943 -0.66767,0.071 -1.77897,-0.17517 -1.6215,-1.60902 l 0.52775,-4.47506 c 0.0172,-0.24626 -0.20664,-0.17678 -0.23629,-0.0829 -0.49701,0.96128 -1.79128,3.85219 -2.8076,5.80847 -0.30345,0.58409 -0.5449,1.14156 -0.76072,1.49483 -0.22164,0.36277 -0.44228,0.461 -0.64928,0.42333 z"
         style="fill:#da0b1e;fill-opacity:0.99607843;stroke:none;stroke-width:0.26458332" />
      <path
         sodipodi:nodetypes="cccccccccc"
         inkscape:connector-curvature="0"
         id="path3765"
         d="m 903.08621,578.86351 c -1.29276,2.3065 -3.18368,2.60903 -4.13066,2.61635 -0.96927,-0.0137 -2.35728,-0.49855 -2.35353,-2.42632 0.0868,-3.22083 3.28991,-5.99012 6.18712,-6.67239 1.61333,-0.4641 2.8503,0.0159 2.93585,1.33448 -0.13369,1.76573 -1.95279,1.90597 -3.34769,1.74938 -0.11078,-0.0159 -0.21349,-0.0246 -0.34032,-0.0267 -1.24704,0.002 -3.24225,1.76104 -3.20275,2.96011 0.23062,1.13893 1.95629,0.0169 3.2193,-0.99237 0.93694,-0.60584 1.64777,0.1106 1.03268,1.45745 z"
         style="fill:#da0b1e;fill-opacity:0.99607843;stroke:none;stroke-width:0.26458332" />
      <path
         inkscape:connector-curvature="0"
         id="path3767"
         d="m 915.03084,569.67825 c -1.70914,0.0225 -3.45654,0.17858 -4.51378,0.25638 -0.56032,0.0414 -0.86008,0.10696 -0.90896,0.5749 -0.1296,1.14104 -0.002,2.38315 -0.7769,4.21855 l -2.9289,6.61139 c -0.0582,0.38379 -0.25966,0.6911 -0.0777,1.3751 0.28252,1.17948 1.18262,3.27729 3.37173,3.44166 4.07336,0.0861 9.09746,-4.49437 10.99309,-8.63132 0.90875,-1.67334 1.36855,-4.98301 0.2253,-6.47155 -0.76007,-1.17191 -3.05847,-1.40567 -5.38389,-1.37511 z m 0.38067,3.44942 c 0.43616,0.005 0.81682,0.0494 0.98666,0.101 1.44419,0.44034 1.02561,2.3901 0.60598,3.23189 -1.32813,3.32969 -6.15762,7.31577 -7.1086,6.3317 -0.56338,-1.10521 1.08428,-3.35177 2.253,-5.46158 0.98759,-1.61397 1.08886,-2.97631 1.43726,-3.63587 0.23017,-0.45501 1.09878,-0.57467 1.8257,-0.56714 z"
         style="fill:#da0b1e;fill-opacity:0.99607843;stroke:none;stroke-width:0.26458332" />
      <path
         sodipodi:nodetypes="sccccccsccccccc"
         inkscape:connector-curvature="0"
         id="path3772"
         d="m 925.88408,574.98445 c -1.30041,-0.0182 -2.65594,0.87602 -3.56596,1.82571 -1.05001,1.13158 -1.97723,2.28314 -2.76575,4.08648 -0.61514,1.44155 -0.62035,3.43442 0.87013,4.42054 1.59646,0.95566 3.23166,0.18034 4.24962,-0.60598 2.15773,-1.82447 3.30942,-4.0984 3.66695,-5.72573 0.25985,-1.36478 0.16782,-2.70076 -1.18865,-3.64364 -0.40279,-0.24152 -0.83287,-0.35132 -1.26634,-0.35738 z m -0.31853,2.51715 c 0.25318,0.0876 0.58246,0.44172 0.27759,1.18158 -0.55569,1.301 -1.23136,2.39571 -1.94929,3.46666 -0.29805,0.51759 -0.93007,1.08509 -1.53688,0.79003 -0.47039,-0.28713 -0.16776,-1.05487 -0.0389,-1.3518 0.47197,-1.08715 1.35007,-2.44992 1.95778,-3.33288 0.36969,-0.57414 0.83849,-0.88949 1.28965,-0.75359 z"
         style="fill:#da0b1e;fill-opacity:0.99607843;stroke:none;stroke-width:0.26458332" />
      <path
         sodipodi:nodetypes="ccccccccccccscc"
         inkscape:connector-curvature="0"
         id="path3777"
         d="m 930.08774,584.38165 c -0.46588,0.70227 -0.99552,1.26655 -1.98091,0.57511 -0.64999,-0.55271 -0.44782,-1.44624 -0.0959,-2.07677 l 3.64232,-6.93319 c 0.29124,-0.56513 0.71866,-1.02011 1.82121,-0.5112 1.28217,0.40496 2.58062,-0.62425 4.0086,-0.13349 1.19351,0.49926 1.56408,1.84519 1.05436,3.20411 -0.91677,2.0548 -2.20063,4.29552 -3.51426,6.61215 -0.34089,0.5169 -0.5987,0.85039 -1.20498,0.72424 -0.35949,-0.0806 -0.90959,-0.32069 -1.17443,-0.63025 -0.44588,-0.64388 -0.19392,-1.19167 -0.0319,-1.56556 l 2.33237,-4.69668 c 0.13409,-0.50539 -0.14429,-0.79966 -0.43572,-0.85859 -0.54191,-0.10959 -0.94973,0.186 -1.19374,0.57104 -0.98239,1.62656 -2.15132,3.81272 -3.22697,5.71908 z"
         style="fill:#da0b1e;fill-opacity:0.99607843;stroke:none;stroke-width:0.26458332" />
      <path
         sodipodi:nodetypes="sscccccccscccssccccs"
         inkscape:connector-curvature="0"
         id="path3779"
         d="m 945.88139,575.03884 c -1.89477,-0.0237 -4.92697,0.96109 -4.79345,2.4783 0.0309,0.35147 0.23666,0.66115 0.79244,0.65259 1.41396,-0.0476 2.56804,-0.892 3.54264,-0.7769 0.34227,0.13691 0.49219,0.2621 0.50499,0.66813 -0.0389,0.23592 -0.0219,0.44784 -0.38845,0.59821 -3.10514,0.5564 -6.65501,1.42291 -8.35164,4.63031 -0.30669,0.54075 -0.80347,2.57396 1.69364,2.99882 1.45477,0.21981 2.81449,-0.41595 4.14086,-1.3518 0.45757,-0.15352 0.85523,0.64562 1.53048,0.74582 0.43424,0.0644 1.20214,0.0487 1.76356,-1.15758 0.99206,-2.1583 2.10451,-4.2968 2.97551,-6.47931 0.45748,-1.73702 -0.97677,-2.78557 -3.04543,-2.99106 -0.11496,-0.0107 -0.23883,-0.0139 -0.36515,-0.0155 z m -2.29184,5.92772 c 0.58222,0.0162 0.97146,0.63649 0.20976,1.13427 -0.67558,0.39361 -2.19971,1.2832 -3.00659,1.38287 -0.7388,0.0444 -0.74121,-0.58111 -0.38068,-0.85458 0.45497,-0.46549 1.83467,-1.04408 2.75799,-1.56934 0.14352,-0.0697 0.28516,-0.0969 0.41952,-0.0932 z"
         style="fill:#da0b1e;fill-opacity:0.99607843;stroke:none;stroke-width:0.26458332" />
      <path
         sodipodi:nodetypes="ccccccc"
         inkscape:connector-curvature="0"
         id="path3785"
         d="m 951.61066,584.66783 c -0.38966,0.81749 -0.87509,1.48697 -2.39953,0.55071 -0.87852,-0.65561 -0.55332,-1.31122 -0.31469,-1.96683 1.88136,-4.08918 3.45027,-7.94402 5.7038,-12.31233 0.84676,-1.68016 1.57523,-1.42811 2.12417,-1.1801 1.07321,0.67308 0.8744,1.86282 0.55071,2.91091 -1.77783,4.10953 -2.5216,5.36424 -5.66446,11.99764 z"
         style="fill:#da0b1e;fill-opacity:0.99607843;stroke:none;stroke-width:0.26458332" />
      <path
         sodipodi:nodetypes="scccccccccssccccs"
         inkscape:connector-curvature="0"
         id="path3787"
         d="m 966.7333,572.4207 c -0.22923,0.009 -0.47074,0.0977 -0.71475,0.29522 -1.07239,1.13863 -0.89816,2.81257 -3.26296,3.3795 -2.54094,0.72023 -7.3208,1.2464 -8.69348,5.93548 -0.22467,1.02454 -0.31267,3.52849 1.88786,3.73688 1.30251,-0.10583 1.06511,0.12002 3.58364,-1.63097 0.22862,-0.1461 0.57505,-0.23998 0.8002,-0.11653 0.60576,0.35162 0.37403,2.11297 2.4325,1.91065 0.99999,-0.13565 1.54195,-1.75576 1.9398,-2.87452 1.28372,-3.87388 4.28311,-7.25803 3.39452,-9.47814 -0.11439,-0.50692 -0.67964,-1.18376 -1.36733,-1.15757 z m -4.74684,6.22294 c 0.67106,0.0132 0.94457,0.77731 0.34183,1.27411 -0.85279,0.69305 -3.1858,1.83469 -4.62253,2.11315 -0.95451,0.0433 -0.8655,-0.83409 -0.53606,-1.16534 0.80997,-0.71104 2.99616,-1.74844 4.506,-2.18308 0.11063,-0.0319 0.21489,-0.0407 0.31076,-0.0388 z"
         style="fill:#da0b1e;fill-opacity:0.99607843;stroke:none;stroke-width:0.26458332" />
      <path
         sodipodi:nodetypes="ccccccc"
         inkscape:connector-curvature="0"
         id="path3792"
         d="m 973.30323,574.37276 c 1.03072,-0.69988 1.72057,-1.38181 2.01845,-2.42215 1.24893,-3.00364 -3.80613,-2.25549 -4.514,-0.0367 -0.10636,0.41295 -0.0195,0.80478 0.40986,1.15228 0.25898,0.15354 0.27457,0.21324 0.34378,0.49048 l 0.0537,0.77938 c 0.21795,0.80187 0.79775,0.5549 1.68816,0.0367 z"
         style="fill:#da0b1e;fill-opacity:0.99607843;stroke:none;stroke-width:0.26458332" />
      <path
         sodipodi:nodetypes="cscsccccccccccccc"
         inkscape:connector-curvature="0"
         id="path3794"
         d="m 976.72086,580.41193 c 0.3276,0.19106 0.81356,0.6571 0.90873,1.30993 0.0622,0.42694 -0.0427,0.91554 -0.46834,1.38758 -0.87288,0.96753 -3.45932,2.05881 -5.02845,2.21561 -2.89559,0.28935 -4.48788,-0.345 -5.28162,-1.03627 -0.79705,-0.63572 -0.38521,-1.79662 0.50678,-1.989 0.40252,-0.19636 3.7453,0.1564 5.65167,0 0.36126,-0.0777 0.51396,-0.24244 0.58719,-0.44039 0.093,-0.30276 -0.16332,-0.58245 -0.44031,-0.70575 -0.77829,-0.53961 -3.49622,-0.71292 -2.99101,-2.61555 0.41087,-1.20306 2.66001,-2.49373 4.19302,-3.0367 2.16241,-0.76237 3.85941,-0.87214 5.11016,-0.68824 1.16221,0.32414 1.0712,1.19715 0.84409,2.01845 -1.3677,3.3526 -3.20059,2.56804 -3.52312,2.16525 -0.59584,-0.51909 -0.28775,-1.81614 -1.68817,-1.28447 -0.40769,0.22076 -1.02481,0.84045 -0.36699,1.35787 z"
         style="fill:#da0b1e;fill-opacity:0.99607843;stroke:none;stroke-width:0.26458332" />
      <path
         inkscape:connector-curvature="0"
         id="path3821"
         d="m 982.7529,573.53166 c -0.43011,0.0103 -0.78724,0.15588 -1.07211,0.43506 -0.28488,0.27918 -0.43209,0.63264 -0.44284,1.05658 0.0108,0.42795 0.15796,0.78212 0.44284,1.06435 0.28487,0.28222 0.642,0.43233 1.07211,0.44283 0.42811,-0.0105 0.781,-0.16061 1.06435,-0.44283 0.28335,-0.28223 0.43217,-0.6364 0.44283,-1.06435 -0.0106,-0.42394 -0.15948,-0.7774 -0.44283,-1.05658 -0.28335,-0.27918 -0.63624,-0.42472 -1.06435,-0.43506 z m 0,0.28745 c 0.34323,0.009 0.62774,0.12204 0.85459,0.3496 0.22684,0.22757 0.3411,0.51305 0.3496,0.85459 -0.008,0.34531 -0.12276,0.63247 -0.3496,0.86235 -0.22685,0.22989 -0.51136,0.35456 -0.85459,0.36515 -0.34859,-0.0106 -0.63543,-0.13526 -0.86235,-0.36515 -0.22692,-0.22988 -0.34928,-0.51704 -0.35737,-0.86235 0.008,-0.34154 0.13045,-0.62702 0.35737,-0.85459 0.22692,-0.22756 0.51376,-0.34086 0.86235,-0.3496 z"
         style="font-style:normal;font-variant:normal;font-weight:bold;font-stretch:normal;font-size:40px;line-height:125%;font-family:'Futura Std Condensed';-inkscape-font-specification:'Futura Std Condensed';text-align:center;letter-spacing:-1.73000002px;word-spacing:0px;text-anchor:middle;fill:#da0b1e;fill-opacity:0.99607843;stroke:none;stroke-width:0.26458332" />
      <path
         inkscape:connector-curvature="0"
         id="path3817"
         d="m 982.13138,574.20756 v 1.63148 h 0.31853 v -0.69144 h 0.31853 l 0.35737,0.69144 h 0.37291 l -0.39621,-0.69144 c 0.14483,-0.008 0.25799,-0.0478 0.33406,-0.11653 0.0761,-0.0688 0.11597,-0.17184 0.11653,-0.31853 10e-4,-0.0857 -0.0101,-0.16717 -0.0388,-0.24084 -0.0287,-0.0737 -0.0834,-0.13732 -0.15538,-0.18645 -0.0637,-0.037 -0.13753,-0.0608 -0.21753,-0.0699 -0.08,-0.009 -0.15396,-0.009 -0.2253,-0.008 h -0.78467 z m 0.31853,0.24084 h 0.39622 c 0.0852,-0.004 0.16484,10e-4 0.24861,0.0233 0.0838,0.022 0.1335,0.0851 0.13984,0.18646 -0.002,0.1014 -0.0296,0.16841 -0.0855,0.20199 -0.0559,0.0336 -0.13336,0.051 -0.2253,0.0466 h -0.47391 v -0.45836 z"
         style="font-style:normal;font-variant:normal;font-weight:bold;font-stretch:normal;font-size:40px;line-height:125%;font-family:'Futura Std Condensed';-inkscape-font-specification:'Futura Std Condensed';text-align:center;letter-spacing:-1.73000002px;word-spacing:0px;text-anchor:middle;fill:#da0b1e;fill-opacity:0.99607843;stroke:none;stroke-width:0.26458332" />
    </g>
  </g>
</svg>
