<?xml version="1.0" encoding="utf-8"?>
<!-- Generator: Adobe Illustrator 27.4.1, SVG Export Plug-In . SVG Version: 6.00 Build 0)  -->
<svg version="1.1" id="Layer_1" xmlns="http://www.w3.org/2000/svg" xmlns:xlink="http://www.w3.org/1999/xlink" x="0px" y="0px"
	 viewBox="0 0 714.9 125.2" style="enable-background:new 0 0 714.9 125.2;" xml:space="preserve">
<style type="text/css">
	.st0{fill:#E5001E;}
	.st1{fill:#FFFFFF;}
	.st2{fill-rule:evenodd;clip-rule:evenodd;fill:#E5001E;}
</style>
<path d="M178.4,111.2c-9.4-0.2-18.7-2.7-26.9-7.4l9.5-17c13.4,7.4,24,5,26.7,2.1c2.2-2.5,3.2-5.8,2.7-9.1c-0.5-2.8-2.3-4.9-5.4-6.5
	l-0.4-0.2l-15.2-8.6c-6.9-3.7-11.8-10.3-13.3-18c-1.6-8.2,0.4-16.7,5.5-23.4c8.9-11.3,29.7-15,46.6-2.6l-11.6,15.7
	c-9-6.6-17.9-3.4-19.7-1c-1.6,2.1-2.2,4.8-1.7,7.4c0.4,2.1,1.8,3.9,3.7,4.8L194,56c8.5,4.4,14,11.6,15.6,20.3
	c1.6,9.3-1.2,18.8-7.5,25.8C196.5,108.2,188,111.2,178.4,111.2z"/>
<path d="M427.3,111.2c-9.4-0.2-18.7-2.7-26.9-7.4l9.5-17c13.4,7.4,24,5,26.7,2.1c2.2-2.5,3.2-5.8,2.7-9.1c-0.5-2.8-2.3-4.9-5.4-6.5
	l-0.4-0.2l-15.3-8.6c-6.9-3.7-11.8-10.3-13.3-18c-1.6-8.2,0.4-16.7,5.5-23.4c8.9-11.3,29.7-15,46.6-2.6l-11.5,15.7
	c-9-6.6-17.9-3.4-19.7-1c-1.6,2.1-2.2,4.8-1.7,7.4c0.4,2.1,1.8,3.9,3.7,4.8l15.1,8.4c8.5,4.4,14,11.6,15.6,20.3
	c1.6,9.3-1.2,18.8-7.5,25.8C445.4,108.2,436.9,111.2,427.3,111.2z"/>
<path d="M270.7,110h19.8L259,13.9h-19.7L207.8,110h19.8l6.3-19.5h30.5L270.7,110z M239,74.6l10.1-31.3l10.1,31.3H239z"/>
<polygon points="384.8,13.9 376.8,13.9 364,13.9 345.1,72.6 326.2,13.9 313.4,13.9 305.4,13.9 294.7,13.9 294.7,109.9 313.4,109.9 
	313.4,44.1 314.9,48.3 336.4,109.7 338.7,109.7 351.5,109.7 353.8,109.7 375.3,48.3 376.8,44.1 376.8,109.9 395.5,109.9 395.5,13.9 
	"/>
<path d="M511.4,13.9v66.3c0,7-6.5,12.5-13.6,12.5s-13.6-5.6-13.6-12.5V13.9H464v65c0,22.2,14.9,32.6,33.7,32.6
	c18.8,0,33.8-10.3,33.8-32.6v-65L511.4,13.9z"/>
<polygon points="542.1,109.9 542.1,13.9 562.8,13.9 593.9,73.7 593.9,13.9 613.5,13.9 613.5,109.9 590.6,109.9 560.7,52 
	560.7,109.9 "/>
<path d="M714.1,53.3H667v17.1h27.1C689.4,85.9,673,94.7,657.4,90c-15.5-4.7-24.3-21.1-19.6-36.7c4.7-15.5,21.1-24.3,36.7-19.6
	c6.1,1.8,11.4,5.6,15.1,10.7l15.7-11.6c-16.1-21.8-46.9-26.5-68.7-10.4s-26.5,46.9-10.4,68.7c16.1,21.8,46.9,26.5,68.7,10.4
	C710,90.4,717.4,71.7,714.1,53.3L714.1,53.3z"/>
<g>
	<rect x="0.1" y="0.5" class="st0" width="125.2" height="125.2"/>
	<ellipse class="st1" cx="62.8" cy="63.1" rx="60" ry="58.1"/>
	<path class="st0" d="M62.8,117C32,117,7.1,92.9,7.1,63.1S32,9.2,62.8,9.2s55.7,24.2,55.7,53.9S93.5,117,62.8,117z M62.8,11.3
		c-29.6,0-53.6,23.2-53.6,51.9S33.2,115,62.8,115s53.6-23.3,53.6-51.8S92.3,11.3,62.8,11.3z"/>
	<path class="st0" d="M55.1,63.3c-9.7-1.7-16.8-10.2-18.9-22.8c-0.1-0.2-0.2-0.3-0.4-0.2c-0.1,0-0.2,0.1-0.2,0.2
		c-2.2,12.5-9.2,21-18.9,22.8c-0.1,0-0.3,0.1-0.3,0.3c0,0.1,0.1,0.3,0.3,0.3c9.7,1.7,16.7,10.2,18.9,22.7c0,0.1,0.2,0.3,0.3,0.3
		c0.2,0,0.3-0.1,0.3-0.3c2.2-12.5,9.2-21,18.9-22.7c0.1,0,0.2-0.2,0.2-0.3C55.4,63.4,55.3,63.3,55.1,63.3z"/>
	<path class="st0" d="M108.8,63.3c-9.7-1.7-16.8-10.2-18.9-22.8c-0.1-0.2-0.2-0.3-0.4-0.2c-0.1,0-0.2,0.1-0.2,0.2
		c-2.2,12.5-9.2,21-18.9,22.8c-0.1,0-0.3,0.1-0.3,0.3c0,0.1,0.1,0.3,0.3,0.3c9.7,1.7,16.8,10.2,18.9,22.7c0,0.1,0.2,0.3,0.3,0.3
		c0.2,0,0.3-0.1,0.3-0.3c2.2-12.5,9.2-21,18.9-22.7c0.1,0,0.2-0.2,0.2-0.3C109.1,63.4,109,63.3,108.8,63.3
		C108.8,63.3,108.8,63.3,108.8,63.3z"/>
	<path class="st0" d="M82,36.1c-9.7-1.7-16.8-10.2-18.9-22.8c-0.1-0.2-0.2-0.3-0.4-0.2c-0.1,0-0.2,0.1-0.2,0.2
		c-2.2,12.5-9.2,21-18.9,22.8c-0.1,0-0.3,0.1-0.3,0.3c0,0.1,0.1,0.3,0.3,0.3c9.7,1.7,16.8,10.2,18.9,22.8c0,0.1,0.2,0.3,0.3,0.3
		c0.2,0,0.3-0.1,0.3-0.3c2.2-12.5,9.2-21,18.9-22.7c0.1,0,0.2-0.2,0.2-0.3C82.2,36.3,82.1,36.2,82,36.1z"/>
	<g>
		<path id="path4178" class="st2" d="M45.8,84.8c0,0-0.9,3.9-5.2,3.9v2.9c5.1,0,7.1-1.9,7.1-1.9s1.7,1.9,7,1.9v-2.9
			c-4.6,0-5.1-3.9-5.1-3.9L45.8,84.8z M56.5,84.8v7.5h-14v4.4c0,2.2,1.4,2.6,3.7,2.6h14.3v-11h3.7l0.4-2.9h-4.1v-0.5H56.5z
			 M46.5,95.2h10v1.2h-10V95.2z"/>
		<path id="path4288" class="st2" d="M69.3,84.8c0,0-0.3,4.5-4.9,4.5v2.6c4.8,0,6.7-2.5,6.7-2.5s1.5,2.3,6.8,2.3V89
			c-4.1,0-4.7-4.1-4.7-4.1L69.3,84.8z M80.4,84.8v0.5h-3.9l0.5,2.8h3.4v4c-1.4-0.3-3.1-0.4-5.2-0.4c-7.1,0-9.7,1.8-9.7,4.1
			c0,2.2,2.6,4.1,9.7,4.1s9.7-1.8,9.7-4.1v-11H80.4z M75.2,94.9c3.8,0,5.2,0.4,5.2,0.9c0,0.5-1.4,0.9-5.2,0.9
			c-3.8,0-5.2-0.4-5.2-0.9C70,95.3,71.4,94.9,75.2,94.9z"/>
	</g>
</g>
</svg>
