<!--Created with Inkscape (http://www.inkscape.org/)-->
<svg xmlns="http://www.w3.org/2000/svg" width="1043" height="200">
  <path d="M87.57 113.02c-2.54 8.83-6.3 15.48-11.28 19.96-4.96 4.49-11.08 6.72-18.35 6.72-6.7 0-10.98-2.08-12.88-6.23-1.12-2.57-1.68-9.05-1.68-19.46l1.16-89.85 7-.4c26.56 0 39.84 18.82 39.84 56.44 0 13.04-1.27 23.98-3.81 32.82m34.62-54.5c-1.6-6.66-3.92-12.75-6.97-18.3s-6.69-10.26-10.9-14.15A48.39 48.39 0 0 0 85.8 15.24c-6.96-2.2-15.44-3.32-25.46-3.32a2542.4 2542.4 0 0 0-29.88.55c-8.89 0-19.03-.31-30.41-.94v9.75c4.04 0 6.97.56 8.82 1.68s3.04 2.93 3.6 5.44c.57 2.5.85 6.48.85 11.96v81.55c0 5.41-.22 9.32-.67 11.72a8.08 8.08 0 0 1-3.47 5.48C7.3 140.37 4.26 141 .04 141v9.72c8.66-.66 16.14-.99 22.44-.99 7.64.14 18.8.47 33.5 1 6.21 0 11.73-.31 16.54-.94a61.8 61.8 0 0 0 12.83-2.97 47.07 47.07 0 0 0 10.63-5.39c6.04-4.22 11.2-9.48 15.46-15.78s7.52-13.37 9.77-21.22a89.42 89.42 0 0 0 3.39-24.83 90 90 0 0 0-2.4-21.07m44.1 78.03c-1.97 0-3.57-1.16-4.8-3.5a16.98 16.98 0 0 1-1.84-8.07c0-10.83 5.78-17.66 17.34-20.5v27.33c-4.2 3.16-7.76 4.74-10.7 4.74m45.4-.49c-2.07 1.51-3.58 2.28-4.54 2.28s-1.59-.46-1.9-1.4c-.33-.9-.5-2.62-.5-5.13V92.54c0-7.25-.73-13.65-2.18-19.2a26.4 26.4 0 0 0-8.27-13.6c-4.05-3.52-9.73-5.29-17.01-5.29-1.44 0-3.45.27-6.05.8l-24 12.75a20.68 20.68 0 0 0-8.15 8.16 22.45 22.45 0 0 0-3.15 11.33c0 4.6 1.27 6.91 3.8 6.91 3.13 0 7.35-1.9 12.65-5.74 2.32-1.58 3.77-2.88 4.34-3.9.56-1.02 1.15-3.35 1.75-6.98 1.13-6.93 4.4-10.39 9.84-10.39 5.78 0 8.67 4 8.67 11.98v15.65l-25.65 10.5c-6.32 2.78-11.1 5.98-14.34 9.62s-4.87 8.87-4.87 15.74c0 4.04.73 7.83 2.18 11.4a20.3 20.3 0 0 0 6.1 8.46 13.77 13.77 0 0 0 8.82 3.12c3.91 0 7.98-.99 12.23-2.98s9.42-5.28 15.53-9.86c1.43 4.12 3.48 7.29 6.17 9.52a14.2 14.2 0 0 0 9.29 3.32c3.78 0 7.38-.81 10.78-2.43s7.5-4.48 12.3-8.6zM260.87 23.9c0 4.56-1.36 8.4-4.09 11.55-2.73 3.13-6.04 4.7-9.95 4.7-3.96 0-7.33-1.57-10.08-4.7-2.76-3.14-4.14-6.99-4.14-11.55a16.9 16.9 0 0 1 4.14-11.44c2.75-3.2 6.12-4.81 10.08-4.81 3.9 0 7.22 1.6 9.95 4.8s4.1 7.02 4.1 11.45m9.43 126.95h-3.11l-26.05-.8c-4.03 0-9.91.27-17.61.8v-8.9h2.3c3.68 0 5.89-1.22 6.6-3.67.47-1.32.71-6.4.71-15.24V92.06c0-7.12-.05-11.56-.13-13.31-.1-1.75-.4-3.18-.94-4.31-.77-1.65-2.91-2.47-6.41-2.47h-1.6v-9.11c9.24-1.58 20.53-5.57 33.87-11.97l4 3.46c-.47 4.3-.8 8.92-.98 13.9s-.27 11.05-.27 18.17v36.62c0 8.57.24 13.65.72 15.24.88 2.45 3.14 3.66 6.76 3.66h2.14zm57.09-.3h-2.49l-22.02-.8-19.98.6-2.76.2v-8.9h2.32c3.68 0 5.88-1.22 6.6-3.66.46-1.32.7-6.39.7-15.23v-81c0-7.64-.04-12.35-.14-14.14a10.7 10.7 0 0 0-.93-4.24c-.77-1.79-2.79-2.67-6.05-2.67h-1.97l-.53-8.91c9.05-1.12 20.62-5.17 34.7-12.16l4 3.47c-.72 7.7-1.07 18.52-1.07 32.42v87.23c0 6.06.03 9.9.09 11.52.06 1.62.26 2.85.62 3.7.71 2.45 2.91 3.67 6.6 3.67h2.3zm89.48-84.49c-1.82.07-3.44.83-4.85 2.28s-2.6 3.22-3.54 5.3a49.53 49.53 0 0 0-2.38 6.28c-.66 2.1-1.27 4.13-1.86 6.03l-28.72 85.12c-7.09 18.47-15.7 27.7-25.88 27.7-3.62 0-6.61-1.26-8.96-3.77-2.35-2.52-3.53-5.66-3.53-9.44s1.16-6.92 3.47-9.44c2.3-2.52 5.2-3.78 8.69-3.78l4.97.2c5.44 0 9.9-4.26 13.4-12.75l-28.66-80.2c-1.49-4.47-2.74-7.72-3.77-9.73-1.04-2-2.83-3.27-5.37-3.8v-9.1c2.54.12 5.7.24 9.45.36 3.76.13 7.35.19 10.78.19 8.28 0 16.33-.19 24.13-.55v9.11a8.2 8.2 0 0 0-3.5 1.1c-.8.52-1.38 1.28-1.73 2.27s-.53 2.25-.53 3.77c0 1.71.65 4.83 1.95 9.3l11.5 42.02 11.23-43.5c1.2-4.49 1.8-7.72 1.8-9.7 0-3.5-2.03-5.26-6.1-5.26v-9.11c3.01.36 6.87.55 11.58.55 7.36 0 12.84-.19 16.43-.55zm119.59-44.88h-1.6c-4.81 0-7.96 1.23-9.45 3.71-1.48 2.49-2.22 7.62-2.22 15.4v73.21c0 7.86-.13 13.08-.36 15.65-.24 2.58-.8 5.56-1.69 8.92-2.13 8.4-6.1 17.13-11.9 26.25a91.66 91.66 0 0 1-20.3 22.84c-7.73 6.1-15.25 9.15-22.53 9.15-3.85 0-7.27-.76-10.26-2.28-2.99-1.52-4.49-3.28-4.49-5.27 0-1.32.9-3.73 2.67-7.2a49.62 49.62 0 0 1 6.18-9.4c2.35-2.79 4.26-4.18 5.74-4.18 1.3 0 2.48.34 3.52 1.04 1.04.69 2.47 1.83 4.3 3.41s3.23 2.66 4.18 3.22 2.11.84 3.48.84c4.68 0 7.66-2.4 8.93-7.23 1.27-4.81 2.06-11.11 2.36-18.9.12-3.89.18-9.5.18-16.83V40.29c0-5.42-.27-9.4-.8-11.93-.54-2.54-1.73-4.38-3.57-5.5-1.84-1.13-4.84-1.68-9-1.68V11.8c5.87.37 14.08.55 24.63.55l25.69-.27 6.3-.28zm56.59 108.76c-.9 4.95-2.21 8.48-3.94 10.59a8.33 8.33 0 0 1-6.79 3.17c-5.42 0-9.48-4-12.16-11.97-2.68-7.99-4.03-19.27-4.03-33.85 0-11.08 1.06-19.53 3.18-25.34 2.11-5.8 5.4-8.7 9.88-8.7 3.88 0 6.93 2.2 9.17 6.63 2.23 4.42 3.8 10.1 4.69 17.07.89 6.96 1.34 14.54 1.34 22.7 0 8.2-.45 14.76-1.34 19.7m24.4-50.9c-3.61-7.65-8.62-13.7-15-18.15a36.74 36.74 0 0 0-21.51-6.7c-8.2 0-15.6 2.25-22.22 6.75s-11.84 10.55-15.62 18.22a54.8 54.8 0 0 0-5.72 24.74c0 8.99 1.83 17.3 5.48 24.95 3.66 7.66 8.75 13.7 15.29 18.12a38.14 38.14 0 0 0 21.9 6.64 38.2 38.2 0 0 0 17.24-3.9 41.92 41.92 0 0 0 13.57-10.7 49.8 49.8 0 0 0 8.86-15.8 57.8 57.8 0 0 0 3.17-19.3c0-8.92-1.81-17.2-5.43-24.86m102.75 67.08a97.8 97.8 0 0 0-11.49 1.73c-4.36.9-8.53 1.93-12.52 3.12s-7.9 2.47-11.75 3.85l-3.3-4.47 1.97-7.97c-10.22 7.38-19.64 11.07-28.25 11.07-5.65 0-9.88-1.32-12.7-3.96-2.82-2.63-4.63-6.14-5.44-10.48-.8-4.36-1.2-9.83-1.2-16.43V84.1c0-8.64-.24-13.55-.71-14.74-.78-2.17-2.96-3.26-6.6-3.26h-1.68V57c5.5 0 10.04-.07 13.63-.2 3.58-.13 7.5-.42 11.76-.84 4.26-.43 8.05-.98 11.36-1.64v68c0 5.8.53 9.79 1.57 11.96 1.05 2.18 2.98 3.27 5.8 3.27 3.57 0 7.73-2.05 12.46-6.14V84.07c0-8.63-.24-13.54-.71-14.73-.66-2.17-2.94-3.26-6.82-3.26h-1.45v-9.09c13.04 0 25.37-.9 36.98-2.67v65.3c0 8.5.24 13.42.72 14.74.65 2.18 2.9 3.26 6.77 3.26h1.6zm79.99-83.01c0 4.39-.92 8.92-2.76 13.6s-4.47 7.03-7.86 7.03c-1.37 0-2.84-.39-4.42-1.15l-4.69-2.24c-1.55-.74-3-1.1-4.37-1.1-6.07 0-9.1 8.42-9.1 25.24v17.94c0 8.75.24 13.95.72 15.58.82 2.44 3.05 3.64 6.67 3.64h2.4v9.28l-3.1-.2-24.07-.4c-6.83 0-13.33.2-19.5.6v-9.28h2.31c3.74 0 5.94-1.2 6.6-3.64.47-1.38.7-6.57.7-15.58 0-3.09 0-8.43-.04-16.02-.04-7.6-.11-14.17-.27-19.72-.15-5.55-.28-8.5-.4-8.83-.71-2.33-2.9-3.48-6.59-3.48h-2.31V65.2a162.8 162.8 0 0 0 23.03-7.11c4-1.56 7.7-3.14 11.1-4.73.4 3.38.69 6.77.84 10.15s.33 7.6.58 12.65c5.88-14.41 13.38-21.61 22.48-21.61 3.75 0 6.7.76 8.83 2.3a7.26 7.26 0 0 1 3.22 6.26m97.73 87.44-3.8-.2-19.69-.4c-8.58 0-15.61.2-21.06.6v-8.91c1.92-.2 3.28-.52 4.09-1 .81-.45 1.46-1.34 1.94-2.66.54-1.71.8-6.8.8-15.24V85.93c0-6.2-.52-10.51-1.57-12.96s-2.86-3.67-5.44-3.67c-3.6 0-7.7 1.76-12.32 5.25v48.19c0 8.59.24 13.66.72 15.24a4.97 4.97 0 0 0 2.07 2.67c.9.53 2.34.86 4.32.99v8.9a232.7 232.7 0 0 0-16.43-.39c-12.32 0-21.51.13-27.59.4v-8.9c2.14 0 3.88-.2 5.21-.6 1.34-.4 2.33-1.41 2.99-3.07.47-1.78.71-6.86.71-15.23V91.77c0-9.89-.42-15.75-1.24-17.6-.78-1.66-2.98-2.48-6.6-2.48h-1.42v-9.1c9.74-1.65 21.24-5.64 34.5-11.97l4.02 3.55-1.26 10.1c.42-.2 2.65-1.47 6.73-3.8 4.06-2.35 7.36-4.03 9.92-5.05s5.19-1.53 7.91-1.53c6.41 0 11.28 1.4 14.6 4.2 3.32 2.8 5.5 6.58 6.58 11.33s1.6 10.85 1.6 18.3v35.03c0 6.06.03 9.9.1 11.52.05 1.62.26 2.85.61 3.7.72 2.46 2.9 3.68 6.6 3.68h2.4zm40.55-13.99c-1.98 0-3.58-1.16-4.81-3.5a16.98 16.98 0 0 1-1.84-8.07c0-10.83 5.77-17.66 17.34-20.5v27.33c-4.2 3.16-7.76 4.74-10.7 4.74m45.4-.49c-2.07 1.51-3.58 2.28-4.54 2.28s-1.59-.46-1.9-1.4c-.34-.9-.5-2.62-.5-5.13V92.54c0-7.25-.73-13.65-2.18-19.2a26.4 26.4 0 0 0-8.27-13.6c-4.06-3.52-9.73-5.29-17.01-5.29-1.44 0-3.45.27-6.06.8l-24 12.75c-3.32 1.79-6.03 4.5-8.14 8.16s-3.15 7.43-3.15 11.33c0 4.6 1.27 6.91 3.8 6.91 3.13 0 7.35-1.9 12.65-5.74 2.32-1.58 3.77-2.88 4.34-3.9.56-1.02 1.15-3.35 1.75-6.98 1.13-6.93 4.4-10.39 9.83-10.39 5.79 0 8.68 4 8.68 11.98v15.65l-25.66 10.5c-6.31 2.78-11.1 5.98-14.33 9.62-3.25 3.63-4.87 8.87-4.87 15.74 0 4.04.73 7.83 2.18 11.4a20.28 20.28 0 0 0 6.1 8.46 13.8 13.8 0 0 0 8.8 3.12c3.93 0 8-.99 12.25-2.98s9.42-5.28 15.53-9.86c1.43 4.12 3.48 7.29 6.17 9.52a14.18 14.18 0 0 0 9.29 3.32c3.78 0 7.37-.81 10.78-2.43s7.5-4.48 12.3-8.6zm59.11 14.48h-2.49l-22.02-.8-19.99.6-2.75.2v-8.9h2.32c3.68 0 5.88-1.22 6.6-3.66.46-1.32.7-6.39.7-15.23v-81c0-7.64-.04-12.35-.14-14.14a10.7 10.7 0 0 0-.93-4.24c-.78-1.79-2.79-2.67-6.06-2.67h-1.96l-.53-8.91c9.05-1.12 20.62-5.17 34.7-12.16l4 3.47c-.72 7.7-1.08 18.52-1.08 32.42v87.23c0 6.06.03 9.9.1 11.52.05 1.62.26 2.85.62 3.7.71 2.45 2.91 3.67 6.59 3.67h2.32zm-469.66 40.47-1.17 6.75a30.52 30.52 0 0 1-4.72 1.65c-1.37.32-2.79.49-4.24.49-1.82 0-3.48-.28-5-.86s-2.82-1.42-3.89-2.5a11.12 11.12 0 0 1-2.48-3.95 14.47 14.47 0 0 1-.88-5.08c0-1.92.3-3.68.9-5.3.59-1.63 1.45-3 2.57-4.16a11.34 11.34 0 0 1 4.03-2.64c1.56-.6 3.28-.91 5.13-.91a23.33 23.33 0 0 1 4.4.44c.76.14 1.46.3 2.09.44.63.16 1.44.34 2.45.57l.34 6.6-1.93.28c-.19-1.35-.53-2.48-1.04-3.43s-1.19-1.65-2.02-2.15a5.7 5.7 0 0 0-2.9-.72c-1.6 0-2.95.41-4.07 1.2-1.1.81-1.95 2-2.53 3.57a16.3 16.3 0 0 0-.88 5.7c0 2.26.28 4.2.85 5.78.57 1.59 1.4 2.8 2.5 3.6s2.42 1.23 3.98 1.23c1.17 0 2.2-.26 3.1-.77a6.06 6.06 0 0 0 2.24-2.28c.58-1 1-2.22 1.25-3.68zm42.83 4.42a5.03 5.03 0 0 1-4.58 2.71c-1.26 0-2.3-.33-3.12-.99-.83-.66-1.46-1.53-1.9-2.6s-.74-2.19-.9-3.36a25.83 25.83 0 0 1 .18-8.06c.29-1.36.69-2.49 1.2-3.4s1.19-1.61 1.97-2.08 1.67-.7 2.67-.7c1.3 0 2.34.33 3.17 1.02a6.4 6.4 0 0 1 1.84 2.66c.43 1.09.7 2.2.85 3.37s.21 2.35.21 3.58c0 3.41-.53 6.03-1.59 7.85m7.55-13.12a11.68 11.68 0 0 0-6.74-6.58 14.68 14.68 0 0 0-5.12-.89c-2.58 0-4.89.53-6.91 1.58a11.49 11.49 0 0 0-4.71 4.5 13.1 13.1 0 0 0-1.68 6.66c0 2.48.5 4.68 1.52 6.59a10.85 10.85 0 0 0 4.4 4.47 13.4 13.4 0 0 0 6.65 1.6c2.61 0 4.94-.54 7-1.62a11.63 11.63 0 0 0 4.8-4.56 13.1 13.1 0 0 0 1.72-6.72c0-1.81-.31-3.5-.93-5.03m38.23 2.08a3.51 3.51 0 0 1-1.8 1.68c-.83.36-1.9.54-3.2.55v-9.5l.84-.04c3.15 0 4.73 1.43 4.73 4.3a6.7 6.7 0 0 1-.57 3m10.43 13.2c-.6-.13-1.1-.37-1.47-.72s-.97-1.16-1.8-2.4l-4.88-7.37a7.31 7.31 0 0 0 3.56-2.36 5.89 5.89 0 0 0 1.26-3.7c0-1.6-.41-2.84-1.25-3.72a6.26 6.26 0 0 0-3.15-1.8 18.1 18.1 0 0 0-4.33-.46l-3.35.07c-.84.03-1.77.04-2.77.06-.88 0-1.58 0-2.1-.02l-1.75-.03c-.66-.02-1.4-.05-2.23-.1v1.68c.82 0 1.42.1 1.79.29.37.2.62.52.73.95.11.44.17 1.14.17 2.1v14.2c0 .93-.04 1.62-.14 2.04a1.4 1.4 0 0 1-.7.96c-.38.22-1 .32-1.85.32v1.64h11.53v-1.64c-.85 0-1.47-.1-1.84-.33s-.61-.56-.72-1.01a9.9 9.9 0 0 1-.15-1.98v-5.88h1.47l4.94 8.2c.5.85.94 1.45 1.33 1.8.4.34.94.58 1.6.69s1.66.15 3.03.15h3.07zm43.51-15.4c0 1.7-.43 3.13-1.3 4.27a7.31 7.31 0 0 1-3.43 2.49 13.9 13.9 0 0 1-4.78.78l-.7-.05V188c1.26-.09 2.2-.56 2.78-1.4.59-.87.88-2.17.88-3.92 0-3.6-1.42-5.39-4.26-5.39l-.83.04v17.27c0 .98.06 1.7.19 2.14.12.43.38.75.8.92.41.17 1.08.26 2 .26v1.7h-.78l-5.76-.13a98 98 0 0 0-5.27.14v-1.71c.85 0 1.47-.11 1.86-.33s.6-.53.7-.95c.09-.42.14-1.1.14-2.04v-14.16c0-.95-.06-1.64-.18-2.09a1.43 1.43 0 0 0-.72-.94c-.39-.2-.98-.3-1.8-.3v-1.66c1.7.1 3.65.16 5.83.16l2.46-.1 2.89-.04c2.66 0 4.86.5 6.63 1.54s2.65 2.76 2.65 5.18m40.99 13.25a5.03 5.03 0 0 1-4.58 2.71 4.8 4.8 0 0 1-3.12-.99c-.84-.66-1.47-1.53-1.9-2.6s-.74-2.19-.9-3.36a25.83 25.83 0 0 1 .18-8.06c.28-1.36.68-2.49 1.2-3.4s1.18-1.61 1.97-2.08 1.66-.7 2.66-.7c1.3 0 2.35.33 3.17 1.02a6.4 6.4 0 0 1 1.85 2.66c.42 1.09.7 2.2.84 3.37s.22 2.35.22 3.58c0 3.41-.53 6.03-1.6 7.85m7.55-13.12a11.68 11.68 0 0 0-6.74-6.58 14.64 14.64 0 0 0-5.12-.89c-2.58 0-4.89.53-6.9 1.58a11.49 11.49 0 0 0-4.72 4.5 13.1 13.1 0 0 0-1.67 6.66c0 2.48.5 4.68 1.52 6.59a10.81 10.81 0 0 0 4.4 4.47c1.9 1.07 4.13 1.6 6.64 1.6 2.61 0 4.95-.54 7.01-1.62a11.63 11.63 0 0 0 4.8-4.56 13.1 13.1 0 0 0 1.72-6.72c0-1.81-.32-3.5-.94-5.03m38.23 2.08a3.51 3.51 0 0 1-1.8 1.68c-.83.36-1.9.54-3.2.55v-9.5l.84-.04c3.15 0 4.73 1.43 4.73 4.3a6.7 6.7 0 0 1-.57 3m10.43 13.2c-.6-.13-1.09-.37-1.46-.72s-.97-1.16-1.8-2.4l-4.88-7.37a7.31 7.31 0 0 0 3.56-2.36 5.83 5.83 0 0 0 1.25-3.7c0-1.6-.4-2.84-1.24-3.72a6.26 6.26 0 0 0-3.16-1.8 18.1 18.1 0 0 0-4.33-.46l-3.33.07c-.86.03-1.79.04-2.79.06-.87 0-1.58 0-2.09-.02l-1.76-.03a75 75 0 0 1-2.22-.1v1.68c.81 0 1.4.1 1.78.29.37.2.62.52.74.95.1.44.16 1.14.16 2.1v14.2c0 .93-.03 1.62-.13 2.04-.1.42-.33.74-.7.96-.38.22-1 .32-1.85.32v1.64h11.53v-1.64c-.86 0-1.48-.1-1.85-.33s-.6-.56-.72-1.01a9.9 9.9 0 0 1-.14-1.98v-5.88h1.47l4.93 8.2c.5.85.95 1.45 1.34 1.8.4.34.93.58 1.59.69s1.67.15 3.03.15h3.07zm31-8.78 2.9-8.69 2.36 8.7zm16.36 8.55c-.52 0-.9-.04-1.16-.13s-.5-.31-.73-.66c-.23-.34-.46-.8-.67-1.39s-.57-1.63-1.05-3.12l-5.93-18.5-4.52 1.28-6.78 17.7a22.9 22.9 0 0 1-1.92 3.87c-.24.3-.52.52-.83.67-.31.15-.73.25-1.27.28v1.69a75.06 75.06 0 0 1 7.98 0v-1.7l-.3.05c-.46 0-.86-.12-1.16-.35-.3-.23-.46-.52-.46-.88 0-.48.1-1.05.28-1.7s.42-1.31.68-1.96l.75-1.8h6.51l1.43 3.98c0 .13.06.4.17.79.12.39.18.67.18.86 0 .34-.2.6-.57.77-.38.17-.79.25-1.2.25v1.69a117.6 117.6 0 0 1 10.58 0zm45.17-22.53-1.65 6.5H902l.16-1.12.13-.89c0-.47-.08-.84-.25-1.1a1.28 1.28 0 0 0-.78-.58 4.96 4.96 0 0 0-1.48-.18l-1.3.01-1.1.03v17.05c0 .9.03 1.58.13 2.03s.33.8.7 1.01c.38.23 1 .34 1.85.34v1.71h-.69l-5.76-.06-4.78.05-.55.01v-1.71c.86 0 1.5-.11 1.94-.35.43-.22.7-.57.83-1.06.12-.48.19-1.13.19-1.97V177.5c-1.11 0-2.01.1-2.73.3-.72.18-1.31.55-1.81 1.1a6.7 6.7 0 0 0-1.26 2.43h-2.05l1.77-6.5h1.52c.21.18.42.3.61.37s.51.11.94.14c1.42.09 2.49.14 3.21.14h5.93c2.06 0 3.66-.05 4.8-.13a7.6 7.6 0 0 0 1.15-.14c.2-.06.4-.17.63-.38zm34.8 24.29c-2.07-.06-3.92-.1-5.55-.1l-5.38.08-.6.02v-1.71c.86 0 1.47-.1 1.86-.33.37-.21.6-.53.7-.95.1-.42.14-1.1.14-2.04v-14.15c0-.95-.06-1.64-.18-2.08s-.36-.75-.72-.94a4.1 4.1 0 0 0-1.8-.3v-1.67c1.5.07 2.96.1 4.42.1a64.87 64.87 0 0 0 7.11-.1v1.68a5.9 5.9 0 0 0-1.7.17c-.36.11-.61.4-.77.88s-.24 1.22-.24 2.26v14.15c0 1.2.14 2.06.4 2.56.28.51.97.76 2.08.76zm41.65-3.68a5.03 5.03 0 0 1-4.59 2.71 4.82 4.82 0 0 1-3.1-.99c-.84-.66-1.47-1.53-1.91-2.6s-.74-2.19-.9-3.36a25.83 25.83 0 0 1 .18-8.06c.29-1.36.68-2.49 1.2-3.4a5.07 5.07 0 0 1 4.63-2.79c1.3 0 2.35.34 3.17 1.03a6.33 6.33 0 0 1 1.85 2.66c.42 1.09.7 2.2.85 3.37s.21 2.35.21 3.58c0 3.41-.53 6.03-1.59 7.85m7.55-13.12a11.82 11.82 0 0 0-2.66-4 11.9 11.9 0 0 0-4.08-2.58 14.68 14.68 0 0 0-5.12-.89c-2.58 0-4.89.53-6.91 1.58-2.01 1.05-3.6 2.55-4.71 4.5s-1.69 4.15-1.69 6.66c0 2.48.51 4.68 1.53 6.59a10.8 10.8 0 0 0 4.4 4.47 13.4 13.4 0 0 0 6.65 1.6c2.61 0 4.94-.54 7-1.62a11.63 11.63 0 0 0 4.8-4.56 13.1 13.1 0 0 0 1.71-6.72c0-1.81-.3-3.5-.92-5.03m49.04-5.28h-.38a3.3 3.3 0 0 0-1.47.26c-.32.17-.56.5-.7.97-.12.49-.2 1.17-.2 2.09v10.56c0 3.82.03 6.68.09 8.58h-2.07l-1.97-2.42-12.98-15.9.22 13.35c.03.89.09 1.53.18 1.97.11.42.35.76.7 1 .36.24.94.36 1.72.36v1.64l-.82-.01-3.78-.06c-.94 0-2.07.03-3.4.07v-1.64c1.23 0 1.98-.23 2.27-.67.3-.44.44-1.33.44-2.66v-14.17c0-.95-.07-1.64-.18-2.09a1.43 1.43 0 0 0-.73-.95 4.27 4.27 0 0 0-1.8-.28v-1.7l4.63.13 2.21-.08 1.56-.06 11.18 14.56v-9.53c0-.97-.05-1.65-.14-2.08-.1-.42-.34-.73-.73-.93-.39-.2-1-.31-1.85-.31v-1.7c.52.09 1.65.13 3.38.13a71.98 71.98 0 0 0 4.62-.14z"/>
</svg>
