<?xml version="1.0" encoding="utf-8"?>
<!-- Generator: Adobe Illustrator 23.0.1, SVG Export Plug-In . SVG Version: 6.00 Build 0)  -->
<svg version="1.1" xmlns="http://www.w3.org/2000/svg" xmlns:xlink="http://www.w3.org/1999/xlink" x="0px" y="0px"
	 viewBox="0 0 333 106.83" style="enable-background:new 0 0 333 106.83;" xml:space="preserve">
<style type="text/css">
	.st0{fill:#156DAC;}
</style>
<g id="Capa_2">
	<g>
		<path d="M27.73,17.98c13.96,0,22.08,2.18,30.1,7.72c9.01,6.14,13.76,15.54,13.76,27.03c0,11.29-4.55,21.48-12.67,28.22
			c-7.23,6.14-16.04,8.42-31.19,8.42H3.48c2.08-1.68,2.77-2.67,3.27-3.76c0.3-0.4,0.49-1.19,0.69-2.08c0.2-0.69,0.2-1.09,0.2-1.49
			l0.4-56.43c0-1.09-0.4-2.57-0.89-3.56c-0.59-0.99-1.39-1.88-3.76-4.06H27.73z M18.53,80.65c4.06,0.79,5.74,0.89,9.8,0.89
			c10.99,0,18.81-2.57,24.16-7.92c4.75-4.75,7.72-12.87,7.72-20.69c0-17.32-12.18-27.22-33.36-27.22c-4.06,0-4.95,0.1-8.32,0.89
			V80.65z"/>
		<path d="M105.84,89.36c2.18-1.58,2.97-2.47,3.66-3.76c0.5-0.79,0.99-2.57,0.99-3.37l0.1-56.63c0-2.97-0.59-3.96-3.86-7.62h37.72
			v13.76c-2.48-4.06-4.46-5.54-7.72-5.54h-3.96h-11.68v20.89h16.93v11.19c-2.28-3.07-4.75-4.06-10.3-4.06h-6.83v26.73
			c5.84,0.89,7.92,1.09,12.08,1.09c1.58,0,3.07,0,4.55-0.1c7.33-0.59,10.3-1.78,16.33-6.34l-4.65,13.76H105.84z"/>
		<path d="M192.29,89.1c2.08-1.58,2.97-2.57,3.56-3.76c0.2-0.4,0.4-1.09,0.69-1.98c0.1-0.69,0.2-1.09,0.2-1.39l0.3-56.53
			c0-2.08-0.1-2.38-0.69-3.56c-0.4-1.09-1.19-1.98-2.87-4.16h18.02c-0.89,1.09-1.58,1.78-2.08,2.38c-0.59,0.69-1.09,1.39-1.19,1.78
			l-0.59,2.18l-0.4,1.39v55.24c5.64,0.79,7.72,0.99,11.48,0.99c2.08,0,3.96-0.1,5.94-0.3c6.93-0.69,9.8-1.78,15.84-5.94l-4.85,13.66
			H192.29z"/>
		<path d="M278.88,88.67c2.08-1.58,2.97-2.57,3.56-3.76c0.2-0.4,0.4-1.09,0.69-1.98c0.1-0.69,0.2-1.09,0.2-1.39l0.3-56.53
			c0-2.08-0.1-2.38-0.69-3.56c-0.4-1.09-1.19-1.98-2.87-4.16h18.02c-0.89,1.09-1.58,1.78-2.08,2.38c-0.59,0.69-1.09,1.39-1.19,1.78
			l-0.59,2.18l-0.4,1.39v55.24c5.64,0.79,7.72,0.99,11.48,0.99c2.08,0,3.96-0.1,5.94-0.3c6.93-0.69,9.8-1.78,15.84-5.94l-4.85,13.66
			H278.88z"/>
	</g>
</g>
<g id="Capa_3">
	<rect class="st0" width="333" height="11.98"/>
	<rect y="94.85" class="st0" width="333" height="11.98"/>
	<g>
	</g>
	<g>
	</g>
	<g>
	</g>
	<g>
	</g>
	<g>
	</g>
</g>
</svg>
