<svg xmlns:xlink="http://www.w3.org/1999/xlink" xmlns:dc="http://purl.org/dc/elements/1.1/" xmlns:cc="http://creativecommons.org/ns#" xmlns:rdf="http://www.w3.org/1999/02/22-rdf-syntax-ns#" xmlns:svg="http://www.w3.org/2000/svg" xmlns="http://www.w3.org/2000/svg" xmlns:sodipodi="http://sodipodi.sourceforge.net/DTD/sodipodi-0.dtd" xmlns:inkscape="http://www.inkscape.org/namespaces/inkscape" version="1.1" id="svg10" width="502" height="202" viewBox="0 0 502 202" sodipodi:docname="McDonald's 1940.svg" inkscape:version="1.0 (4035a4fb49, 2020-05-01)">
  <metadata id="metadata16">
    <rdf:RDF>
      <cc:Work rdf:about="">
        <dc:format>image/svg+xml</dc:format>
        <dc:type rdf:resource="http://purl.org/dc/dcmitype/StillImage"/>
        <dc:title/>
      </cc:Work>
    </rdf:RDF>
  </metadata>
  <defs id="defs14"/>
  <sodipodi:namedview inkscape:document-rotation="0" pagecolor="#ffffff" bordercolor="#666666" borderopacity="1" objecttolerance="10" gridtolerance="10" guidetolerance="10" inkscape:pageopacity="0" inkscape:pageshadow="2" inkscape:window-width="1920" inkscape:window-height="1001" id="namedview12" showgrid="false" inkscape:snap-global="true" inkscape:snap-grids="true" inkscape:snap-to-guides="true" inkscape:snap-others="true" inkscape:object-nodes="true" inkscape:snap-nodes="true" showguides="true" inkscape:snap-bbox="true" inkscape:bbox-paths="true" inkscape:bbox-nodes="true" inkscape:snap-bbox-edge-midpoints="true" inkscape:snap-bbox-midpoints="true" inkscape:object-paths="true" inkscape:snap-intersection-paths="true" inkscape:snap-smooth-nodes="true" inkscape:snap-midpoints="true" inkscape:snap-object-midpoints="true" inkscape:snap-center="true" inkscape:snap-text-baseline="true" inkscape:snap-page="true" inkscape:zoom="1.4142136" inkscape:cx="227.81921" inkscape:cy="103.13728" inkscape:window-x="-9" inkscape:window-y="-9" inkscape:window-maximized="1" inkscape:current-layer="g18">
    <inkscape:grid type="xygrid" id="grid1031"/>
  </sodipodi:namedview>
  <g inkscape:groupmode="layer" inkscape:label="Image" id="g18">
    <g id="g204">
      <path d="m 97.941957,134.66153 q 0,-4.10847 -1.583761,-7.18983 -1.478176,-3.18406 -4.012194,-5.2383 -2.534017,-2.05423 -5.912707,-3.08135 -3.273106,-1.12983 -6.968548,-1.12983 H 57.820015 v 1.84882 h 5.279203 v 66.86533 h -5.279203 v 1.84882 h 25.445758 q 4.223362,0 7.390884,-1.54068 3.273106,-1.64339 5.384787,-4.41661 2.217266,-2.77321 3.273106,-6.36812 1.05584,-3.59491 1.05584,-7.60067 0,-4.00576 -1.372592,-7.18982 -1.372593,-3.18406 -3.589858,-5.44373 -2.217265,-2.36236 -4.962451,-3.69762 -2.745185,-1.43796 -5.595955,-1.95152 1.900513,-0.30813 4.117778,-1.33525 2.32285,-1.02712 4.328947,-2.87593 2.006097,-1.84881 3.273106,-4.62203 1.372592,-2.87593 1.372592,-6.88168 z m -26.818351,52.07484 v -35.53825 h 8.446725 q 2.217265,0 4.43453,0.82169 2.32285,0.71898 4.117779,2.67051 1.900513,1.95152 2.956353,5.341 1.161425,3.38949 1.161425,8.62779 0,5.64915 -1.05584,9.14135 -1.055841,3.49219 -2.85077,5.54643 -1.689345,1.95152 -4.012194,2.67051 -2.217266,0.71897 -4.751283,0.71897 z m 0,-37.38707 v -29.47826 h 7.390884 q 5.490371,0 8.657893,3.38948 3.167522,3.28678 3.167522,11.40101 0,7.80609 -3.061938,11.29829 -3.061937,3.38948 -7.81322,3.38948 z" style="font-style:normal;font-variant:normal;font-weight:normal;font-stretch:normal;font-size:104.138px;line-height:100;font-family:GalileoFLF;-inkscape-font-specification:GalileoFLF;letter-spacing:0px;word-spacing:0px;stroke-width:2.60344" id="path171"/>
      <path d="m 102.93502,186.73637 v 1.84882 h 14.47721 v -1.84882 l -3.39698,-2 3.2792,-23.82336 h 14.15437 l 4.62368,23.86755 -5.68562,1.95581 v 1.84882 h 18.60108 v -1.84882 l -4.25757,-1.95581 -17.50494,-67.68274 h -0.84468 l -18.26603,67.63855 z m 21.2394,-50.98523 6.95764,23.31306 h -13.30969 z" style="font-style:normal;font-variant:normal;font-weight:normal;font-stretch:normal;font-size:104.138px;line-height:100;font-family:GalileoFLF;-inkscape-font-specification:GalileoFLF;letter-spacing:0px;word-spacing:0px;stroke-width:2.60344" id="path173" sodipodi:nodetypes="ccccccccccccccccccccc"/>
      <path style="display:inline;fill:#000000;stroke:none;stroke-width:1.00821px;stroke-linecap:butt;stroke-linejoin:miter;stroke-opacity:1" d="m 179.39543,151.54182 c 4.60639,10.38435 8.82746,33.04006 17.76606,33.063 7.6014,-0.26953 0.31004,3.78422 0.31004,3.78422 l -12.1875,0.0636 -13.75,-36.35509 z" id="path206" sodipodi:nodetypes="cccccc"/>
      <path d="m 179.92173,151.88723 c 1.66304,-0.34237 3.36389,-0.92441 5.10254,-1.74611 1.81423,-0.82169 3.43948,-1.91728 4.87575,-3.28677 1.43626,-1.36949 2.60796,-3.01287 3.51509,-4.93016 0.98271,-1.91729 1.47406,-4.14271 1.47406,-6.67627 0,-2.46507 -0.45356,-4.72473 -1.36067,-6.77896 -0.83153,-2.12271 -2.07882,-3.97153 -3.74187,-5.54645 -1.66305,-1.57491 -3.74186,-2.80744 -6.23644,-3.69761 -2.41897,-0.89017 -5.17812,-1.33526 -8.27745,-1.33526 H 153.2341 v 3.84882 h 4.80339 v 62.86533 l -4.80339,2 v 1.84882 h 19.2449 v -1.84882 l -7.03015,-2 v -32.40843 h 8.12305 c 1e-5,-0.009 6.34983,-0.30813 6.34983,-0.30813 z m -5.5561,-1.54068 h -8.91678 v -30.60809 h 8.91678 c 1.81423,0 3.47728,0.2739 4.98915,0.82169 1.51187,0.47932 2.79694,1.33525 3.85524,2.56779 1.1339,1.16407 2.00323,2.73898 2.60797,4.72474 0.68034,1.91729 1.02052,4.31389 1.02052,7.18982 0,2.87593 -0.34018,5.30677 -1.02052,7.29254 -0.60474,1.91729 -1.47407,3.4922 -2.60797,4.72473 -1.0583,1.16407 -2.34337,2.02001 -3.85524,2.5678 -1.51187,0.47932 -3.17492,0.71898 -4.98915,0.71898 z" style="font-style:normal;font-variant:normal;font-weight:normal;font-stretch:normal;font-size:104.138px;line-height:100;font-family:GalileoFLF;-inkscape-font-specification:GalileoFLF;letter-spacing:0px;word-spacing:0px;stroke-width:2.69796" id="path175" sodipodi:nodetypes="ccscscscsccccccccccccsccscccscccs"/>
      <path d="m 241.5692,134.78653 q 0,-4.10847 -1.61634,-7.18983 -1.50856,-3.18406 -4.09469,-5.2383 -2.58613,-2.05423 -6.03429,-3.08135 -3.34042,-1.12983 -7.11186,-1.12983 h -22.08983 v 1.84882 h 5.38777 v 66.86533 h -5.38777 v 1.84882 h 25.96902 q 4.31022,0 7.54288,-1.54068 3.34042,-1.64339 5.49552,-4.41661 2.26285,-2.77321 3.3404,-6.36812 1.07755,-3.59491 1.07755,-7.60067 0,-4.00576 -1.40081,-7.18982 -1.40081,-3.18406 -3.66368,-5.44373 -2.26286,-2.36236 -5.06449,-3.69762 -2.80165,-1.43796 -5.71104,-1.95152 1.93959,-0.30813 4.20246,-1.33525 2.37062,-1.02712 4.41797,-2.87593 2.04734,-1.84881 3.34042,-4.62203 1.40081,-2.87593 1.40081,-6.88168 z m -27.36984,52.07484 v -35.53825 h 8.62042 q 2.26287,0 4.52572,0.82169 2.37062,0.71898 4.20246,2.67051 1.93959,1.95152 3.01714,5.341 1.18532,3.38949 1.18532,8.62779 0,5.64915 -1.07756,9.14135 -1.07755,3.49219 -2.9094,5.54643 -1.72408,1.95152 -4.09469,2.67051 -2.26286,0.71897 -4.84899,0.71897 z m 0,-37.38707 v -29.47826 h 7.54287 q 5.60327,0 8.83593,3.38948 3.23265,3.28678 3.23265,11.40101 0,7.80609 -3.1249,11.29829 -3.1249,3.38948 -7.97389,3.38948 z" style="font-style:normal;font-variant:normal;font-weight:normal;font-stretch:normal;font-size:104.138px;line-height:100;font-family:GalileoFLF;-inkscape-font-specification:GalileoFLF;letter-spacing:0px;word-spacing:0px;stroke-width:2.63007" id="path177"/>
      <path d="m 279.1852,165.0642 v -25.01319 c 0,-0.82169 -0.28156,-1.23254 -0.84468,-1.23254 -0.70389,0 -1.05584,0.37661 -1.05584,1.12983 -0.14077,1.50644 -0.28155,1.01288 -0.42233,2.51932 -0.14079,1.50643 -0.42234,2.87592 -0.84467,4.10847 -1.52327,1.73732 -4.51346,3.98136 -6.64571,4.00576 h -7.2853 v -30.71081 h 12.98685 c 1.75973,0 3.20271,0.34237 4.32894,1.02711 1.12623,0.68475 2.00609,1.64339 2.6396,2.87593 0.63351,1.23254 1.09104,2.73898 1.3726,4.51931 0.35195,1.78034 0.6335,3.7661 0.84467,5.95729 0.0704,1.16406 0.42233,1.74609 1.05584,1.74609 0.35195,0 0.56311,-0.10271 0.6335,-0.30813 0.14079,-0.20543 0.21118,-0.68475 0.21118,-1.43796 V 120.3846 c 0,-1.57492 -0.73909,-2.36238 -2.21727,-2.36238 h -36.4265 v 1.84882 h 6.44063 v 66.86533 h -6.33505 v 1.84882 h 38.4326 c 0.84467,0 1.44297,-0.17119 1.79492,-0.51356 0.42234,-0.34237 0.43666,-1.01331 0.63351,-1.95152 l 3.60183,-17.16719 c 0,0 -1.83487,-0.0833 -1.90051,0 -0.28155,2.19119 -0.90921,5.09372 -2.18769,6.8244 -1.25793,1.70286 -3.31466,3.59804 -4.15933,5.30991 -0.84467,1.64339 -2.07649,3.01288 -3.69544,4.10847 -1.54857,1.02711 -3.62505,1.54067 -6.22946,1.54067 h -11.82542 v -34.30572 h 7.2853 c 2.11667,0.39962 6.00176,2.28173 6.64571,4.10847 0.42233,1.16407 0.70388,2.49933 0.84467,4.00576 0.14078,1.50644 0.28156,3.01288 0.42233,4.51932 0,0.75321 0.35195,1.12982 1.05584,1.12982 0.56312,0 0.84468,-0.37661 0.84468,-1.12982 z" style="font-style:normal;font-variant:normal;font-weight:normal;font-stretch:normal;font-size:104.138px;line-height:100;font-family:GalileoFLF;-inkscape-font-specification:GalileoFLF;letter-spacing:0px;word-spacing:0px;stroke-width:2.60344" id="path179" sodipodi:nodetypes="ssscsccccsssccscsssccccccscsccsccsccccscss"/>
      <path d="m 305.55381,150.5712 c 0,-11.057 1.34097,-19.06146 4.02292,-24.01338 2.68195,-5.01974 6.48138,-7.5296 11.39829,-7.5296 1.97953,0 3.76749,0.50875 5.36389,1.52626 1.66025,0.94969 3.09702,2.23855 4.31028,3.86658 1.73809,1.40641 6.4082,7.93359 7.1309,11.70142 h 1.53255 l -3.25509,-18.38621 c -0.0946,-0.53436 -0.19157,-0.81401 -0.5747,-0.81401 -0.19157,0 -0.35121,0.10175 -0.47893,0.30526 -0.1277,0.13567 -0.25542,0.27133 -0.38313,0.407 l -2.34327,5.46376 c -0.51085,-0.67835 -1.64781,-1.84283 -2.35023,-2.52118 -0.63856,-0.74618 -0.90643,-0.90447 -1.86427,-1.44713 -0.89398,-0.54267 -1.91567,-0.9836 -3.06508,-1.32277 -1.14941,-0.40701 -2.49039,-0.61051 -4.02292,-0.61051 -4.02293,0 -7.53501,1.05144 -10.53623,3.1543 -3.00124,2.10286 -5.52355,4.85014 -7.56694,8.24187 -1.97953,3.39172 -3.48014,7.29219 -4.50183,11.70142 -0.95785,4.34141 -1.43677,8.78456 -1.43677,13.32946 0,4.47707 0.47892,8.8863 1.43677,13.2277 1.02169,4.34141 2.5223,8.20796 4.50183,11.59967 2.04339,3.3239 4.53378,6.03727 7.47115,8.14013 3.00123,2.03502 6.51331,3.05254 10.53623,3.05254 1.59639,0 3.00122,-0.23742 4.2145,-0.71225 1.27712,-0.47485 2.39459,-1.01752 3.35243,-1.62803 1.02169,-0.67834 1.61858,-0.86027 2.32099,-1.60645 3.78286,-3.66663 9.23053,-9.70538 9.45841,-16.39262 l -1.72411,-0.30525 c -2.41787,6.69026 -6.17867,12.19113 -11.68362,17.0833 -1.66026,1.15318 -3.63979,1.72978 -5.9386,1.72978 -4.7892,0 -8.5567,-2.5777 -11.3025,-7.73312 -2.68195,-5.22324 -4.02292,-13.12595 -4.02292,-23.70811 z" style="font-style:normal;font-variant:normal;font-weight:normal;font-stretch:normal;font-size:104.138px;line-height:100;font-family:GalileoFLF;-inkscape-font-specification:GalileoFLF;letter-spacing:0px;word-spacing:0px;stroke-width:2.46806" id="path181" sodipodi:nodetypes="scsccccssccccccssccscccsccccccscss"/>
      <path d="M 364.85921,118.02222 H 345.4173 v 1.84882 h 5.80356 v 49.30163 q 0,9.24406 4.15922,14.79049 4.15921,5.54643 12.18747,5.54643 8.60861,0 12.47764,-5.13558 3.96577,-5.2383 3.96577,-15.20134 v -49.30163 h 5.80357 v -1.84882 H 375.9827 v 1.84882 h 6.28719 v 49.19892 q 0,5.03287 -1.06397,8.52507 -0.96726,3.38949 -2.61161,5.54643 -1.64435,2.15695 -3.77231,3.08135 -2.12798,0.92442 -4.25594,0.92442 -2.51488,0 -4.73959,-0.8217 -2.22469,-0.82169 -3.86903,-2.87593 -1.54761,-2.15695 -2.51487,-5.75186 -0.87054,-3.69762 -0.87054,-9.44948 v -48.37722 h 6.28718 z" style="font-style:normal;font-variant:normal;font-weight:normal;font-stretch:normal;font-size:104.138px;line-height:100;font-family:GalileoFLF;-inkscape-font-specification:GalileoFLF;letter-spacing:0px;word-spacing:0px;stroke-width:2.49184" id="path183"/>
      <path sodipodi:nodetypes="ssscsccccsscccssccccccscsccccsccccscss" id="path179-7" style="font-style:normal;font-variant:normal;font-weight:normal;font-stretch:normal;font-size:104.138px;line-height:100;font-family:GalileoFLF;-inkscape-font-specification:GalileoFLF;letter-spacing:0px;word-spacing:0px;stroke-width:2.60344" d="m 423.1852,165.0642 v -25.01319 c 0,-0.82169 -0.28156,-1.23254 -0.84468,-1.23254 -0.70389,0 -1.05584,0.37661 -1.05584,1.12983 -0.14077,1.50644 -0.28155,1.01288 -0.42233,2.51932 -0.14079,1.50643 -0.42234,2.87592 -0.84467,4.10847 -1.52327,1.73732 -4.51346,3.98136 -6.64571,4.00576 h -7.2853 v -30.71081 h 12.98685 c 1.75973,0 3.20271,0.34237 4.32894,1.02711 1.12623,0.68475 2.00609,1.64339 2.6396,2.87593 2.05796,3.54065 5.84119,12.20017 5.84119,12.20017 h 1.90052 l -1.37392,-16.8084 c -0.12831,-1.56968 -2.98909,-1.14363 -4.46727,-1.14363 h -36.4265 v 1.84882 h 6.44063 v 66.86533 h -6.33505 v 1.84882 h 38.4326 c 0.84467,0 1.44297,-0.17119 1.79492,-0.51356 0.42234,-0.34237 0.43666,-1.01331 0.63351,-1.95152 l 3.60183,-17.16719 c 0,0 -1.83487,-0.0833 -1.90051,0 -0.28155,2.19119 -0.90921,5.09372 -2.18769,6.8244 -2.50723,3.70985 -4.71326,7.25237 -7.85477,9.41838 -1.54857,1.02711 -3.62505,1.54067 -6.22946,1.54067 h -11.82542 v -34.30572 h 7.2853 c 2.11667,0.39962 6.00176,2.28173 6.64571,4.10847 0.42233,1.16407 0.70388,2.49933 0.84467,4.00576 0.14078,1.50644 0.28156,3.01288 0.42233,4.51932 0,0.75321 0.35195,1.12982 1.05584,1.12982 0.56312,0 0.84468,-0.37661 0.84468,-1.12982 z"/>
    </g>
    <g id="g1077" transform="matrix(1.0050172,0,0,1.0176903,-0.83168132,-1.8875703)">
      <path d="m 185.32447,76.297763 v -3.748956 h -19.56001 v 33.329133 h 3.72 v -15.1787 h 13.92 v -3.748956 h -13.92 V 76.297763 Z" style="font-size:42.764px;line-height:100;font-family:'TeX Gyre Heros';-inkscape-font-specification:'TeX Gyre Heros';letter-spacing:0px;word-spacing:0px;stroke-width:1.0691" id="path1052"/>
      <path d="M 213.52386,105.87794 202.58625,72.548807 h -5.127 l -11.10852,33.329133 h 4.22979 l 3.28981,-10.012456 h 12.00575 l 3.20437,10.012456 z m -8.75863,-13.578536 h -9.91221 l 5.12701,-15.178699 z" style="font-size:42.764px;line-height:100;font-family:'TeX Gyre Heros';-inkscape-font-specification:'TeX Gyre Heros';letter-spacing:0px;word-spacing:0px;stroke-width:1.10492" id="path1054"/>
      <path d="M 242.85473,106.05164 V 72.375103 h -5.04306 l -8.28782,29.334167 -8.4442,-29.334167 h -5.04305 v 33.676537 h 3.44023 V 77.826176 l 8.09234,28.225464 h 3.83116 l 8.01417,-28.225464 v 28.225464 z" style="font-size:42.764px;line-height:100;font-family:'TeX Gyre Heros';-inkscape-font-specification:'TeX Gyre Heros';letter-spacing:0px;word-spacing:0px;stroke-width:1.06241" id="path1056"/>
      <path d="m 275.55327,89.71303 c 0,-10.210359 -5.55999,-17.118646 -14.12,-17.118646 -8.36,0 -14.04,6.951734 -14.04,16.857955 0,9.906221 5.68,16.380021 14.08,16.380021 8.56,0 14.08,-6.821387 14.08,-16.11933 z m -3.72,-0.0869 c 0,7.646907 -4.2,12.64346 -10.36,12.64346 -6.2,0 -10.36,-4.996553 -10.36,-12.817253 0,-7.820702 4.16,-13.295192 10.32,-13.295192 6.32,0 10.4,5.47449 10.4,13.468985 z" style="font-size:42.764px;line-height:100;font-family:'TeX Gyre Heros';-inkscape-font-specification:'TeX Gyre Heros';letter-spacing:0px;word-spacing:0px;stroke-width:1.04221" id="path1058"/>
      <path d="M 301.52328,95.171166 V 72.241739 h -3.72 v 22.929427 c 0,4.432121 -2.84,7.145664 -7.52001,7.145664 -4.35999,0 -7.44,-2.351739 -7.44,-7.145664 V 72.241739 h -3.72 v 22.929427 c 0,6.693404 4.24,10.854164 11.16,10.854164 6.84001,0 11.24001,-4.25121 11.24001,-10.854164 z" style="font-size:42.764px;line-height:100;font-family:'TeX Gyre Heros';-inkscape-font-specification:'TeX Gyre Heros';letter-spacing:0px;word-spacing:0px;stroke-width:1.06332" id="path1060"/>
      <path d="m 328.63102,96.207133 c 0,-3.951222 -2.22669,-6.848784 -6.16315,-8.034151 l -7.27649,-2.15122 c -3.49908,-1.009758 -4.77148,-2.282929 -4.77148,-4.741467 0,-3.248782 2.58454,-5.402861 6.48124,-5.402861 4.61243,0 6.73924,3.448079 6.73924,7.618813 h 3.49908 c -0.12438,-7.015015 -3.43896,-11.043206 -10.11902,-11.043206 -6.36196,0 -10.29843,3.602861 -10.29843,9.397986 0,3.90732 1.86883,6.365857 5.686,7.463419 l 7.19698,2.107319 c 3.65812,1.053659 5.32814,2.67805 5.32814,5.180491 0,3.512194 -2.38574,5.575614 -7.39578,5.575614 -5.48719,0 -8.19103,-3.029272 -8.19103,-7.595128 h -3.49908 c 0,7.551228 4.61243,11.195128 11.45153,11.195128 7.35602,0 11.33225,-3.86342 11.33225,-9.570737 z" style="font-size:42.764px;line-height:100;font-family:'TeX Gyre Heros';-inkscape-font-specification:'TeX Gyre Heros';letter-spacing:0px;word-spacing:0px;stroke-width:1.04453" id="path1062" sodipodi:nodetypes="sccssccssccssccss"/>
    </g>
    <g id="g87">
      <rect style="fill:#000000;stroke-width:1.93499" id="rect22-3" width="159.3093" height="4.9583755" x="-8.2523975" y="82.504982" ry="2.4791877"/>
      <rect ry="2.4791877" y="95.462036" x="-8.2523975" height="4.9583755" width="159.3093" id="rect22-0-5" style="fill:#000000;stroke-width:1.93499"/>
      <rect style="fill:#000000;stroke-width:2.02726" id="rect22-0" width="174.86565" height="4.9583755" x="340.19125" y="93.462044" ry="2.4791877"/>
      <rect ry="2.4791877" y="80.504982" x="340.19125" height="4.9583755" width="174.86565" id="rect22" style="fill:#000000;stroke-width:2.02726"/>
    </g>
    <g id="g80">
      <path id="path39" style="font-size:63.3588px;line-height:100;font-family:'TeX Gyre Pagella';-inkscape-font-specification:'TeX Gyre Pagella';letter-spacing:0px;word-spacing:0px;stroke-width:1.58398" d="m 148.94543,56.972785 0.19202,-1.756086 -2.36826,-0.188152 c -2.30425,-0.188151 -3.52037,-0.878042 -3.45636,-2.195106 l 0.064,-2.320542 2.62429,-33.302902 c 0.0639,-1.19163 1.08811,-1.818803 2.9443,-1.944238 l 2.43226,-0.125434 0.19202,-1.756086 c -1.79219,0.125435 -3.58438,0.188153 -5.37657,0.188153 -1.79218,0 -3.58438,-0.06272 -5.31257,-0.188153 -1.21613,2.320542 0,0.627173 -5.44058,9.783904 l -15.74567,26.466714 -9.60103,-36.250618 c -1.79219,0.125435 -3.58438,0.188153 -5.37657,0.188153 -1.7922,0 -3.58438,-0.06272 -5.312568,-0.188153 l -0.192021,1.756086 1.664179,0.125434 c 3.32835,0.25087 4.48048,0.878043 4.48048,2.508693 0,0.376304 -0.064,0.815326 -0.19203,1.254347 l -9.280984,31.923122 c -0.960102,3.261301 -1.984212,4.076626 -5.504587,4.390213 l -0.19202,1.630651 c 2.368252,-0.125435 4.800512,-0.188153 7.168764,-0.188153 2.368253,0 4.736507,0.06272 7.040757,0.188153 l 0.19201,-1.756086 -2.43225,-0.188152 c -2.04822,-0.188151 -3.136339,-0.752608 -3.136339,-1.693368 0,-0.627173 0.128014,-1.442498 0.448048,-2.57141 l 7.936851,-29.100842 9.53701,36.250618 h 1.47216 l 3.64838,-6.522603 15.29764,-25.964975 3.32836,-5.456408 -2.36826,32.613013 c -0.12801,1.756084 -1.02411,2.132389 -4.28846,2.445975 l -1.9842,0.188152 -0.19203,1.756086 c 2.88031,-0.125435 5.69661,-0.188153 8.57692,-0.188153 2.88031,0 5.6966,0.06272 8.5129,0.188153 z"/>
      <path id="path41" style="font-size:63.3588px;line-height:100;font-family:'TeX Gyre Pagella';-inkscape-font-specification:'TeX Gyre Pagella';letter-spacing:0px;word-spacing:0px;stroke-width:1.58398" d="m 174.44314,50.826486 -0.51205,-1.254347 -0.9601,0.627173 c -4.60849,3.010433 -7.04075,4.076627 -9.28099,4.076627 -3.58438,0 -5.44058,-2.508693 -5.44058,-7.463362 0,-6.648037 2.17624,-13.107923 5.24856,-15.553898 1.34414,-1.128912 2.94431,-1.630651 4.99254,-1.630651 2.8803,0 5.18455,1.19163 5.18455,2.696846 v 3.76304 h 1.47215 c 0.51206,-4.076627 0.9601,-6.397169 1.53616,-8.027819 -1.60017,-1.003477 -3.71239,-1.505216 -6.14465,-1.505216 -2.88031,0 -7.42479,2.195106 -11.07319,5.330973 -3.64838,3.135867 -6.08064,9.658469 -6.08064,16.369224 0,6.020863 2.68829,9.219447 7.80883,9.219447 3.45638,0 6.5287,-1.254347 10.04907,-4.076626 z"/>
      <path id="path43" style="font-size:63.3588px;line-height:100;font-family:'TeX Gyre Pagella';-inkscape-font-specification:'TeX Gyre Pagella';letter-spacing:0px;word-spacing:0px;stroke-width:1.58398" d="m 225.21656,29.753463 c 0,-6.146298 -1.92021,-10.536511 -5.82462,-13.233357 -2.94432,-2.069672 -9.08897,-3.135867 -14.46554,-3.135867 -4.35247,0 -8.70494,0.188153 -13.0574,0.188153 -2.62428,0 -5.24856,-0.06272 -7.87284,-0.188153 l -0.19201,1.756086 3.39235,0.125434 c 1.53617,0.06272 2.24024,0.564457 2.24024,1.693368 0,0.878043 -0.25603,2.884998 -0.57606,4.766518 l -5.56859,31.609534 c -0.25603,1.442499 -2.17623,1.693368 -3.39236,2.006955 l -0.32004,1.630651 c 1.98422,-0.125435 3.96843,-0.188153 5.95263,-0.188153 4.16045,0 8.3209,0.188153 12.48134,0.188153 4.60849,0 7.74482,-0.689891 11.07318,-2.320542 9.98506,-5.017386 16.12972,-14.487703 16.12972,-24.89878 z m -5.88863,1.003477 c 0,7.337928 -2.43226,13.923248 -6.78472,18.250743 -3.45637,3.449454 -8.12887,5.205539 -13.69747,5.205539 -2.81629,0 -5.95263,-0.313586 -10.30509,-0.94076 0,-0.752608 0.0641,-1.19163 0.25602,-2.320541 l 6.14466,-34.933554 c 2.49627,0 4.92852,-0.313586 7.4248,-0.313586 11.64924,0 16.9618,4.766517 16.9618,15.052159 z"/>
      <path id="path45" style="font-size:63.3588px;line-height:100;font-family:'TeX Gyre Pagella';-inkscape-font-specification:'TeX Gyre Pagella';letter-spacing:0px;word-spacing:0px;stroke-width:1.58398" d="m 253.84962,36.025196 c 0,-5.895429 -3.20034,-9.470317 -8.51291,-9.470317 -2.75229,0 -5.76062,1.066195 -8.64092,3.073149 -5.18455,3.637606 -8.06486,9.972055 -8.06486,17.62357 0,6.648038 2.88031,10.222925 8.19288,10.222925 3.52037,0 7.36078,-1.630651 10.24108,-4.264778 3.96843,-3.700322 6.78473,-10.850098 6.78473,-17.184549 z m -4.86452,1.003478 c 0,6.020863 -1.98422,12.6689 -4.80051,15.992918 -1.15212,1.317064 -2.8163,2.069673 -4.80051,2.069673 -3.7124,0 -5.88863,-2.82228 -5.88863,-7.776949 0,-7.087059 2.49626,-14.801291 5.6326,-17.309984 0.83209,-0.689891 2.30424,-1.066194 3.84041,-1.066194 3.90442,0 6.01664,2.82228 6.01664,8.090536 z"/>
      <path id="path47" style="font-size:63.3588px;line-height:100;font-family:'TeX Gyre Pagella';-inkscape-font-specification:'TeX Gyre Pagella';letter-spacing:0px;word-spacing:0px;stroke-width:1.58398" d="m 288.82035,51.453659 -0.64007,-1.128912 -1.66418,1.066195 c -1.8562,1.19163 -3.26435,1.88152 -3.90442,1.88152 -0.44805,0 -0.83208,-0.564456 -0.83208,-1.254346 0,-0.313587 0.064,-1.003478 0.12801,-1.254347 l 4.22445,-17.309984 c 0.44805,-1.818802 0.70407,-3.574887 0.70407,-4.641082 0,-1.442498 -0.70407,-2.257824 -1.98421,-2.257824 -2.68829,0 -7.10476,2.383259 -10.88116,5.832711 -2.43226,2.195107 -4.22445,4.327497 -7.5528,8.905862 l 2.43225,-10.097491 c 0.25604,-1.128911 0.38404,-1.88152 0.38404,-2.57141 0,-1.317064 -0.51205,-2.069672 -1.47215,-2.069672 -1.34414,0 -3.84041,1.379781 -8.51291,4.641082 l -1.7922,1.254347 0.44806,1.254346 2.04822,-1.317064 c 2.30424,-1.505215 2.56027,-1.567932 3.00831,-1.567932 0.70408,0 1.15213,0.627173 1.15213,1.567932 0,3.198584 -2.62428,15.303029 -5.24856,24.271608 l 0.44805,0.68989 c 1.60017,-0.439021 3.07232,-0.815325 4.48048,-1.066194 1.21612,-7.902384 2.62428,-11.979011 5.50458,-16.306506 3.52038,-5.268256 8.25689,-9.15673 11.13719,-9.15673 0.70407,0 1.08811,0.564456 1.08811,1.505216 0,1.128911 -0.19201,2.445975 -0.70407,4.45293 l -3.32835,13.296074 c -0.57607,2.320541 -0.8321,3.76304 -0.8321,4.766518 0,1.567933 0.70408,2.508692 1.92021,2.508692 1.66418,0 3.96842,-1.317063 10.2411,-5.895429 z"/>
      <path id="path49" style="font-size:63.3588px;line-height:100;font-family:'TeX Gyre Pagella';-inkscape-font-specification:'TeX Gyre Pagella';letter-spacing:0px;word-spacing:0px;stroke-width:1.58398" d="m 317.53641,51.453659 -0.44805,-1.317063 c -0.44805,0.376303 -0.51205,0.439021 -0.83209,0.68989 -2.04822,1.693368 -3.00832,2.257824 -3.96842,2.257824 -0.64007,0 -0.96011,-0.501738 -0.96011,-1.505216 0,-0.250869 0,-0.439022 0.0641,-0.627173 l 5.88863,-23.769869 -0.64007,-0.564456 -2.11223,1.128912 c -2.49626,-0.94076 -3.71239,-1.191629 -5.44057,-1.191629 -1.79219,0 -3.07234,0.313586 -4.80051,1.128912 -4.03244,1.944237 -6.08065,3.825757 -7.68083,6.898906 -2.8163,5.581843 -4.80051,13.045206 -4.80051,18.062592 0,2.696845 0.9601,4.829234 2.17624,4.829234 1.34413,0 3.71239,-1.317064 6.08065,-3.324018 2.75228,-2.320542 5.31256,-5.268256 8.83294,-10.160208 l -1.85621,7.965101 c -0.25602,1.128912 -0.38403,2.195107 -0.38403,3.198584 0,1.442499 0.57606,2.320541 1.53616,2.320541 1.47216,0 4.09644,-1.756085 9.345,-6.020864 z m -5.5686,-20.634001 c -1.40815,6.710754 -2.62428,9.972056 -4.7365,13.170639 -3.52037,5.268255 -7.55281,9.094013 -9.66504,9.094013 -0.76807,0 -1.15212,-0.815325 -1.15212,-2.508693 0,-4.013909 1.66418,-10.975534 3.90442,-16.181072 1.53616,-3.637605 3.07233,-4.766517 6.20866,-4.766517 1.47216,0 2.68829,0.25087 5.44058,1.19163 z"/>
      <path id="path51" style="font-size:63.3588px;line-height:100;font-family:'TeX Gyre Pagella';-inkscape-font-specification:'TeX Gyre Pagella';letter-spacing:0px;word-spacing:0px;stroke-width:1.58398" d="m 334.3932,51.453659 -0.64007,-1.128912 -1.66418,1.066195 c -1.9202,1.254347 -3.26434,1.88152 -3.90442,1.88152 -0.44804,0 -0.83208,-0.564456 -0.83208,-1.254346 0,-0.815326 0.19202,-1.567933 0.38404,-2.320542 l 8.25688,-38.194855 -0.76808,-0.68989 c -3.32836,1.63065 -5.6326,2.195107 -10.2411,2.634128 l -0.25602,1.317064 h 3.07233 c 1.53616,0 2.17623,0.439021 2.17623,1.379781 0,0.815325 -0.25603,2.257824 -0.38404,3.010432 l -6.14466,29.351711 c -0.89609,3.261301 -1.21612,5.017387 -1.21612,6.397167 0,1.505217 0.70407,2.445976 1.9202,2.445976 1.66418,0 4.03242,-1.379781 10.24109,-5.895429 z"/>
      <path id="path53" style="font-size:63.3588px;line-height:100;font-family:'TeX Gyre Pagella';-inkscape-font-specification:'TeX Gyre Pagella';letter-spacing:0px;word-spacing:0px;stroke-width:1.58398" d="m 366.86668,51.265507 -0.64007,-1.191629 -2.81631,1.944238 c -0.89609,0.627173 -1.9202,1.066194 -2.49626,1.066194 -0.51205,0 -0.8961,-0.564456 -0.8961,-1.442498 0,-0.50174 0.12801,-1.066195 0.51205,-2.884998 l 8.06486,-37.254095 -0.76807,-0.68989 c -3.32836,1.63065 -5.63261,2.195107 -10.2411,2.634128 l -0.25603,1.317064 h 3.07234 c 1.53616,0 2.17623,0.439021 2.17623,1.505216 0,0.501739 -0.0641,1.066195 -0.12802,1.505215 l -1.79219,9.658469 c -1.9202,-0.564456 -3.64839,-0.878042 -5.24856,-0.878042 -4.41647,0 -10.43311,4.515648 -13.37743,9.972055 -1.98421,3.637606 -3.26435,9.595752 -3.26435,14.864008 0,4.076627 0.9601,6.083581 2.81631,6.083581 1.72818,0 4.09643,-1.066194 6.27266,-2.759562 3.45638,-2.759563 5.5686,-5.205538 9.85706,-11.539989 l -1.47217,5.707277 c -0.70406,2.759563 -1.0241,4.766517 -1.0241,6.397167 0,1.317065 0.57606,2.195107 1.66417,2.195107 1.08812,0 2.62428,-0.878042 4.80052,-2.445976 z m -6.84874,-20.19498 -0.76808,3.700322 c -1.15212,5.519125 -4.28846,11.03825 -8.25688,14.738574 -2.24025,2.069671 -4.80052,3.574887 -6.01664,3.574887 -1.02411,0 -1.60017,-0.878043 -1.60017,-2.445976 0,-7.902384 2.94431,-17.686287 6.08064,-20.069546 0.8321,-0.627173 2.04822,-0.94076 3.77641,-0.94076 2.8163,0 4.67249,0.376304 6.78472,1.442499 z"/>
      <path id="path55" style="font-size:63.3588px;line-height:100;font-family:'TeX Gyre Pagella';-inkscape-font-specification:'TeX Gyre Pagella';letter-spacing:0px;word-spacing:0px;stroke-width:1.58398" d="m 388.11693,13.258805 c 0,-1.379782 -1.15211,-2.445976 -2.62428,-2.445976 -1.34414,0 -2.36824,0.815325 -2.8803,2.383258 l -3.96843,11.728141 h 1.92021 l 6.97675,-9.595751 c 0.38404,-0.501739 0.57605,-1.254347 0.57605,-2.069672 z"/>
      <path id="path57" style="font-size:63.3588px;line-height:100;font-family:'TeX Gyre Pagella';-inkscape-font-specification:'TeX Gyre Pagella';letter-spacing:0px;word-spacing:0px;stroke-width:1.58398" d="m 412.43854,45.871817 c 0,-3.386736 -1.98422,-5.205538 -6.78473,-6.083581 l -2.75228,-0.501739 c -3.84042,-0.68989 -5.05655,-1.756085 -5.05655,-4.327496 0,-3.324018 2.8163,-5.895429 6.5287,-5.895429 2.62428,0 5.05653,1.128913 6.08064,2.82228 v 3.449453 h 1.47217 c 0.25602,-2.195106 0.51205,-3.888474 1.21612,-7.087058 -2.49626,-1.191629 -4.28846,-1.693368 -6.40068,-1.693368 -3.32835,0 -7.23277,1.818802 -10.3051,4.891952 -1.66417,1.693368 -2.36825,3.261301 -2.36825,5.519125 0,3.512171 1.98421,5.519125 6.20867,6.334451 l 4.03242,0.752607 c 2.81631,0.501738 3.84041,1.567934 3.84041,4.076627 0,4.139344 -2.94432,6.836189 -7.4888,6.836189 -2.30424,0 -4.22445,-0.689891 -6.01664,-2.195107 v -5.268255 h -1.60017 c -0.32003,3.198584 -0.70408,5.39369 -1.40815,8.278688 2.43226,1.191629 4.60849,1.693367 6.84873,1.693367 3.13634,0 6.08065,-1.128911 9.34499,-3.637605 3.26435,-2.508693 4.6085,-4.829235 4.6085,-7.965101 z"/>
    </g>
  </g>
</svg>