<?xml version="1.0" encoding="UTF-8" standalone="no"?>
<!-- Created with Inkscape (http://www.inkscape.org/) -->
<svg
   xmlns:svg="http://www.w3.org/2000/svg"
   xmlns="http://www.w3.org/2000/svg"
   version="1.0"
   width="1293.75"
   height="1150"
   viewBox="0 0 1293.75 1150"
   id="Frier_Volksstaat_Württemberg_1919-1933"
   xml:space="preserve"><defs
   id="defs2243" />
<pattern
   viewBox="15.84 -30.24 28.8 28.8"
   id="_x31_0_dpi_20_x25_"
   patternUnits="userSpaceOnUse"
   height="28.8"
   width="28.8"
   y="1175"
   x="-153.125">
	<g
   id="g2093">
		<polygon
   id="polygon2095"
   points="15.84,-1.439 15.84,-30.24 44.64,-30.24 44.64,-1.439   "
   fill="none" />
		<path
   id="path2097"
   d="M44.64,0c0.795,0,1.439-0.645,1.439-1.439c0-0.796-0.645-1.44-1.439-1.44c-0.796,0-1.44,0.645-1.44,1.44    C43.2-0.645,43.844,0,44.64,0z" />
		<path
   id="path2099"
   d="M30.24,0c0.795,0,1.44-0.645,1.44-1.439c0-0.796-0.646-1.44-1.44-1.44c-0.796,0-1.439,0.645-1.439,1.44    C28.8-0.645,29.444,0,30.24,0z" />
		<path
   id="path2101"
   d="M15.84,0c0.795,0,1.439-0.645,1.439-1.439c0-0.796-0.645-1.44-1.439-1.44c-0.797,0-1.44,0.645-1.44,1.44    C14.4-0.645,15.043,0,15.84,0z" />
		<path
   id="path2103"
   d="M44.64-14.399c0.795,0,1.439-0.646,1.439-1.44c0-0.796-0.645-1.44-1.439-1.44c-0.796,0-1.44,0.645-1.44,1.44    C43.2-15.045,43.844-14.399,44.64-14.399z" />
		<path
   id="path2105"
   d="M30.24-14.399c0.795,0,1.44-0.646,1.44-1.44c0-0.796-0.646-1.44-1.44-1.44c-0.796,0-1.439,0.645-1.439,1.44    C28.8-15.045,29.444-14.399,30.24-14.399z" />
		<path
   id="path2107"
   d="M15.84-14.399c0.795,0,1.439-0.646,1.439-1.44c0-0.796-0.645-1.44-1.439-1.44c-0.797,0-1.44,0.645-1.44,1.44    C14.4-15.045,15.043-14.399,15.84-14.399z" />
		<path
   id="path2109"
   d="M44.64-28.8c0.795,0,1.439-0.645,1.439-1.44s-0.645-1.44-1.439-1.44c-0.796,0-1.44,0.645-1.44,1.44    S43.844-28.8,44.64-28.8z" />
		<path
   id="path2111"
   d="M30.24-28.8c0.795,0,1.44-0.645,1.44-1.44s-0.646-1.44-1.44-1.44c-0.796,0-1.439,0.645-1.439,1.44S29.444-28.8,30.24-28.8    z" />
		<path
   id="path2113"
   d="M15.84-28.8c0.795,0,1.439-0.645,1.439-1.44s-0.645-1.44-1.439-1.44c-0.797,0-1.44,0.645-1.44,1.44    S15.043-28.8,15.84-28.8z" />
		<path
   id="path2115"
   d="M1.44-28.8c0.795,0,1.44-0.645,1.44-1.44s-0.645-1.44-1.44-1.44c-0.796,0-1.44,0.645-1.44,1.44S0.644-28.8,1.44-28.8z" />
		<path
   id="path2117"
   d="M1.44-30.24" />
		<path
   id="path2119"
   d="M23.04-7.2c0.795,0,1.44-0.645,1.44-1.439c0-0.796-0.646-1.44-1.44-1.44c-0.796,0-1.439,0.645-1.439,1.44    C21.6-7.845,22.244-7.2,23.04-7.2z" />
		<path
   id="path2121"
   d="M37.44-7.2c0.795,0,1.44-0.645,1.44-1.439c0-0.796-0.646-1.44-1.44-1.44c-0.796,0-1.44,0.645-1.44,1.44    C36-7.845,36.644-7.2,37.44-7.2z" />
		<path
   id="path2123"
   d="M23.04-21.601c0.795,0,1.44-0.645,1.44-1.439c0-0.796-0.646-1.44-1.44-1.44c-0.796,0-1.439,0.645-1.439,1.44    C21.6-22.245,22.244-21.601,23.04-21.601z" />
		<path
   id="path2125"
   d="M37.44-21.601c0.795,0,1.44-0.645,1.44-1.439c0-0.796-0.646-1.44-1.44-1.44c-0.796,0-1.44,0.645-1.44,1.44    C36-22.245,36.644-21.601,37.44-21.601z" />
		<path
   id="path2127"
   d="M8.64-21.601c0.795,0,1.44-0.645,1.44-1.439c0-0.796-0.645-1.44-1.44-1.44c-0.796,0-1.44,0.645-1.44,1.44    C7.2-22.245,7.844-21.601,8.64-21.601z" />
		<path
   id="path2129"
   d="M8.64-23.04" />
	</g>
</pattern>
<pattern
   viewBox="16 -72.325 73.12 72"
   id="Liniert_1"
   patternUnits="userSpaceOnUse"
   height="72"
   width="73.12"
   y="1175"
   x="-153.125">
	<g
   id="g2132">
		<polygon
   id="polygon2134"
   points="16,-0.325 16,-72.325 89.12,-72.325 89.12,-0.325   "
   fill="none" />
		<line
   id="line2136"
   y2="-0.325"
   x2="6"
   y1="-6.325"
   x1="0"
   fill="#FFFFFF" />
		<line
   id="line2138"
   y2="-6.325"
   x2="6"
   y1="-0.325"
   x1="0"
   fill="#FFFFFF" />
		
			<line
   id="line2140"
   y2="-72.325"
   x2="28.74"
   y1="-0.325"
   x1="28.74"
   stroke-linecap="square"
   stroke-width="0.65"
   stroke="#000000"
   fill="none" />
		
			<line
   id="line2142"
   y2="-72.325"
   x2="47.02"
   y1="-0.325"
   x1="47.02"
   stroke-linecap="square"
   stroke-width="0.65"
   stroke="#000000"
   fill="none" />
		<line
   id="line2144"
   y2="-72.325"
   x2="65.3"
   y1="-0.325"
   x1="65.3"
   stroke-linecap="square"
   stroke-width="0.65"
   stroke="#000000"
   fill="none" />
		
			<line
   id="line2146"
   y2="-72.325"
   x2="83.58"
   y1="-0.325"
   x1="83.58"
   stroke-linecap="square"
   stroke-width="0.65"
   stroke="#000000"
   fill="none" />
		
			<line
   id="line2148"
   y2="-72.325"
   x2="10.46"
   y1="-62.325"
   x1="10.46"
   stroke-linecap="square"
   stroke-width="0.65"
   stroke="#000000"
   fill="none" />
		
			<line
   id="line2150"
   y2="-72.325"
   x2="21.54"
   y1="-0.325"
   x1="21.54"
   stroke-linecap="square"
   stroke-width="0.65"
   stroke="#000000"
   fill="none" />
		
			<line
   id="line2152"
   y2="-72.325"
   x2="39.82"
   y1="-0.325"
   x1="39.82"
   stroke-linecap="square"
   stroke-width="0.65"
   stroke="#000000"
   fill="none" />
		<line
   id="line2154"
   y2="-72.325"
   x2="58.1"
   y1="-0.325"
   x1="58.1"
   stroke-linecap="square"
   stroke-width="0.65"
   stroke="#000000"
   fill="none" />
		
			<line
   id="line2156"
   y2="-72.325"
   x2="76.38"
   y1="-0.325"
   x1="76.38"
   stroke-linecap="square"
   stroke-width="0.65"
   stroke="#000000"
   fill="none" />
		<line
   id="line2158"
   y2="-72.325"
   x2="3.26"
   y1="-62.325"
   x1="3.26"
   stroke-linecap="square"
   stroke-width="0.65"
   stroke="#000000"
   fill="none" />
	</g>
</pattern>
<g
   id="Wappen">
	<path
   d="M 423.292,1056.31 C 415,1071.729 407.896,1091.967 404.929,1111.422 C 404.449,1114.565 402.174,1127.955 402.174,1127.955 L 335.603,1150 L 336.981,1128.874 L 295.663,1141.273 L 299.335,1123.362 L 267.198,1126.117 C 267.568,1111.822 274.449,1105.607 276.381,1091.214 C 247.931,1093.14 217.548,1089.387 193.742,1083.865 C 181.636,1081.057 172.868,1078.356 160.686,1074.679 C 124.249,1063.685 93.853,1041.158 67.029,1019.568 C 62.656,1016.048 58.216,1010.364 54.175,1005.79 C 33.745,982.677 11.345,950.385 10.101,912.101 C 19.121,914.948 27.139,924.656 34.892,932.308 C 42.687,940.002 50.038,948.443 59.684,953.434 C 57.75,945.607 63.806,941.319 65.193,934.146 C 59.639,931.051 60.722,941.687 55.093,941.494 C 48.973,935.426 42.455,922.257 48.665,912.101 C 42.45,898.545 36.075,885.018 30.301,870.767 C 27.273,863.294 25.411,855.262 22.037,848.722 C 18.736,842.324 12.786,837.189 9.182,830.351 C 5.402,823.18 2.475,816.578 0,808.307 C 0,807.389 0,806.471 0,805.551 C 5.633,798.632 15.637,796.087 25.711,793.61 C 36.542,784.547 45.392,773.497 55.093,763.299 C 53.933,741.553 53.604,724.304 50.501,699.919 C 46.04,692.462 16.207,691.204 16.527,679.712 C 16.802,669.868 38.987,669.279 44.992,662.261 C 53.451,641.253 64.341,619.034 85.392,608.068 C 105.041,569.244 130.39,536.122 152.421,499.681 C 145.315,481.644 154.37,467.368 156.094,450.999 C 157.532,437.339 151.416,423.541 152.421,409.666 C 152.694,405.889 156.316,401.062 156.094,398.643 C 154.284,378.934 159.969,353.731 157.93,328.835 C 157.787,324.769 160.526,329.269 161.603,326.997 C 157.22,326.483 159.287,319.517 158.848,315.057 C 148.86,315.536 139.197,318.523 128.547,321.487 C 122.126,324.942 118.771,334.324 111.102,336.183 C 101.619,338.483 94.719,331.516 86.311,327.916 C 85.584,324.739 87.332,324.039 88.147,322.405 C 78.396,323.054 73.948,324.157 68.866,317.812 C 68.424,305.123 72.322,296.775 75.293,287.501 C 92.106,276.152 108.734,264.618 123.957,251.678 C 127.922,238.173 131.795,225.037 145.994,218.61 C 152.582,215.629 162.198,217.72 161.603,208.507 C 161.094,200.603 153.266,195.99 151.503,189.217 C 139.791,144.212 186.364,130.271 190.068,96.446 C 190.626,91.338 187.55,85.235 191.903,81.749 C 202.882,88.586 208.437,98.201 206.594,116.654 C 204.399,138.643 181.897,153.779 194.657,169.928 C 206.469,163.849 217.491,159.644 222.203,146.965 C 226.853,134.457 225.43,120.735 233.223,110.223 C 235.127,107.653 238.768,106.539 241.486,103.794 C 243.546,101.714 244.137,98.311 246.077,96.446 C 253.688,89.133 263.801,85.099 269.951,77.157 C 275.222,70.349 277.267,61.179 280.97,51.439 C 287.544,54.481 288.777,61.749 289.234,67.053 C 290.37,80.251 286.934,94.147 278.215,104.713 C 268.663,116.287 251.365,122.723 260.77,142.373 C 271.485,145.466 282.374,141.531 288.315,136.862 C 289.976,128.201 286.923,118.938 287.397,111.143 C 289.401,78.167 330.168,63.887 334.226,32.149 C 335.003,26.066 331.564,20.603 335.145,15.616 C 347.656,23.392 354.087,47.368 346.163,67.053 C 339.442,83.749 323.897,98.068 326.88,113.899 C 342.467,108.058 355.169,99.332 365.445,88.18 C 356.794,40.123 412.556,41.163 437.982,21.128 C 441.848,13.357 448.217,8.094 451.756,0 C 452.981,0 454.204,0 455.429,0 C 455.38,1.58 456.136,2.354 457.266,2.755 C 457.849,8.492 456.713,10.699 458.184,14.696 C 453.673,23.167 452.87,32.977 447.166,40.415 C 440.069,49.667 426.963,53.898 416.865,59.704 C 411.715,62.664 401.085,65.827 402.174,73.483 C 416.122,72.437 433.662,67.838 449.919,69.808 C 461.875,71.257 471.916,76.511 481.139,77.156 C 488.268,81.995 496.66,86.114 504.095,88.178 C 499.657,91.052 509.761,91.245 508.685,96.445 C 507.135,100.444 502.889,98.78 501.34,101.038 C 500.377,99.031 494.988,98.978 493.075,95.526 C 479.45,92.573 468.673,88.715 455.429,90.015 C 443.385,91.197 433.153,97.96 422.373,101.037 C 415.301,103.057 411.495,102.245 404.929,104.711 C 394.93,108.466 389.646,113.436 381.973,118.489 C 376.689,121.971 370.327,123.664 365.446,126.756 C 360.634,129.803 357.107,135.433 352.591,138.696 C 337.362,149.704 319.849,156.931 306.681,168.09 C 308.737,186.187 295.357,199.339 289.236,216.773 C 301.242,216.981 308.892,208.498 317.701,208.506 C 319.977,213.813 310.505,224.3 314.027,227.795 C 321.545,227.966 321.134,220.209 324.128,215.855 C 331.137,214.903 334.841,207.88 341.574,204.832 C 359.27,196.823 382.562,196.85 397.584,183.706 C 403.074,178.902 403.417,172.065 412.275,169.928 C 416.368,182.866 412.854,193.875 406.766,201.158 C 392.658,218.038 358.806,218.713 352.591,241.573 C 358.702,247.864 370.949,252.39 382.892,249.84 C 386.367,245.207 386.133,240.661 388.402,236.981 C 398.057,221.313 421.095,220.916 435.231,210.343 C 443.193,204.388 452.901,195.188 455.43,185.543 C 457.023,179.467 453.206,175.961 458.185,171.765 C 464.429,171.642 463.683,178.512 466.449,181.869 C 464.882,191.914 467.952,198.779 465.531,206.669 C 463.288,213.982 452.742,227.96 446.25,233.307 C 436.202,241.582 415.124,245.958 421.457,262.7 C 431.646,270.118 457.58,264.582 461.859,254.433 C 464.295,248.654 459.744,239.516 460.94,231.47 C 463.795,212.245 484.368,197.27 499.504,191.054 C 504.906,188.835 510.077,184.86 515.114,183.705 C 521.31,182.285 531.674,182.402 531.641,191.972 C 512.928,200.234 490.21,209.263 490.322,233.306 C 504.771,223.027 559.23,200.404 574.797,228.713 C 562.866,229.293 552.53,232.029 542.659,231.469 C 534.178,237.58 526.749,239.844 516.95,245.247 C 511.247,255.311 499.27,262.759 490.322,270.965 C 472.884,286.956 446.661,308.427 414.111,296.684 C 407.263,294.214 400.71,284.196 392.992,282.906 C 389.75,282.364 385.458,284.526 381.973,284.743 C 358.635,286.203 344.611,280.983 333.309,267.292 C 315.871,264.068 292.833,256.34 274.543,265.455 C 286.46,279.726 289.749,300.881 303.007,313.219 C 313.177,322.683 328.114,324.537 337.899,335.263 C 334.54,352.356 332.855,369.618 346.164,376.596 C 359.153,363.872 360.248,339.246 384.728,338.019 C 392.398,342.651 397.222,354.836 405.847,355.47 C 404.475,341.495 397.733,328.122 400.337,313.218 C 427.983,310.815 444.81,326.794 458.184,341.692 C 458.184,308.76 526.131,306.923 526.131,341.692 C 535.515,327.972 546.127,314.137 566.531,314.137 C 586.935,314.137 588.943,329.65 596.832,339.855 C 603.559,324.494 616.061,310.228 636.314,313.218 C 651.866,315.514 660.1,331.038 666.614,343.53 C 669.535,324.711 685.451,306.789 700.59,306.789 C 715.728,306.789 739.154,321.622 739.154,340.774 C 744.875,326.229 751.711,309.545 767.617,309.545 C 791.021,309.545 805.733,324.055 811.691,344.449 C 824.967,324.041 846.972,307.497 875.966,305.87 C 873.19,325.583 870.167,342.332 865.864,361.9 C 876.168,354.755 879.953,341.089 893.41,337.1 C 903.545,343.804 910.738,353.448 920.958,360.064 C 927.996,346.285 931.712,329.182 937.485,314.137 C 942.798,311.798 947.268,308.615 953.094,306.789 C 959.686,294.102 967.643,281.685 975.13,269.129 C 982.541,256.703 990.709,244.079 994.412,230.551 C 975.619,227.401 956.018,231.306 942.993,236.98 C 926.305,251.568 903.424,261.612 878.72,260.861 C 864.997,278.945 838.854,288.412 817.199,284.743 C 809.541,283.446 803.013,279.483 796.08,276.477 C 792.324,274.848 789.332,274.9 785.98,272.803 C 766.161,260.402 742.985,238.771 716.198,236.98 C 709.414,236.526 699.393,241.964 695.996,233.306 C 710.938,215.948 749.372,219.992 767.615,232.387 C 766.88,213.835 751.812,209.619 741.906,200.239 C 735.963,199.444 730.174,200.152 728.133,193.809 C 736.605,177.624 759.447,191.187 769.452,197.483 C 779.369,203.725 784.763,208.149 792.408,220.447 C 797.16,228.089 799.452,235.74 798.834,247.084 C 807.47,256.584 837.766,264.088 841.99,245.247 C 842.514,230.861 822.899,231.977 812.607,225.957 C 798.939,217.962 786.426,200.49 794.243,183.705 C 800.562,188.102 805.557,193.821 810.771,199.32 C 833,209.23 864.013,210.356 875.964,230.55 C 891.663,229.721 905.805,227.334 912.691,217.69 C 910.116,211.695 905.913,207.328 902.592,202.076 C 886.378,196.505 861.902,198.226 845.663,188.298 C 838.393,183.854 824.232,171.46 833.726,161.66 C 843.264,165.276 851.144,171.081 863.109,172.683 C 878.313,174.718 896.073,171.452 910.854,174.519 C 926.304,177.726 934.35,190.647 942.992,200.238 C 947.208,198.195 951.359,197.059 954.929,196.564 C 954.657,191.939 950.294,191.404 950.339,186.46 C 952.795,183.787 959.24,189.369 959.52,185.542 C 945.619,176.792 929.288,170.472 925.546,151.557 C 875.774,131.316 831.748,86.237 765.778,92.771 C 756.001,93.739 745.798,98.407 739.151,100.119 C 740.523,100.275 742.541,99.79 742.824,101.037 C 735.855,102.303 730.641,104.005 724.46,102.874 C 723.984,93.453 731.368,87.212 737.314,82.666 C 759.637,65.602 802.23,61.747 828.217,72.562 C 828.033,71.041 835.082,71.564 830.053,70.725 C 833.392,66.783 825.09,65.796 821.788,64.296 C 812.767,60.192 799.416,54.13 791.489,50.518 C 784.121,39.681 766.374,26.047 774.961,8.266 C 780.492,14.355 785.578,20.442 794.242,25.718 C 823.604,43.593 884.862,36.762 870.454,81.748 C 879.318,90.713 899.756,103.928 902.592,83.585 C 904.706,68.419 887.347,60.347 884.228,43.17 C 882.17,31.834 882.535,16.633 894.328,13.777 C 896.361,47.719 950.956,67.876 927.384,113.897 C 933.593,121.634 974.41,132.238 978.804,116.653 C 981.751,106.199 959.251,85.554 951.256,69.807 C 945.857,59.167 942.358,32.05 955.849,30.31 C 959.433,32.235 958.833,38.346 959.521,43.169 C 971.829,74.363 1016.032,77.416 1013.696,120.325 C 1024.657,127.425 1036.931,133.21 1051.341,136.859 C 1068.416,119.394 1045.681,103.039 1041.241,84.503 C 1038.458,72.881 1039.017,61.641 1046.752,50.518 C 1051.861,60.774 1052.144,69.513 1057.77,77.155 C 1065.573,87.753 1078.628,93.606 1085.317,103.792 C 1091.548,113.286 1095.38,126.976 1094.498,138.696 C 1093.645,150.034 1081.468,161.604 1082.562,168.09 C 1084.366,178.782 1109.942,180.839 1116.536,191.053 C 1120.898,197.81 1121.395,206.297 1128.473,213.097 C 1134.007,218.417 1142.04,222.226 1147.755,226.875 C 1153.746,231.749 1161.193,236.263 1166.117,241.572 C 1173.931,249.993 1171.54,261.03 1175.301,271.884 C 1172.871,274.658 1169.403,276.394 1165.201,277.395 C 1162.067,279.486 1169.389,280.954 1166.117,282.906 C 1158.748,285.716 1155.494,293.152 1147.755,293.01 C 1142.871,292.921 1135.411,287.262 1129.392,284.743 C 1118.431,280.157 1109.188,276.032 1091.746,278.314 C 1093.205,307.525 1095.926,327.993 1091.746,358.226 C 1094.298,365.947 1096.707,371.731 1097.254,379.352 C 1098.16,391.971 1091.68,406.907 1092.665,415.174 C 1093.661,423.551 1103.124,432.748 1105.519,442.73 C 1108.758,456.239 1107.616,466.856 1106.439,480.39 C 1120.72,497.907 1135.017,516.09 1148.675,533.665 C 1155.047,541.867 1163.017,548.605 1168.874,556.628 C 1171.183,559.789 1171.911,563.982 1174.384,567.65 C 1177.453,572.203 1182.83,575.953 1186.32,580.509 C 1193.608,590.023 1198.598,598.601 1210.193,602.554 C 1215.717,610.753 1221.391,618.537 1223.049,628.273 C 1232.375,633.335 1241.649,638.447 1249.677,644.806 C 1243.971,654.178 1234.35,662.763 1221.213,659.503 C 1220.687,680.451 1215.644,702.244 1211.111,721.963 C 1218.558,731.886 1223.336,739.364 1229.476,748.601 C 1231.509,751.661 1232.883,756.861 1234.985,758.705 C 1242.842,765.599 1267.817,763.579 1271.713,773.401 C 1276.404,785.226 1261.485,814.61 1258.859,823.921 C 1257.739,827.887 1259.304,828.18 1258.859,832.188 C 1258.443,835.936 1255.84,840.221 1255.185,845.047 C 1254.55,849.739 1253.819,854.868 1253.349,859.743 C 1251.523,878.749 1253.09,900.283 1246.004,916.691 C 1243.651,918.321 1239.675,918.32 1236.822,919.448 C 1236.843,923.712 1239.907,924.934 1238.657,930.469 C 1263.514,916.755 1275.987,890.656 1293.751,869.847 C 1293.751,878.726 1293.751,887.605 1293.751,896.484 C 1292.055,921.279 1280.587,940.94 1268.958,958.025 C 1246.391,991.183 1212.921,1021.71 1175.302,1041.613 C 1158.109,1050.709 1141.439,1062.1 1122.963,1068.25 C 1091.591,1078.693 1059.72,1088.369 1021.962,1088.457 C 1023.055,1097.861 1032.886,1106.992 1027.471,1116.932 C 1011.341,1114.057 994.694,1103.816 979.724,1096.724 C 982.346,1104.714 986.207,1115.68 984.316,1125.199 C 969.422,1126.015 964.638,1116.716 951.259,1116.013 C 950.883,1124.617 957.713,1132.807 953.097,1139.895 C 936.527,1131.561 905.636,1132.61 895.249,1118.769 C 888.43,1109.681 890.02,1096.772 883.311,1085.703 C 875.768,1079.884 872.24,1066.528 865.866,1058.146 C 864.275,1056.054 860.808,1052.258 859.439,1053.553 C 861.006,1070.449 860.553,1092.397 847.503,1097.643 C 850.111,1094.289 844.331,1090.046 841.992,1087.539 C 832.549,1077.411 764.787,1036.55 738.234,1033.347 C 728.436,1032.164 717.088,1032.383 706.099,1032.428 C 716.455,1042.582 734.907,1052.597 744.662,1066.413 C 733.876,1072.67 717.667,1069.956 705.18,1075.599 C 694.767,1068.944 679.599,1061.882 664.778,1055.391 C 659.474,1053.069 654.666,1049.81 651.005,1049.88 C 643.34,1050.027 625.397,1061.895 620.705,1064.576 C 615.236,1067.703 610.128,1075.153 603.261,1075.598 C 596.273,1076.051 562.84,1071.959 558.269,1066.412 C 569.14,1051.264 586.22,1042.325 599.587,1029.671 C 542.93,1027.077 479.989,1043.972 446.248,1065.494 C 443.374,1067.326 430.984,1080.824 426.965,1078.353 L 423.292,1056.31 z M 979.723,154.313 C 968.977,155.837 956.188,157.919 942.995,157.069 C 965.84,161.05 984.921,157.325 998.087,169.928 C 1001.783,173.466 1001.862,177.394 1005.434,178.195 C 1012.086,179.687 1018.115,174.12 1022.878,172.684 C 1007.79,164.342 999.32,151.534 979.723,154.313 z M 243.324,180.95 C 235.149,192.979 222.199,200.233 209.35,207.588 C 213.068,207.849 215.732,209.164 219.451,209.425 C 226.044,201.072 233.628,192.784 247.916,191.054 C 269.825,188.401 284.169,189.715 292.907,174.52 C 292.803,173.399 292.633,172.346 291.071,172.684 C 277.264,179.247 260.522,177.489 243.324,180.95 z M 352.59,523.562 C 346.576,524.068 343.704,521.43 338.818,520.807 C 334.312,530.078 328.636,538.179 323.209,546.526 C 343.357,559.744 355.959,580.51 377.384,592.453 C 374.773,555.136 377.988,508.665 372.792,468.451 C 366.679,487.441 360.114,505.982 352.59,523.562 z M 903.513,567.651 C 913.71,555.808 926.426,546.483 935.65,533.666 C 925.428,525.52 918.766,513.814 901.676,512.541 C 903.802,523.663 898.621,555.027 903.513,567.651 z M 1032.979,614.497 C 1026.358,607.161 1015.166,600.758 1003.597,592.452 C 997.572,588.128 979.702,572.345 972.376,572.243 C 962.737,572.113 951.443,586.725 942.076,589.696 C 942.162,601.417 936.153,607.042 929.221,611.741 C 935.344,631.156 928.265,653.268 933.813,670.527 C 936.068,677.544 942.66,684.048 938.403,693.49 C 935.942,695.314 931.22,694.876 930.14,698.083 C 931.31,702.054 936.987,701.398 939.322,704.513 C 942.146,708.277 945.533,729.698 944.832,732.988 C 943.612,738.707 935.369,742.974 931.059,747.684 C 926.688,752.46 924.603,758.753 919.123,758.706 C 915.689,757.562 917.396,754.015 916.368,752.275 C 910.898,752.623 911.097,758.64 904.43,757.787 C 902.493,751.764 902.144,744.153 900.758,737.58 C 893.769,753.317 895.626,771.74 891.575,787.18 C 887.612,802.285 880.704,818.135 874.129,832.189 C 860.958,860.336 840.251,878.282 821.79,899.242 C 863.379,895.457 897.742,882.965 919.122,861.582 C 923.89,854.105 927.552,845.521 933.812,839.537 C 940.2,851.013 938.063,866.27 938.402,885.465 C 932.222,903.776 921.347,917.39 910.856,931.391 C 919.098,933.38 938.051,938.557 942.994,932.309 C 938.722,931.073 933.077,931.208 930.14,928.636 C 943.496,917.299 951.84,896.736 970.54,893.731 C 975.053,888.621 973.868,880.701 977.887,875.36 C 981.084,871.11 986.64,870.869 990.741,868.013 C 998.28,862.762 1006.718,852.031 1012.777,845.967 C 1027.406,831.326 1046.632,819.264 1047.67,793.611 C 1032.269,762.785 1016.785,732.042 1010.023,692.573 C 1023.452,668.652 1046.772,654.628 1068.789,639.299 C 1059.797,630.078 1034.613,613.947 1032.979,614.497 z M 332.391,612.66 C 325.537,609.222 318.111,605.621 310.352,601.638 C 304.734,598.751 288.718,590.739 285.562,592.452 C 270.467,600.648 256.336,620.567 242.406,631.949 C 234.281,638.587 227.458,646.58 220.371,652.156 C 213.223,657.778 205.35,659.911 200.169,666.853 C 218.79,683.064 243.09,696.925 257.098,716.453 C 271.567,736.623 261.122,754.084 252.507,773.402 C 246.921,785.927 241.698,802.714 236.898,816.573 C 235.128,821.682 230.62,826.877 230.47,830.35 C 230.241,835.712 235.361,840.611 236.898,845.965 C 253.734,855.517 270.631,869.219 285.563,879.95 C 300.88,890.962 311.848,905.154 333.31,908.425 C 340.614,919.183 346.426,931.432 355.346,940.574 C 358.72,940.275 363.475,941.357 365.447,939.655 C 359.762,926.479 346.715,911.957 344.329,894.647 C 343.362,887.631 343.097,875.144 347.084,868.01 C 371.355,891.629 411.994,903.314 460.94,899.239 C 461.07,893.182 454.449,890.968 450.839,887.298 C 434.502,870.691 420.805,848.885 407.684,828.513 C 402.815,814.726 394.741,801.342 390.239,786.259 C 388.2,779.429 389.433,770.727 383.811,765.134 C 381.522,770.805 383.108,780.352 379.219,784.423 C 372.518,783.779 372.157,776.792 368.2,773.401 C 365.548,774.728 367.117,780.278 362.692,779.831 C 353.926,771.76 349.726,759.122 344.328,747.683 C 346.891,740.143 351.489,734.64 354.428,727.475 C 345.527,721.286 351.487,713.521 352.591,705.431 C 353.47,699.009 351.626,690.383 351.673,682.467 C 351.694,678.953 353.68,675.33 353.509,672.363 C 353.348,669.536 350.775,667.071 350.755,664.096 C 350.702,655.387 355.138,645.61 351.673,635.621 C 341.568,631.646 335.699,623.433 332.391,612.66 z M 1091.745,744.928 C 1091.17,747.557 1093.336,754.21 1093.581,757.787 C 1095.068,779.501 1096.205,795.616 1103.682,807.389 C 1082.584,831.802 1056.126,844.871 1036.653,868.93 C 1034.317,869.463 1032.175,872.608 1030.226,870.767 C 1030.714,875.155 1026.99,875.043 1024.715,879.035 C 1019.525,888.145 1019.559,909.212 1001.76,901.078 C 999.642,906.002 995.347,908.747 993.497,913.938 C 996.864,919.792 993.524,927.425 990.742,932.308 C 1028.181,930.136 1056.242,917.968 1079.808,902.915 C 1088.17,897.573 1094.503,890.455 1103.681,886.382 C 1100.804,913.203 1085.143,927.236 1074.298,946.086 C 1116.295,944.314 1144.503,928.75 1170.708,911.183 C 1169.124,919.429 1167.223,930.592 1159.69,933.227 C 1160.75,936.336 1161.514,934.672 1160.609,938.739 C 1149.707,952.635 1138.352,966.075 1126.634,979.154 C 1119.223,982.762 1111.589,986.148 1107.353,992.932 C 1131.657,991.022 1150.44,984.946 1167.036,976.398 C 1178.09,970.704 1191.015,966.641 1198.255,957.11 C 1193.34,956.513 1188.463,959.701 1184.482,957.11 C 1187.814,940.845 1193.167,926.605 1197.337,911.183 C 1219.284,905.901 1217.402,889.124 1221.211,864.337 C 1223.801,847.472 1227.107,833.646 1227.637,820.248 C 1224.29,814.104 1221.415,807.489 1219.374,800.04 C 1204.473,791.983 1189.297,784.2 1175.3,775.239 C 1167.324,775.363 1160.529,769.67 1153.263,766.053 C 1145.886,762.382 1138.07,760.672 1133.981,754.114 C 1128.1,744.676 1128.761,733.209 1125.716,719.21 C 1117.984,721.681 1093.015,739.104 1091.745,744.928 z M 152.422,750.438 C 152.474,778.02 147.645,793.335 127.63,800.958 C 107.967,808.447 84.762,813.611 63.357,819.329 C 56.184,845.467 64.79,859.11 73.457,882.707 C 78.952,897.667 81.833,912.763 87.23,923.122 C 92.118,932.507 102.162,935.324 105.594,943.331 C 108.122,949.229 108.198,956.064 110.184,961.701 C 112.172,967.339 115.714,973.508 112.021,979.153 C 108.517,979.929 101.873,975.905 101.002,978.234 C 104.462,984.833 114.37,986.84 123.039,990.175 C 135.553,994.988 148.236,1000.738 163.44,1002.115 C 162.965,993.188 153.065,988.28 147.832,980.07 C 139.828,967.515 132.279,951.887 135.894,934.144 C 169.005,957.052 208.825,978.146 253.424,986.5 C 243.306,977.804 227.377,975.22 216.696,966.292 C 211.761,962.168 206.694,954.805 201.087,948.84 C 192.855,940.082 181.519,933.084 184.559,922.203 C 218.834,932.339 260.687,942.193 299.334,942.41 C 299.106,935.424 298.846,933.546 299.334,926.795 C 294.215,925.959 296.894,932.925 292.907,933.225 C 285.511,928.375 272.868,928.776 274.543,914.855 C 257.712,903.878 239.277,893.421 223.124,882.706 C 217.559,879.016 212.223,873.348 206.596,870.766 C 193.383,864.703 181.924,863.773 171.704,855.151 C 169.134,827.705 184.634,807.813 182.722,780.751 C 173.276,769.075 164.117,757.111 152.422,747.684 C 152.422,748.603 152.422,749.521 152.422,750.438 z M 805.266,912.101 C 804.653,912.101 804.04,912.101 803.429,912.101 C 766.937,938.722 711.676,964.457 654.68,964.457 C 597.681,964.457 541.867,948.417 505.013,926.797 C 499.075,923.315 494.06,917.715 489.404,918.529 C 492.71,931.143 498.764,941.008 500.422,955.271 C 554.745,958.523 616.468,974.023 654.681,1002.116 C 690.892,977.413 735.795,961.402 791.494,956.19 C 797.687,943.097 801.781,927.905 805.266,912.101 z "
   style="fill-rule:evenodd"
   id="Kontur" />
	<path
   d="M 928.885,851.572 C 928.195,886.401 908.765,910.439 886.647,926.892 C 870.898,922.439 853.619,919.517 836.146,916.788 C 840.974,922.584 850.437,929.655 858.183,933.322 C 884.694,945.869 930.354,949.015 969.287,946.18 C 988.366,944.79 1003.322,944.371 1021.624,939.751 C 1041.74,934.671 1057.093,923.522 1071.206,917.705 C 1076.341,912.125 1082.819,907.891 1088.652,903.009 C 1088.123,905.075 1087.008,906.889 1085.897,908.52 C 1079.246,918.291 1068.524,929.597 1059.27,936.995 C 1025.554,963.95 984.999,984.668 928.885,986.596 C 894.505,987.779 865.209,982.188 833.391,976.493 C 835.708,984.278 842.289,987.799 849,991.188 C 856.4,1001.553 868.301,1007.478 877.465,1016.907 C 900.965,1041.085 925.397,1082.671 933.475,1117.946 C 925.904,1117.471 915.047,1119.765 908.685,1114.272 C 903.802,1110.057 901.979,1096.002 898.583,1088.553 C 889.213,1067.994 878.766,1050.039 862.773,1034.359 C 859.917,1031.558 855.22,1029.798 852.673,1026.092 C 850.529,1022.974 850.595,1019.443 848.999,1015.988 C 841.441,999.625 832.85,984.009 816.862,977.411 C 816.355,986.171 823.062,993.799 826.963,1002.211 C 834.5,1018.469 841.116,1041.128 837.982,1064.672 C 817.935,1051.952 793.525,1035.67 766.362,1027.013 C 765.983,1010.078 761.016,996.816 754.424,982.923 C 745.832,981.418 745.543,986.423 738.816,984.76 C 744.852,995.593 752.992,1009.113 752.588,1023.337 C 744.382,1021.883 746.642,1011.671 744.324,1005.886 C 741.177,998.031 735.955,991.569 731.47,986.596 C 726.977,986.388 725.699,989.397 721.369,989.352 C 725.462,998.474 735.458,1006.419 732.388,1019.665 C 723.107,1014.253 725.085,997.575 715.861,992.109 C 710.922,992.372 707.127,993.783 704.841,996.701 C 707.592,1004.972 715.74,1007.843 716.779,1017.828 C 705.342,1021.39 687.559,1018.602 680.05,1026.094 C 690.252,1038.24 706.412,1044.423 715.861,1057.324 C 710.799,1057.466 707.447,1059.317 703.007,1060.079 C 692.315,1051.935 681.296,1044.007 666.278,1038.035 C 661.416,1036.102 656.146,1032.502 652.505,1032.523 C 645.413,1032.566 634.337,1041.505 624.959,1046.301 C 620.818,1048.418 616.007,1050.169 611.186,1052.731 C 601.376,1057.944 596.837,1062.237 581.804,1058.242 C 582.85,1054.391 586.753,1053.395 590.067,1051.812 C 595.382,1046.409 602.192,1042.601 608.432,1038.035 C 614.242,1033.783 622.519,1030.802 624.959,1023.338 C 617.755,1015.849 600.085,1018.826 591.903,1012.317 C 597.841,1008.459 600.677,1001.499 603.84,994.865 C 600.44,993.062 596.829,991.468 591.903,991.19 C 585.039,995.653 583.562,1005.503 579.967,1013.236 C 577.093,1013.048 573.225,1013.854 571.702,1012.317 C 574.12,1002.796 579.883,996.619 583.639,988.434 C 583.317,985.389 578.347,986.993 575.375,986.597 C 570.189,995.188 564.065,1002.839 560.684,1013.236 C 555.84,1015.217 552.967,1013.274 549.665,1011.398 C 556.408,1004.06 559.673,993.241 565.274,984.761 C 544.5,973.783 542.575,1001.387 536.81,1014.154 C 501.454,1022.876 466.719,1032.217 439.48,1049.058 C 438.881,1033.478 442.666,1020.251 448.662,1006.805 C 455.352,991.803 469.636,981.984 475.29,967.309 C 472.261,965.842 464.196,967.206 464.272,971.901 C 437.623,978.059 412.667,991.362 381.633,993.946 C 376.63,994.363 370.46,994.611 365.106,994.865 C 292.066,998.317 231.78,965.147 190.647,931.486 C 212.623,938.292 238.001,948.879 266.857,952.612 C 300.719,956.994 334.92,955.088 369.697,951.694 C 371.017,951.565 373.041,951.08 374.288,950.775 C 396.412,945.371 418.035,937.981 437.644,929.648 C 443.816,927.026 451.469,924.404 454.171,918.627 C 438.08,922.606 419.219,925.827 399.078,930.568 C 392.812,932.044 385.674,936.061 380.715,935.161 C 371.849,933.549 361.449,915.677 357.759,905.768 C 354.635,897.375 353.615,887.705 352.25,880.967 C 378.883,905.738 425.557,920.894 471.617,908.522 C 476.934,929.839 483.317,950.091 489.98,970.064 C 505.013,969.17 524.548,970.597 539.563,971.901 C 604.867,977.57 642.819,1012.464 652.502,1012.317 C 664.803,1012.129 682.405,996.407 692.903,992.11 C 695.27,991.14 708.217,987.047 712.184,985.68 C 738.872,976.476 767.08,971.496 799.414,970.064 C 809.942,953.346 814.263,930.42 821.45,910.36 C 864.177,915.396 888.961,894.649 913.27,878.212 C 918.802,869.656 924.837,861.608 928.885,851.572 z M 396.326,984.761 C 401.773,985.31 404.509,983.149 410.098,983.842 C 412.358,979.77 415.102,976.567 417.444,972.819 C 420.418,968.063 432.833,946.881 433.972,939.754 C 419.031,952.361 404.16,965.041 396.326,984.761 z M 1025.296,943.426 C 1028.555,944.187 1037.551,949.567 1039.068,943.426 C 1035.366,942.66 1026.956,937.866 1025.296,943.426 z M 447.745,943.426 C 441.925,956.588 430.488,964.129 425.708,978.331 C 444.269,976.689 448.969,943.426 447.745,943.426 z M 873.792,977.412 C 878.141,977.041 880.111,979.052 884.811,978.331 C 879.323,964.531 872.289,952.278 860.939,944.345 C 861.744,958.846 870.942,964.954 873.792,977.412 z M 852.674,972.818 C 856.887,973.809 860.127,975.773 864.61,976.494 C 863.054,969.783 859.772,964.799 854.51,961.797 C 854.906,956.794 850.963,948.21 845.328,946.182 C 844.427,958.412 850.612,963.552 852.674,972.818 z M 1015.195,949.856 C 1016.168,955.967 1028.722,957.52 1028.968,949.856 C 1021.435,949.431 1016.162,946.744 1008.768,946.181 C 1007.891,950.361 1012.628,951.965 1015.195,949.856 z M 906.847,980.167 C 901.703,965.719 889.299,958.531 879.302,948.938 C 878.689,948.938 878.076,948.938 877.465,948.938 C 887.127,959.479 884.25,982.564 906.847,980.167 z M 403.672,949.856 C 390.685,962.584 374.463,972.075 365.108,988.433 C 370.651,987.914 376.392,988.733 380.717,986.596 C 391.76,981.142 402.198,960.557 406.427,949.856 C 405.508,949.856 404.59,949.856 403.672,949.856 z M 916.029,979.248 C 919.701,979.248 923.375,979.248 927.048,979.248 C 920.574,965.517 908.888,957.001 895.828,949.856 C 898.708,963.509 911.433,967.313 916.029,979.248 z M 987.649,953.53 C 994.267,955.679 1005.829,968.682 1012.439,959.041 C 1006.021,956.498 995.587,948.464 987.649,953.53 z M 239.313,958.123 C 244.27,964.252 252.509,957.298 255.841,953.53 C 250.621,951.695 241.323,953.688 239.313,958.123 z M 954.595,978.331 C 945.711,967.314 932.574,960.556 919.701,953.53 C 919.09,953.53 918.477,953.53 917.866,953.53 C 927.109,964.688 933.563,981.825 954.595,978.331 z M 973.876,960.879 C 975.318,968.242 990.756,974.609 994.995,965.472 C 985.191,961.196 976.221,956.083 964.693,953.531 C 965.351,958.386 968.481,960.765 973.876,960.879 z M 975.713,971.9 C 964.574,965.285 955.041,957.064 939.903,954.448 C 947.75,963.238 961.72,980.923 975.713,971.9 z M 357.761,969.146 C 351.229,974.16 343.573,979.708 340.316,987.516 C 345.823,986.907 349.278,988.349 354.089,988.434 C 362.948,978.008 374.824,970.6 379.799,956.287 C 378.573,956.286 363.558,964.696 357.761,969.146 z M 254.923,966.39 C 264.329,974.753 273.442,963.609 279.714,958.123 C 271.334,957.096 260.435,961.486 254.923,966.39 z M 296.241,979.248 C 298.327,982.674 304.546,981.964 309.095,982.924 C 316.639,975.16 326.281,969.497 331.133,959.041 C 322.206,961.616 298.616,975.61 296.241,979.248 z M 317.36,984.761 C 330.479,988.364 336.053,979.978 343.07,973.738 C 348.363,969.032 354.22,964.235 355.007,959.042 C 353.476,959.041 325.665,973.472 317.36,984.761 z M 275.123,973.737 C 277.985,975.772 281.682,976.973 286.141,977.412 C 291.052,971.914 300.018,970.474 301.751,961.797 C 290.69,963.591 281.824,967.583 275.123,973.737 z M 460.6,998.538 C 468.359,994.97 504.79,984.329 510.184,978.331 C 491.47,975.74 464.218,979.958 460.6,998.538 z M 785.645,988.434 C 785.645,989.353 785.645,990.272 785.645,991.19 C 798.362,990.716 805.221,996.102 815.946,997.62 C 814.084,985.574 795.05,987.896 785.645,988.434 z M 451.418,1019.665 C 463.75,1016.692 497.233,998.146 500.083,993.027 C 480.692,998.736 456.135,999.275 451.418,1019.665 z M 785.645,1004.968 C 800.89,1007.171 811.503,1014.004 825.127,1017.828 C 822.867,1001.104 800.004,1004.993 784.727,1001.294 C 784.657,1002.894 784.932,1004.15 785.645,1004.968 z M 445.909,1040.79 C 452.133,1038.137 491.249,1018.175 490.9,1012.316 C 472.929,1018.831 448.26,1018.649 445.909,1040.79 z M 790.235,1017.828 C 804.751,1022.901 816.858,1030.385 830.636,1036.198 C 830.629,1032.223 828.504,1030.37 828.799,1026.094 C 817.015,1023.452 803.041,1013.338 790.235,1017.828 z M 872.873,1023.338 C 872.035,1016.217 863.117,1017.177 855.428,1016.908 C 856.499,1023.797 867.07,1021.182 872.873,1023.338 z M 793.908,1027.932 C 792.789,1028.036 791.734,1028.205 792.072,1029.768 C 805.551,1037.411 819.066,1045.017 832.473,1052.732 C 831.485,1048.033 832.866,1046.674 831.554,1042.628 C 820.318,1036.414 807.158,1032.128 793.908,1027.932 z M 885.729,1038.953 C 885.246,1029.945 874.95,1030.754 866.447,1029.767 C 867.771,1037.934 877.164,1038.029 885.729,1038.953 z M 878.383,1047.221 C 883.55,1050.319 888.864,1053.269 896.747,1053.651 C 898.574,1044.657 883.49,1043.195 878.383,1047.221 z M 905.01,1068.346 C 905.505,1064.179 903.166,1062.844 902.257,1060.079 C 896.95,1060.488 892.849,1059.694 888.484,1059.16 C 890.535,1065.681 898.464,1066.322 905.01,1068.346 z M 914.193,1083.962 C 914.295,1074.674 905.388,1074.398 896.747,1073.858 C 898.855,1080.933 907.273,1081.699 914.193,1083.962 z M 921.539,1099.577 C 921.033,1090.895 913.432,1089.315 904.093,1089.473 C 907.008,1095.743 914.059,1097.874 921.539,1099.577 z M 929.803,1112.436 C 924.194,1107.943 920.53,1101.505 908.685,1103.25 C 910.107,1110.792 922.605,1116.763 929.803,1112.436 z "
   style="fill:yellow"
   id="unten mitte" />
	<path
   d="M 1283.311,894.744 C 1278.919,929.792 1263.47,957.542 1238.915,978.49 C 1090.955,1104.725 1020.547,1066.17 1011.524,1066.509 C 1003.192,1061.627 996.801,1050.075 994.077,1042.628 C 1013.589,1038.176 1033.989,1030.029 1051.925,1021.502 C 1058.176,1018.528 1064.101,1014.189 1069.371,1013.235 C 1078.015,1011.672 1177.957,994.808 1227.302,957.205 C 1249.577,940.228 1267.31,920.76 1283.311,894.744 z M 1199.754,978.331 C 1192.907,982.122 1186.786,987.198 1179.554,990.271 C 1171.983,993.488 1146.632,1004.14 1141.907,1005.886 C 1126.178,1011.697 1108.495,1016.124 1090.49,1018.745 C 1082.653,1019.886 1073.242,1018.01 1064.778,1020.582 C 1058.611,1022.456 1053.597,1027.852 1047.334,1031.604 C 1104.551,1033.458 1180.837,999.449 1195.164,990.27 C 1214.216,978.066 1234.619,968.757 1244.747,949.855 C 1243.523,949.855 1242.299,949.855 1241.074,949.855 C 1228.213,961.528 1214.146,970.362 1199.754,978.331 z "
   style="fill:yellow"
   id="spitze hinten" />
	<path
   d="M 863.691,994.864 C 875.82,998.652 890.129,1000.26 903.174,1003.131 C 904.309,1006.104 900.202,1003.834 901.337,1006.805 C 927.34,1031.623 950.138,1064.531 960.103,1102.332 C 954.943,1101.062 949.469,1100.109 944.494,1098.658 C 928.954,1052.661 898.858,1021.226 863.691,994.864 z "
   style="fill:yellow"
   id="unten rum" />
	<path
   d="M 1001.422,1091.31 C 992.558,1090.074 983.88,1088.651 974.795,1087.636 C 961.26,1052.8 937.619,1028.073 913.274,1004.05 C 939.462,997.518 946.361,1013.305 959.184,1027.932 C 964.757,1034.289 972.666,1039.174 976.63,1045.383 C 979.757,1050.28 981.476,1056.577 984.894,1061.917 C 990.746,1071.058 997.02,1079.882 1001.422,1091.31 z "
   style="fill:yellow"
   id="path2165" />
	<path
   d="M 441.318,23.06 C 442.177,26.699 435.44,30.635 434.89,35.919 C 426.246,40.246 414.645,45.847 403.671,50.615 C 400.354,52.057 394.607,52.873 392.652,54.29 C 384.776,59.998 383.164,74.902 388.06,86.438 C 411.51,81.144 435.562,73.042 462.435,80.008 C 440.476,79.104 416.516,83.505 399.079,90.112 C 389.318,93.811 383.391,100.539 374.288,106.645 C 361.116,115.481 346.105,124.455 332.051,133.283 C 308.019,148.377 285.766,165.556 249.412,163.594 C 245.791,163.399 242.568,161.904 239.311,162.676 C 230.215,164.834 225.698,178.576 216.356,184.72 C 208.119,190.139 201.815,190.862 193.401,194.824 C 192.668,201.574 186.999,207.83 188.81,214.114 C 195.786,217.239 204.576,218.55 212.684,220.543 C 204.629,226.211 206.334,238.832 220.948,237.996 C 230.407,237.454 236.423,226.74 248.494,225.137 C 256.627,224.057 264.041,228.221 271.449,228.811 C 283.035,229.733 289.347,223.842 296.24,223.3 C 298.536,225.64 291.424,232.602 287.976,235.24 C 273.872,246.037 249.998,249.753 228.293,254.53 C 229.805,261.283 238.128,261.224 245.738,261.879 C 264.844,280.732 277.035,306.503 294.403,327.094 C 304.468,330.497 315.484,332.95 319.195,342.709 C 308.283,346.879 293.989,342.661 282.466,341.792 C 285.118,354.447 304.339,350.528 315.522,354.651 C 301.343,364.362 283.156,350.847 270.53,350.977 C 271.975,358.191 293.206,368.932 302.667,368.429 C 307.137,368.191 310.4,364.982 313.686,362.918 C 328.514,372.578 332.698,392.887 348.578,401.496 C 358.832,386.341 364.552,366.65 377.043,353.733 C 385.774,355.713 389.997,362.206 394.489,368.429 C 400.08,372.02 406.379,374.905 409.179,381.288 C 396.165,384.146 384.769,382.515 371.533,382.206 C 369.102,396.329 372.835,412.093 371.533,428.132 C 353.903,425.231 341.676,409.03 330.214,396.903 C 324.881,405.505 332.662,415.514 337.56,421.703 C 344.643,430.653 355.467,437.682 364.189,442.829 C 357.821,458.356 337.302,442.328 328.378,440.074 C 323.619,434.731 320.783,427.463 312.769,425.377 C 314.731,440.563 326.085,454.306 340.315,460.281 C 340.511,464.151 336.204,463.517 334.806,465.792 C 318.575,460.597 312.218,445.522 299.914,436.399 C 298.773,448.26 310.024,455.674 313.686,465.792 C 318.806,471.693 325.264,476.254 333.886,478.651 C 341.487,474.314 348.165,469.054 355.923,464.873 C 348.023,475.953 347.009,493.923 338.477,504.37 C 334.359,502.978 331.882,499.945 327.459,498.858 C 319.588,508.438 317.184,523.483 308.176,531.925 C 297.946,528.688 293.372,519.791 281.548,518.147 C 281.132,529.634 293.402,538.202 303.586,546.622 C 320.94,560.973 337.508,578.843 353.168,594.385 C 362.882,604.025 373.668,607.542 376.123,625.615 C 379.305,649.023 377.021,683.684 377.042,711.957 C 377.051,723.7 374.983,731.184 381.633,739.514 C 376.995,745.896 374.952,754.874 372.451,763.395 C 363.097,757.916 375.424,745.075 371.532,736.757 C 364.365,740.303 364.67,751.324 361.432,758.802 C 348.243,748.098 359.549,735.215 365.105,722.98 C 364.225,718.654 359.927,717.75 355.922,716.55 C 363.457,708.261 361.61,687.947 362.35,669.705 C 362.968,654.477 362.836,638.915 360.513,626.534 C 349.709,622.338 342.272,614.776 339.395,602.651 C 306.952,583.975 268.867,570.942 236.555,552.132 C 242.028,545.298 241.945,528.591 238.392,519.984 C 229.384,519.979 231.859,533.693 230.127,540.192 C 229.266,543.428 226.627,546.123 226.455,548.458 C 224.875,569.926 250.835,573.54 265.019,581.526 C 236.316,618.639 196.872,645.008 163.099,677.052 C 173.044,681.587 184.173,671.955 191.563,667.866 C 193.015,669.476 192.792,672.76 193.399,675.215 C 200.411,680.492 207.565,687.862 214.517,694.503 C 227.262,706.677 245.356,712.795 247.574,732.164 C 249.577,749.662 233.917,771.987 229.209,786.356 C 228.286,789.174 229.095,792.002 228.292,794.623 C 223.154,811.394 207.146,827.708 220.028,846.979 C 227.758,858.545 252.779,872.56 265.937,880.965 C 283.318,892.068 297.827,903.618 314.601,912.194 C 318.511,911.652 320.675,912.854 323.784,913.113 C 328.347,922.939 333.977,931.697 338.475,941.588 C 331.093,937.95 330.885,927.136 321.948,925.054 C 318.663,931.423 325.676,935.394 325.621,941.588 C 322.983,942.835 316.951,940.803 311.849,941.588 C 303.12,933.785 307.045,913.325 291.648,912.194 C 289.249,913.467 292.095,919.989 289.812,921.38 C 279.499,918.383 279.956,906.234 272.365,900.253 C 270.177,898.529 266.747,898.347 264.103,896.58 C 259.074,893.218 254.657,888.359 248.493,884.639 C 226.765,871.523 205.019,856.155 181.464,846.061 C 183.106,828.457 190.959,811.141 195.237,795.541 C 200.524,776.259 190.378,767.035 178.709,755.126 C 169.26,745.48 162.241,738.891 151.163,733.081 C 149.643,712.21 151.424,692.603 146.572,674.295 C 140.602,675.862 141.656,684.875 141.063,690.829 C 138.611,715.453 138.002,745.484 134.635,770.741 C 114.371,789.66 80.889,795.356 53.833,807.481 C 36.322,835.203 56.056,870.957 65.769,898.417 C 67.581,903.536 68.281,907.453 71.279,912.194 C 76.738,920.824 84.042,938.46 96.071,941.588 C 96.852,952.442 98.541,962.387 103.417,969.144 C 88.828,972.405 92.753,949.198 84.135,943.424 C 83.102,951.661 84.27,959.943 85.052,969.144 C 73.349,967.687 70.917,956.954 67.608,947.099 C 74.767,939.517 68.206,928.055 63.934,921.38 C 56.99,919.638 59.544,927.399 53.834,926.891 C 53.035,922.526 56.081,919.101 56.588,914.951 C 56.743,913.684 54.693,912.339 54.752,910.358 C 54.843,907.276 55.947,900.906 53.834,894.743 C 50.788,885.86 46.504,878.299 42.815,867.187 C 35.669,845.662 21.221,826.625 16.187,808.401 C 38.608,801.13 50.721,783.55 68.525,771.659 C 69.6,740.577 67.272,703.19 60.26,675.215 C 48.67,674.209 40.823,688.736 28.123,679.808 C 36.779,675.912 45.175,671.758 53.833,667.867 C 57.459,659.12 61.869,650.755 66.687,643.067 C 71.333,635.653 75.4,625.998 81.378,620.104 C 83.992,617.527 88.049,617.186 90.561,614.592 C 93.592,611.461 95.221,606.556 96.988,602.651 C 104.765,598.184 109.537,590.711 112.598,581.526 C 117.419,577.157 125.325,570.998 125.452,564.991 C 125.673,562.624 127.031,566.253 129.124,564.991 C 139.097,554.016 145.239,538.49 154.834,525.495 C 157.847,521.413 168.258,511.188 169.525,504.369 C 171.172,495.495 162.01,479.08 164.015,466.709 C 166.058,454.11 176.514,449.822 184.216,441.909 C 191.297,434.634 197.108,427.948 193.398,418.027 C 188.635,418.774 178.284,437.466 172.279,434.561 C 167.721,427.573 177.752,426.149 181.462,421.701 C 186.316,415.882 189.165,408.401 187.889,399.656 C 177.793,401.254 176.484,416.329 167.69,416.19 C 170.671,406.488 185.982,396.676 182.381,380.368 C 175.12,381.066 177.116,391.023 170.444,392.308 C 173.249,364.625 168.837,344.099 172.279,316.071 C 195.613,311.856 215.509,304.205 218.19,279.33 C 205.646,283.622 201.342,296.156 186.97,298.62 C 185.784,300.494 182.519,300.29 183.298,304.131 C 166.074,300.798 141.221,301.071 124.532,309.642 C 115.304,314.381 109.398,325.555 98.823,323.42 C 104.094,316.751 114.579,315.3 117.186,305.968 C 103.887,300.457 90.545,314.488 77.704,312.397 C 75.882,310.66 77.258,308.057 77.704,305.968 C 79.732,306.082 78.094,309.864 78.622,311.479 C 90.588,313.566 93.533,302.015 90.56,292.189 C 82.819,292.406 82.444,299.992 79.54,305.049 C 77.044,300.986 81.757,296.268 82.296,292.189 C 101.062,283.712 115.511,270.918 130.96,259.122 C 134.634,252.567 138.001,245.029 142.897,237.996 C 146.234,233.201 151.358,230.434 151.161,225.137 C 159.642,227.071 164.183,217.432 173.198,216.87 C 173.68,210.687 178.48,204.166 177.79,198.499 C 176.317,186.426 160.931,184.518 163.099,166.351 C 165.024,150.208 176.365,141.688 184.217,129.61 C 188.121,123.604 190.153,117.152 193.399,109.402 C 198.222,124.573 178.533,137.761 175.036,152.573 C 172.086,165.064 179.001,177.138 186.054,186.558 C 210.697,183.653 222.092,167.497 236.555,154.41 C 227.123,113.351 262.621,102.39 275.12,77.253 C 274.168,97.429 252.155,104.491 244.818,121.342 C 245.342,135.603 244.01,146.049 249.41,155.327 C 274.659,159.036 293.275,148.47 307.258,137.875 C 306.251,128.91 300.69,125.158 299.912,117.667 C 296.633,86.086 328.149,72.767 334.804,48.777 C 331.802,74.548 295.155,103.473 319.195,131.445 C 342.679,122.483 357.209,104.563 379.797,94.703 C 379.718,93.399 379.646,92.102 380.715,91.948 C 380.341,82.163 373.462,76.266 377.042,65.31 C 393.178,45.935 426.793,44.045 441.318,23.06 z M 222.785,247.181 C 237.604,246.39 253.251,246.428 262.268,239.833 C 261.73,236.696 255.445,239.31 254.003,237.077 C 257.679,234.326 268.475,238.694 269.613,233.404 C 253.658,220.411 228.249,232.822 222.785,247.181 z M 176.875,255.448 C 170.152,248.313 161.432,239.593 146.574,243.507 C 143.177,247.764 141.526,253.767 138.31,258.204 C 144.105,263.238 176.33,265.854 176.875,255.448 z M 196.157,323.419 C 194.668,338.388 188.549,365.901 209.011,365.671 C 205.716,351.398 200.05,338.04 197.993,323.419 C 197.381,323.419 196.771,323.419 196.157,323.419 z M 236.558,373.019 C 241.034,372.597 247.313,373.981 250.331,372.101 C 246.977,363.515 239.742,350.18 239.312,348.22 C 235.677,341.14 236.034,330.068 231.049,324.338 C 230.437,324.338 229.824,324.338 229.211,324.338 C 229.7,342.526 228.103,362.802 236.558,373.019 z M 215.439,369.346 C 219.605,369.77 222.97,370.997 227.377,371.182 C 223.998,355.579 217.543,343.053 215.439,326.174 C 214.52,326.174 213.603,326.174 212.685,326.174 C 208.402,340.635 212.711,356.503 215.439,369.346 z M 294.405,372.101 C 280.866,370.337 271.451,364.446 261.349,359.242 C 260.737,359.242 260.125,359.242 259.513,359.242 C 262.185,372.745 283.79,385.803 294.405,372.101 z M 282.469,408.842 C 285.296,406.466 288.029,403.994 287.978,398.739 C 277.358,397.946 268.355,400.307 257.677,396.902 C 258.772,408.053 271.86,407.207 282.469,408.842 z M 270.532,420.783 C 271.672,417.636 275.959,417.639 276.041,413.435 C 263.62,412.694 257.093,406.059 246.659,403.331 C 247.361,416.406 258.505,419.037 270.532,420.783 z M 247.577,429.968 C 230.676,430.035 225.192,418.68 211.766,415.272 C 214.733,424.282 222.984,437.567 232.885,439.154 C 243.178,440.804 253.994,432.008 261.349,426.295 C 250.239,420.569 241.28,412.692 229.211,407.924 C 230.214,420.393 240.271,423.804 247.577,429.968 z M 259.514,487.835 C 265.545,488.051 268.158,484.847 270.533,481.405 C 266.541,471.927 266.966,458.029 257.678,453.849 C 257.067,453.849 256.453,453.849 255.842,453.849 C 256.666,465.577 259.277,475.518 259.514,487.835 z M 324.706,484.161 C 309.71,477.424 302.449,462.949 287.977,455.687 C 290.405,471.059 311.852,500.413 324.706,484.161 z M 199.829,503.451 C 202.584,503.451 205.34,503.451 208.094,503.451 C 211.388,486.804 210.505,464.648 198.912,457.524 C 201.676,472.225 199.96,490.263 199.829,503.451 z M 218.194,504.369 C 220.949,504.369 223.703,504.369 226.458,504.369 C 229.751,487.723 228.869,465.566 217.276,458.442 C 220.041,473.143 218.323,491.182 218.194,504.369 z M 235.641,500.694 C 240.725,501.188 243.587,499.459 246.66,497.94 C 248.076,484.596 246.396,467.185 236.558,462.117 C 238.02,475.695 238.382,487.902 235.641,500.694 z M 300.832,495.184 C 292.608,488.101 285.45,479.954 274.205,475.895 C 275.964,488.101 288.563,505.292 300.832,495.184 z M 209.012,568.667 C 208.962,569.841 207.836,569.939 208.094,571.421 C 211.782,578.48 234.323,584.772 242.986,585.199 C 246.713,585.384 252.34,587.166 254.005,582.444 C 243.287,574.155 223.589,570.041 209.012,568.667 z M 198.912,583.362 C 201.322,591.569 211.928,591.214 222.785,593.466 C 233.546,595.699 239.2,598.87 241.149,589.792 C 225.672,588.13 214.731,581.929 199.829,579.688 C 200.036,581.425 198.796,581.715 198.912,583.362 z M 191.566,600.814 C 201.587,600.315 219.862,614.773 226.458,600.814 C 214.124,598.762 203.371,595.129 191.566,592.547 C 189.219,595.005 192.12,597.392 191.566,600.814 z M 181.466,610.919 C 183.655,613.105 208.711,621.367 209.012,610.919 C 204.3,609.979 180.714,601.483 181.466,610.919 z M 175.039,630.207 C 181.607,630.35 186.755,629.068 189.73,625.615 C 187.682,621.234 180.573,621.916 175.039,621.021 C 173.246,623.086 174.239,627.932 175.039,630.207 z M 96.991,643.985 C 99.624,654.211 100.977,665.716 111.682,667.867 C 110.459,658.067 107.721,649.785 103.418,643.067 C 100.979,643.076 98.174,642.72 96.991,643.985 z M 93.318,674.297 C 97.703,682.362 99.068,689.993 104.337,691.749 C 104.387,676.388 94.86,662.653 87.809,651.333 C 76.31,656.686 89.14,666.611 93.318,674.297 z M 184.221,677.053 C 183.609,677.053 182.997,677.053 182.385,677.053 C 181.506,679.849 178.733,680.748 179.63,685.319 C 191.602,694.164 204.376,702.206 219.112,708.283 C 211.573,693.78 196.527,686.786 184.221,677.053 z M 88.728,684.401 C 86.962,676.674 81.749,672.399 79.545,665.111 C 68.738,666.501 74.349,680.359 78.627,684.401 C 78.627,684.401 87.361,696.484 91.482,700.933 C 92.176,707.893 96.929,710.792 103.419,711.956 C 102.805,705.221 100.258,700.422 96.073,697.26 C 94.304,697.634 88.728,684.401 88.728,684.401 z M 187.893,700.016 C 182.139,699.956 171.75,685.242 164.939,685.319 C 160.432,692.627 165.859,699.936 172.284,702.772 C 173.5,703.308 198.206,718.887 202.585,721.142 C 204.32,721.04 206.941,723.522 210.85,722.98 C 207.985,710.535 194.909,708.307 187.893,700.016 z M 74.036,701.853 C 75.371,702.356 87.541,723.86 98.828,727.573 C 94.528,713.196 82.883,706.169 76.791,693.587 C 75.873,693.587 74.954,693.587 74.036,693.587 C 74.036,696.342 74.036,699.098 74.036,701.853 z M 161.266,715.631 C 172.616,718.668 178.727,726.944 189.731,730.328 C 190.036,723.898 169.55,708.263 161.266,704.609 C 159.241,708.271 161.853,710.857 161.266,715.631 z M 87.809,741.351 C 88.644,743.271 90.52,744.15 93.319,744.106 C 92.56,741.509 94.613,741.726 94.238,739.514 C 91.095,731.327 82.956,728.141 80.465,719.305 C 78.935,719.305 77.403,719.305 75.874,719.305 C 74.383,731.745 86.633,737.723 87.809,741.351 z M 157.592,732.165 C 165.447,736.86 171.263,743.596 182.385,745.023 C 179.759,732.647 168.119,729.289 159.429,722.979 C 158.437,725.66 157.374,728.271 157.592,732.165 z M 90.564,757.883 C 89.039,749.611 85.105,743.748 77.709,741.351 C 74.844,751.333 81.991,756.572 90.564,757.883 z M 37.308,836.877 C 40.176,828.535 38.672,818.162 38.227,808.402 C 24.468,809.794 28.437,833.007 37.308,836.877 z M 205.34,845.144 C 203.558,844.78 203.998,849.328 206.258,847.9 C 211.813,840.479 204.534,824.579 193.403,824.936 C 194.769,833.887 198.208,844.944 205.34,845.144 z "
   style="fill:yellow"
   id="hirsch_vorne" />
	<path
   d="M 1064.777,157.165 C 1064.912,165.91 1066.799,172.901 1069.37,179.209 C 1085.561,188.73 1108.549,191.453 1111.607,214.113 C 1118.284,218.76 1122.044,226.331 1131.807,227.891 C 1136.38,239.543 1153.563,238.581 1159.353,249.017 C 1159.353,251.16 1159.353,253.304 1159.353,255.447 C 1157.336,253.484 1157.932,248.907 1153.844,249.017 C 1147.636,252.141 1152.882,266.063 1153.844,267.388 C 1144.42,267.087 1134.337,263.343 1125.379,265.55 C 1125.67,270.77 1128.333,273.617 1132.725,274.736 C 1124.429,275.312 1116.441,267.408 1107.933,265.55 C 1095.374,262.809 1082.764,265.722 1072.123,261.877 C 1057.126,256.457 1052.881,245.286 1039.986,238.913 C 1039.493,260.84 1059.167,270.548 1074.878,279.328 C 1072.247,299.792 1075.438,325.122 1073.959,344.544 C 1069.765,346.555 1068.618,338.506 1064.776,337.196 C 1060.594,354.274 1078.959,361.543 1076.714,376.693 C 1069.08,377.595 1067.567,372.371 1062.023,371.181 C 1058.473,383.577 1076.722,386.112 1075.796,395.981 C 1065.304,394.23 1060.835,386.453 1051.923,383.122 C 1050.432,387.912 1054.56,392.893 1057.432,395.981 C 1062.406,401.329 1072.974,403.575 1072.123,410.678 C 1067.485,413.365 1061.321,408.139 1060.186,405.167 C 1057.622,402.348 1049.423,394.906 1043.659,393.226 C 1041.305,407.386 1060.864,419.479 1074.878,423.538 C 1082.807,435.502 1088.872,448.423 1089.569,464.871 C 1089.825,470.905 1087.321,477.221 1088.65,483.242 C 1089.852,488.686 1098.812,497.826 1103.341,503.45 C 1129.019,535.331 1156.966,566.644 1181.389,598.977 C 1190.012,599.229 1190.561,607.561 1198.834,608.163 C 1198.699,618.472 1211.85,623.26 1213.525,634.8 C 1218.494,638.71 1227.656,638.423 1230.053,644.904 C 1222.533,650.516 1217.827,644.045 1209.852,643.067 C 1205.334,657.426 1205.715,672.004 1202.506,687.156 C 1199.937,699.293 1189.15,715.568 1193.324,726.653 C 1196.514,735.127 1214.66,761.482 1222.706,766.15 C 1231.963,771.517 1243.486,770.804 1253.008,776.254 C 1249.879,808.767 1239.718,845.638 1236.48,879.129 C 1235.332,891.01 1240.059,898.53 1237.399,907.604 C 1232.902,908.428 1233.085,904.572 1228.216,905.768 C 1226.846,907.937 1224.955,909.789 1224.543,912.197 C 1223.771,916.716 1227.23,919.237 1227.298,923.219 C 1227.4,929.118 1221.838,933.044 1223.625,939.753 C 1219.2,943.286 1214.876,946.922 1208.934,948.939 C 1209.283,939.182 1213.183,932.98 1212.607,922.3 C 1199.886,924.009 1205.406,948.717 1193.325,948.02 C 1196.343,939.097 1199.005,929.819 1201.588,920.463 C 1222.783,912.883 1229.026,885.451 1228.217,858.921 C 1228.424,857.598 1230.957,858.602 1230.971,857.084 C 1229.585,842.858 1238.98,831.749 1238.317,819.425 C 1237.752,808.919 1230.78,800.593 1230.054,789.113 C 1211.45,778.01 1191.646,767.623 1171.288,757.883 C 1162.688,753.769 1150.237,749.925 1146.496,744.106 C 1141.987,737.09 1141.755,722.49 1139.151,712.877 C 1130.655,681.522 1125.115,644.429 1109.768,621.941 C 1110.686,647.355 1118.029,674.299 1120.787,700.934 C 1113.927,707.218 1105.154,711.33 1096.913,717.468 C 1090.996,721.876 1075.618,733.286 1074.877,739.514 C 1073.541,750.735 1077.965,781.769 1081.304,792.787 C 1082.611,797.095 1086.438,801.263 1085.895,804.728 C 1085.116,809.72 1070.853,818.969 1063.859,825.854 C 1052.847,836.694 1045.066,843.622 1035.394,852.492 C 1028.759,858.576 1018.12,864.302 1014.276,871.781 C 1010.045,880.012 1013.597,886.579 1006.012,893.825 C 1001.924,894.547 1004.202,888.899 1000.502,889.233 C 990.236,892.433 985.546,901.214 980.301,909.44 C 980.309,912.189 981.952,913.3 983.975,914.034 C 981.075,920.93 975.734,925.384 972.955,932.404 C 968.184,933.755 961.565,933.256 955.51,933.323 C 957.028,926.183 966.687,919.46 967.448,908.521 C 954.152,909.434 951.684,929.51 939.902,925.974 C 949.112,919.573 955.948,910.795 961.937,901.173 C 974.968,900.429 979.113,890.799 982.139,880.047 C 1009.922,863.752 1030.725,840.473 1052.84,818.506 C 1053.713,808.145 1061.519,798.536 1057.431,788.193 C 1046.603,760.798 1032.092,729.375 1025.294,699.096 C 1033.752,672.961 1053.92,658.536 1073.04,643.066 C 1077.384,643.925 1080.298,646.213 1084.06,647.659 C 1075.957,657.926 1059.716,660.048 1052.84,671.54 C 1067.061,671.985 1076.894,660.089 1089.569,655.926 C 1092.304,655.907 1090.747,651.592 1092.323,650.414 C 1097.689,651.06 1105.385,653.613 1110.687,651.332 C 1104.838,639.119 1082.975,642.926 1078.549,629.288 C 1074.194,629.053 1013.514,584.432 989.484,560.398 C 1001.115,554.273 1012.778,548.184 1023.458,541.109 C 1024.022,526.585 1035.208,500.811 1036.313,499.774 C 1036.128,496.284 1035.5,493.239 1034.476,490.589 C 1024.723,494.307 1014.901,526.118 1015.194,532.841 C 986.455,545.424 960.3,560.595 932.556,574.174 C 932.074,587.778 925.507,595.291 916.946,600.812 C 916.319,628.347 917.67,661.127 924.293,684.399 C 922.659,685.214 921.96,686.962 918.782,686.235 C 916.359,700.296 924.068,704.218 929.802,710.117 C 933.297,725.899 929.111,733.079 921.538,741.348 C 917.696,732.943 919.919,718.473 912.354,713.791 C 907.713,723.431 917.996,742.436 906.845,745.02 C 906.078,730.48 903.637,717.612 900.418,705.524 C 911.077,670.276 899.956,626.271 899.5,587.952 C 919.402,562.852 944.837,543.289 964.691,518.144 C 968.34,494.544 978.691,477.647 977.546,449.255 C 972.317,448.817 970.692,461.308 968.365,463.033 C 967.429,462.435 967.414,460.92 965.609,461.196 C 956.304,468.114 948.799,476.836 938.981,483.241 C 950.426,493.395 962.018,478.62 964.69,468.544 C 962.024,484.25 957.384,505.935 947.246,517.226 C 927.762,511.303 925.917,487.736 907.763,480.485 C 905.88,485.452 911.113,491.203 910.518,497.938 C 899.664,497.269 897.873,476.991 898.58,466.708 C 911.307,457.087 923.788,447.223 931.637,432.723 C 950.229,430.502 959.822,419.279 972.954,411.597 C 973.172,398.596 980.637,384.76 975.71,374.856 C 965.823,381.806 967.174,399.997 959.182,408.841 C 957.703,400.211 963.203,390.898 962.855,380.367 C 951.012,387.502 953.362,408.836 941.736,416.189 C 942.087,401.843 948.898,393.961 950.919,381.285 C 934.474,387.49 938.577,414.253 922.455,420.782 C 926.738,403 939.968,386.266 943.572,364.751 C 942.785,362.478 937.182,365.021 936.227,362.915 C 942.782,351.1 961.52,351.475 963.774,335.358 C 953.944,337.16 949.264,344.114 939.901,346.381 C 944.773,343.334 949.507,338.632 954.592,334.44 C 958.653,331.09 967.453,328.294 964.691,320.661 C 956.195,321.652 953.658,328.606 945.411,329.847 C 951.468,323.354 958.14,317.476 965.61,312.395 C 978.476,283.932 995.679,259.807 1009.683,232.483 C 1017.241,232.082 1027.136,234.019 1028.966,227.89 C 1019.403,221.905 1007.244,224.793 997.747,220.541 C 995.823,219.681 995.25,217.168 993.156,215.949 C 990.011,214.119 985.709,214.081 983.055,212.275 C 977.356,208.399 973.046,201.98 968.365,197.579 C 979.226,196.46 986.529,198.795 994.992,197.579 C 1000.284,196.818 1005.308,192.492 1011.52,192.067 C 1020.498,191.455 1033.775,197.767 1039.984,201.253 C 1045.154,204.156 1049.046,210.873 1056.51,203.09 C 1049.275,193.182 1033.898,191.42 1025.292,182.882 C 1032.578,179.33 1036.047,184.005 1044.574,183.801 C 1047.453,178.445 1043.009,172.526 1042.737,167.267 C 1027.838,157.064 1010.726,149.076 994.072,140.63 C 988.956,141.022 984.991,142.567 981.218,144.304 C 919.091,152.036 888.133,113.086 847.16,93.784 C 823.833,86.502 799.729,79.995 768.194,80.925 C 788.323,70.02 821.771,83.745 843.486,82.762 C 846.825,79.157 847.761,71.062 846.242,65.309 C 829.698,50.618 796.331,47.892 785.64,30.405 C 788.435,31.284 789.333,34.058 793.904,33.161 C 808.382,51.075 871.645,45.031 853.589,80.924 C 861.16,89.487 877.82,109.711 893.071,108.48 C 902.643,107.708 906.116,97.985 911.434,90.11 C 913.314,62.816 894.397,56.327 890.315,34.998 C 906.835,52.426 931.134,88.311 910.516,117.666 C 925.652,131.491 960.24,137.434 985.808,129.607 C 995.585,92.721 961.456,84.278 955.507,57.043 C 968.142,82.536 1006.271,86.868 1000.499,127.77 C 1016.944,133.233 1034.361,159.968 1058.346,147.978 C 1067.352,143.475 1068.434,127.964 1066.611,114.91 C 1064.493,99.758 1050.252,92.022 1046.41,80.006 C 1063.704,93.246 1098.518,135.618 1064.777,157.165 z M 1016.114,195.743 C 1010.148,199.88 997.584,197.414 993.159,203.091 C 996.109,209.323 1009.627,204.987 1016.114,207.683 C 1012.65,211.261 1002.022,207.671 1000.504,213.194 C 1005.794,217.394 1015.826,216.851 1025.296,216.869 C 1029.192,219.112 1037.326,223.721 1041.822,219.625 C 1034.424,210.494 1024.611,203.775 1016.114,195.743 z M 1073.96,217.788 C 1074.798,234.379 1103.695,231.044 1111.607,223.3 C 1109.364,218.807 1106.053,215.383 1104.26,210.441 C 1089.932,208.659 1084.216,215.493 1073.96,217.788 z M 1017.031,257.284 C 1009.697,273.216 998.904,285.689 993.159,303.211 C 997.621,303.389 1001.935,303.419 1004.177,301.374 C 1004.316,294.374 1020.336,269.163 1019.785,257.284 C 1018.868,257.284 1017.95,257.284 1017.031,257.284 z M 1028.969,266.47 C 1023.912,278.864 1015.012,287.412 1011.524,301.374 C 1020.521,301.697 1028.317,272.247 1031.724,266.47 C 1030.805,266.47 1029.888,266.47 1028.969,266.47 z M 1027.132,297.7 C 1029.888,297.7 1032.642,297.7 1035.396,297.7 C 1039.773,290.443 1042.903,281.939 1044.579,271.981 C 1035.99,277.78 1031.067,287.247 1027.132,297.7 z M 1043.66,294.026 C 1053.527,293.18 1057.053,285.992 1057.432,275.656 C 1048.943,277.878 1046.497,286.149 1043.66,294.026 z M 1046.414,360.16 C 1062.94,354.049 1049.795,330.496 1043.66,322.5 C 1043.049,322.5 1042.435,322.5 1041.822,322.5 C 1043.525,334.881 1045.063,347.428 1046.414,360.16 z M 1031.724,375.775 C 1037.963,377.118 1036.02,370.275 1040.906,370.264 C 1041.775,355.31 1035.044,347.959 1031.724,337.197 C 1030.805,337.197 1029.888,337.197 1028.969,337.197 C 1030.364,349.577 1032.686,361.035 1031.724,375.775 z M 1016.114,389.553 C 1020.583,389.478 1025.237,385.462 1026.214,381.286 C 1027.666,375.068 1021.895,347.173 1016.114,347.301 C 1017.362,362.955 1017.285,373.623 1016.114,389.553 z M 1000.504,396.901 C 1005.399,397.51 1008.364,396.191 1010.605,394.145 C 1008.407,382.419 1009.568,365.477 1006.014,352.811 C 1005.094,352.811 1004.177,352.811 1003.259,352.811 C 1003.824,368.993 1001.954,382.738 1000.504,396.901 z M 1012.439,468.546 C 1016.463,468.285 1021.639,469.175 1022.541,465.79 C 1015.11,453.323 1008.187,440.347 1005.094,423.538 C 1004.177,423.538 1003.259,423.538 1002.341,423.538 C 1000.94,439.942 1011.994,466.457 1012.439,468.546 z M 1052.842,459.361 C 1055.552,452.494 1048.095,447.486 1045.497,441.909 C 1042.844,436.214 1043.551,428.96 1038.15,425.375 C 1037.232,425.375 1036.314,425.375 1035.395,425.375 C 1036.089,441.829 1036.597,458.467 1052.842,459.361 z M 1001.422,468.546 C 996.528,455.071 991.72,441.511 986.731,428.13 C 986.119,428.13 985.508,428.13 984.895,428.13 C 986.369,445.639 983.565,467.427 1001.422,468.546 z M 1028.969,465.791 C 1033.092,466.242 1035.848,465.326 1039.069,464.873 C 1036.436,451.892 1027.13,445.588 1023.46,433.644 C 1022.542,433.644 1021.624,433.644 1020.706,433.644 C 1019.919,447.899 1024.696,456.592 1028.969,465.791 z M 905.93,464.872 C 910.614,476.225 916.256,469.773 921.539,464.872 C 928.746,458.186 939.202,449.876 940.82,440.991 C 926.545,446.305 918.919,458.271 905.93,464.872 z M 919.701,475.895 C 922.138,478.969 926.012,480.605 930.721,481.406 C 939.278,472.82 948.771,465.172 951.84,451.094 C 946.631,451.936 926.521,470.464 919.701,475.895 z M 1006.932,556.725 C 1009.39,566.524 1021.135,564.747 1030.805,561.318 C 1037.538,558.93 1047.794,555.251 1045.497,549.377 C 1030.615,549.8 1020.342,554.831 1006.932,556.725 z M 1022.541,567.748 C 1022.65,572.513 1026.398,576.423 1029.888,576.934 C 1036.989,577.971 1053.888,566.344 1056.514,562.237 C 1044.306,560.667 1034.417,566.267 1022.541,567.748 z M 1047.333,579.688 C 1045.936,573.931 1039.745,579.224 1036.314,579.688 C 1036.314,581.526 1036.314,583.362 1036.314,585.199 C 1041.223,583.656 1040.295,587.952 1043.66,587.955 C 1051.139,583.802 1060.841,581.872 1066.615,576.015 C 1063.925,570.87 1049.879,575.762 1047.333,579.688 z M 1051.924,590.711 C 1050.986,595.016 1053.435,595.935 1054.679,598.06 C 1062.154,598.189 1066.235,594.923 1069.37,590.711 C 1073.728,590.784 1078.13,590.901 1077.633,586.118 C 1068.201,586.786 1060.697,589.384 1051.924,590.711 z M 1170.372,625.615 C 1162.796,634.57 1151.758,640.062 1149.252,654.09 C 1154.656,655.259 1155.283,650.293 1159.354,646.741 C 1166.349,640.637 1178.258,637.024 1176.799,625.615 C 1174.657,625.615 1172.514,625.615 1170.372,625.615 z M 1183.227,636.638 C 1174.479,649.625 1159.522,656.402 1152.927,671.541 C 1159.055,670.47 1165.933,665.298 1173.126,659.601 C 1180.148,654.041 1193.666,645.195 1187.817,636.638 C 1186.287,636.638 1184.758,636.638 1183.227,636.638 z M 1189.654,654.09 C 1179.768,667.163 1163.689,674.041 1158.435,691.749 C 1168.938,688.051 1179.219,679.639 1182.309,671.541 C 1189.195,669.288 1196.567,663.51 1193.327,654.09 C 1192.103,654.09 1190.879,654.09 1189.654,654.09 z M 1079.47,671.541 C 1072.668,676.678 1061.733,677.68 1060.188,688.075 C 1076.099,682.559 1104.568,665.111 1106.098,665.111 C 1107.154,662.539 1107.154,660.338 1106.098,657.762 C 1093.87,659.004 1087.842,666.445 1079.47,671.541 z M 1106.098,675.216 C 1098.61,678.441 1070.726,693.412 1067.534,700.934 C 1083.721,701.203 1094.146,687.756 1109.771,684.402 C 1110.314,680.49 1109.112,678.327 1108.853,675.216 C 1107.934,675.216 1107.016,675.216 1106.098,675.216 z M 1190.573,677.053 C 1182.035,687.19 1169.798,693.625 1164.861,707.365 C 1178.199,701.697 1194.734,694.418 1193.327,677.053 C 1192.408,677.053 1191.49,677.053 1190.573,677.053 z M 1075.797,716.55 C 1090.625,714.541 1100.04,707.123 1111.608,701.853 C 1111.608,700.323 1111.608,698.791 1111.608,697.261 C 1102.975,694.876 1076.049,710.679 1075.797,716.55 z M 1164.861,726.653 C 1168.776,725.983 1182.611,713.483 1189.654,711.957 C 1189.654,709.201 1189.654,706.445 1189.654,703.689 C 1178.896,708.849 1168.858,714.729 1164.861,726.653 z M 1169.454,739.514 C 1176.495,739.822 1177.576,734.167 1185.063,734.92 C 1185.126,730.877 1184.604,727.419 1181.39,726.653 C 1175.294,728.822 1169.186,730.978 1169.454,739.514 z M 1244.746,796.462 C 1246.516,786.185 1240.481,776.41 1230.056,775.336 C 1231.857,785.474 1235.2,794.071 1244.746,796.462 z M 1069.37,788.194 C 1066.753,797.518 1061.714,804.417 1061.106,815.75 C 1072.966,814.703 1075.977,800.081 1073.96,788.194 C 1072.43,788.194 1070.9,788.194 1069.37,788.194 z "
   style="fill:yellow"
   id="hirsch_hinten" />
	<path
   d="M 184.221,1020.583 C 191.764,1024.68 197.858,1030.915 205.34,1035.28 C 227.047,1047.94 253.016,1056.795 282.469,1062.836 C 284.401,1066.682 276.56,1067.668 275.123,1071.103 C 201.744,1076.372 144.323,1052.475 97.91,1024.257 C 89.876,1019.373 83.462,1012.929 75.873,1007.723 C 67.31,1001.852 59.344,996.366 51.081,987.516 C 41.391,977.138 35.172,967.133 29.044,955.368 C 25.041,947.683 21.384,941.081 18.025,931.486 C 33.369,942.068 47.227,960.793 64.853,974.657 C 81.803,987.988 98.765,992.381 122.701,1002.213 C 133.515,1006.654 177.368,1016.861 184.221,1020.583 z M 63.936,982.004 C 100.124,1008.876 139.774,1032.286 197.076,1038.035 C 195.665,1031.486 188.02,1031.172 184.222,1027.014 C 172.934,1029.422 87.581,996.625 66.692,978.331 C 65.773,978.331 64.855,978.331 63.937,978.331 C 63.936,979.555 63.936,980.78 63.936,982.004 z "
   style="fill:yellow"
   id="spitze vorne unten" />
	<path
   d="M 1145.581,935.16 C 1139.175,950.935 1121.272,959.957 1103.343,973.737 C 1091.667,982.712 1079.582,994.326 1065.697,999.457 C 1048.411,1005.845 1031.808,1016.452 1011.524,1022.42 C 1003.339,1024.828 986.9,1028.992 982.141,1027.932 C 976.89,1026.76 972.37,1017.827 967.45,1013.236 C 962.455,1008.575 955.709,1005.699 955.512,1000.377 C 988.487,996.622 1013.991,985.393 1037.233,971.901 C 1056.661,978.138 1095.522,977.03 1106.098,962.716 C 1087.66,964.786 1064.685,970.277 1041.823,970.983 C 1039.787,967.556 1046.714,966.419 1048.251,963.634 C 1088.41,961.861 1121.595,953.111 1145.581,935.16 z M 1048.25,984.761 C 1039.123,985.488 1028.255,981.195 1021.623,986.597 C 1035.132,989.552 1074.569,995.423 1079.47,981.086 C 1069.73,981.413 1059.262,983.882 1048.25,984.761 z M 1002.341,997.619 C 1011.913,1002.185 1040.013,1010.06 1048.25,998.538 C 1037.384,1000.871 1015.047,993.037 1002.341,997.619 z M 977.549,1007.723 C 988.739,1010.21 1007.704,1021.321 1017.031,1011.398 C 1003.492,1009.329 991.313,1005.895 977.549,1004.05 C 977.549,1005.273 977.549,1006.499 977.549,1007.723 z M 988.567,1019.665 C 985.216,1017.2 981.47,1015.129 974.795,1015.989 C 974.123,1021.593 986.693,1025.403 988.567,1019.665 z "
   style="fill:yellow"
   id="path2170" />
	<path
   d="M 135.556,942.509 C 179.714,982.708 246.619,1009.362 323.787,1010.48 C 318.314,1016.634 313.02,1021.987 308.178,1028.851 C 303.692,1035.208 298.728,1041.442 294.406,1048.139 C 260.056,1048.721 229.791,1036.108 206.259,1020.583 C 185.516,1006.899 165.674,994.572 155.758,973.737 C 145.936,966.416 141.409,953.798 135.556,942.509 z M 226.458,998.538 C 208.936,992.798 191.023,987.446 174.12,981.086 C 176.921,995.233 212.212,999.628 226.458,998.538 z M 187.754,1001.818 C 207.023,1012.549 242.629,1014.397 261.35,1010.479 C 249.231,1006.103 234.714,1009.154 220.95,1005.886 C 219.214,1005.988 189.508,997.477 187.754,1001.818 z M 282.469,1018.746 C 259.693,1018.69 233.836,1019.2 213.604,1015.071 C 226.954,1032.686 262.439,1026.462 282.469,1018.746 z M 291.65,1026.094 C 279.555,1031.754 257.504,1027.452 243.903,1031.606 C 257.098,1041.3 283.04,1035.082 294.405,1027.014 C 294.251,1025.942 292.954,1026.016 291.65,1026.094 z M 286.141,1037.116 C 281.759,1038.114 273.63,1037.391 273.287,1042.628 C 283.035,1044.823 295.579,1043.26 299.915,1035.28 C 296.216,1033.233 290.896,1036.033 286.141,1037.116 z "
   style="fill:yellow"
   id="path2172" />
	<path
   d="M 354.089,1132.644 C 353.476,1132.644 352.864,1132.644 352.252,1132.644 C 353.902,1126.128 347.889,1092.956 386.226,1029.768 C 385.677,1028.133 400.037,1010.211 403.672,999.457 C 420.865,997.061 433.646,990.25 447.745,984.761 C 440.946,994.187 432.944,1002.408 431.218,1016.908 C 413.205,1040.539 395.818,1067.371 389.899,1102.332 C 388.571,1110.179 389.239,1113.847 385.308,1118.865 C 374.778,1123.335 362.783,1126.338 354.089,1132.644 z M 398.162,1021.502 C 394.344,1025.03 389.742,1027.774 388.98,1034.36 C 398.389,1031.526 420.744,1018.984 420.199,1013.235 C 413.461,1015.115 401.214,1021.204 398.162,1021.502 z M 377.962,1055.487 C 387.882,1050.407 400.29,1047.818 404.59,1037.116 C 392.93,1040.455 379.025,1041.548 377.962,1055.487 z M 371.534,1072.938 C 381.758,1070.306 389.826,1065.517 394.49,1057.324 C 389.778,1056.592 370.638,1067.144 371.534,1072.938 z M 363.271,1094.983 C 369.91,1095.195 385.473,1084.432 385.308,1077.531 C 375.464,1080.851 363.632,1082.18 363.271,1094.983 z M 358.681,1115.192 C 367.522,1112.763 373.599,1108.319 377.962,1099.577 C 369.568,1102.814 358.029,1102.906 358.681,1115.192 z "
   style="fill:yellow"
   id="path2174" />
	<path
   d="M 847.164,174.617 C 866.029,187.492 899.858,176.369 917.866,189.313 C 926.924,195.823 928.029,204.284 934.392,214.113 C 944.783,211.285 968.187,201.129 971.121,215.031 C 957.202,217.639 942.771,219.737 932.558,226.053 C 919.266,241.537 897.575,248.619 868.284,248.098 C 856.236,263.169 838.691,275.753 815.028,271.979 C 781.677,266.661 761.633,233.423 728.716,228.808 C 746.401,227.653 757.755,240.784 773.708,244.423 C 784.088,223.397 762.133,208.235 754.425,199.415 C 760.634,198.127 762.072,206.432 766.363,204.008 C 769.229,213.319 778.821,216.311 782.889,226.972 C 785.463,233.709 783.133,242.468 786.563,249.934 C 796.59,271.765 841.846,274.684 852.674,250.852 C 857.987,213.388 810.798,228.446 803.091,204.007 C 822.117,217.427 855.553,216.435 864.61,239.83 C 879.214,240.479 893.207,239.387 905.01,235.236 C 921.162,229.558 929.674,217.488 917.866,201.251 C 913.996,195.931 905.85,189.502 898.583,187.473 C 889.333,184.89 879.633,187.553 871.037,186.554 C 862.746,185.595 851.638,179.49 847.164,174.617 z "
   style="fill:yellow"
   id="geweih hinterer hirsch" />
	<path
   d="M 286.141,189.313 C 287.195,189.637 288.469,190.93 287.059,191.15 C 280.198,210.922 254.812,212.165 231.968,215.95 C 229.241,213.022 238.7,206.912 242.068,204.009 C 261.237,206.117 275.577,198.531 286.141,189.313 z "
   style="fill:yellow"
   id="ohr vorderer hirsch" />
	<path
   d="M 391.735,196.662 C 381.137,212.398 346.444,212.439 338.478,230.647 C 327.347,256.096 368.238,263.851 391.735,259.122 C 394.042,251.019 396.094,242.664 399.999,236.159 C 417.542,227.378 436.185,219.695 450.5,207.684 C 445.929,227.642 418.503,227.801 409.181,241.669 C 406.212,246.087 403.135,255.98 405.508,263.714 C 408.686,274.071 429.176,279.184 445.909,274.736 C 458.839,271.3 474.409,261.608 475.291,252.692 C 475.948,246.065 469.386,239.872 469.782,232.484 C 470.599,217.266 481.814,210.684 491.819,201.254 C 481.551,209.646 470.191,235.841 482.636,249.936 C 495.292,244.533 505.474,236.653 517.528,230.647 C 505.448,239.093 494.946,249.443 482.636,260.04 C 475.46,266.219 467.661,274.356 460.599,278.41 C 440.716,289.826 408.256,288.086 398.161,270.144 C 370.59,273.312 355.546,271.827 340.314,260.04 C 337.378,257.769 336.413,254.33 332.968,252.692 C 321.654,247.311 308.081,249.117 291.649,247.181 C 297.246,235.79 315.29,239.401 328.378,241.669 C 332.671,209.834 368.004,209.05 391.735,196.662 z "
   style="fill:yellow"
   id="geweih vorderer hirsch" />
	<path
   d="M 949.084,166.35 C 966.549,167.864 984.684,168.705 989.485,182.884 C 984.912,183.208 978.997,182.189 977.548,185.639 C 973.68,185.222 973.145,181.471 971.12,179.21 C 965.469,173.23 955.592,171.474 949.084,166.35 z "
   style="fill:yellow"
   id="ohr hinterer hirsch" />
	<path
   d="M 1133.644,276.574 C 1137.041,276.258 1146.851,277.43 1149.252,281.166 C 1142.55,281.137 1137.512,279.441 1133.644,276.574 z "
   style="fill:yellow"
   id="unterlippe hinterer hirsch" />
	<path
   d="M 1160.271,264.632 C 1161.866,265.468 1162.644,267.851 1161.19,269.225 C 1160.451,268.739 1159.699,268.267 1158.435,268.307 C 1157.766,265.8 1160.26,266.458 1160.271,264.632 z "
   style="fill:yellow"
   id="nase hinterer hirsch" />
	<path
   d="M 1096.915,217.788 C 1099.779,218.291 1098.324,223.115 1099.67,225.137 C 1094.956,225.873 1092.696,224.152 1089.57,223.3 C 1091.023,220.468 1094.919,220.077 1096.915,217.788 z "
   style="fill:yellow"
   id="auge vom hinteren hirsch" />
	<path
   d="M 890.319,353.73 C 898.262,360.788 905.441,368.608 913.274,375.775 C 913.09,380.183 910.817,382.502 911.438,387.715 C 913.779,390.587 917.594,387.199 919.701,386.796 C 912.752,400.664 909.667,418.398 899.502,429.048 C 898.065,413.931 900.277,394.534 898.583,377.611 C 891.732,371.577 877.859,377.712 866.446,375.774 C 872.595,366.617 883.781,362.498 890.319,353.73 z "
   style="fill:yellow"
   id="vorderbein vom hinteren hirsch" />
	<path
   d="M 397.244,1001.294 C 367.395,1027.158 351.172,1071.247 338.478,1114.273 C 330.273,1115.863 324.12,1119.504 315.524,1120.702 C 323.663,1088.436 340.41,1052.357 357.76,1025.175 C 361.273,1019.673 367.939,1007.817 372.452,1005.887 L 397.244,1001.294 z "
   style="fill:yellow"
   id="path2184" />
	<path
   d="M 300.832,1106.007 C 302.829,1102.474 327.533,1047.767 341.233,1028.851 C 347.107,1020.739 354.608,1015.85 360.515,1007.723 C 351.924,1008.622 343.254,1009.44 333.887,1009.561 C 313.228,1037.883 294.703,1068.341 284.304,1106.925 L 300.832,1106.007 z "
   style="fill:yellow"
   id="path2186" />
	<path
   d="M 900.42,433.643 C 902.663,435.379 908.345,433.675 909.602,436.398 C 907.186,439.798 904.334,442.763 899.502,443.746 C 897.785,441.358 898.211,434.976 900.42,433.643 z "
   style="fill:yellow"
   id="path2188" />
	<g
   id="luecken am beim vom vorderen hirsch">
		<path
   d="M 14.813,824.017 C 14.948,823.766 16.788,822.32 17.568,823.099 C 18.201,823.734 13.944,825.63 14.813,824.017 z "
   style="fill:black"
   id="path2191" />
		<path
   d="M 24.912,846.063 C 28.141,847.12 30.741,848.805 30.421,853.412 C 29.197,853.412 27.974,853.412 26.749,853.412 C 28.102,848.995 24.459,849.577 24.912,846.063 z "
   style="fill:black"
   id="path2193" />
		<path
   d="M 39.604,871.781 C 39.383,873.397 38.025,873.875 35.932,873.618 C 36.535,872.386 37.894,871.907 39.604,871.781 z "
   style="fill:black"
   id="path2195" />
		<path
   d="M 16.648,832.284 C 20.36,833.164 19.801,838.315 25.83,836.877 C 25.83,839.02 25.83,841.163 25.83,843.307 C 21.86,840.543 19.881,835.787 16.648,832.284 z "
   style="fill:black"
   id="path2197" />
		<path
   d="M 28.586,859.84 C 29.909,856.2 35.195,860.852 35.932,863.515 C 34.285,863.399 33.994,864.639 32.258,864.433 C 32.374,862.786 31.135,862.495 31.34,860.759 C 31.191,859.682 29.666,859.983 28.586,859.84 z "
   style="fill:black"
   id="path2199" />
	</g>
	<path
   d="M 146.661,257.712 C 146.661,257.712 152.599,252.067 153.613,250.421 C 154.627,248.774 160.565,256.301 160.565,256.301 C 160.565,256.301 146.95,259.594 146.661,257.712 z "
   style="fill:yellow"
   id="auge vom vorderen hirsch" />

	<path
   d="M 840.945,390.205 C 846.448,374.949 856.716,346.756 862.42,324.193 C 831.413,332.534 813.08,365.478 813.08,383.769 C 813.08,385.521 811.801,388.33 809.51,390.206 L 804.976,390.206 C 804.922,357.747 790.083,321.355 771.782,321.355 C 753.481,321.355 738.638,357.746 738.585,390.206 L 736.716,390.206 C 736.663,357.747 721.822,321.355 703.519,321.355 C 685.22,321.355 670.379,357.746 670.326,390.206 L 668.455,390.206 C 668.403,357.747 653.561,321.355 635.261,321.355 C 616.961,321.355 602.12,357.746 602.067,390.206 L 600.196,390.206 C 600.142,357.747 585.302,321.355 567.001,321.355 C 548.7,321.355 533.859,357.746 533.808,390.206 L 531.936,390.206 C 531.882,357.747 517.041,321.355 498.742,321.355 C 480.44,321.355 465.601,357.746 465.547,390.206 L 461.784,390.206 C 459.494,388.331 458.215,385.521 458.215,383.769 C 458.215,365.478 439.882,332.534 408.875,324.193 C 414.577,346.756 424.846,374.949 430.35,390.205 L 391.723,390.205 C 391.723,390.205 391.723,389.944 391.723,651.243 C 391.723,912.542 567.442,952.387 640.027,952.387 C 712.612,952.387 889.2,912.067 889.2,651.243 C 889.2,390.419 889.2,390.205 889.2,390.205 L 840.945,390.205 z "
   style="fill:yellow;stroke:black;stroke-width:0.91850001"
   id="Schildumriss" />
	<path
   d="M 407.943,397.741 L 407.943,707.843 C 407.943,827.268 508.055,940.612 640.228,940.612 C 772.398,940.612 873.391,827.268 873.391,707.843 L 873.391,397.741 L 407.943,397.741 z "
   style="fill:yellow"
   id="Schildfläche" />
	<g
   id="Wappenbilder">
		<path
   d="M 478.199,873.427 C 519.465,914.573 576.068,941.283 640.228,941.283 C 640.374,941.283 640.52,941.278 640.667,941.278 L 640.667,873.426 L 478.199,873.426 L 478.199,873.427 z "
   style="fill:white"
   id="path2205" />
		<path
   d="M 430.243,805.566 L 640.668,805.566 L 640.668,737.707 L 409.938,737.707 C 413.123,761.204 420.064,784.109 430.243,805.566 z "
   style="fill:white"
   id="path2207" />
		<rect
   width="232.724"
   height="67.861"
   x="640.66803"
   y="601.98901"
   style="fill:white"
   id="rect2209" />
		<rect
   width="232.724"
   height="67.857002"
   x="640.66803"
   y="466.272"
   style="fill:white"
   id="rect2211" />
		<path
   d="M 478.199,872.753 C 519.465,913.9 576.068,940.611 640.228,940.611 C 640.374,940.611 640.52,940.606 640.667,940.605 L 640.667,872.752 L 478.199,872.752 L 478.199,872.753 z "
   style="fill:red"
   id="unterer roter balken in 3" />
		<path
   d="M 478.199,872.753 L 640.668,872.753 L 640.668,804.894 L 430.243,804.894 C 442.121,829.936 458.395,853.006 478.199,872.753 z "
   id="unterer schwarzer balken in 3" />
		<path
   d="M 430.243,804.894 L 640.668,804.894 L 640.668,737.036 L 409.938,737.036 C 413.123,760.531 420.064,783.437 430.243,804.894 z "
   style="fill:red"
   id="oberer roter balken in 2" />
		<path
   d="M 640.668,737.035 L 640.668,669.178 L 407.943,669.178 L 407.943,707.843 C 407.943,717.635 408.63,727.384 409.938,737.035 L 640.668,737.035 z "
   id="oberer schwarzer balken in 3" />
		<rect
   width="232.724"
   height="67.860001"
   x="640.66803"
   y="601.31702"
   style="fill:red"
   id="unterer roter balken in 2" />
		<rect
   width="232.724"
   height="67.859001"
   x="640.66803"
   y="533.45801"
   id="unterer schwarzer balken in 2" />
		<rect
   width="232.724"
   height="67.858002"
   x="640.66803"
   y="465.60001"
   style="fill:red"
   id="oberer roter Balken in 2" />
		<rect
   width="232.724"
   height="67.858002"
   x="640.66803"
   y="397.741"
   id="oberer schwarzer Balken in 2" />
		<path
   d="M 492.874,421.796 C 495.629,421.796 498.383,421.796 501.138,421.796 C 501.913,423.776 505.872,422.571 506.647,424.551 C 495.955,435.592 482.057,443.429 479.101,462.211 C 484.423,462.33 487.777,460.479 492.874,460.374 C 498.503,448.858 505.611,438.824 513.992,430.063 C 522.022,426.634 537.44,419.486 547.049,426.389 C 545.512,432.228 537.19,434.269 532.358,439.248 C 527.507,444.245 524.214,451.378 521.338,457.618 C 523.693,459.316 531.77,458.904 534.193,457.618 C 540.171,447.065 552.452,431.45 568.167,429.144 C 576.798,427.877 589.056,429.454 592.04,438.329 C 576.268,440.616 566.611,449.02 560.821,461.292 C 563.878,464.358 570.151,464.205 575.512,464.966 C 584.356,452.524 614.939,437.902 626.014,456.699 C 612.741,459.037 604.066,465.974 597.549,475.07 C 611.38,484.809 627.528,492.231 632.441,510.893 C 616.543,506.557 602.966,494.409 584.694,489.767 C 541.768,478.86 490.358,480.775 449.718,499.871 C 449.658,504.741 453.161,508.102 451.554,511.811 C 441.119,515.399 425.775,513.623 415.744,509.056 C 415.744,506.913 415.744,504.77 415.744,502.626 C 420.424,492.305 421.684,478.563 428.598,470.477 C 434.364,469.303 431.804,476.456 436.862,475.989 C 441.726,472.282 448.275,470.26 454.308,467.721 C 455.56,441.305 472.567,426.13 492.874,421.796 z "
   style="fill-rule:evenodd"
   id="obere hirschstange in 1" />
		<path
   d="M 548.884,489.768 C 542.239,500.879 531.009,507.403 528.684,522.835 C 531.919,524.804 537.166,524.76 542.457,524.672 C 550.125,508.741 570.735,489.375 592.958,499.871 C 584.263,508.931 572.592,515.014 568.167,528.345 C 571.414,529.995 575.476,530.831 579.185,532.02 C 588.862,521.508 611.225,508.617 625.096,521.916 C 617.333,528.235 606.363,531.345 600.304,539.369 C 610.311,550.179 627.77,553.534 630.605,571.517 C 621.597,570.053 610.71,562.686 602.141,557.739 C 554.82,542.754 489.189,546.883 448.8,568.762 C 448.236,573.001 450.863,574.048 450.637,577.947 C 438.747,579.849 426.384,574.795 419.418,568.762 C 423.89,556.089 430.101,545.156 436.863,534.776 C 440.937,534.681 439.719,539.88 442.373,541.205 C 448.991,538.335 455.118,534.972 462.573,532.939 C 466.048,509.166 480.905,496.777 502.055,490.686 C 499.007,501.233 489.176,512.614 486.446,526.509 C 491.508,528.251 494.823,526.71 500.219,525.592 C 509.347,506.553 520.426,489.467 548.884,489.768 z "
   style="fill-rule:evenodd"
   id="mittlere hirschstange in 1" />
		<path
   d="M 549.803,557.739 C 538.66,565.239 530.311,577.379 527.766,590.806 C 530.052,593.482 536.166,592.045 542.457,592.643 C 550.02,575.074 567.441,553.801 593.876,564.168 C 592.528,567.692 588.484,569.724 585.612,566.924 C 589.765,569.749 580.985,572.817 577.348,577.027 C 572.032,583.182 569.744,589.459 566.329,594.479 C 579.571,606.26 584.191,583.532 598.467,578.864 C 605.712,576.497 613.038,576.462 620.503,582.54 C 611.109,588.757 601.143,594.401 596.63,605.502 C 608.873,617.405 624.127,621.276 629.686,640.407 C 586.257,615.474 503.773,609.981 457.982,634.894 C 458.955,637.464 462.017,641.209 459.818,644.08 C 447.877,644.566 438.032,639.79 424.926,637.651 C 426.832,622.717 433.697,612.744 440.536,602.747 C 444.404,602.552 443.77,606.858 446.045,608.258 C 452.166,605.808 458.084,603.155 463.49,599.991 C 466.826,574.354 483.338,558.696 508.482,557.739 C 498.928,568.084 491.027,580.079 487.363,596.318 C 492.356,595.801 496.942,594.877 501.136,593.562 C 506.63,574.669 524,549.523 549.803,557.739 z "
   style="fill-rule:evenodd"
   id="untere hirschstange in 1" />
		<path
   d="M 846.382,709.297 C 846.382,709.604 846.382,709.91 846.382,710.216 C 834.064,713.508 823.397,718.454 817.917,728.587 C 827.907,736.045 839.783,741.616 842.708,756.143 C 800.115,732.607 729.576,722.572 681.104,745.121 C 680.216,750.33 683.726,754.886 681.104,758.899 C 670.626,759.984 652.187,761.65 644.376,757.061 C 647.722,744.734 651.156,730.415 656.312,717.565 C 660.807,717.664 661.756,725.166 665.495,723.075 C 671.404,720.108 677.563,717.391 682.939,713.89 C 684.878,700.272 694.687,683.271 706.813,678.068 C 713.839,675.054 727.435,671.538 733.441,678.987 C 722.066,684.479 711.529,695.602 711.405,709.298 C 715.997,709.298 720.587,709.298 725.177,709.298 C 731.975,694.881 746.867,672.415 770.169,677.15 C 772.552,677.635 777.15,679.104 777.515,683.581 C 766.291,689.192 757.706,697.444 753.642,710.218 C 758.233,710.218 762.824,710.218 767.414,710.218 C 774.062,693.396 798.933,676.267 816.08,689.092 C 803.8,695.179 794.193,703.94 787.616,715.73 C 791.38,716.862 794.016,719.123 798.633,719.404 C 808.273,707.918 833.237,696.129 846.382,709.297 z "
   style="fill-rule:evenodd"
   id="obere hirschstange in 4" />
		<path
   d="M 727.933,740.527 C 721.912,752.261 711.042,759.145 710.487,776.35 C 712.059,778.452 717.497,776.686 720.588,777.269 C 728.407,759.503 743.429,735.875 768.334,744.201 C 767.278,748.955 762.123,749.632 759.152,752.468 C 753.014,758.329 749.444,766.43 747.215,776.351 C 748.756,779.402 754.734,778.014 758.234,779.107 C 764.138,763.194 783.021,744.054 804.143,755.224 C 795.695,763.611 784.911,769.663 781.189,782.78 C 788.579,789.828 790.499,782.925 795.88,778.188 C 803.758,771.252 817.445,767.735 829.854,773.594 C 823.262,780.78 814.322,785.614 808.736,793.803 C 815.035,804.677 832.357,809.321 831.691,824.114 C 794.576,798.893 719.587,794.662 678.35,815.848 C 677.641,819.858 680.83,823.01 678.35,825.951 C 668.912,826.586 652.641,823.944 645.295,822.278 C 647.984,807.209 655.654,797.124 660.903,784.617 C 667.681,790.635 676.789,785.515 684.777,782.78 C 690.866,760.997 701.513,738.916 727.933,740.527 z "
   style="fill-rule:evenodd"
   id="mittlere hirschstange in 4" />
		<path
   d="M 672.841,902.188 C 671.005,902.188 669.168,902.188 667.33,902.188 C 659.416,899.87 646.258,898.703 644.377,892.084 C 642.057,883.931 651.014,871.398 655.396,861.772 C 659,862.146 658.016,867.111 662.741,866.365 C 666.97,863.859 672.039,862.195 675.595,859.016 C 678.035,836.31 693.493,816.965 714.159,818.6 C 706.796,827.768 698.914,836.416 698.55,852.586 C 701.575,851.938 704.421,851.11 707.733,850.749 C 710.56,842.253 716.189,830.532 723.343,824.111 C 728.676,819.323 739.95,812.04 748.134,818.599 C 741.428,827.849 730.491,837.644 729.77,849.83 C 732.525,849.83 735.279,849.83 738.034,849.83 C 742.943,843.862 747.385,835.879 754.561,830.54 C 761.504,825.376 772.968,819.596 782.107,825.029 C 773.729,832.875 765.926,841.298 761.907,853.503 C 769.767,858.319 774.197,849.597 780.271,845.236 C 785.786,841.278 793.758,834.725 801.39,841.562 C 795.038,847.456 789.468,854.129 785.78,862.688 C 790.42,867.628 801.139,871.085 800.472,878.303 C 795.898,879.259 792.862,875.067 788.534,873.71 C 783.013,871.981 776.911,872.078 773.844,871.873 C 738.425,869.511 692.881,873.9 672.841,891.163 C 674.58,892.968 674.06,900.3 672.841,902.188 z "
   style="fill-rule:evenodd"
   id="untere hirschstange in 4" />
	</g>
	<g
   id="Kronspitzen">
		<path
   d="M 497.019,339.656 C 493.912,339.656 487.858,388.212 489.696,390.149 C 491.536,392.086 502.928,391.637 504.341,390.149 C 505.752,388.661 500.124,339.656 497.019,339.656 z "
   id="path2228" />
		<path
   d="M 705.151,339.656 C 702.045,339.656 695.991,388.212 697.831,390.149 C 699.669,392.086 711.061,391.637 712.475,390.149 C 713.887,388.661 708.26,339.656 705.151,339.656 z "
   id="path2230" />
		<path
   d="M 635.773,339.656 C 632.667,339.656 626.613,388.212 628.452,390.149 C 630.291,392.086 641.683,391.637 643.096,390.149 C 644.51,388.661 638.881,339.656 635.773,339.656 z "
   id="path2232" />
		<path
   d="M 565.937,339.656 C 562.831,339.656 556.777,388.212 558.615,390.149 C 560.455,392.086 571.847,391.637 573.26,390.149 C 574.672,388.661 569.043,339.656 565.937,339.656 z "
   id="path2234" />
		<path
   d="M 776.367,339.656 C 773.26,339.656 767.206,388.212 769.046,390.149 C 770.884,392.086 782.277,391.637 783.69,390.149 C 785.103,388.661 779.475,339.656 776.367,339.656 z "
   id="path2236" />
	</g>
	<path
   d="M 407.943,397.741 L 407.943,707.843 C 407.943,827.268 508.054,940.612 640.228,940.612 C 772.397,940.612 873.391,827.268 873.391,707.843 L 873.391,397.741 L 407.943,397.741 z "
   style="fill:none;stroke:black;stroke-width:3.75539994"
   id="Schildkante" />
	<line
   id="Schildteilung"
   fill="none"
   stroke="#000000"
   stroke-width="2.7554"
   x1="406.78299"
   y1="668.94202"
   x2="874.64398"
   y2="668.94202"
   style="fill:none;stroke:black;stroke-width:2.75539994" />
	<line
   id="line2240"
   fill="none"
   stroke="#000000"
   stroke-width="2.7554"
   x1="640.87799"
   y1="396.95099"
   x2="640.87799"
   y2="940.78802"
   style="fill:none;stroke:black;stroke-width:2.75539994" />
</g>
</svg>