<?xml version="1.0" encoding="utf-8"?>
<!-- Generator: Adobe Illustrator 26.5.1, SVG Export Plug-In . SVG Version: 6.00 Build 0)  -->
<svg version="1.1" id="Layer_1" xmlns="http://www.w3.org/2000/svg" xmlns:xlink="http://www.w3.org/1999/xlink" x="0px" y="0px"
	 width="2000px" height="544px" viewBox="0 0 2000 544" style="enable-background:new 0 0 2000 544;" xml:space="preserve">
<g id="layer1_00000137111574214842852330000008357288352813692848_" transform="translate(0,-184.38381)">
	<path id="path2665_00000101823550946524521330000017278728197277316261_" d="M1057.1,378.6c-11.4,0.2-38.5,3.3-44.7,4.1
		c-7.6,0.9-15.2,2-23.2,3.1c-6.4,0.9-26.8,4.8-29.4,5.7c-7,2.2-9.3,5.9-5.9,12.7c2.8,5.8,7.6,8.8,13.8,11.2
		c5.6,2.1,16.1,4.5,16.1,4.5s-3.9,10.9-6.5,18.1c-1.8,5.1-3.9,11.4-7.2,12.2c-0.6,0.2-1.1,0.2-1.9,0.2c-8.3,0.9-13.3,5.4-13,11.8
		c0.2,4.2,3.3,17.2,3.1,19.2c-0.1,0.9-0.3,1.5-0.6,2.3c-5.3,14.2-7.2,14.6-9.3,24.9c-2.2,11-2.3,21.2,1.7,31.5
		c0.6,1.5,1.1,2.7,1.9,4.5c0.9,2,5.2,8.6,5.5,8.8c1.5,1.7,3.7,3.9,5,4.9v0c1.1,0.9,4.4,3,4.4,3c-0.1,0.3,6,3.1,7.6,3.5
		c8.7,2.3,11.1,3.4,21.1,2.3c21.5-2.4,50.4-16.4,67.3-29.3c5.3-4.1,9.7-7.9,9.5-13.6c-0.3-6.1-2.3-10.3-6.2-15.4
		c-4.5-5.7-8.8-5.1-17.4-3.7c-16,2.5-35.4,5.4-48.5,7.8c-2.4,0.4-5.5,0.9-8.5,0.8c-1.8,0-4-0.1-4-0.1s2.3-8.7,5.1-17.2
		c2.7-8.2,5.8-16.3,5.8-16.3s3.8-0.6,7.5-1c5.8-0.7,48.7-0.9,52.6-1.5c7.4-1.2,9.2-5.5,8.8-14.8c-0.3-8-2.8-13.5-9.9-15.1
		c-1.9-0.4-5.3-0.6-8.7-0.6c-14,0.1-39,0.3-39,0.3l7.1-23.8c0,0,14.1,0.2,24.3,0.1c6.4-0.1,41.3-0.6,52-7.1c7-4.3,3.8-12.3-0.8-18.9
		c-8.6-12.5-18.2-18.6-33-19C1058.6,378.6,1057.9,378.6,1057.1,378.6L1057.1,378.6z"/>
	<path id="path2671_00000003077527213130024780000001037857145093134527_" d="M113.1,184.4c-2.8,0-5.6,0.1-8.4,0.2
		c-19.8,0.8-46.3,4.8-67.3,10.6c-14.8,4-24.9,10.5-31.9,22.9c-3.5,6.2-6.7,12.9-5,19.8c1.5,5.8,9.8,7.8,16.5,8.9
		c6.4,1,21,1.8,24.8-2.9c1.7-2,1.5-4,0.1-6.4c-1.4-2.6-5.1-4.5-8.6-5.1c-3.9-0.7-11.6-1.2-13.4-2c-1-0.5-2.1-1-2.1-1
		s0.4-0.4,0.9-0.8c0.8-0.6,3.6-1.8,5.4-2.2c2.3-0.5,4.7-1.3,7.2-2c17-4.7,50.8-5.5,66.3-5c60.1,2.2,116.1,15.7,172.7,39
		c55.4,22.8,118.5,61.8,155.3,109.2c13.9,17.9,31.3,47.3,33.5,72.2c1.9,22.7-5.3,44.4-19.2,60.3c-10.5,12-24.4,20.9-39.5,28
		c-34.4,16.3-76.3,19.7-113.8,18.7c-4.9-0.1-23.5-1.8-27.9-2.4c-7.6-1.2-17.3-3.1-17.3-3.1l-2.5-116.3c0,0,11.7,0.4,19.9,0.9
		c21,1.2,64.6,8.5,86.3,17.1c4.7,1.8,9.5,4.7,9.9,9.3c0.3,3.5-2.5,6.6-5.6,9.3c-1.5,1.3-3,2.4-4.9,3.5c-3.8,2-10.1,5.3-10.6,5.9
		c-1.2,1.6-1.3,3.9,0.4,5.2c4.2,3.2,17.8,5.1,21.4,4.8c12.2-0.7,24.2-8.9,30.5-20.1c5.6-9.8,6.2-17.4,2.5-28.3
		c-4-11.9-16.3-23.2-29.4-29.8c-16-8.1-43.8-14.2-58.1-16.5c-11.2-1.8-23-3.5-33.7-3.8c-11.1-0.3-29,0.2-29,0.2s-0.3-15.8-1-26.3
		c-1.2-17.2-5.9-51.1-21.6-60.8c-2.9-1.8-6.4-2-8.3,0.7c-3,4-6,19.1-6.7,23.1c-1.3,7.3-5.3,41.6-5.2,46.9c0.1,5.3-0.4,19.9-0.7,20.3
		c-0.2,0.2-0.4,0.4-0.6,0.6c-0.6,0.4-10.6,2.2-17.1,3.1c-13.7,2-46.5,12.7-57.1,17.4c-14.4,6.3-35.4,17.4-41.3,32.1
		c-4.2,10.5-2.6,19.4,2.9,29.3c7.2,12.7,16.6,22.7,27.1,32.6c3.8,3.6,20.7,17.8,24.7,20.7c14.2,10.6,30.5,20.8,47.7,29.3
		c5.6,2.8,12.3,6,12.3,6s1.3,13.5,2.6,21.2c1.5,9.6,4.8,18,13.7,21.8c5.5,2.3,11.7,2,17.6,0.8c4.9-0.9,8.2-3.1,10.3-7.3
		c0.8-1.6,2.2-6.5,2.4-8.3c0.5-4.1,0.4-9.8,0.4-9.8s14.4,3.3,24.1,5.1c28.2,5.2,58.7,5.7,85.3,2.5c39.2-4.8,84.9-19.3,114.4-44.9
		c8-6.9,21.3-22.9,26.9-33.1c3.3-5.9,6.4-11.9,9.5-19.1c0.6-1.5,4.5-13.4,5.3-18.5c0.4-2.2,2.7-19.2,1.7-28.2h0
		c0.2-3.8-1.9-13.6-2.2-15.3c-0.2-0.2-1.3-5-2-8.2c-0.8-3.3-5.4-14.7-6.4-16.6c-3.1-5.6-5-10.3-7.4-15.1
		c-10.1-20-30.7-45.3-47.3-61.7c-8.6-8.5-20.4-19.2-29.5-26.6c-4.3-3.6-32.3-24.2-37.1-27.3c-15.1-9.9-42.1-25.2-59.2-33.4
		c-23.8-11.5-56.4-24.2-81.3-31.7C194.8,191.6,154.9,183.9,113.1,184.4z M193.6,426.7c0,0-0.4,17.2-0.5,34.6
		c-0.2,32.9,0.7,66.4,0.7,66.4s-11.7-4.2-18.8-7.1c-20.7-8.7-48.7-26.5-62.5-38c-3.3-2.8-15-14.1-17.1-16.5
		c-3.6-4.2-6.8-8.3-5.9-13.5c0.9-5,10.8-9.2,15.7-10.9c16.3-5.9,44.5-10.7,59.5-12.3C176.4,427.9,193.6,426.7,193.6,426.7z"/>
	<path id="path2673_00000179623686408983937120000006411722860302970548_" d="M591.7,220.8c-13.5-0.2-27.8,3.4-38.6,8
		c-16.7,7.1-32,17.4-43.7,29.9c-11.6,12.4-20.6,28-19.7,45.1c0.3,5.4,2.5,13.9,5.2,18.8c2.3,4.1,6.6,8.5,7.6,12.8
		c0.5,2.6,0,5.9,0.2,8.9c0.2,6.9,3.2,14.1,8.4,18.6c3.7,3.3,7,3.1,10.8,0.3c1.1-0.8,2.7-2.7,3.6-4.2c1.7-2.8,3.3-6.8,4.8-8.3
		c0.2-0.2,1.3,0.4,2.1,1c0.7,0.5,7,2.1,8.7,2.3c3.4,0.3,7,1.2,10.5,1.5c11.3,1,26.7-2.6,36.6-6.5c22.6-8.9,40-21.6,57.6-39.6
		c10.3-10.5,19.3-27.7,16-43.5c-1.6-7.8-5.2-13.2-11.7-18.9c-3.2-2.8-11.2-7-16.7-7.9c-1.6-0.3-3.6-0.5-4.4-1
		c-0.9-0.5-1.6-1.7-2.4-2.8c-3.9-5-11.8-9.8-17.4-11.7C603.8,221.7,597.8,220.9,591.7,220.8z M562.8,257.6c0,0-3.7,3-6.8,5.7
		c-10.2,8.7-23.7,22.8-31.2,33c-4.1,5.6-9,12.9-9,12.9s-1-2.2-1.7-3.8c-4.6-11.5,5.6-24.6,15-32.6c5.7-4.9,17-12.4,24.7-13.9
		C557.1,258.2,562.8,257.6,562.8,257.6z M622.9,260.9c2.3-0.1,4.5,0.4,7.3,1.7c4.3,1.9,7.7,5.8,8.4,11.1c1.9,16.2-16.7,30-29.3,37.1
		c-12.9,7.1-26.7,11.4-41.4,12.4v0c-5.8,0.4-21,0.6-21.4-1.1c-0.1-0.4,0.9-1.9,2.2-3.5c2-2.6,4.6-6.4,7.2-9.8
		c11.1-14.4,31.7-32.4,46.2-40.8c4.9-2.8,7.3-3.8,12.5-5.3C618,261.6,620.5,260.9,622.9,260.9L622.9,260.9z M549.5,385.5
		c-4.4,0-7,6.2-8.2,9.4c-3.9,10-6.7,34-7.5,41.5c-2.3,22.7-4.2,76.4-0.3,103.8c1.6,11.5,5.4,18.9,17,21.3c4.7,1,13.2,0.8,17-1.6
		c3.3-2.1,5.6-6,6.3-9.4c2.1-9.5,1.3-23.1,0.9-33.2c-0.5-12-0.8-24-1.4-36.1c-0.7-16.2-2.7-57.6-7.2-76.3c-1.9-8-5.2-15.4-13.1-18.4
		c-0.9-0.3-2-0.6-2.7-0.8C550.1,385.5,549.8,385.5,549.5,385.5L549.5,385.5z"/>
	<path id="path2675_00000107569655197459777830000007871899291964066726_" d="M702.3,383.5c-10,0.1-19.5,0.7-27.4,1.7
		c-26.3,3.3-61.4,11.4-76.4,33.1c-5.7,8.3-9.1,20.9-6.5,31.3c1.5,5.7,6.5,10.9,11.6,13.2c5.1,2.3,11.5,3.5,17.4,4.3
		c5.7,0.8,29.5,2.8,44.6,4.1c14.4,1.2,42.4,4.3,57.5,10.6c1.3,0.5,7.8,3.3,9.4,5.3c0.7,0.9,1.6,2.4,2.1,2.5c0.2,0,0.4-0.1,0.6,0
		c1.4,0.5,2.1,4.8,2.1,5.3c0,4.1-3,7.3-6.1,9.5c-22.5,15.9-53.3,20.4-80.7,20c-9.3-0.2-17-1.6-26.4-5.7c-4-1.7-9.3-5.9-8.5-10.5
		c1.5-8.8,11.2-11,19.1-10.2c4.5,0.4,10.3,2.3,14.7,4c17.6,7,25.6,12.8,41.1,10.4c5.8-0.9,25.8-5.2,28.5-13.5c0.7-2-0.3-4.2-1.8-5.7
		c-2.1-2.1-14.1-6.8-17.4-8c-11.8-4.2-34.2-8-46.6-8.5c-16.3-0.6-37.9,2.5-48,16.3c-6.4,8.7-6.5,20.6-1.3,29.7
		c7.1,12.5,21.1,22.2,32.6,27.8c19.4,9.4,42.8,13.9,64.3,11.5c12.4-1.4,23.1-3.9,34.1-9.2c10.5-5.1,22-14.7,27.3-26
		c7-15.3,6.5-35.6-1.3-50c-5.1-9.5-10.7-14.9-20.3-19.1c-10.3-4.6-23.8-7.1-37.5-9c-0.8-0.1-1-0.1-1.8-0.2l-63.3-7.5
		c-0.8-0.1-1-0.1-1.8-0.3c-2.8-0.6-15.6-2-11.1-6.9c1.3-1.4,5.2-2.4,7.4-3.1c28.6-7.8,65-6.9,95.1-8.6c6.7-0.4,22-1.3,29.4-3.7
		c7-2.2,12.9-7.2,14.5-14.9c0.8-4.1-1.2-6.1-5-8.1C749.1,386.2,724.3,383.3,702.3,383.5L702.3,383.5z"/>
	<path id="path2677_00000160875858628080307450000003156026388387830950_" d="M875.9,357.9c-4.3-0.2-6.9,2.9-6.9,7.8
		c0,4.2,0.9,8.6,2,13c3.3,13.5,7.7,28,11.3,41.9c3.3,12.4,7.4,30.8,9,43.9c0.6,4.5,0.9,8.7,1.6,13.9c0.4,3.3,1,19.6,0.7,20.1
		c-0.6,1.2-2.1,1.1-3.7-0.2c-1.2-1-2.2-2.5-3.3-4.1c-8.8-13-17.7-27.3-27-41.5c-8.3-12.7-20.8-30.9-30.3-44.4
		c-3.7-5.3-8.5-10.4-15.1-11c-9.6-0.8-14.1,13.3-17.2,21.9c-10.8,30.3-19.4,75.4-17.5,107.7c0.6,9.9,3.3,29.6,15.5,34.1h0
		c4.7,1.8,7.7,2.5,11.6,0.7c5.5-2.5,7-7.4,8.4-13.4c2.2-9.2,2.6-27.8,2.8-35.4c0-1.3,1.2-46.4,2.8-56c0.3-1.3,0.6-3.4,1.6-3.1
		c1.3,0.4,2,1.2,2.6,2c2.6,3.7,19.3,36.9,29,53.8c2.8,5,19.5,33.9,29.7,39.7c9.3,5.3,22.8,0.4,29.5-5.9c4.3-4,9.5-12,12-17.9
		c6.9-16.1,8-39.8,6.7-56.1c-1.4-16.8-4.5-31.4-9.6-46.8c-1.4-4.5-7.9-20.5-9.5-23.7c-4.8-9.3-21.2-36.2-33.5-40.6
		C878,358.2,876.9,357.9,875.9,357.9L875.9,357.9z"/>
	<path id="path2679_00000092430398367664680920000017771913704783965886_" d="M1161.2,385.1c-5.3-0.3-17,13.8-18.8,16
		c-23.8,29.4-45.1,66.1-45.1,103.1c0,11.7,3,26.2,8.7,38.2c0.4,0.7,0.4,0.9,0.1,1.7c-18,47.3-24.6,68.1-31.1,115.6
		c-1.8,13.6-4.1,36.7,5.3,49c4.7,6.2,10.2,9.6,16.5,12.9c4.8,2.6,6.4,3.4,10.4,1c1.6-1.1,2.1-1.5,2.8-2.8c0.5-1,10.2-46.4,13.6-63.7
		c2.3-11.7,12-49.2,16.5-63.2c2.6-8.1,6.1-18.4,6.1-18.4l0,0c0,0,3.4,0.2,6.4,0.2c21.7,0.5,43.9-8,62.8-20.6
		c18.5-12.3,32.1-26.3,42-45.7c8.4-16.3,12.3-37.7,10.4-56.8c-1.6-15.9-7.7-35.6-21.9-44.9c-8.9-5.9-17.1-4.7-26.3,0
		c-11.5,6-16.3,10.2-26.9,20.4c-5.1,4.8-22.7,23.2-27.3,28.4c-4.5,5.1-8.4,9.8-13.8,17c-9.9,13-25,34.1-25,34.1s-0.9-5-1-9
		c-0.1-1.4,1.7-12.2,2.5-14.5c4.5-14.8,6.5-21.4,15.8-37.6c8.2-14.4,20.2-31.9,22.9-49C1167.4,391.6,1166.6,385.4,1161.2,385.1
		L1161.2,385.1z M1236.4,437.9c1.4,0,2.7,0.7,3.3,1.6c5.3,7.1,4.4,22.9,2.5,30.5c-4.2,16.6-13.2,30.9-26.1,41.2
		c-8.5,6.8-24.3,15-36,16.9c-5.5,0.9-10.8,1.1-11.2,0.5c-0.2-0.3,5.1-9.6,6.9-12.2c8.2-11.6,16.8-26.5,25.9-39.5
		c6.8-9.8,21.1-28.7,32.2-38C1234.7,438.2,1235.6,437.9,1236.4,437.9L1236.4,437.9z"/>
</g>
<path d="M1855.8,103.4c-54.9,0-102.6,30.7-126.9,75.8c-24.4-45.1-72.1-75.8-126.9-75.8c-79.6,0-144.1,64.5-144.1,144.1
	s64.5,144.1,144.1,144.1c54.9,0,102.6-30.7,126.9-75.8c24.4,45.1,72.1,75.8,126.9,75.8c79.6,0,144.1-64.5,144.1-144.1
	S1935.4,103.4,1855.8,103.4z M1602,357.5c-60.6,0-109.8-49.2-109.8-109.8c0-60.6,49.2-109.8,109.8-109.8s109.8,49.2,109.8,109.8
	C1711.9,308.3,1662.7,357.5,1602,357.5z M1855.8,357.5c-60.6,0-109.8-49.2-109.8-109.8c0-60.6,49.2-109.8,109.8-109.8
	c60.6,0,109.8,49.2,109.8,109.8C1965.6,308.3,1916.5,357.5,1855.8,357.5z"/>
<path d="M1392.5,112.1h-1.2c-1.5,5.3-3.3,10.5-5.5,15.5c-12.7,28.5-37.2,50.6-67.4,60.1v35.1c29-6.6,54.7-21.9,74.1-43.1v203.9h34.4
	V114.2v-2.1H1392.5z"/>
<path d="M214.6,472H201v-8.7h24.5v79.2h-10.9V472z"/>
<path d="M284.7,541.2c-3.5-1.9-6.6-4.6-9.1-8.1c-2.5-3.5-4.5-7.9-5.9-13c-1.4-5.1-2.1-10.8-2.1-17.1c0-6.3,0.7-12.1,2.1-17.1
	c1.4-5.1,3.4-9.4,5.9-13c2.5-3.6,5.5-6.3,9.1-8.2c3.5-1.9,7.4-2.8,11.7-2.8c4.3,0,8.2,0.9,11.7,2.8c3.5,1.9,6.6,4.6,9.1,8.2
	c2.5,3.6,4.5,7.9,5.9,13c1.4,5.1,2.1,10.8,2.1,17.1c0,6.3-0.7,12-2.1,17.1c-1.4,5.1-3.4,9.4-5.9,13c-2.6,3.6-5.6,6.3-9.1,8.2
	c-3.5,1.9-7.4,2.8-11.7,2.8C292.1,544,288.2,543.1,284.7,541.2z M309,526.4c3.2-5.3,4.7-13.1,4.7-23.5c0-10.4-1.6-18.2-4.7-23.6
	c-3.2-5.3-7.4-8-12.6-8c-5.2,0-9.3,2.7-12.5,8c-3.2,5.3-4.7,13.2-4.7,23.6c0,10.4,1.6,18.2,4.7,23.5c3.2,5.3,7.3,8,12.5,8
	C301.6,534.4,305.8,531.7,309,526.4z"/>
<path d="M375.7,541.2c-3.5-1.9-6.6-4.6-9.1-8.1c-2.5-3.5-4.5-7.9-5.9-13c-1.4-5.1-2.1-10.8-2.1-17.1c0-6.3,0.7-12.1,2.1-17.1
	c1.4-5.1,3.4-9.4,5.9-13c2.5-3.6,5.5-6.3,9.1-8.2c3.5-1.9,7.4-2.8,11.7-2.8c4.3,0,8.2,0.9,11.7,2.8c3.5,1.9,6.6,4.6,9.1,8.2
	c2.5,3.6,4.5,7.9,5.9,13c1.4,5.1,2.1,10.8,2.1,17.1c0,6.3-0.7,12-2.1,17.1c-1.4,5.1-3.4,9.4-5.9,13c-2.6,3.6-5.6,6.3-9.1,8.2
	c-3.5,1.9-7.4,2.8-11.7,2.8C383.1,544,379.2,543.1,375.7,541.2z M400,526.4c3.2-5.3,4.7-13.1,4.7-23.5c0-10.4-1.6-18.2-4.7-23.6
	c-3.2-5.3-7.4-8-12.6-8c-5.2,0-9.3,2.7-12.5,8c-3.2,5.3-4.7,13.2-4.7,23.6c0,10.4,1.6,18.2,4.7,23.5c3.2,5.3,7.3,8,12.5,8
	C392.6,534.4,396.8,531.7,400,526.4z"/>
<path d="M547.5,510.5l-27.2-47.2h13.2l20.3,36.6l20.1-36.6h13l-27.2,47.2v32h-12.1V510.5z"/>
<path d="M632.8,463.3h49.2v9.1h-37v23.3h32.8v8.8h-32.8v29h37v9.1h-49.2V463.3z"/>
<path d="M754.9,462.8h6.1l34.1,79.7h-12.7l-6.7-16h-36.7l-6.7,16h-12.6L754.9,462.8z M771.9,517.5L757.6,482l-15.1,35.5H771.9z"/>
<path d="M837.9,463.3h24.6c9.1,0,16.2,2.1,21.1,6.3c5,4.2,7.5,10.1,7.5,17.6c0,5.1-1.3,9.7-4,13.6c-2.7,4-6.5,6.7-11.6,8.3
	l24.6,33.4h-13.9l-22.5-31.1h-13.9v31.1h-12V463.3z M860.4,502.3c5.9,0,10.5-1.3,13.7-3.9c3.2-2.6,4.8-6.3,4.8-11.3
	s-1.6-8.7-4.8-11.1c-3.2-2.5-7.8-3.7-13.7-3.7h-10.5v30H860.4z"/>
<path d="M1837.2,463.2h49.2v9.1h-37v23.3h32.8v8.8h-32.8v29h37v9.1h-49.2V463.2z"/>
<path d="M1922,463.2h24.6c9.1,0,16.2,2.1,21.1,6.3c5,4.2,7.5,10.1,7.5,17.6c0,5.1-1.3,9.7-4,13.6c-2.7,4-6.5,6.7-11.6,8.3l24.6,33.4
	h-13.9l-22.5-31.1H1934v31.1h-12V463.2z M1944.5,502.3c5.9,0,10.5-1.3,13.7-3.9c3.2-2.6,4.8-6.3,4.8-11.3s-1.6-8.7-4.8-11.1
	c-3.2-2.5-7.8-3.7-13.7-3.7H1934v30H1944.5z"/>
<path d="M945.4,542.4c-3.8-1.1-6.6-2.2-8.6-3.5v-10.8c2.7,1.9,6,3.4,9.8,4.6c3.8,1.2,7.7,1.8,11.5,1.8c5.5,0,9.6-1.1,12.5-3.3
	c2.8-2.2,4.2-5.4,4.2-9.7c0-1.9-0.5-3.6-1.5-5.1c-1-1.5-2.3-2.9-3.9-4.1c-1.6-1.2-3.5-2.4-5.7-3.6c-2.2-1.1-4.5-2.3-7-3.4
	c-2.4-1.1-4.8-2.4-7.1-3.7c-2.3-1.3-4.4-2.9-6.2-4.7c-1.8-1.8-3.3-3.9-4.4-6.3c-1.1-2.4-1.7-5.2-1.7-8.3c0-6.2,2.3-11.2,6.8-15
	c4.6-3.8,11-5.7,19.3-5.7c4.1,0,7.8,0.4,11.2,1.3c3.4,0.9,6.1,1.9,8.3,3v10.9c-2.3-1.5-5.1-2.9-8.5-4.1c-3.3-1.2-6.9-1.8-10.8-1.8
	c-4.6,0-8.2,0.9-10.7,2.7c-2.5,1.8-3.8,4.5-3.8,8.2c0,1.8,0.4,3.4,1.3,4.9c0.9,1.4,2.1,2.7,3.5,3.8c1.5,1.1,3.2,2.2,5.1,3.2
	c1.9,1,3.9,2,6,2.9c2.9,1.4,5.7,2.8,8.3,4.2c2.6,1.5,4.9,3.2,6.8,5.1c2,1.9,3.5,4.1,4.7,6.6c1.2,2.5,1.7,5.3,1.7,8.7
	c0,3.3-0.7,6.4-2,9.2c-1.3,2.8-3.2,5.2-5.7,7.2c-2.5,2-5.5,3.6-8.9,4.7c-3.5,1.1-7.4,1.7-11.8,1.7
	C953.4,544,949.1,543.5,945.4,542.4z"/>
<path d="M1216.9,525.5c-2.9-1.2-5.4-2.8-7.4-4.8c-2.1-2.1-3.7-4.5-4.8-7.4c-1.1-2.8-1.7-6-1.7-9.4c0-3.5,0.6-6.6,1.7-9.5
	c1.1-2.9,2.7-5.3,4.8-7.4s4.5-3.7,7.4-4.8c2.9-1.1,6.1-1.7,9.7-1.7c3.6,0,6.9,0.6,9.8,1.7c2.9,1.1,5.4,2.7,7.4,4.8
	c2.1,2.1,3.6,4.5,4.8,7.4c1.1,2.9,1.7,6,1.7,9.5c0,3.4-0.6,6.6-1.7,9.4c-1.1,2.8-2.7,5.3-4.8,7.4c-2.1,2.1-4.5,3.7-7.4,4.8
	c-2.9,1.2-6.2,1.7-9.8,1.7C1223,527.3,1219.8,526.7,1216.9,525.5z M1231.9,517.9c1.6-0.7,3-1.7,4.1-3c1.1-1.3,2-2.9,2.6-4.8
	c0.6-1.9,0.9-3.9,0.9-6.2c0-2.3-0.3-4.4-0.9-6.3c-0.6-1.9-1.5-3.4-2.6-4.8c-1.1-1.3-2.5-2.3-4.1-3.1c-1.6-0.7-3.4-1.1-5.4-1.1
	c-1.9,0-3.7,0.4-5.3,1.1c-1.6,0.7-3,1.7-4.1,3c-1.1,1.3-2,2.9-2.6,4.8c-0.6,1.9-0.9,4-0.9,6.3c0,2.3,0.3,4.4,0.9,6.2
	c0.6,1.8,1.5,3.4,2.6,4.7c1.1,1.3,2.5,2.3,4.1,3c1.6,0.7,3.4,1.1,5.3,1.1C1228.5,519,1230.3,518.6,1231.9,517.9z"/>
<path d="M1272.5,481.4h29.9v7.7h-19.5v11.1h17.5v7.6h-17.5v18.6h-10.3V481.4z"/>
<path d="M1454.6,542.9l-22.5-59.3l-22.5,59.3h-6.4l-25.7-79.6h12.2l17.5,57.9l21.7-58.2h6.4l22.1,58.3l18.1-58h11.7l-26.2,79.6
	H1454.6z"/>
<path d="M1535.7,541c-4.9-2-9.1-4.8-12.6-8.4c-3.5-3.6-6.2-7.9-8.2-13c-1.9-5-2.9-10.6-2.9-16.7c0-6.1,1-11.7,2.9-16.8
	c1.9-5.1,4.6-9.4,8.2-13c3.5-3.6,7.7-6.4,12.6-8.4c4.9-2,10.3-3,16.3-3c6,0,11.4,1,16.3,3c4.9,2,9.1,4.8,12.6,8.4
	c3.5,3.6,6.2,8,8.1,13c1.9,5.1,2.9,10.6,2.9,16.8c0,6.1-1,11.7-2.9,16.7c-1.9,5-4.6,9.3-8.1,13c-3.5,3.6-7.7,6.4-12.6,8.4
	c-4.9,2-10.3,3-16.3,3C1546.1,544,1540.6,543,1535.7,541z M1563.2,532.1c3.4-1.6,6.3-3.7,8.7-6.5c2.5-2.8,4.3-6.1,5.7-9.9
	c1.3-3.9,2-8.1,2-12.7c0-4.6-0.7-8.9-2-12.7c-1.3-3.9-3.2-7.2-5.7-10c-2.5-2.8-5.4-5-8.7-6.5c-3.4-1.6-7.1-2.3-11.2-2.3
	c-4.1,0-7.8,0.8-11.2,2.3c-3.4,1.6-6.3,3.7-8.7,6.5c-2.4,2.8-4.3,6.1-5.6,10c-1.3,3.9-2,8.1-2,12.7c0,4.6,0.7,8.9,2,12.7
	c1.3,3.9,3.2,7.2,5.6,9.9c2.4,2.8,5.3,4.9,8.7,6.5c3.4,1.6,7.1,2.3,11.2,2.3C1556.1,534.4,1559.8,533.6,1563.2,532.1z"/>
<path d="M1639.4,485.7v56.7h-11.6v-79.7h7.2l49.1,57.8v-57.2h11.6v79.6h-7.3L1639.4,485.7z"/>
<path d="M1735.3,463.3h21.6c7.6,0,14.1,0.9,19.8,2.8c5.6,1.9,10.3,4.5,14.1,8c3.8,3.4,6.6,7.6,8.5,12.5c1.9,4.9,2.8,10.3,2.8,16.3
	c0,6-0.9,11.5-2.8,16.3c-1.9,4.9-4.7,9-8.5,12.4c-3.8,3.4-8.5,6.1-14.1,8c-5.6,1.9-12.2,2.8-19.8,2.8h-21.6V463.3z M1755.9,533.4
	c11.2,0,19.6-2.6,25.3-7.9c5.7-5.3,8.6-12.8,8.6-22.6c0-10.3-2.9-17.9-8.6-23c-5.7-5-14.2-7.5-25.3-7.5h-8.6v61H1755.9z"/>
</svg>
