<?xml version="1.0" encoding="UTF-8" standalone="no"?>
<!-- Created with Inkscape (http://www.inkscape.org/) -->

<svg
   xmlns:dc="http://purl.org/dc/elements/1.1/"
   xmlns:cc="http://creativecommons.org/ns#"
   xmlns:rdf="http://www.w3.org/1999/02/22-rdf-syntax-ns#"
   xmlns:svg="http://www.w3.org/2000/svg"
   xmlns="http://www.w3.org/2000/svg"
   xmlns:sodipodi="http://sodipodi.sourceforge.net/DTD/sodipodi-0.dtd"
   xmlns:inkscape="http://www.inkscape.org/namespaces/inkscape"
   id="svg2"
   version="1.1"
   inkscape:version="0.92.2 (5c3e80d, 2017-08-06)"
   width="309.99991"
   height="309.99991"
   xml:space="preserve"
   sodipodi:docname="First Airbus logo.svg"><metadata
     id="metadata8"><rdf:RDF><cc:Work
         rdf:about=""><dc:format>image/svg+xml</dc:format><dc:type
           rdf:resource="http://purl.org/dc/dcmitype/StillImage" /><dc:title></dc:title></cc:Work></rdf:RDF></metadata><defs
     id="defs6" /><sodipodi:namedview
     pagecolor="#ffffff"
     bordercolor="#666666"
     borderopacity="1"
     objecttolerance="10"
     gridtolerance="10"
     guidetolerance="10"
     inkscape:pageopacity="0"
     inkscape:pageshadow="2"
     inkscape:window-width="1920"
     inkscape:window-height="1137"
     id="namedview4"
     showgrid="false"
     borderlayer="true"
     fit-margin-top="5"
     fit-margin-left="5"
     fit-margin-right="5"
     fit-margin-bottom="5"
     inkscape:zoom="0.50000001"
     inkscape:cx="-206.80952"
     inkscape:cy="414.93321"
     inkscape:window-x="1912"
     inkscape:window-y="-8"
     inkscape:window-maximized="1"
     inkscape:current-layer="g4084"
     showguides="true"
     inkscape:guide-bbox="true"><sodipodi:guide
       position="620.04873,-10.764203"
       orientation="1,0"
       id="guide3486"
       inkscape:label=""
       inkscape:color="rgb(0,0,255)"
       inkscape:locked="false" /><sodipodi:guide
       position="297.23573,167.23579"
       orientation="0,1"
       id="guide3488"
       inkscape:locked="false" /></sodipodi:namedview><g
     id="g10"
     inkscape:groupmode="layer"
     inkscape:label="Airbus Family Figures Jan14"
     transform="matrix(1.25,0,0,-1.25,243.95405,538.40189)"><g
       id="g66"
       transform="matrix(10.318294,0,0,10.318294,-4031.7149,-3071.6382)"><g
         id="g3221"><g
           id="g4127"
           style="fill:#253d7a;fill-opacity:1"><g
             id="g4084"
             style="fill:#253d7a;fill-opacity:1"><path
               sodipodi:nodetypes="csssc"
               d="m 383.83705,315.84535 c -6.38851,0 -11.56843,5.18148 -11.56843,11.56843 0,6.39008 5.17835,11.57 11.56687,11.57 6.39008,0 11.57156,-5.17992 11.57156,-11.56843 0,-6.38852 -5.18148,-11.57 -11.57,-11.57"
               style="fill:#f35800;fill-opacity:1;fill-rule:nonzero;stroke:none;stroke-width:1.56351352"
               id="path836"
               inkscape:connector-curvature="0" /><path
               style="fill:#ffff83;fill-opacity:1;fill-rule:nonzero;stroke:none;stroke-width:1.56351352"
               d="m 383.8356,338.98386 c -6.38851,0 -11.56705,-5.18005 -11.56705,-11.57013 0,-6.38695 5.17996,-11.56847 11.56848,-11.56847 6.38851,0 11.57013,5.18161 11.57013,11.57013 0,6.38852 -5.18147,11.56847 -11.57156,11.56847 z m 0.94753,-1.15824 c 3.64924,0 6.85907,-1.87764 8.71809,-4.72011 -1.72612,2.29211 -4.47162,3.77424 -7.56269,3.77424 -5.22839,0 -9.46554,-4.23716 -9.46554,-9.46554 h 2.10293 c 0,4.58891 3.71971,8.30848 8.30706,8.30848 2.9441,0 5.52688,-1.52914 7.0044,-3.83532 -1.34619,1.75582 -3.46454,2.88945 -5.84734,2.88945 -4.0667,0 -7.36262,-3.29748 -7.36262,-7.36261 h 2.10435 c 0,3.42722 2.77692,6.20555 6.20414,6.20555 3.42722,0 6.20399,-2.77824 6.20556,-6.2039 h -1.88724 c 0,-5.7506 -4.66223,-10.41307 -10.41284,-10.41307 -3.64924,0 -6.86072,1.87788 -8.71974,4.72034 1.72768,-2.29211 4.47147,-3.77447 7.5641,-3.77447 5.22839,0 9.46555,4.23881 9.46555,9.4672 h -2.10293 c 0,-4.58891 -3.71957,-8.31014 -8.30848,-8.31014 -2.94254,0 -5.52702,1.52914 -7.00298,3.83532 1.34462,-1.75582 3.46321,-2.88945 5.84757,-2.88945 4.06514,0 7.36262,3.29757 7.36262,7.36427 h -2.10459 c 0,-3.42722 -2.77667,-6.20721 -6.2039,-6.20721 -3.42722,0 -6.20555,2.7799 -6.20555,6.20556 h 1.887 c 0,5.7506 4.66247,10.41141 10.41307,10.41141 z"
               id="path842"
               inkscape:connector-curvature="0" /><path
               inkscape:connector-curvature="0"
               id="path862"
               style="fill:none;fill-opacity:1;fill-rule:nonzero;stroke:#b24000;stroke-width:0.12122265;stroke-miterlimit:4;stroke-dasharray:none;stroke-opacity:1"
               d="m 383.83705,315.84535 c -6.38851,0 -11.56843,5.18148 -11.56843,11.56843 0,6.39008 5.17835,11.57 11.56687,11.57 6.39008,0 11.57156,-5.17992 11.57156,-11.56843 0,-6.38852 -5.18148,-11.57 -11.57,-11.57"
               sodipodi:nodetypes="csssc" /></g></g></g></g></g></svg>