<?xml version="1.0" encoding="utf-8"?>
<!-- Generator: Adobe Illustrator 17.0.0, SVG Export Plug-In . SVG Version: 6.00 Build 0)  -->
<!DOCTYPE svg PUBLIC "-//W3C//DTD SVG 1.1//EN" "http://www.w3.org/Graphics/SVG/1.1/DTD/svg11.dtd">
<svg version="1.1" id="Calque_1" xmlns="http://www.w3.org/2000/svg" xmlns:xlink="http://www.w3.org/1999/xlink" x="0px" y="0px"
	 width="454px" height="456px" viewBox="0 0 454 456" enable-background="new 0 0 454 456" xml:space="preserve">
<g>
	<path d="M222.949,5.997c30.343-2.069,62.961,3.995,93.856,18.485c24.726,11.597,47.241,26.627,66.497,46.142
		c14.288,14.481,27.932,29.528,37.51,47.753c10.257,19.516,18.592,39.675,21.753,61.709c1.795,12.512,4.732,24.832,5.393,37.543
		c0.95,18.27-1.083,36.232-4.589,54.074c-6.111,31.099-18.304,59.75-36.537,85.573c-13.946,19.751-29.914,37.938-49.605,52.26
		c-12.253,8.912-25.892,15.564-39.667,21.96c-21.038,9.769-43.023,15.946-65.949,18.726c-16.949,2.055-33.875,0.557-50.817-1.155
		c-25.862-2.613-50.258-9.997-73.408-21.534c-29.446-14.674-53.366-36.016-73.256-62.029c-15.052-19.685-26.71-41.271-35.238-64.498
		c-5.064-13.793-7.76-28.199-10.064-42.696c-5.565-35.021-0.53-69.166,10.142-102.34c10.855-33.744,28.98-63.513,55.061-88.034
		c3.855-3.624,7.211-7.857,11.036-11.386c4.148-3.827,9.547-6.39,14.181-9.865c28.155-21.115,59.887-33.463,94.622-38.462
		C202.281,7.013,210.704,6.225,222.949,5.997z M12.244,233.498c3.006,114.448,97.234,214.46,218.228,212.25
		c118.476-2.164,211.532-95.38,212.411-220.23c0.85-120.728-102.551-218.584-222.521-214.371
		C108.589,15.072,9.84,104.647,12.244,233.498z"/>
	<path d="M16.062,243.47c-0.82-29.12,1.433-54.215,8.847-78.611c9.886-32.527,26.288-61.217,50.223-85.686
		c26.144-26.727,56.49-46.328,92.397-56.966c37.371-11.072,75.007-12.006,112.807-2.145c37.778,9.855,70.121,29.209,97.612,56.67
		c30.231,30.198,49.179,66.448,57.738,108.368c6.108,29.914,5.373,59.709-1.207,89.203c-5.898,26.44-16.017,51.539-31.362,74.014
		c-13.896,20.353-30.586,38.12-50.629,52.958c-15.216,11.264-31.34,20.499-48.816,27.21c-24.54,9.424-50.029,14.91-76.496,14.49
		c-31.303-0.497-61.162-6.878-89.657-20.442c-31.326-14.911-57.076-36.27-78.143-63.525c-14.233-18.414-23.847-39.277-32.326-60.848
		C21.106,283.04,16.06,256.213,16.062,243.47z M400.26,222.397C397.267,125.213,318.313,51.38,220.7,54.434
		c-92.067,2.88-169.62,81.71-165.894,180.66c3.449,91.57,80.581,170.883,179.309,167.338
		C327.802,399.068,402.823,320.802,400.26,222.397z M184.779,49.106c0.419,3.308,2.215,2.822,4.371,2.335
		c6.467-1.462,12.956-2.865,19.61-3.232c7.22-0.399,10.266-5.12,6.937-11.527c-1.27-2.445-1.436-4.376-0.985-6.951
		c0.85-4.857-1.78-8.265-6.368-7.927c-9.881,0.728-19.69,2.128-29.179,5.173c0.877,3.496,0.877,3.496,6.937,2.759
		C191.235,36.224,190.715,45.725,184.779,49.106z M59.616,317.342c-3.296,1.886-6.172,3.489-9.006,5.164
		c-4.686,2.77-4.857,4.811-0.534,8.832c7.512-4.212,15.111-8.473,22.698-12.728c-2.282-7.938-9.647-5.996-14.419-8.4
		c0.293-2.409,1.222-4.164,2.415-5.761c2.587-3.461,3.22-7.303,0.403-10.565c-2.914-3.373-6.415-0.684-9.044,0.882
		c-5.198,3.097-11.519,4.19-16.112,8.523c0.387,2.237,0.85,3.91,2.974,4.5c4.882-0.755,8.667-4.62,14.157-5.054
		c-1.39,3.815-4.858,6.117-4.853,10.318C51.358,315.606,56.032,314.141,59.616,317.342z M47.166,192.144
		c2.837,0.947,4.191,0.335,4.879-2.233c1.845-6.881,4.012-13.676,5.823-20.566c0.96-3.652-0.25-6.61-4.057-7.949
		c-4.376-1.538-8.751-3.116-13.216-4.351c-2.805-0.776-5.648,0.155-6.73,2.928c-3.317,8.507-5.355,17.401-7.012,26.366
		c-0.352,1.904,0.992,2.615,3.026,2.433c0.863-0.974,1.815-2.047,2.771-3.126c4.652,0.251,9.022,0.913,13.278,2.582
		C46.347,189.558,46.736,190.786,47.166,192.144z M390.989,125.035c-1.003,0.342-2.114,1.606-1.368,2.843
		c2.989,4.955,0.364,9.347-1.074,13.827c-1.28,3.99-0.213,7.103,2.751,9.802c3.753-0.181,3.086-2.771,3.125-5.056
		c0.043-2.556,0.91-4.84,2.845-6.918c1.086,0.216,2.19,0.509,3.313,0.647c5.99,0.737,10.909-5.084,8.314-10.408
		c-2.905-5.958-6.459-11.63-10.101-17.183c-1.597-2.436-4.216-3.02-6.947-1.017c-5.333,3.912-10.734,7.732-15.842,11.401
		c-0.502,2.957,0.368,4.68,3.512,5.866c5.2-3.509,10.769-7.268,16.797-11.336c3.286,4.442,6.958,8.213,6.692,14.312
		C395.94,134.575,396.751,125.203,390.989,125.035z M81.663,123.086c4.724-6.764,9.995-13.175,15.463-19.437
		c2.547-2.916,2.771-5.87-0.6-8.621c-2.959-2.415-5.823-4.971-8.534-7.661c-3.284-3.258-6.579-2.99-9.662-0.095
		c-6.561,6.161-12.364,13.013-17.587,20.345c-1.424,1.999-1.342,3.683,1.158,4.717c2.527-0.466,2.692-3.958,5.685-4.081
		c3.325,3.069,8.594,4.014,10.454,7.822c0.686,2.719-1.314,4.049-0.349,5.94C78.469,123.063,79.546,123.671,81.663,123.086z
		 M140.723,415.429c3.242-6.414,6.506-12.873,9.775-19.341c4.548,0.921,7.89,2.843,10.607,5.549c0.49,3.121-1.676,3.903-3.279,4.866
		c-3.486-0.061-5.812-6.206-10.387-1.056c4.497,3.378,4.381,8.066,4.541,12.949c0.143,4.368,8.646,9.2,12.071,7.194
		c0.917-1.017,1.556-2.271,0.811-3.875c-6.417-3.825-6.513-3.972-5.628-8.986c6.077-1.651,7.901-6.518,8.986-12.467
		c-7.281-4.313-14.163-8.701-22.64-9.785c-5.152,7.063-7.713,14.901-11.101,21.814C135.9,415.232,137.5,416.334,140.723,415.429z
		 M52.14,119.772c-3.06,5.334-6.275,10.741-9.297,16.254c-3.725,6.798-2.861,9.101,4.24,12.119c0.762,0.324,1.544,0.604,2.303,0.935
		c10.66,4.637,13.511,8.015,20.523-6.823c5.548-11.74,6.041-11.537-4.876-18.551C61.344,121.336,57.988,117.858,52.14,119.772z
		 M257.718,48.886c0.726-1.982,0.96-3.62-1.047-4.025c-4.888-0.986-5.745-4.838-6.844-8.647c0.978-1.179,2-2.099,2.638-3.235
		c2.493-4.437,1.597-9.789-2.097-10.566c-8.267-1.738-16.659-1.953-25.658-1.041c0.219,7.069,0.497,13.499,0.578,19.932
		c0.034,2.689,0.162,5.505,3.476,5.491c3.354-0.014,3.468-2.936,3.387-5.552c-0.159-5.095-0.316-10.19-0.463-14.951
		c3.838-2.097,7.012-0.589,10.095-0.814c1.952-0.142,3.8,0.412,3.929,2.814c0.14,2.597-1.846,3.276-3.881,3.731
		c-2.031,0.454-4.346-0.866-6.174,0.983c-0.678,1.351-0.534,2.543,0.962,3.766c4.923-0.694,7.628,2.575,9.737,6.579
		C248.762,47.92,252.512,49.536,257.718,48.886z M386.784,359.358c7.482-6.169,11.072-14.719,15.909-22.558
		c-8.714,0.424-9.924,9.722-15.996,13.594c-1.358-2.161-4.113-2.52-4.869-4.956c1.845-5.709,8.022-9.172,8.467-16.685
		c-8.069,1.464-8.106,9.948-13.589,12.835c-2.761-1.285-2.965-2.91-0.953-5.313c2.019-2.411,3.836-5.012,5.546-7.655
		c1.019-1.575,2.474-3.305,0.737-5.265c-1.834-0.787-3.147,0.104-4.014,1.317c-3.475,4.861-6.873,9.78-10.166,14.766
		c-1.096,1.659-1.108,3.824,0.51,5.019C374.493,348.985,379.529,354.869,386.784,359.358z M371.511,79.759
		c-7.38,4.888-12.335,10.972-16.943,17.379c-0.719,1-0.478,2.379,0.356,3.283c4.797,5.2,9.664,10.337,14.316,15.293
		c2.005-0.402,2.813-1.323,3.134-2.982c-2.236-4.133-5.468-7.657-8.689-11.225c-1.813-2.009-2.786-4.296,1.313-5.714
		c4.399,4.655,8.788,9.3,12.815,13.562c1.925-0.078,3.099-1.085,2.857-1.769c-2.186-6.184-7.588-10.207-10.953-15.605
		c0.302-2.005,1.306-3.061,3.584-3.372c2.006,2.538,3.885,5.3,6.161,7.682c2.088,2.185,3.366,6.651,8.705,3.61
		C383.952,92.153,377.669,86.598,371.511,79.759z M425.329,171.764c-1.278-7.065-3.459-13.502-5.988-19.789
		c-1.692-4.206-5.001-4.742-9.074-3.056c-4.046,1.675-6.516,4.074-5.16,8.736c1.021,3.508,2.33,6.932,3.367,10.436
		c0.509,1.719,1.098,3.642-1.811,5.032c-6.324-3.681-4.618-12.238-9.287-17.172c-3.948,0.684-3.894,3.05-2.872,5.88
		c1.185,3.283,2.571,6.506,3.546,9.849c2.691,9.222,5.586,10.541,13.992,6.296c3.334-1.684,4.685-4.045,3.461-7.707
		c-1.161-3.47-2.267-6.959-3.375-10.446c-0.625-1.967-1.182-3.94,1.482-4.851c2.161,0.24,2.643,1.886,3.179,3.459
		c1.18,3.461,2.336,6.929,3.51,10.392C421.004,170.905,421.669,173.06,425.329,171.764z M275.513,403.408
		c-2.467-1.107-4.269-0.464-5.977,2.023c1.814,6.772,3.545,13.857,5.645,20.832c1.183,3.929,3.012,4.11,7.42,0.994
		c-0.826-3.981-1.688-8.131-2.577-12.417c4.138-1.574,7.67-3.812,11.858-3.692c3.042,3.558,2.746,8.486,5.976,11.773
		c2.472,0.215,4.571-0.276,6.088-3.018c-1.629-7.21-4.7-14.204-7.17-21.38c-0.654-1.9-2.475-2.643-4.546-1.845
		c-1.902,0.733-2.968,1.997-2.709,4.202c0.17,1.446,1.13,2.844,0.178,4.683c-3.367,1.468-7.041,2.795-10.735,3.387
		C276.775,407.611,277.147,405.149,275.513,403.408z M272.193,25.693c-3.806,0.186-5.139,2.233-5.834,4.747
		c-1.233,4.456-2.56,8.9-2.909,13.552c-0.113,1.51-0.108,2.942,0.77,4.302c2.548,3.945,19.295,8.565,23.412,6.407
		c0.44-0.231,0.886-0.467,1.279-0.768c2.546-1.946,6.977-16.135,5.777-19.014c-0.488-1.172-1.353-2.539-2.417-3.061
		C285.677,28.618,278.384,27.637,272.193,25.693z M77.061,327.807c-6.347,2.457-11.285,6.7-16.597,10.352
		c-3.198,2.198-3.616,4.906-2.086,8.225c2.044,4.437,5.071,8.195,8.276,11.801c3.507,3.945,6.16,4.338,10.335,1.15
		c4.224-3.225,8.148-6.842,12.231-10.254c1.776-1.485,2.477-3.371,1.217-5.295C86.632,337.976,82.843,332.11,77.061,327.807z
		 M263.521,429.232c-5.952-0.532-11.9,2.417-18.044,1.06c-0.695-2.003-1.674-3.802-0.474-6.069c4.33-1.429,9.036-1.23,13.578-2.017
		c1.806-0.313,3.222-1.262,3.004-3.3c-0.232-2.161-1.904-2.482-3.723-2.288c-3.306,0.352-6.608,0.754-9.916,1.085
		c-1.316,0.132-2.659,0.211-3.883-0.59c-0.682-1.388-1.049-2.77,0.451-4.523c2.056-0.324,4.525-0.581,6.927-1.13
		c2.395-0.547,5.365,0.459,7.186-2.166c-2.645-2.826-17.073-2.273-22.803,0.913c0.138,8.327,1.101,16.814,2.549,25.767
		c9.155,0.706,17.627-1.08,25.779-2.872C264.998,431.276,264.519,430.289,263.521,429.232z M385.98,312.325
		c3.435,4.271,7.714,6.032,12.185,7.097c5.482-3.328,5.249-10.43,10.325-13.706c1.57,0.836,3.265,1.137,4.058,3.047
		c-1.147,5.765-5.496,10.434-6.587,16.021c2.3,2.375,3.958,1.373,4.895-0.332c3.125-5.683,6.104-11.519,7.529-17.859
		c1.316-5.856-3.988-7.05-7.656-8.88c-3.494-1.743-5.459,0.675-7.018,3.596c-1.702,3.191-3.641,6.255-5.412,9.263
		c-4.624-0.376-5.173-2.485-3.489-6.122c1.542-3.329,4.052-6.383,3.9-11.689C390.631,297.709,389.661,305.792,385.98,312.325z
		 M92.069,76.139c3.195,5.389,7.66,9.166,11.626,13.349c1.658,1.749,4.215,1.89,6.089,0.919c6.606-3.422,12.254-8.119,17.155-13.322
		c-6.603-13.995-8.876-14.328-19.142-3.469c0.449,1.655,1.533,2.476,3.356,2.473c2.142-0.628,3.214-3.39,5.851-3.271
		c1.66,0.459,2.464,1.574,2.59,3.298c-1.149,3.147-3.995,4.702-6.416,6.672c-2.192,1.784-4.527,1.631-6.283-0.246
		c-2.663-2.848-6.096-5.182-7.299-9.423c2.79-4.558,7.579-6.826,11.636-9.892c1.941-1.467,2.808-2.676,0.444-4.857
		C104.1,62.982,96.841,67.776,92.069,76.139z M137.681,389.95c0.075-2.402-0.493-3.502-1.312-4.644
		c-2.989-4.167-7.169-6.855-11.417-9.456c-3.947-2.417-7.366-1.563-9.943,2.159c-2.646,3.822-5.208,7.714-7.574,11.714
		c-1.588,2.685-1.334,5.571,0.981,7.748c3.521,3.312,7.412,6.182,11.8,8.301c2.032,0.981,4.299,1.613,6.199,0.243
		C132.292,401.774,134.978,395.316,137.681,389.95z M122.406,50.869c3.531,6.673,6.765,12.983,11.234,18.57
		c1.568,1.96,3.432,2.226,5.733,1.005c4.684-2.487,9.47-4.781,14.206-7.169c1.239-0.624,2.242-1.443,2.039-3.779
		c-6.38-2.796-10.579,4.534-16.227,4.233c-1.92-1.086-2.908-2.44-2.346-4.896c2.223-2.287,5.829-2.664,8.404-4.653
		c2.265-1.75,6.981-1.58,6.161-7.138c-4.997,1.585-9.22,3.197-13.142,5.719c-4.373,2.812-5.905,2.271-7.029-2.288
		c4.303-3.551,10.141-4.535,14.605-7.792c0.24-1.708-0.378-2.707-2.425-3.313C136.492,42.232,129.453,46.055,122.406,50.869z
		 M342.355,88.019c1.907,3.051,3.863,3.233,5.772,0.846c4.531-5.667,8.935-11.436,13.206-16.927
		c-1.037-2.155-2.093-3.369-3.815-3.677c-3.932-0.786-4.382,4.481-8.39,4.407c-3.035-2.275-6.959-4.087-9.177-7.385
		c0.277-3.295,3.778-4.699,2.636-8.292c-1.31-1.017-2.529-2.978-5.691-2.111c-3.618,6.906-7.401,14.128-11.229,21.436
		c7.254,4.818,6.839-4.047,11.311-5.021c3.93,1.47,7.339,4.252,9.784,8.73C345.317,82.646,343.891,85.232,342.355,88.019z
		 M327.42,384.793c1.847-3.334,5.108-4.354,7.28-6.571c1.835-1.874,6.423-2.289,3.991-7.135c-6.273,1.877-10.463,6.594-15.604,9.747
		c-4.073,2.498-4.186,5.577-2.099,9.284c0.814,1.446,1.771,2.812,2.583,4.26c7.663,13.653,10.708,13.196,23.278,3.355
		c3.122-2.444,6.991-4.562,7.65-9.096c-1.81-2.17-3.287-1.333-4.84-0.053c-3.201,2.637-6.407,5.272-9.697,7.795
		c-2.011,1.543-4.21,2.261-6.098-0.22C331.158,392.604,328.967,388.762,327.42,384.793z M212.334,426.54
		c-2.948-6.868-4.078-13.305-7.256-18.875c-2.215-0.349-4.259-1.588-6.964,0.474c3.704,8.906,6.184,18.469,10.488,26.88
		c2.444,0.804,4.213,1.11,6.511-0.251c3.096-7.807,8.237-15.228,11.113-23.739c-1.381-1.564-2.748-2.214-4.845-1.293
		C217.865,414.434,216.124,420.421,212.334,426.54z M98.093,361.756c-4.745,5.007-9.373,9.889-13.989,14.759
		c1.452,2.597,2.969,4.424,5.739,4.832c4.805-4.623,9.558-9.195,14.345-13.8c3.634,1.403,5.192,5.282,9.017,5.932
		c3.264-1.524,2.819-3.518,0.538-5.638c-2.799-2.601-5.848-4.955-8.464-7.723c-3.176-3.36-6.157-6.886-9.921-9.532
		C92.418,352.798,92.418,352.798,98.093,361.756z M345.97,364.613c5.006,5.338,9.894,10.499,14.715,15.721
		c1.597,1.73,3.42,2.276,5.261,0.831c5.837-4.582,11.383-9.474,14.752-16.691c-7.408-1.098-9.435,7.054-14.979,9.231
		c-5.567-4.228-9.13-10.695-14.86-14.473C348.189,360.371,346.921,362.01,345.97,364.613z M310.958,44.713
		c-1.003,6.241-5.014,11.646-6.271,17.725c0.933,2.147,2.332,3.027,4.622,2.699c4.756-4.826,4.956-12.442,9.382-17.305
		c4.013,0.335,5.912,4.09,9.454,4.039c1.474-3.434,1.474-3.434-8.845-8.997c-14.146-7.627-15.318-7.881-18.056-3.776
		C303.214,42.453,307.238,42.275,310.958,44.713z M321.453,412.707c-2.799-6.404-5.33-12.749-8.325-18.866
		c-2.326-4.751-5.73-4.814-9.018-0.514c3.432,7.624,6.879,15.283,10.299,22.879C317.438,416.432,319.426,415.12,321.453,412.707z"/>
	<path d="M397.294,222.98c1.8,98.47-73.773,174.095-165.156,176.568c-97.419,2.637-172.541-75.107-174.066-168.455
		C56.527,136.44,127.751,58.889,225.706,56.916C318.567,55.045,394.167,128.551,397.294,222.98z M232.537,395.369
		c91.777-2.573,165.354-78.337,160.665-177.038c-4.287-90.233-77.844-159.875-172.625-157.063
		c-91.981,2.728-162.121,82.131-158.929,172.866C64.641,319.233,136.752,398.57,232.537,395.369z"/>
	<path d="M194.196,29.602c4.942-3.946,9.423-4.452,13.37-1.6c-0.669,4.424-4.757,4.174-8.33,5.46
		c1.282,5.934,6.085,1.776,8.589,3.319c2.324,3.798,1.565,6.144-2.397,7.255c-6.637,1.862-8.099,0.95-9.59-6.066
		C195.259,35.248,194.763,32.507,194.196,29.602z"/>
	<path d="M34.563,179.014c-0.326-5.051,0.88-10.152,3.059-14.14c5.8-0.76,12.145,1.138,13.278,4.361
		c1.367,3.889,0.405,8.3-2.211,10.692C44.169,184.06,39.509,178.882,34.563,179.014z"/>
	<path d="M71.528,101.378c1.474-3.282,4.367-5.618,6.502-8.508c0.972-1.316,2.622-1.754,4.01-0.858
		c3.96,2.557,8.554,4.582,9.643,9.908C84.604,113.6,78.514,113.466,71.528,101.378z"/>
	<path d="M54.253,126.15c4.804,0.969,8.471,3.477,12.018,6.186c0.481,0.368,0.891,1.084,0.967,1.686
		c0.557,4.442-2.412,7.439-4.778,10.5c-1.88,2.432-4.61,1.145-6.909,0.227c-1.691-0.675-3.278-1.636-4.854-2.565
		c-2.548-1.502-3.383-3.632-1.919-6.331C50.51,132.659,52.345,129.52,54.253,126.15z"/>
	<path d="M270.491,46.713c-1.161-5.759,1.101-10.294,2.162-14.915c4.442-1.369,12.035,0.469,13.83,3.21
		c1.72,2.626-0.05,8.945-4.058,14.215C278.252,49.801,274.56,47.792,270.491,46.713z"/>
	<path d="M77.216,335.108c3.826,2.365,5.775,5.627,6.274,9.856c-1.948,3.569-5.416,5.375-8.402,7.7
		c-2.696,2.099-5.152,1.978-7.352-0.788c-2.232-2.806-4.647-5.615-1.504-9.219C69.239,339.207,73.253,337.197,77.216,335.108z"/>
	<path d="M112.826,394.342c2.015-5.478,5.913-9.124,8.842-13.666c4.491,0.4,7.976,1.989,9.343,6.198
		c0.903,2.781-5.123,12.911-8.053,13.449C118.286,401.179,115.45,398.17,112.826,394.342z"/>
	<path d="M390.072,221.793c1.729,90.578-63.338,166.124-155.122,170.279c-91.315,4.134-166.436-66.61-169.711-157.735
		C61.965,143.269,129.883,69.402,218.14,64.367C311.175,59.059,386.02,130.123,390.072,221.793z M92.695,308.719
		c4.126,1.905,7.667,0.718,11.051,0.736c23.964,0.132,47.944,0.477,71.886-0.285c6.674-0.212,9.7,2.198,12.54,7.2
		c11.58,20.398,23.243,40.75,35.033,61.028c1.586,2.728,2.457,6.154,6.204,8.295c14.328-25.749,28.52-51.253,42.866-77.033
		c30.275-0.064,60.592-0.129,91.998-0.195c-15.868-27.413-29.552-54.875-45.813-80.972c14.94-26.687,29.671-52.999,44.293-79.118
		c-1.433-1.707-2.824-1.532-4.126-1.526c-24.972,0.102-49.95-0.037-74.913,0.493c-7.397,0.157-12.512-1.417-14.937-8.902
		c-0.806-2.487-2.4-4.734-3.741-7.028c-11.4-19.498-22.802-38.995-34.287-58.443c-0.863-1.462-1.464-3.429-4.206-3.936
		c-4.5,7.681-9.16,15.445-13.636,23.314c-9.368,16.469-18.655,32.983-27.935,49.501c-2.048,3.645-4.76,5.387-9.22,5.425
		c-23.3,0.2-46.6,0.632-69.895,1.193c-4.577,0.11-9.257-0.462-14.532,0.95c15.364,26.468,30.51,52.56,45.632,78.61
		C121.803,254.749,106.864,281.194,92.695,308.719z M342.628,312.351c-1.301,1.781-2.78,3.545-2.134,5.88
		c1.014,3.664-0.813,5.491-3.711,7.178c-3.882,2.261-7.473,4.873-9.388,9.299c-0.953,2.203-2.827,3.374-5.619,3.283
		c-3.284-0.107-6.59,0.477-9.637,0.74c-2.239,1.836-2.088,5.374-5.548,6.03c-2.601-0.854-5.317-2.238-5.56-5.405
		c-0.354-4.627-1.487-9.992,0.325-13.798c2.577-5.412,0.265-9.076-1.713-14.282c-6.238,0.193-12.729,0.841-19.155,0.441
		c-4.588-0.286-6.922,1.346-9.032,5.173c-10.194,18.487-20.749,36.776-30.911,55.281c-3.014,5.489-6.626,10.754-8.814,16.949
		c23.268,0.54,68.345-10.582,92.99-32.58c14.696-13.118,28.906-26.516,39.037-44.64
		C355.992,312.098,349.352,311.436,342.628,312.351z M178.92,313.064c-0.733,2.142-0.965,4.817-3.195,5.905
		c-3.361,1.64-2.958,4.575-3.454,7.498c-1.006,5.937,0.422,12.091-1.61,17.872c-1.835,5.22-5.387,10.381,0.803,15.204
		c0.619,0.483,0.511,1.866,0.8,2.813c0.844,2.763,2.643,4.583,5.462,5.298c1.413,0.359,3.026,0.233,3.93,1.843
		c-0.243,3.295-1.842,4.347-5.275,4.124c-10.095-0.656-16.989-7.541-23.656-13.419c-5.641-4.974-9-12.646-11.574-20.197
		c-1.814-5.322-6.976-9.546-4.584-16.565c-3.979,0.392-5.873-1.759-7.357-4.568c-2.587-4.896-6.096-7.371-12.107-5.752
		c-3.279,0.883-6.951,0.381-10.446,0.373c-4.583-0.011-9.165-0.151-13.937-0.239c14.119,38.009,92.31,82.695,132.133,75.857
		c0.227-1.976-1.009-3.43-1.903-4.958c-2.847-4.87-5.877-9.635-8.658-14.542c-10.076-17.778-20.06-35.609-30.144-53.383
		C183.216,314.583,182.297,312.533,178.92,313.064z M307.392,97.667c0.957-2.328,0.245-3.95,0.098-5.578
		c-0.147-1.622-0.441-3.231-0.735-5.3c-23.405-11.722-47.642-20.508-74.93-20.273c0.877,4.189,1.958,7.461,5.461,9.192
		c9.746-3.519,16.308,0.515,18.894,11.375c-1.504,3.89-5.008,6.061-8.371,9.329c9.117,15.733,18.232,31.464,27.501,47.458
		c8.999-0.278,17.594-0.544,26.614-0.823c0.837-4.237,6.315-3.709,8.636-6.511c-0.94-2.516-3.518-1.706-4.123-3.686
		c-0.323-5.492,2.116-7.503,12.119-9.806c1.989-0.348,2.615,2.793,5.285,1.63c-0.157-5.085-0.308-10.343-0.495-15.6
		c-0.028-0.783-0.224-1.561-0.443-3.009c-5.549,3.439-0.633,8.777-3.214,12.573c-3.585,1.285-7.364,2.172-11.687,0.346
		c-0.734-4.251-5.293-6.647-6.001-11.037C301.254,103.325,302.486,99.337,307.392,97.667z M81.839,202.99
		c-2.32,2.251-1.661,3.876-1.532,5.477c0.299,3.7,1.812,6.867,3.614,10.068c2.344,4.163,0.674,7.455-3.547,8.187
		c-5.971-4.511-9.203-10.56-10.419-17.926c-5.355,35.057,1.667,67.467,18.888,99.256c6.527-11.964,12.371-22.674,18.163-33.29
		c-0.826-0.902-1.256-1.408-1.723-1.876c-5.911-5.933-5.316-7.537,0.887-13.332c4.118-3.846,6.356-9.399,6.137-15.66
		c-3.615-1.082-6.841-2.846-6.545-6.405c0.498-5.982-2.812-7.855-7.617-8.985c-2.092-0.492-4.075-1.435-6.153-2.012
		c-1.746-0.485-3.638-1.449-3.455-3.121C89.382,215.646,81.794,211.103,81.839,202.99z M165.234,143.585
		c2.477,0.929,4.821-0.086,7.085,0.263c5.97,0.922,9.388-1.678,12.219-6.969c7.449-13.918,15.504-27.51,23.29-41.248
		c3.73-6.582,7.397-13.2,11.143-19.893c-3.032-1.355-5.004-0.324-6.975,1.312c-2.117,8.781-6.868,16.416-10.62,24.471
		c-4.415-1.765-4.415-1.765-6.781-7.887c-6.758-2.813-6.758-2.813-5.415-10.859c-3.372-2.266-7.924-4.482-5.963-10.543
		c-2.867,0.83-5.034,1.748-7.284,2.05c-4.665,0.626-6.976,2.92-7.27,7.767c-0.224,3.703-1.108,7.42-4.891,9.932
		c2.283,1.194,4.004,2.094,5.967,3.12c0.062,1.993-0.06,3.985,0.229,5.916c0.361,2.41-0.157,4.3-2.317,5.535
		c-2.051,1.173-4.049,0.533-5.502-0.927c-2.107-2.116-4.586-2.387-7.309-2.446c-2.309-0.05-4.594-0.444-6.235-1.495
		c-1.532-1.76,0.242-3.667-1.101-5.079c-2.077-1.308-4.153-2.615-6.426-4.046c-3.964,2.953-7.756,5.922-11.701,8.67
		c-3.003,2.092-5.04,4.525-5.518,8.367c-0.446,3.58-1.297,6.963-5.05,9.139c-2.546,1.476-3.126,4.537-1.848,7.207
		c3.334,7.228,14.185,4.884,16.18,13.897c3.919-0.929,5.483-3.117,5.339-7.347c-9.311-2.457-2.414-13.93-10.157-17.28
		c1.425-3.735,3.907-5.154,7.061-6.083c1.508,1.254,3.005,2.498,4.62,3.84c4.834-0.654,9.538-1.435,13.112-4.652
		c2.155-0.083,3.554,0.685,4.579,2.139c4.57,6.486,9.586,12.363,17.573,14.915c2.475,0.791,4.758,2.325,6.403,4.599
		c-0.641,2.852-1.064,6.08-4.958,5.613c-4.086-0.49-7.273,1.693-10.784,2.528C165.316,139.929,164.72,141.481,165.234,143.585z
		 M342.415,212.739c-3.459-7.046,2.947-11.801,4.504-18.015c-1.232-1.147-3.11-1.6-5.192-2.147
		c-2.666,4.41-5.327,8.576-7.072,13.209c1.703,3.077,2.755,6.384,5.448,8.493c6.702,5.246,11.338,12.205,16.379,18.882
		c2.218,2.939,3.883,6.337,7.66,8.23c3.189,1.598,3.967,6.195,1.556,8.18c-5.27,4.338-8.351,11.46-16.288,12.873
		c1.778,3.539-1.344,5.594-2.252,8.511c6.473,11.759,12.964,23.551,19.655,35.705c13.117-19.669,23.456-60.658,21.185-82.405
		c-0.245-2.345-1.206-4.974-2.94-5.455c-5.74-1.594-8.905-6.262-13.656-10.738c1.604,5.306,4.996,7.805,7.98,10.505
		c3.432,3.104,3.999,7.81,0.876,11.285c-1.32,1.468-2.815,2.779-4.767,4.686c-1.373,0.042-3.499,0.108-5.18,0.16
		c-1.773,1.496-1.779,3.77-4.668,4.739c-3.905-9.47-13.02-15.51-16.312-24.86C347.142,212.994,345.151,213.776,342.415,212.739z
		 M101.141,204.821c3.179,4.448-3.1,9.004,1.971,13.167c3.05-1.977,4.299-7.414,9.639-5.179c2.999,2.697-0.775,5.236-0.693,7.881
		c0.977,1.227,1.893,2.376,2.607,3.273c0.5,3.216-3.521,5.628-0.512,9.004c2.952-0.438,4.472,2.8,7.18,3.732
		c2.111-3.134,1.106-6.789,2.67-9.842c1.983-0.972,4.488-1.204,5.877-3.637c-0.684-3.367-2.893-6.043-4.674-8.855
		c-2.1,0.144-2.253,2.683-4.548,2.783c-2.917-1.323-4.853-3.738-5.421-7.298c-0.515-3.229,1.28-7.114-2.734-9.615
		C109.198,202.009,106.122,204.374,101.141,204.821z"/>
	<path d="M260.875,287.314c-21.523,1.494-43.08,0.617-64.668,0.554c-4.866-5.14-7.695-11.392-11.106-17.247
		c-7.198-12.357-14.188-24.836-21.489-37.132c-1.995-3.359-1.518-6.211,0.042-9.36c8.797-17.76,20.412-33.9,29.554-51.461
		c1.131-2.172,2.93-2.939,5.331-2.935c19.149,0.027,38.298,0.056,57.446-0.071c3.622-0.024,5.927,1.383,7.639,4.452
		c9.32,16.703,18.646,33.402,28.117,50.02c2.055,3.606,1.184,6.576-0.664,9.797c-8.935,15.574-17.802,31.188-26.677,46.796
		C263.334,282.601,262.362,284.528,260.875,287.314z M236.41,227.975c3.793,1.149,7.302,0.082,10.741,1.154
		c8.226,2.565,12.244,12.429,11.97,18.959c-0.335,7.972-6.425,15.967-13.7,17.827c-9.141,2.338-20.328-1.697-19.791-13.986
		c0.701-16.05,0.51-32.202,0.471-48.311c-0.012-5.152-1.489-6.359-6.929-5.531c-1.496,22.894,1.449,46.086-3.046,68.884
		c8.681,10.252,27.872,12.397,38.682,4.234c6.215-4.693,11.619-10.195,13.124-18.187c2.153-11.437,0.091-21.79-9.355-29.449
		c9.32-13.212,10-25.798,1.473-33.408c-6.971-6.221-20.026-10.895-26.828-5.227c3.483,2.9,5.924,6.649,11.438,6.993
		c6.152,0.384,10.967,6.488,11.442,12.507c0.447,5.663-3.255,11.798-8.456,14.072c-3.603,1.576-7.511,0.74-11.298,1.279
		C235.499,222.567,235.89,225.14,236.41,227.975z M172.03,240.173c2.178,0.454,3.615-1.568,5.982-1.719
		c3.931,3.22,9.14,4.143,14.702,6.647c-0.184-19.491,0.219-38.186-1.675-57.459c0.187-0.218,0.72-1.097,1.48-1.682
		c8.6-6.625,18.321-8.328,28.745-6.051c4.077,0.89,7.789,1.515,12.118,0.37c13.039-3.447,25.356,1.913,32.653,13.427
		c0.703,1.109,1.255,2.381,2.774,2.658c1.052-0.208,2.362-0.905,1.969-1.819c-3.203-7.463-7.572-14.282-11.832-21.373
		c-19-0.373-37.771-0.229-56.551,0.142c-4.114,0.081-6.353,1.557-8.292,4.947c-8.255,14.44-16.76,28.737-25.062,43.15
		C164.599,229.126,165.367,233.335,172.03,240.173z M195.094,188.01c2.363,27.561,0.816,54.282-0.623,81.534
		c7.245,4.82,15.021,7.982,24.394,5.565c-3.894-3.247-5.898-8.095-10.093-10.633c-2.931-1.773-4.183-3.724-4.132-7.183
		c0.286-19.134,0.377-38.271,0.52-57.407c0.041-5.548,2.998-8.635,8.676-8.271c8.529,0.547,15.698,3.756,20.744,11.145
		c2.841,4.16,4.358,8.87,6.403,13.807c2.638-0.952,5.505-0.427,7.358-3.455c-2.478-13.501-10.743-23.1-22.852-28.66
		C215.206,179.731,204.721,181.929,195.094,188.01z M192.953,276.835c1.146,2.684,2.467,5.132,4.698,7.681
		c19.326-0.093,38.93-0.194,58.534-0.269c1.683-0.006,3.059-0.814,3.782-2.075c5.84-10.19,11.557-20.451,17.18-30.456
		c-1.489-2.399-3.008-2.832-5.315-1.553c-0.346,1.141-0.827,2.533-1.189,3.956c-3.971,15.608-22.296,30.112-39.806,24.48
		c-2.617-0.842-5.549-2.032-8.267-0.951c-8.711,3.466-16.937,1.907-25.036-1.866C195.903,275.023,194.422,274.467,192.953,276.835z
		 M215.009,195.719c-5.161-0.432-6.72,1.899-6.754,5.568c-0.172,18.429-0.27,36.859-0.413,55.288
		c-0.029,3.733,1.935,4.901,6.408,4.412C216.155,239.344,215.198,217.717,215.009,195.719z M229.123,202.595
		c-0.012,17.551-0.023,35.101-0.035,52.652c0.529,0.032,1.058,0.064,1.587,0.095c4.073-6.648,7.237-13.579,6.686-21.353
		c-1.183-1.702-3.326-1.016-4.086-3.304c-0.13-4.214-0.278-9.001-0.411-13.303c0.757-2.016,3.24-1.246,3.438-3.51
		C235.359,209.693,233.113,205.898,229.123,202.595z M238.147,263.252c7.492-6.342,9.955-14.819,11.082-23.806
		c0.37-2.952-1.56-5.02-4.492-5.702c-2.486-0.578-3.918,0.982-4.186,3.149c-1.054,8.529-4.031,16.227-9.68,22.748
		C232.861,261.996,235.178,262.692,238.147,263.252z M243.296,262.878c7.42-1.711,10.622-5.748,12.042-11.39
		c1.081-4.291,1.559-8.601-2.866-13.092C251.642,247.574,248.173,254.821,243.296,262.878z M251.02,211.051
		c3.515-7.821-0.116-14.896-7.27-15.474C247.273,200.007,249.757,204.55,251.02,211.051z"/>
	<path d="M317.452,222.656c-5.436-3.723-5.702-9.654-9.156-13.84c7.935-13.632,15.873-26.98,23.441-41.713
		c-45.095-0.804-89.18-0.568-134.258-0.551c2.938-5.433,5.312-10.116,7.98-14.625c1.187-2.006,3.417-2.345,5.726-2.339
		c28.284,0.077,56.568,0.161,84.851,0.115c18.294-0.03,36.589-0.275,54.883-0.413c2.129-0.016,4.295-0.289,7.49,1.109
		C344.799,174.411,331.292,198.24,317.452,222.656z"/>
	<path d="M190.885,286.876c-5.762,1.991-10.292,0.783-15.327,1.872c-26.082-45.222-52.1-90.335-78.668-136.401
		c28.397-0.878,55.233-1.707,82.937-2.564c-2.802,6.036-5.139,10.762-8.227,15.084c-1.582,2.214-4.026,2.094-6.345,2.16
		c-12.15,0.347-24.302,0.644-36.452,1.007c-1.772,0.053-3.643-0.367-5.832,1.016C144.535,208.665,168.419,246.94,190.885,286.876z"
		/>
	<path d="M227.634,378.496c-13.001-22.571-26.087-45.292-39.274-68.186c10.725-3.548,14.975-2.016,19.742,6.342
		c5.605,9.827,11.243,19.635,16.912,29.425c0.643,1.11,1.578,2.051,3.208,4.129c22.355-39.746,44.344-78.841,66.383-118.027
		c8.236,6.441,9.919,13,5.435,20.882c-14.049,24.696-28.271,49.293-42.315,73.992c-9.12,16.039-18.036,32.193-27.078,48.276
		C230.03,376.425,229.894,377.97,227.634,378.496z"/>
	<path d="M149.002,251.772c4.387,3.073,19.634,29.571,20.53,35.432c-13.911,0.43-27.745,0.858-42.777,1.322
		C135.512,276.277,141.365,263.687,149.002,251.772z"/>
	<path d="M305.368,250c8.423,12.385,14.407,24.393,21.74,37.365c-14.579,1.708-27.832,0.992-42.655,0.036
		C291.624,274.578,298.128,262.947,305.368,250z M293.562,278.976c-1.537,1.078-2.421,2.289-1.608,4.235
		c1.768,0.73,3.455,0.957,5.244-0.572C296.476,280.893,295.601,279.445,293.562,278.976z"/>
	<path d="M287.317,170.798c13.379-0.414,25.529-0.789,39.141-1.21c-6.059,13.005-12.48,24.104-19.601,35.909
		C299.748,193.499,293.258,182.522,287.317,170.798z M317.368,180.556c2.794-3.484-0.773-4.582-2.201-5.969
		c-2.041-1.981-4.591-1.968-7.344,0.476C310.885,177.405,312.778,180.775,317.368,180.556z M302.2,173.707
		c-3.322-0.02-6.467-1.646-9.549,0.602c0.953,2.139,1.631,4.168,3.507,5.406C299.527,179.156,301.484,177.319,302.2,173.707z"/>
	<path d="M168.506,171.732c-6.332,11.315-12.663,22.63-19.803,35.39c-7.014-12.646-14.383-23.262-19.92-35.704
		c13.605-0.421,26.192-0.81,38.779-1.199C167.876,170.723,168.191,171.227,168.506,171.732z M153.294,175.306
		c1.104,4.826,0.235,8.643-3.948,11.484c-6.561,4.455-6.61,6.797-0.283,12.941c5.184-8.114,9.714-16.422,14.188-25.17
		C159.56,172.574,156.62,172.73,153.294,175.306z"/>
	<path d="M207.842,309.256c13.764,0.096,25.97-0.918,39.703,0.086c-5.6,12.538-12.68,23.012-19.45,34.124
		C220.651,332.831,214.224,322.191,207.842,309.256z M228.103,338.577c5.362-8.969,10.134-16.744,14.233-26.158
		c-10.071,0.311-19.137,0.592-28.656,0.886C217.904,321.911,222.677,329.619,228.103,338.577z"/>
	<path d="M246.083,146.022c-11.859,0.521-23.524,1.834-36.183,0.469c4.919-11.767,10.755-21.911,18.21-32.534
		C235.401,124.589,240.907,134.688,246.083,146.022z M241.99,143.537c-4.8-8.36-8.926-15.545-13.526-23.556
		c-5.765,7.666-9.365,15.218-13.538,23.248C224.076,144.116,232.281,143.767,241.99,143.537z"/>
	<path d="M290.466,122.291c-1.65-0.766-2.966-1.378-4.22-1.96c-0.907-6.014-0.907-6.014,8.879-12.35
		c1.606,2.128,1.606,2.128,1.175,7.855c3.926,2.158,4.737,5.511,3.558,9.949c-0.665,2.501,0.148,5.265,1.078,7.691
		c-3.044,6.093-9.51,8.515-17.487,6.549c-1.895-4.294,1.671-4.823,4.262-5.923c0.88-2.021,0.293-4.026,0.174-5.965
		C287.747,125.877,289.58,124.64,290.466,122.291z"/>
	<path d="M276.831,135.369c-5.505-1.854-6.761-4.532-5.868-12.465c2.678-1.015,4.697-3.237,7.138-5
		c5.49,1.401,5.639,6.05,6.014,10.199C284.578,133.252,279.859,133.635,276.831,135.369z"/>
	<path d="M181.563,126.527c0.882-1.729,2.137-2.292,3.49-2.495c1.94,0.718,2.873,1.841,2.394,3.804
		c-0.263,1.077-0.997,1.66-2.052,1.803C183.181,129.939,182.098,128.73,181.563,126.527z"/>
	<path fill="none" stroke="#000000" stroke-width="2" stroke-linecap="round" stroke-linejoin="round" stroke-miterlimit="10" d="
		M200.158,10.005c-25.898,3.546-50.787,10.531-73.791,23.102c-40.147,21.94-71.743,52.195-92.424,93.708
		c-8.556,17.176-15.442,34.845-19.256,53.338c-3.578,17.351-5.817,35.12-5.336,53.104c0.622,23.233,4.442,45.97,12.459,67.562
		c11.145,30.015,27.015,57.439,49.632,80.711c9.035,9.296,18.8,17.555,28.933,25.498"/>
	<path fill="none" stroke="#000000" stroke-width="2" stroke-linecap="round" stroke-linejoin="round" stroke-miterlimit="10" d="
		M113.165,416.137c20.572,12.369,42.389,21.896,65.889,26.866c24.939,5.275,50.114,7.248,75.639,3.874
		c29.582-3.91,56.756-14.054,82.708-28.55c30.733-17.166,54.018-41.559,72.848-70.858c11.689-18.187,20.175-37.683,26.161-58.375
		c4.804-16.607,7.571-33.489,8.607-50.778c0.503-8.391,0.112-16.692,0.011-25.03c-0.132-10.968-2.69-21.649-4.612-32.352
		c-3.297-18.354-9.388-35.777-17.795-52.588c-8.611-17.221-19.814-32.196-32.479-46.571c-16.753-19.015-36.675-33.772-58.225-46.439
		c-14.376-8.45-29.945-14.473-45.999-19.322c-25.839-7.804-52.223-8.07-78.785-6.978c-1.734,0.071-3.358,0.222-5.017,1.059
		c-1.201,0.606-1.659-0.668-1.511-1.854"/>
	<path fill="none" stroke="#000000" stroke-width="2" stroke-linecap="round" stroke-linejoin="round" stroke-miterlimit="10" d="
		M212.706,59.891c-13.859,0.612-27.207,3.966-40.234,8.338c-19.492,6.542-37.587,16.284-52.947,29.783
		c-16.089,14.14-29.752,30.603-39.793,49.955c-9.246,17.819-15.808,36.473-18.474,56.199c-4.192,31.014-0.694,61.294,12.146,90.131
		c8.73,19.607,20.015,37.58,35.147,52.934c23.798,24.147,52.327,39.779,85.478,46.877c18.551,3.972,37.359,4.952,56.072,2.148
		c23.069-3.456,44.826-11.129,64.823-23.379c20.603-12.621,37.36-29.181,51.062-49.06c13.41-19.454,21.693-40.965,26.399-63.905
		c2.5-12.185,2.897-24.555,2.675-37.077c-0.289-16.244-2.831-31.945-7.752-47.27c-12.438-38.737-35.837-69.173-70.311-90.848
		c-23.921-15.04-50.106-23.626-78.31-25.528c-8.456-0.57-16.995,0.089-25.496,0.185"/>
	<path fill="none" stroke="#000000" stroke-width="2" stroke-linecap="round" stroke-linejoin="round" stroke-miterlimit="10" d="
		M71.086,203.835c-3.91,1.653-3.852,5.591-4.097,8.646c-1.272,15.885-1.052,31.793,2.397,47.42
		c3.382,15.321,8.002,30.309,15.846,44.019c8.429,14.731,17.764,28.7,30.073,40.763c12.83,12.573,27.324,22.531,43.189,30.391
		c17.872,8.854,37.08,13.882,56.96,15.698c3.479,0.318,7.458,1.676,10.962-0.648"/>
	<path fill="none" stroke="#000000" stroke-width="2" stroke-linecap="round" stroke-linejoin="round" stroke-miterlimit="10" d="
		M343.27,189.419c-5.832,5.21-9.1,11.867-10.907,19.346"/>
	<path fill="none" stroke="#000000" stroke-width="2" stroke-linecap="round" stroke-linejoin="round" stroke-miterlimit="10" d="
		M345.196,267.897c-0.675,4.47,2.65,7.399,4.427,10.825c4.496,8.663,9.325,17.162,14.264,25.584c2.03,3.461,2.114,6.861,0.195,9.993
		c-11.154,18.206-25.772,33.299-42.542,46.359c-21.971,17.11-47.867,24.518-74.666,29.054c-5.173,0.876-10.956,3.257-16.46,0.29"/>
	<path fill="none" stroke="#000000" stroke-width="2" stroke-linecap="round" stroke-linejoin="round" stroke-miterlimit="10" d="
		M303.03,311.72c-0.848-0.474-1.791-1.472-2.53-1.339c-5.86,1.057-11.998,0.438-17.455-0.454
		c-9.856-1.612-12.313,4.747-15.747,10.904c-11.542,20.694-23.088,41.387-34.562,62.119c-0.83,1.499-1.696,2.888-2.915,4.069"/>
	<path fill="none" stroke="#000000" stroke-width="2" stroke-linecap="round" stroke-linejoin="round" stroke-miterlimit="10" d="
		M246.256,93.37c-0.719,5.471,3.368,9.107,5.586,13.247c6.193,11.563,13.319,22.622,19.816,34.028
		c2.067,3.628,4.529,5.052,8.726,4.791c6.313-0.394,12.666-0.226,19-0.146c2.485,0.031,4.657-0.43,6.436-2.236"/>
	<path fill="none" stroke="#000000" stroke-width="2" stroke-linecap="round" stroke-linejoin="round" stroke-miterlimit="10" d="
		M240.67,171.58c-10.172-0.019-20.344-0.002-30.516-0.077c-3.336-0.025-6.64,0.479-10.028-0.066
		c-2.521-0.406-5.209,0.862-6.309,3.133c-7.947,16.41-18.3,31.426-27.305,47.22c-4.54,7.962-0.033,15.88,6.853,21.905"/>
	<path fill="none" stroke="#000000" stroke-width="2" stroke-linecap="round" stroke-linejoin="round" stroke-miterlimit="10" d="
		M190.816,274.17c0.076,7.471,4.856,12.197,11.881,12.172c14.175-0.05,28.351,0.119,42.526,0.134
		c3.831,0.004,7.688-0.005,11.481-0.454c1.299-0.154,3.045-0.276,3.983-1.987c6.212-11.33,13.54-22.056,18.407-34.111
		c0.114-0.283-0.005-0.66-0.015-0.993"/>
	<path fill="none" stroke="#000000" stroke-width="2" stroke-linecap="round" stroke-linejoin="round" stroke-miterlimit="10" d="
		M272.974,197.094c0.166-2.6-0.978-4.783-2.215-6.935c-3.493-6.078-6.986-12.156-10.658-18.544
		c-6.251,0.28-12.549-1.822-18.931-0.051"/>
	<path fill="none" stroke="#000000" stroke-width="2" stroke-linecap="round" stroke-linejoin="round" stroke-miterlimit="10" d="
		M385.569,214.624c5.107,6.467,3.81,14.255,3.442,21.386c-0.658,12.769-2.791,25.447-6.622,37.739
		c-3.499,11.226-7.649,22.183-13.478,32.446c-0.709,1.249-1.202,2.58-2.942,2.58"/>
	<path fill="none" stroke="#000000" stroke-width="2" stroke-linecap="round" stroke-linejoin="round" stroke-miterlimit="10" d="
		M219.527,70.185c1.416,2.718,1.469,5.167-0.185,8.05c-11.353,19.783-22.702,39.573-33.632,59.591
		c-3.357,6.147-7.33,9.188-14.397,7.424c-2.943-0.735-6.464,2.446-9.032-1.26"/>
	<path fill="none" stroke="#000000" stroke-width="2" stroke-linecap="round" stroke-linejoin="round" stroke-miterlimit="10" d="
		M308.18,89.955c2.153,0.173,1.905-1.039,0.906-1.996c-4.171-3.994-9.582-5.737-14.658-8.217
		c-12.291-6.004-25.297-9.977-38.535-12.383c-10.572-1.921-21.675-4.047-32.445,0.203"/>
	<path fill="none" stroke="#000000" stroke-width="2" stroke-linecap="round" stroke-linejoin="round" stroke-miterlimit="10" d="
		M175.998,312.646c1.448-0.777,2.896-1.554,4.505-2.417c6.104,4.259,8.463,11.053,11.878,16.958
		c11.46,19.817,22.257,40.017,34.44,59.417c0.243,0.386,0.674,0.654,1.018,0.977"/>
	<path fill="none" stroke="#000000" stroke-width="2" stroke-linecap="round" stroke-linejoin="round" stroke-miterlimit="10" d="
		M270.083,200.685c-2.841-0.96-3.998-3.624-5.093-5.886c-5.008-10.346-21.087-17.612-33.453-11.882
		c-4.096,1.898-7.438-0.863-11.03-1.425c-10.365-1.622-19.626-0.122-27.654,6.087c1.656,13.759,1.842,27.092,1.584,40.459
		c-0.103,5.346,0.323,10.692-0.482,16.033c-0.21,1.391-0.453,2.566-1.459,3.534"/>
	<path fill="none" stroke="#000000" stroke-width="2" stroke-linecap="round" stroke-linejoin="round" stroke-miterlimit="10" d="
		M217.907,195.795c-1.935,5.075-0.676,10.382-0.865,15.545c-0.443,12.153,0.362,24.358-0.231,36.498
		c-0.252,5.17,0.682,10.86-2.787,15.631c-1.503,2.066-0.073,3.923,1.173,5.419c8.907,10.697,30.413,11.358,40.146,3.844
		c7.894-6.094,13.838-13.151,14.793-23.518c0.066-0.72,0.904-1.369,1.383-2.05"/>
	<path fill="none" stroke="#000000" stroke-width="2" stroke-linecap="round" stroke-linejoin="round" stroke-miterlimit="10" d="
		M144.12,90.525c-4.986-0.393-7.82,3.708-11.17,6.071c-4.639,3.272-10.224,6.089-12.277,12.162"/>
	<path fill="none" stroke="#000000" stroke-width="2" stroke-linecap="round" stroke-linejoin="round" stroke-miterlimit="10" d="
		M238.062,216.682c-1.018-11.996-8.521-20.217-19.679-21.321c-1.079-0.107-1.673-0.742-2.497-1.066
		c-5.057-1.991-9.352,0.854-9.331,6.353c0.047,12.671,0.315,25.346,0.073,38.011c-0.099,5.168-0.283,10.361-0.564,15.518
		c-0.301,5.522,1.776,8.554,6.948,9.802"/>
	<path fill="none" stroke="#000000" stroke-width="2" stroke-linecap="round" stroke-linejoin="round" stroke-miterlimit="10" d="
		M421.381,305.06c-1.6,8.582-5.315,16.232-10.284,23.329"/>
	<path fill="none" stroke="#000000" stroke-width="2" stroke-linecap="round" stroke-linejoin="round" stroke-miterlimit="10" d="
		M383.553,311.232c1.448-5.383,4.414-10.114,6.533-15.209"/>
	<path fill="none" stroke="#000000" stroke-width="2" stroke-linecap="round" stroke-linejoin="round" stroke-miterlimit="10" d="
		M54.754,193.335c2.246-8.24,4.493-16.48,6.739-24.72"/>
	<path fill="none" stroke="#000000" stroke-width="2" stroke-linecap="round" stroke-linejoin="round" stroke-miterlimit="10" d="
		M26.994,169.181c-0.142,0.838,0.485,1.805-0.423,2.514"/>
	<path fill="none" stroke="#000000" stroke-width="2" stroke-linecap="round" stroke-linejoin="round" stroke-miterlimit="10" d="
		M24.304,179.269c-0.412,2.847-0.824,5.695-1.237,8.542"/>
	<path fill="none" stroke="#000000" stroke-width="2" stroke-linecap="round" stroke-linejoin="round" stroke-miterlimit="10" d="
		M82.96,329.028c3.745,4.82,8.25,9.074,10.958,14.668"/>
	<path fill="none" stroke="#000000" stroke-width="2" stroke-linecap="round" stroke-linejoin="round" stroke-miterlimit="10" d="
		M421.574,149.48c3.298,6.615,5.022,13.771,7.146,20.789"/>
	<path fill="none" stroke="#000000" stroke-width="2" stroke-linecap="round" stroke-linejoin="round" stroke-miterlimit="10" d="
		M189.547,55.104c-0.827,0.194-1.831-0.372-2.483,0.577"/>
	<path fill="none" stroke="#000000" stroke-width="2" stroke-linecap="round" stroke-linejoin="round" stroke-miterlimit="10" d="
		M108.047,266.723c3.551,9.62-4.027,15.804-7.397,23.186c-2.997,6.565-7.106,12.614-9.797,19.366"/>
	<path fill="none" stroke="#000000" stroke-width="2" stroke-linecap="round" stroke-linejoin="round" stroke-miterlimit="10" d="
		M228.541,199.968c-2.138,5.37-1.023,11.137-1.159,16.562c-0.292,11.643-0.014,23.331-0.185,35.007
		c-0.106,7.276,2.588,11.546,7.851,12.687c5.493,1.192,15.43-0.099,18.428-5.435c2.994-5.327,5.437-10.397,3.415-16.687
		c-1.956-6.084-9.6-11.571-15.86-10.655c-2.192,0.321-3.653-1.087-5.533-1.143c-1.958-3.91-0.926-7.999-1.471-12.092
		c2.408-0.22,3.892-0.833,6.135-0.345c6.575,1.432,13.77-4.721,14.476-11.717c0.556-5.513-4.156-12.101-11.309-13.115
		c-0.297-0.042-0.652,0.326-0.98,0.503"/>
	<path fill="none" stroke="#000000" stroke-width="2" stroke-linecap="round" stroke-linejoin="round" stroke-miterlimit="10" d="
		M401.753,155.595c1.706,4.889,1.61,10.526,5.945,14.323"/>
	<path fill="none" stroke="#000000" stroke-width="2" stroke-linecap="round" stroke-linejoin="round" stroke-miterlimit="10" d="
		M382.755,317.76c-3.24,0.889-5.462,3.173-7.293,5.753c-3.937,5.544-7.69,11.218-11.518,16.839"/>
	<path fill="none" stroke="#000000" stroke-width="2" stroke-linecap="round" stroke-linejoin="round" stroke-miterlimit="10" d="
		M270.255,432.791c-2.981,3.987-7.664,4.245-11.871,4.734c-6.452,0.749-12.823,2.833-19.444,1.737"/>
	<path fill="none" stroke="#000000" stroke-width="2" stroke-linecap="round" stroke-linejoin="round" stroke-miterlimit="10" d="
		M413.809,157.224c1.841,5.612,3.682,11.225,5.523,16.837"/>
	<path fill="none" stroke="#000000" stroke-width="2" stroke-linecap="round" stroke-linejoin="round" stroke-miterlimit="10" d="
		M390.882,159.933c2.033,6.44,4.067,12.88,6.1,19.321"/>
	<path fill="none" stroke="#000000" stroke-width="2" stroke-linecap="round" stroke-linejoin="round" stroke-miterlimit="10" d="
		M147.495,410.073c-2.546-4.063-0.115-6.657,2.731-9.076c1.316-1.119,1.337-0.996,6.057,1.251c1.006,0.479,2.318,0.312,3.49,0.442"
		/>
	<path fill="none" stroke="#000000" stroke-width="2" stroke-linecap="round" stroke-linejoin="round" stroke-miterlimit="10" d="
		M406.223,332.542c1.427,6.73-3.639,10.827-6.607,15.654c-2.784,4.526-6.316,8.591-9.519,12.858"/>
	<path fill="none" stroke="#000000" stroke-width="2" stroke-linecap="round" stroke-linejoin="round" stroke-miterlimit="10" d="
		M353.664,396.196c-3.799,2.717-6.789,6.523-11.247,8.352"/>
	<path fill="none" stroke="#000000" stroke-width="2" stroke-linecap="round" stroke-linejoin="round" stroke-miterlimit="10" d="
		M319.155,380.255c4.901-4.513,10.818-7.6,16.152-11.505"/>
	<path fill="none" stroke="#000000" stroke-width="2" stroke-linecap="round" stroke-linejoin="round" stroke-miterlimit="10" d="
		M365.016,310.304c-6.997,0.68-13.999-0.922-21.013,0.094c-1.959,0.284-3.924,0.195-5.443,1.724"/>
	<path fill="none" stroke="#000000" stroke-width="2" stroke-linecap="round" stroke-linejoin="round" stroke-miterlimit="10" d="
		M191.239,271.655c7.775,1.949,14.721,6.802,23.209,6.357c2.894-0.152,5.385-0.69,7.415-2.802"/>
	<path fill="none" stroke="#000000" stroke-width="2" stroke-linecap="round" stroke-linejoin="round" stroke-miterlimit="10" d="
		M211.981,311.533c0.244,6.467,5.146,10.784,7.631,16.219c2.218,4.852,5.495,9.221,8.304,13.803"/>
	<path fill="none" stroke="#000000" stroke-width="2" stroke-linecap="round" stroke-linejoin="round" stroke-miterlimit="10" d="
		M148.745,175.422c3.471-4.025,8.222-3.873,12.886-3.878c2.514-0.002,4.346,1.502,3.027,3.829
		c-4.948,8.727-9.103,17.925-15.124,26.025c-0.205,0.276-0.626,0.391-1.276,0.777c-3.618-3.824-6.114-8.155-6.608-13.528"/>
	<path fill="none" stroke="#000000" stroke-width="2" stroke-linecap="round" stroke-linejoin="round" stroke-miterlimit="10" d="
		M242.881,146c1.153-1.536,0.39-3.366-0.24-4.438c-4.621-7.858-8.208-16.39-14.568-23.765c-6.665,7.967-10.511,16.919-15.77,26.657
		c10.687,2.312,20.674,0.375,30.547,0.547"/>
	<path fill="none" stroke="#000000" stroke-width="2" stroke-linecap="round" stroke-linejoin="round" stroke-miterlimit="10" d="
		M91.399,310.759c8.81,1.566,17.743,1.469,26.505,0.434c4.093-0.484,7.358,1.326,11.07,1.405c0.166,0.004,0.333-0.009,0.5-0.014
		c-0.094-0.331-0.187-0.661-0.281-0.992"/>
	<path fill="none" stroke="#000000" stroke-width="2" stroke-linecap="round" stroke-linejoin="round" stroke-miterlimit="10" d="
		M211.934,310.034c-0.158,1.2,0.357,1.684,1.546,1.453c9.116-1.767,18.34-0.064,27.487-0.85c1.283-0.11,2.189,0.594,3.456,1.734
		c-5.051,9.168-9.196,18.945-16.069,27.169"/>
	<path fill="none" stroke="#000000" stroke-width="2" stroke-linecap="round" stroke-linejoin="round" stroke-miterlimit="10" d="
		M207.409,438.735c0.838,0.142,1.805-0.485,2.514,0.423"/>
	<path fill="none" stroke="#000000" stroke-width="2" stroke-linecap="round" stroke-linejoin="round" stroke-miterlimit="10" d="
		M240.041,232.129c-1.955,5.97-1.421,12.56-4.869,18.205c-1.701,2.785-2.467,6.165-5.838,7.638"/>
	<path fill="none" stroke="#000000" stroke-width="2" stroke-linecap="round" stroke-linejoin="round" stroke-miterlimit="10" d="
		M223.412,406.225c0.838,0.142,1.805-0.485,2.514,0.423"/>
	<path fill="none" stroke="#000000" stroke-width="2" stroke-linecap="round" stroke-linejoin="round" stroke-miterlimit="10" d="
		M235.406,405.855c6.192-0.506,12.37-1.051,18.447-2.496c1.206-0.287,2.742-0.718,3.996,0.302"/>
	<path fill="none" stroke="#000000" stroke-width="2" stroke-linecap="round" stroke-linejoin="round" stroke-miterlimit="10" d="
		M279.251,432.513c1.144-0.302,2.48,0.498,3.483-0.608"/>
	<path fill="none" stroke="#000000" stroke-width="2" stroke-linecap="round" stroke-linejoin="round" stroke-miterlimit="10" d="
		M251.705,237.271c-1.328,9.547-5.656,18-9.684,26.562"/>
	<path fill="none" stroke="#000000" stroke-width="2" stroke-linecap="round" stroke-linejoin="round" stroke-miterlimit="10" d="
		M205.328,403.783c-2.332,0.072-4.664,0.144-6.997,0.216"/>
	<path fill="none" stroke="#000000" stroke-width="2" stroke-linecap="round" stroke-linejoin="round" stroke-miterlimit="10" d="
		M349.929,356.292c-4.833,1.786-6.923,5.892-8.687,10.273"/>
	<path fill="none" stroke="#000000" stroke-width="2" stroke-linecap="round" stroke-linejoin="round" stroke-miterlimit="10" d="
		M52.655,303.452c-2.751,0.956-4.429,3.221-6.342,5.198"/>
	<path fill="none" stroke="#000000" stroke-width="2" stroke-linecap="round" stroke-linejoin="round" stroke-miterlimit="10" d="
		M293.921,275.985c-2.762,2.236-4.573,4.992-4.735,8.65"/>
	<path fill="none" stroke="#000000" stroke-width="2" stroke-linecap="round" stroke-linejoin="round" stroke-miterlimit="10" d="
		M66.025,299.037c-0.28-4.802-2.585-8.466-6.352-11.309"/>
	<path fill="none" stroke="#000000" stroke-width="2" stroke-linecap="round" stroke-linejoin="round" stroke-miterlimit="10" d="
		M322.267,416.176c-3.605,3.066-7.594,4.725-12.401,3.385"/>
	<path fill="none" stroke="#000000" stroke-width="2" stroke-linecap="round" stroke-linejoin="round" stroke-miterlimit="10" d="
		M123.339,211.224c5.24,3.527,8.132,8.401,8.46,14.746"/>
	<path fill="none" stroke="#000000" stroke-width="2" stroke-linecap="round" stroke-linejoin="round" stroke-miterlimit="10" d="
		M264.093,411.471c-5.61,2.977-11.875,2.658-17.899,3.555"/>
	<path fill="none" stroke="#000000" stroke-width="2" stroke-linecap="round" stroke-linejoin="round" stroke-miterlimit="10" d="
		M230.046,183.914c1.884,3.158,5.21,4.782,7.787,7.202c5.678,5.334,9.918,11.336,11.096,19.22c0.082,0.549,0.974,0.977,1.489,1.461"
		/>
	<path fill="none" stroke="#000000" stroke-width="2" stroke-linecap="round" stroke-linejoin="round" stroke-miterlimit="10" d="
		M229.445,67.377c2.067,3.732,3.586,7.893,6.899,10.721c1.733,1.479,3.916,2.763,6.512,2.371"/>
	<path fill="none" stroke="#000000" stroke-width="2" stroke-linecap="round" stroke-linejoin="round" stroke-miterlimit="10" d="
		M385.88,127.572c6.424-7.35,9.37-7.022,14.055,1.567c0.268,0.491,0.531,0.984,0.796,1.476"/>
	<path fill="none" stroke="#000000" stroke-width="2" stroke-linecap="round" stroke-linejoin="round" stroke-miterlimit="10" d="
		M185.074,72.251c-6.367-1.267-11.559,1.845-16.868,4.523"/>
	<path fill="none" stroke="#000000" stroke-width="2" stroke-linecap="round" stroke-linejoin="round" stroke-miterlimit="10" d="
		M299.407,32.699c-0.158,2.397-1.911,4.503-1.283,7.043"/>
	<path fill="none" stroke="#000000" stroke-width="2" stroke-linecap="round" stroke-linejoin="round" stroke-miterlimit="10" d="
		M118.205,61.311c-4.772,4.273-10.896,6.957-14.817,12.181c5.541,7.834,6.618,8.448,12.782,2.889"/>
	<path fill="none" stroke="#000000" stroke-width="2" stroke-linecap="round" stroke-linejoin="round" stroke-miterlimit="10" d="
		M149.664,43.331c-4.632,4.298-10.734,5.704-16.253,8.256"/>
	<path fill="none" stroke="#000000" stroke-width="2" stroke-linecap="round" stroke-linejoin="round" stroke-miterlimit="10" d="
		M363.463,98.251c6.126,4.392,9.931,10.819,14.519,16.559"/>
	<path fill="none" stroke="#000000" stroke-width="2" stroke-linecap="round" stroke-linejoin="round" stroke-miterlimit="10" d="
		M204.19,27.138c-0.168,4.4-4.295,1.457-5.905,3.183c-2.879,3.608-0.642,6.516,1.293,9.465"/>
	<path fill="none" stroke="#000000" stroke-width="2" stroke-linecap="round" stroke-linejoin="round" stroke-miterlimit="10" d="
		M371.274,92.007c3.593,1.252,5.181,4.496,7.226,7.282c1.987,2.707,4.604,4.739,7.215,6.778"/>
	<path fill="none" stroke="#000000" stroke-width="2" stroke-linecap="round" stroke-linejoin="round" stroke-miterlimit="10" d="
		M302.634,282.719c-4.454,4.533-10.072,3.048-15.415,2.978"/>
	<path fill="none" stroke="#000000" stroke-width="2" stroke-linecap="round" stroke-linejoin="round" stroke-miterlimit="10" d="
		M386.016,326.163c-3.28,4.429-6.812,8.691-9.078,13.787"/>
	<path fill="none" stroke="#000000" stroke-width="2" stroke-linecap="round" stroke-linejoin="round" stroke-miterlimit="10" d="
		M305.247,173.086c0.036,1.166,0.072,2.332,0.108,3.498"/>
	<path fill="none" stroke="#000000" stroke-width="2" stroke-linecap="round" stroke-linejoin="round" stroke-miterlimit="10" d="
		M234.799,30.194c-2.892,3.758-1.281,6.926,1.309,9.964"/>
	<path fill="none" stroke="#000000" stroke-width="2" stroke-linecap="round" stroke-linejoin="round" stroke-miterlimit="10" d="
		M288.158,138.097c-0.666,0.021-1.333,0.041-1.999,0.062"/>
	<path fill="none" stroke="#000000" stroke-width="2" stroke-linecap="round" stroke-linejoin="round" stroke-miterlimit="10" d="
		M235.175,26.181c0.031,1.001,0.062,2.002,0.098,3.159c2.578-1.177,5.065-0.658,7.476-0.892"/>
	<path fill="none" stroke="#000000" stroke-width="2" stroke-linecap="round" stroke-linejoin="round" stroke-miterlimit="10" d="
		M91.454,102.157c-2.708,1.104-5.283-2.019-8.012-0.253"/>
	<path fill="none" stroke="#000000" stroke-width="2" stroke-linecap="round" stroke-linejoin="round" stroke-miterlimit="10" d="
		M67.135,108.412c0.088,2.832,0.175,5.664,0.263,8.496"/>
	<path fill="none" stroke="#000000" stroke-width="2" stroke-linecap="round" stroke-linejoin="round" stroke-miterlimit="10" d="
		M158.174,140.614c2.03,2.038,0.721,4.66,1.216,6.966"/>
	<path fill="none" stroke="#000000" stroke-width="2" stroke-linecap="round" stroke-linejoin="round" stroke-miterlimit="10" d="
		M382.318,222.728c-2.16,0.234-4.321,0.467-6.481,0.701"/>
	<path fill="none" stroke="#000000" stroke-width="2" stroke-linecap="round" stroke-linejoin="round" stroke-miterlimit="10" d="
		M256.066,87.064c-2.266,0.472-4.363-0.438-6.528-0.799"/>
	<path fill="none" stroke="#000000" stroke-width="2" stroke-linecap="round" stroke-linejoin="round" stroke-miterlimit="10" d="
		M325.707,171.453c-2.14-0.1-3.473,1.823-5.436,2.169"/>
	<path fill="none" stroke="#000000" stroke-width="2" stroke-linecap="round" stroke-linejoin="round" stroke-miterlimit="10" d="
		M294.774,109.379c-1.135,3.575-2.519,6.972-6.234,8.697"/>
	<path fill="none" stroke="#000000" stroke-width="2" stroke-linecap="round" stroke-linejoin="round" stroke-miterlimit="10" d="
		M317.804,126.175c-0.12,1.504-0.24,3.009-0.361,4.513"/>
	<path fill="none" stroke="#000000" stroke-width="2" stroke-linecap="round" stroke-linejoin="round" stroke-miterlimit="10" d="
		M41.142,173.746c-1.36,0.618-2.178,2.242-3.936,2.123"/>
	<path fill="none" stroke="#000000" stroke-width="2" stroke-linecap="round" stroke-linejoin="round" stroke-miterlimit="10" d="
		M76.895,343.222c1.171,0.131,2.343,0.261,3.514,0.392"/>
</g>
</svg>
