<?xml version="1.0" encoding="UTF-8" standalone="no"?>
<!DOCTYPE svg PUBLIC "-//W3C//DTD SVG 1.1//EN" "http://www.w3.org/Graphics/SVG/1.1/DTD/svg11.dtd">
<svg width="100%" height="100%" viewBox="0 0 2048 600" version="1.1" xmlns="http://www.w3.org/2000/svg" xmlns:xlink="http://www.w3.org/1999/xlink" xml:space="preserve" xmlns:serif="http://www.serif.com/" style="fill-rule:evenodd;clip-rule:evenodd;stroke-linejoin:round;stroke-miterlimit:2;">
    <g transform="matrix(1.0194,0,0,1.0194,1022.22,225.655)">
        <g id="名称未設定-22.svg" serif:id="名称未設定 22.svg" transform="matrix(1,0,0,1,-1024,-768)">
            <path d="M1667.56,747.115C1667.56,747.115 1667.92,759.934 1668.2,770.124C1668.4,777.336 1674.05,783.214 1681.24,783.7C1685.7,783.893 1691.13,783.998 1697.19,783.751C1706.83,783.359 1708.86,773.36 1725.7,773.193C1742.54,773.026 1749.89,783.68 1749.31,797.779C1748.73,811.878 1761.61,874.123 1722.94,876.012C1701.17,877.076 1709.13,852.378 1676.75,852.02C1657.98,851.812 1646.49,858.9 1648.43,884.482C1649.37,896.991 1658.71,904.109 1697.53,903.885C1736.35,903.661 1751.44,895.1 1765.29,867.566C1776.19,845.895 1774.75,808.901 1773.64,794.129C1773.33,790.248 1775.35,786.551 1778.78,784.717C1781.46,783.284 1784.65,781.581 1787.35,780.14C1790.97,778.209 1793.25,774.465 1793.31,770.364C1793.37,765.818 1793.46,759.732 1793.53,754.729C1793.56,752.323 1792.62,750.006 1790.92,748.304C1789.22,746.601 1786.91,745.657 1784.5,745.687C1755.5,746.041 1667.56,747.115 1667.56,747.115ZM1822.06,747.515C1815.99,747.568 1810.83,751.94 1809.77,757.915C1808.92,762.706 1807.91,768.412 1807.05,773.307C1806.66,775.482 1807.44,777.701 1809.09,779.169C1810.74,780.636 1813.03,781.142 1815.15,780.505C1822.29,778.445 1833.54,776.384 1849.84,776.405C1873.64,776.437 1877.67,804.949 1877.51,827.758C1877.4,842.655 1877.51,869.216 1877.6,885.849C1877.64,894.092 1884.29,900.777 1892.53,900.855C1896.59,900.894 1900.49,899.312 1903.37,896.461C1906.26,893.61 1907.88,889.725 1907.89,885.67C1907.92,864.659 1907.97,826.834 1908.01,803.189C1908.01,798.494 1910.21,794.07 1913.95,791.228C1917.69,788.385 1922.54,787.45 1927.06,788.697C1935.11,790.949 1944.47,792.84 1952.49,792.564C1969.14,791.992 2006.35,785.895 2006.32,762.056C2006.31,747.375 1996.94,745.801 1984.76,745.995C1968.51,746.254 1857.03,747.216 1822.06,747.515ZM1945.12,704.206C1945.12,695.658 1938.19,688.729 1929.65,688.729L1816.61,688.729L1816.61,715.186C1816.61,719.271 1818.23,723.188 1821.12,726.076C1824.01,728.964 1827.93,730.587 1832.01,730.587L1929.73,730.587C1933.81,730.587 1937.73,728.964 1940.61,726.076C1943.5,723.188 1945.12,719.271 1945.12,715.186L1945.12,704.206ZM1796.24,703.869C1796.24,695.364 1789.35,688.469 1780.84,688.469L1685.87,688.469L1685.87,709.151C1685.87,717.656 1692.76,724.551 1701.27,724.551L1780.84,724.551C1789.35,724.551 1796.24,717.656 1796.24,709.151L1796.24,703.869Z"/>
            <path d="M1028.85,721.8C1028.85,721.8 930.69,715.819 909.542,744.122C888.394,772.425 935.511,766.261 935.511,766.261L1015.54,747.557C1015.54,747.557 986.09,809.132 939.697,811.116C893.303,813.099 897.073,796.224 897.073,796.224L869.438,796.783C869.438,796.783 853.434,844.2 922.647,844.968C974.405,845.542 1027.05,779.807 1027.05,779.807L1026.97,831.561C1026.97,831.561 999.723,831.583 986.601,831.594C982.783,831.597 979.686,834.685 979.67,838.502C979.657,841.492 979.643,844.997 979.63,848.037C979.622,849.988 980.392,851.862 981.769,853.245C983.146,854.628 985.017,855.405 986.968,855.404C1000.51,855.403 1027.98,855.4 1027.98,855.4C1027.98,855.4 1027.99,877.914 1027.99,893.049C1028,896.609 1029.41,900.023 1031.93,902.536C1034.46,905.049 1037.87,906.456 1041.43,906.446C1042.44,906.443 1043.45,906.44 1044.45,906.437C1051.83,906.417 1057.81,900.43 1057.81,893.048C1057.82,877.937 1057.84,855.4 1057.84,855.4L1104.64,855.4C1111.01,855.4 1116.18,850.237 1116.19,843.864C1116.19,840.628 1116.19,837.355 1116.2,835.006C1116.2,834.103 1115.84,833.237 1115.2,832.598C1114.56,831.959 1113.7,831.6 1112.79,831.6L1062.27,831.6L1062.27,777.318C1062.27,777.318 1142.49,847.053 1159.12,861.505C1161.28,863.38 1163.92,864.606 1166.74,865.044C1187.27,868.26 1202.13,859.173 1213.74,843.014C1215.11,841.131 1215.51,838.716 1214.84,836.489C1214.16,834.262 1212.49,832.478 1210.31,831.669C1160.98,813.175 1113.78,788.093 1071.12,749.025C1103.3,759.001 1131.99,761.259 1159.11,760.056C1167.37,759.693 1173.81,752.77 1173.58,744.506C1173.42,738.469 1173.15,729.028 1173.15,729.028C1173.15,729.028 1173.19,731.36 1066,721.855C1066,721.855 1065.98,702.463 1065.97,688.031C1065.97,683.981 1064.34,680.103 1061.45,677.267C1058.56,674.431 1054.65,672.875 1050.6,672.948C1048.3,672.99 1045.93,673.033 1043.64,673.075C1035.4,673.225 1028.81,679.95 1028.82,688.188C1028.83,702.434 1028.85,721.8 1028.85,721.8Z"/>
            <path d="M750.68,777.881C750.68,775.412 748.679,773.411 746.21,773.411L626.265,773.411C619.246,773.411 613.534,779.058 613.454,786.077C613.391,791.598 613.32,797.852 613.268,802.477C613.253,803.768 613.969,804.957 615.118,805.546C616.266,806.136 617.65,806.026 618.69,805.262C623.499,801.732 629.72,797.166 629.72,797.166L745.414,797.166C748.322,797.166 750.68,794.808 750.68,791.899L750.68,777.881Z"/>
            <g transform="matrix(39.3462,0,0,1,-10466.5,0)">
                <ellipse cx="272.877" cy="860.56" rx="1.367" ry="54.032" style="fill:rgb(60,39,110);"/>
            </g>
            <path d="M301.737,683.692C376.292,696.675 435.102,755.093 447.861,828.962L505.894,858.353L448.149,887.597C435.792,963.607 374.748,1023.6 297.72,1035.24L270,1089.97L242.221,1035.12C165.321,1023.16 104.515,963.001 92.446,886.933L36.106,858.4L92.709,829.734C105.15,755.794 163.678,697.198 238.044,683.855L269.931,620.89L301.737,683.692ZM270.196,717.004C346.16,717.004 407.834,780.238 407.834,858.125C407.834,936.013 346.16,999.247 270.196,999.247C194.232,999.247 132.558,936.013 132.558,858.125C132.558,780.238 194.232,717.004 270.196,717.004Z" style="fill:rgb(60,39,110);"/>
            <path d="M1516.2,854.286C1506.06,876.611 1478.76,888.207 1456.81,898.354C1452.12,900.521 1443.96,900.066 1437.79,899.277C1433.09,898.66 1429.58,894.651 1429.59,889.914C1429.67,850.713 1429.99,679.971 1429.99,679.971C1429.99,679.971 1431.86,670.37 1445.97,670.55C1460.42,670.735 1462.27,680.291 1462.27,680.291C1462.27,680.291 1537.21,681.365 1565.41,681.769C1567.93,681.805 1570.29,683.001 1571.81,685.01C1573.33,687.019 1573.83,689.616 1573.18,692.048C1564.51,724.996 1560,758.869 1559.17,793.558C1524.08,793.102 1491.6,793.206 1458.88,794.545L1457.93,866.226C1457.93,866.226 1479.39,855.371 1487.71,853.651C1496.78,851.772 1515.2,854.122 1516.18,854.249C1507.46,841.903 1500.68,830.882 1497.75,825.996C1477.15,827.237 1459.71,826.992 1459.71,824.734C1458.34,823.451 1510.71,806.074 1529.37,804.825C1543.12,803.904 1536.71,797.772 1554.45,795.834C1573.1,793.796 1565.58,808.455 1563.78,813.515C1562.29,817.716 1545.23,821.225 1525.33,823.571C1547.88,855.385 1605.99,872.815 1605.99,872.815C1605.99,872.815 1599.44,912.52 1569.51,905.483C1552.63,901.513 1531.45,875.88 1516.2,854.286ZM1365.38,680.552C1358.1,677.36 1349.69,678.172 1343.16,682.698C1322.8,696.809 1279.97,726.498 1279.97,726.498L1281.29,714.666C1281.29,714.666 1258.58,724.351 1255.26,753.159C1253.85,765.385 1258.71,764.661 1277.37,757.435C1280.52,756.213 1287.63,750.261 1291.31,748.816C1291.31,748.816 1289.19,757.336 1299.91,758.44C1310.36,759.517 1333.21,755.5 1333.21,755.5L1332.62,784.846C1332.62,784.846 1311.16,784.426 1297.38,784.156C1294.38,784.097 1291.5,785.239 1289.35,787.327C1287.21,789.415 1286,792.274 1285.98,795.265C1285.97,796.399 1285.96,797.514 1285.96,798.555C1285.94,801.804 1288.43,804.515 1291.67,804.762C1295.47,805.34 1299.38,806.422 1302.72,806.23C1312.78,805.652 1325.05,802.226 1335.04,803.211L1333.91,866.682C1333.91,866.682 1323.75,869.608 1306.67,871.167C1297.89,871.969 1298.14,868.979 1282.05,871.288C1272.21,872.7 1266.71,900.388 1285.99,900.804C1300.08,901.107 1298.92,892.979 1314.26,892.263C1348.39,890.671 1398.27,885.525 1411.78,884.091C1413.85,883.869 1415.54,882.324 1415.94,880.28C1416.82,875.848 1418.34,868.115 1419.33,863.087C1419.56,861.924 1419.24,860.719 1418.46,859.824C1417.69,858.929 1416.54,858.443 1415.35,858.507C1401.68,859.252 1364.32,861.288 1364.32,861.288C1362.03,841.373 1356.28,820.424 1360.67,802.508C1371.49,801.418 1383.6,801.786 1395.16,803.5C1397.72,803.906 1400.34,803.215 1402.37,801.597C1404.4,799.978 1405.66,797.581 1405.83,794.99C1405.9,794.392 1405.94,793.798 1405.98,793.218C1406.25,789.29 1403.48,785.804 1399.59,785.173C1389.25,783.542 1379.71,784.012 1362.34,785.092L1361.65,756.492C1372.36,756.297 1383.24,756.352 1394.96,757.628C1396.88,757.847 1398.81,757.262 1400.3,756.012C1401.78,754.762 1402.68,752.957 1402.79,751.021C1402.89,749.329 1402.99,747.521 1403.09,745.785C1403.22,743.472 1402.43,741.202 1400.88,739.477C1399.34,737.751 1397.17,736.712 1394.85,736.588C1379.88,735.788 1349.51,734.165 1334.76,733.377C1333.26,733.297 1331.94,732.346 1331.38,730.945C1330.83,729.543 1331.15,727.947 1332.19,726.861C1338.21,720.597 1347.44,710.999 1352.65,705.584C1354.96,703.175 1358.61,702.622 1361.54,704.236C1369.99,708.899 1387.52,718.564 1400.29,725.601C1404,727.647 1408.43,727.927 1412.37,726.364C1416.3,724.801 1419.34,721.559 1420.63,717.525L1420.63,717.523C1422.67,711.188 1419.59,704.338 1413.5,701.665C1400.52,695.974 1378.77,686.429 1365.38,680.552ZM1314.71,811.187C1313.45,814.308 1298.23,834.358 1295.72,835.616C1293.26,836.843 1288.94,836.39 1286.14,836.391C1275.94,836.395 1282.82,847.872 1295.66,847.593C1297.77,847.547 1299.93,846.583 1301.83,845.633C1307.49,842.8 1313.21,835.363 1317.79,830.79C1319.22,829.361 1323,826.633 1323.67,824.629C1325.14,820.226 1319.35,811.187 1314.71,811.187ZM1373.66,806.857C1373.1,805.137 1367.7,806.719 1366.94,807.476C1364.66,809.757 1364.41,815.638 1366.53,819.882C1371.7,830.229 1386.15,836.214 1396.76,839.752C1402.07,841.521 1409.05,844.27 1413.57,839.752C1414.96,838.36 1418.85,828.39 1416.37,827.149C1411.71,824.821 1411.37,831.234 1406.17,829.502C1400.5,827.611 1392.57,822.639 1384.89,815.178C1382.14,812.503 1377.43,808.519 1373.66,806.857ZM1460.07,749.325L1459.61,778.039C1483.04,774.366 1505.54,773.795 1527.57,774.698L1534,749.007C1511.3,745.802 1486.82,745.622 1460.07,749.325ZM1457.95,701.047L1458.72,735.807C1492.59,731.436 1514.64,732.146 1536.54,735.954L1544.87,700.661C1515.94,699.964 1486.96,700.276 1457.95,701.047Z"/>
            <path d="M562.005,709.244C561.628,701.605 567.508,695.104 575.146,694.715C649.363,691.053 725.425,691.175 802.391,693.154C805.436,693.233 808.31,694.574 810.328,696.855C812.346,699.136 813.325,702.153 813.033,705.184C809.589,740.856 799.277,847.666 796.175,879.795C795.677,884.951 791.2,888.797 786.028,888.513C716.349,884.756 648.947,885.305 584.435,891.325C580.945,891.661 577.469,890.554 574.815,888.261C572.162,885.968 570.563,882.689 570.391,879.186C568.616,843.277 563.794,745.528 562.005,709.244ZM600.761,734.076C600.407,726.455 606.276,719.981 613.895,719.587C662.865,717.169 712.975,717.232 763.665,718.558C766.698,718.639 769.562,719.972 771.577,722.239C773.593,724.506 774.58,727.506 774.305,730.528C771.757,758.554 765.324,829.282 763.072,854.046C762.621,858.995 758.49,862.796 753.52,862.832C708.619,863.179 663.975,864.062 619.411,865.131C612.437,865.299 606.607,859.865 606.283,852.897C605.026,825.843 602.067,762.176 600.761,734.076Z"/>
            <g transform="matrix(6.83967,0,0,6.56663,-7627.95,-5488.32)">
                <g>
                    <g transform="matrix(1.07039,0,0,1.34049,-85.6638,-339.826)">
                        <path d="M1230.56,993.671C1230.56,994.663 1230.25,995.515 1229.65,996.227C1229.04,996.939 1228.2,997.415 1227.13,997.655C1226.28,997.847 1225.48,997.959 1224.73,997.991C1223.97,998.023 1221.77,998.039 1218.1,998.039C1217.59,998.039 1217.29,998.031 1217.19,998.015C1217.09,997.999 1217.05,997.943 1217.05,997.847C1217.05,997.703 1217.31,997.631 1217.83,997.631C1218.35,997.631 1218.67,997.555 1218.8,997.403C1218.93,997.251 1218.99,996.879 1218.99,996.287L1218.97,982.559C1218.97,982.095 1218.6,981.855 1217.86,981.839C1217.3,981.823 1217.02,981.751 1217.02,981.623C1217.02,981.479 1217.2,981.407 1217.55,981.407C1217.89,981.439 1218.21,981.455 1218.53,981.455L1224.29,981.455C1227.99,981.455 1229.84,982.719 1229.84,985.247C1229.84,987.343 1228.46,988.639 1225.71,989.135L1225.66,989.231C1227.28,989.567 1228.4,989.991 1229.02,990.503C1230.05,991.351 1230.56,992.407 1230.56,993.671ZM1226.29,985.343C1226.29,983.023 1225.57,981.863 1224.13,981.863C1223.61,981.863 1223.27,981.887 1223.09,981.935C1222.74,982.047 1222.57,982.295 1222.57,982.679L1222.57,989.015C1223.99,989.015 1224.97,988.767 1225.49,988.271C1226.02,987.775 1226.29,986.799 1226.29,985.343ZM1226.72,993.551C1226.72,991.295 1226.07,989.983 1224.77,989.615C1224.26,989.471 1223.53,989.399 1222.57,989.399L1222.61,990.791C1222.61,991.191 1222.6,991.759 1222.57,992.495C1222.55,992.863 1222.54,993.551 1222.54,994.559C1222.54,996.287 1222.59,997.207 1222.69,997.319C1222.81,997.495 1223.17,997.583 1223.77,997.583C1225.73,997.583 1226.72,996.239 1226.72,993.551Z" style="fill-rule:nonzero;"/>
                    </g>
                    <path d="M1247.09,997.823C1247.09,997.967 1246.97,998.039 1246.73,998.039C1246.57,998.039 1246.43,998.031 1246.3,998.015L1243.25,997.967L1240.21,998.015C1240.09,998.031 1239.97,998.039 1239.85,998.039C1239.53,998.039 1239.37,997.959 1239.37,997.799C1239.37,997.623 1239.58,997.535 1240.01,997.535C1241.42,997.519 1242.13,997.375 1242.13,997.103C1242.13,997.087 1242.11,997.023 1242.08,996.911L1241.89,996.263L1241.77,995.927C1241.62,995.431 1241.27,994.335 1240.71,992.639L1235.57,992.639C1234.61,995.199 1234.13,996.671 1234.13,997.055C1234.13,997.279 1234.23,997.415 1234.42,997.463C1234.47,997.479 1234.87,997.511 1235.62,997.559C1236.09,997.575 1236.32,997.655 1236.32,997.799C1236.32,997.959 1236.11,998.039 1235.69,998.039C1234.96,998.039 1234.1,998.007 1233.13,997.943C1232.89,997.927 1232.64,997.919 1232.38,997.919C1232.13,997.919 1231.88,997.935 1231.64,997.967C1231.51,997.983 1231.41,997.991 1231.33,997.991C1231.1,997.991 1230.99,997.919 1230.99,997.775C1230.99,997.631 1231.24,997.551 1231.75,997.535C1232.25,997.519 1232.61,997.443 1232.84,997.307C1233.06,997.171 1233.24,996.911 1233.37,996.527C1235.43,990.639 1237.11,985.911 1238.41,982.343C1238.44,982.151 1238.5,981.935 1238.6,981.695L1238.72,981.263C1238.77,981.087 1238.83,980.999 1238.91,980.999C1238.96,980.999 1239,981.047 1239.03,981.143C1239.24,981.767 1239.71,983.071 1240.45,985.055C1241.02,986.607 1242.45,990.503 1244.74,996.743C1244.87,997.095 1245.03,997.319 1245.23,997.415C1245.43,997.511 1245.85,997.567 1246.47,997.583C1246.89,997.599 1247.09,997.679 1247.09,997.823ZM1240.57,992.087C1240.31,991.367 1239.89,990.175 1239.29,988.511L1238.14,985.223C1237.47,986.983 1236.66,989.271 1235.72,992.087L1240.57,992.087Z" style="fill-rule:nonzero;"/>
                    <path d="M1261.42,981.551C1261.42,981.711 1261.22,981.783 1260.82,981.767L1260.29,981.743L1259.86,981.743C1259.61,981.743 1259.45,981.787 1259.41,981.875C1259.36,981.963 1259.33,982.231 1259.33,982.679L1259.33,996.503C1259.33,997.351 1259.33,997.847 1259.31,997.991C1259.29,998.135 1259.25,998.207 1259.17,998.207C1259.07,998.207 1258.96,998.119 1258.83,997.943L1255.76,993.455C1253.98,990.847 1251.82,987.591 1249.28,983.687L1249.3,997.079C1249.32,997.287 1249.44,997.419 1249.66,997.475C1249.89,997.531 1250.42,997.567 1251.27,997.583C1251.48,997.583 1251.58,997.647 1251.58,997.775C1251.58,997.935 1251.37,998.015 1250.96,998.015C1250.81,998.015 1250.36,997.991 1249.59,997.943C1249.33,997.927 1249.09,997.919 1248.85,997.919C1248.86,997.919 1248.72,997.935 1248.43,997.967C1248.13,997.999 1247.68,998.015 1247.07,998.015L1246.83,998.015C1246.46,998.015 1246.28,997.943 1246.28,997.799C1246.28,997.655 1246.44,997.583 1246.76,997.583C1247.7,997.567 1248.25,997.507 1248.4,997.403C1248.55,997.299 1248.63,996.959 1248.63,996.383L1248.63,984.551C1248.63,983.223 1248.36,982.391 1247.81,982.055C1247.56,981.895 1247.1,981.815 1246.45,981.815C1246.03,981.815 1245.82,981.735 1245.82,981.575C1245.82,981.431 1245.94,981.359 1246.18,981.359C1246.5,981.359 1246.91,981.367 1247.41,981.383C1247.9,981.399 1248.17,981.407 1248.2,981.407C1248.25,981.407 1248.47,981.399 1248.87,981.383C1249.4,981.383 1249.91,981.375 1250.41,981.359L1258.69,993.671L1258.69,982.991C1258.69,982.495 1258.68,982.195 1258.66,982.091C1258.65,981.987 1258.58,981.907 1258.47,981.851C1258.36,981.795 1257.97,981.767 1257.32,981.767C1256.74,981.767 1256.45,981.695 1256.45,981.551C1256.45,981.391 1256.65,981.311 1257.03,981.311L1258.54,981.311C1258.8,981.327 1258.95,981.335 1259,981.335C1259.01,981.335 1259.16,981.327 1259.43,981.311L1260.89,981.311C1261.25,981.311 1261.42,981.391 1261.42,981.551Z" style="fill-rule:nonzero;"/>
                    <path d="M1278.41,997.799C1278.41,997.943 1278.3,998.015 1278.08,998.015L1277.89,998.015L1275.01,997.991L1272.2,998.015C1272.1,998.031 1272,998.039 1271.89,998.039C1271.58,998.039 1271.43,997.975 1271.43,997.847C1271.43,997.719 1271.63,997.639 1272.03,997.607C1272.86,997.527 1273.28,997.391 1273.28,997.199C1273.28,996.991 1271.09,994.391 1266.73,989.399L1266.73,996.335C1266.73,996.895 1266.81,997.243 1266.99,997.379C1267.17,997.515 1267.64,997.583 1268.41,997.583C1268.58,997.583 1268.67,997.663 1268.67,997.823C1268.67,997.967 1268.56,998.039 1268.33,998.039C1268.17,998.039 1268.03,998.031 1267.9,998.015L1264.57,997.967C1264.36,997.967 1264.11,997.979 1263.83,998.003C1263.55,998.027 1263.27,998.039 1262.98,998.039L1262.77,998.039C1262.53,998.039 1262.41,997.967 1262.41,997.823C1262.41,997.663 1262.7,997.575 1263.29,997.559C1263.84,997.543 1264.16,997.423 1264.25,997.199C1264.3,997.119 1264.33,996.615 1264.33,995.687L1264.3,982.319C1264.29,981.983 1263.85,981.815 1263.01,981.815C1262.62,981.815 1262.43,981.727 1262.43,981.551C1262.43,981.407 1262.57,981.335 1262.84,981.335C1262.92,981.335 1263.02,981.343 1263.15,981.359C1263.41,981.391 1264.12,981.407 1265.29,981.407C1266.53,981.407 1267.33,981.391 1267.66,981.359C1267.84,981.343 1268.02,981.335 1268.21,981.335C1268.5,981.335 1268.65,981.423 1268.65,981.599C1268.65,981.695 1268.6,981.755 1268.51,981.779C1268.43,981.803 1268.15,981.823 1267.69,981.839C1267.22,981.855 1266.95,981.919 1266.86,982.031C1266.77,982.143 1266.73,982.503 1266.73,983.111L1266.73,988.967L1268.77,986.927C1271.85,983.839 1273.4,982.231 1273.4,982.103C1273.4,981.895 1273.02,981.799 1272.27,981.815C1271.79,981.831 1271.55,981.751 1271.55,981.575C1271.55,981.463 1271.66,981.399 1271.89,981.383C1272.11,981.367 1272.89,981.359 1274.21,981.359L1275.53,981.359C1276.09,981.359 1276.41,981.367 1276.49,981.383C1276.65,981.415 1276.73,981.495 1276.73,981.623C1276.73,981.799 1276.56,981.887 1276.21,981.887C1275.47,981.871 1275,981.887 1274.79,981.935C1274.58,981.983 1274.37,982.111 1274.17,982.319C1273.13,983.407 1271.54,985.039 1269.41,987.215L1268.79,987.839L1268.48,988.175C1268.57,988.287 1268.97,988.719 1269.68,989.471C1271.02,990.863 1272.95,993.095 1275.46,996.167C1275.99,996.807 1276.35,997.191 1276.55,997.319C1276.75,997.447 1277.14,997.527 1277.72,997.559C1278.18,997.591 1278.41,997.671 1278.41,997.799Z" style="fill-rule:nonzero;"/>
                    <path d="M1297.64,989.759C1297.64,992.143 1296.92,994.159 1295.49,995.807C1294.06,997.455 1292.3,998.279 1290.22,998.279C1288.01,998.279 1286.16,997.443 1284.65,995.771C1283.15,994.099 1282.4,992.039 1282.4,989.591C1282.4,987.095 1283.12,985.051 1284.57,983.459C1286.02,981.867 1287.87,981.071 1290.13,981.071C1292.25,981.071 1294.04,981.903 1295.48,983.567C1296.92,985.231 1297.64,987.295 1297.64,989.759ZM1294.95,989.879C1294.95,986.951 1294.35,984.671 1293.15,983.039C1292.4,982.015 1291.35,981.503 1290.01,981.503C1288.73,981.503 1287.73,981.895 1287.03,982.679C1285.73,984.119 1285.09,986.463 1285.09,989.711C1285.09,992.287 1285.54,994.287 1286.44,995.711C1287.35,997.135 1288.61,997.847 1290.25,997.847C1291.77,997.847 1292.91,997.175 1293.68,995.831C1294.53,994.343 1294.95,992.359 1294.95,989.879Z" style="fill-rule:nonzero;"/>
                    <path d="M1311.68,985.319C1311.68,985.543 1311.6,985.655 1311.44,985.655C1311.28,985.655 1311.17,985.455 1311.1,985.055C1310.91,983.903 1310.52,983.063 1309.93,982.535C1309.54,982.199 1308.95,981.991 1308.15,981.911C1307.86,981.879 1307.22,981.863 1306.23,981.863C1305.49,981.863 1304.61,981.887 1303.59,981.935L1303.59,988.943C1305.64,988.959 1306.9,988.827 1307.38,988.547C1307.86,988.267 1308.15,987.479 1308.25,986.183C1308.28,985.815 1308.37,985.631 1308.53,985.631C1308.69,985.631 1308.77,985.751 1308.77,985.991C1308.77,986.135 1308.77,986.255 1308.75,986.351C1308.7,987.455 1308.68,988.479 1308.68,989.423C1308.68,990.639 1308.71,991.599 1308.77,992.303C1308.79,992.367 1308.8,992.463 1308.8,992.591C1308.8,992.783 1308.72,992.879 1308.56,992.879C1308.43,992.879 1308.35,992.831 1308.32,992.735C1308.29,992.639 1308.23,992.271 1308.15,991.631C1308.02,990.655 1307.77,990.047 1307.39,989.807C1307.02,989.567 1306.27,989.447 1305.15,989.447C1304.56,989.447 1304.04,989.463 1303.59,989.495L1303.61,991.943L1303.57,996.647C1303.57,997.111 1303.75,997.407 1304.12,997.535C1304.29,997.599 1304.69,997.623 1305.29,997.607C1305.55,997.607 1305.68,997.671 1305.68,997.799C1305.68,997.943 1305.52,998.015 1305.2,998.015L1304.96,998.015C1304.73,998.015 1304.43,998.007 1304.05,997.991L1303.3,997.991L1299.73,998.015C1299.42,998.015 1299.27,997.951 1299.27,997.823C1299.27,997.695 1299.55,997.615 1300.1,997.583C1300.65,997.551 1300.97,997.475 1301.07,997.355C1301.17,997.235 1301.21,996.863 1301.21,996.239L1301.19,982.463C1301.17,982.175 1301.09,981.995 1300.94,981.923C1300.79,981.851 1300.37,981.807 1299.7,981.791C1299.45,981.791 1299.32,981.703 1299.32,981.527C1299.32,981.367 1299.46,981.287 1299.75,981.287L1300.13,981.287C1300.1,981.287 1300.87,981.295 1302.45,981.311C1304.03,981.327 1305.32,981.335 1306.33,981.335C1309.03,981.335 1310.69,981.271 1311.29,981.143C1311.31,981.351 1311.36,981.951 1311.44,982.943C1311.49,983.615 1311.55,984.215 1311.63,984.743C1311.66,984.967 1311.68,985.159 1311.68,985.319Z" style="fill-rule:nonzero;"/>
                    <g transform="matrix(1.14728,0,0,1.22133,-193.741,-220.058)">
                        <path d="M1325.05,981.599C1325.05,981.743 1324.95,981.815 1324.76,981.815L1324.73,981.815C1324.57,981.799 1324.37,981.791 1324.13,981.791C1323.61,981.791 1323.29,981.895 1323.2,982.103C1323.15,982.183 1323.13,982.647 1323.13,983.495L1323.13,994.271C1323.13,996.063 1323.05,997.231 1322.91,997.775C1322.69,998.607 1321.98,999.423 1320.8,1000.22C1319.85,1000.86 1318.92,1001.18 1317.99,1001.18C1317.24,1001.18 1316.63,1000.99 1316.17,1000.61C1315.7,1000.22 1315.47,999.719 1315.47,999.095C1315.47,998.615 1315.63,998.219 1315.94,997.907C1316.25,997.595 1316.65,997.439 1317.13,997.439C1317.54,997.439 1317.89,997.575 1318.17,997.847C1318.45,998.119 1318.59,998.463 1318.59,998.879C1318.59,999.295 1318.42,999.727 1318.09,1000.18C1317.99,1000.3 1317.94,1000.42 1317.94,1000.51C1317.94,1000.69 1318.09,1000.77 1318.37,1000.77C1319.09,1000.77 1319.49,1000.13 1319.57,998.831C1319.59,998.575 1319.6,996.775 1319.6,993.431L1319.6,982.895C1319.58,982.639 1319.57,982.511 1319.57,982.511C1319.54,982.239 1319.43,982.059 1319.24,981.971C1319.05,981.883 1318.66,981.831 1318.09,981.815C1317.72,981.799 1317.5,981.783 1317.44,981.767C1317.37,981.751 1317.34,981.695 1317.34,981.599C1317.34,981.455 1317.46,981.383 1317.7,981.383L1320.7,981.407C1320.69,981.407 1321.01,981.399 1321.69,981.383C1322.42,981.367 1323.17,981.359 1323.94,981.359L1324.64,981.359C1324.91,981.359 1325.05,981.439 1325.05,981.599Z" style="fill-rule:nonzero;"/>
                    </g>
                    <path d="M1340.89,997.823C1340.89,997.967 1340.77,998.039 1340.53,998.039C1340.37,998.039 1340.22,998.031 1340.09,998.015L1337.05,997.967L1334,998.015C1333.89,998.031 1333.77,998.039 1333.64,998.039C1333.32,998.039 1333.16,997.959 1333.16,997.799C1333.16,997.623 1333.37,997.535 1333.81,997.535C1335.21,997.519 1335.92,997.375 1335.92,997.103C1335.92,997.087 1335.9,997.023 1335.87,996.911L1335.68,996.263L1335.56,995.927C1335.41,995.431 1335.06,994.335 1334.5,992.639L1329.37,992.639C1328.41,995.199 1327.93,996.671 1327.93,997.055C1327.93,997.279 1328.02,997.415 1328.21,997.463C1328.26,997.479 1328.66,997.511 1329.41,997.559C1329.88,997.575 1330.11,997.655 1330.11,997.799C1330.11,997.959 1329.9,998.039 1329.49,998.039C1328.75,998.039 1327.89,998.007 1326.92,997.943C1326.68,997.927 1326.43,997.919 1326.17,997.919C1325.92,997.919 1325.67,997.935 1325.43,997.967C1325.3,997.983 1325.2,997.991 1325.12,997.991C1324.89,997.991 1324.78,997.919 1324.78,997.775C1324.78,997.631 1325.03,997.551 1325.54,997.535C1326.04,997.519 1326.41,997.443 1326.63,997.307C1326.85,997.171 1327.03,996.911 1327.16,996.527C1329.22,990.639 1330.9,985.911 1332.2,982.343C1332.23,982.151 1332.29,981.935 1332.39,981.695L1332.51,981.263C1332.56,981.087 1332.62,980.999 1332.7,980.999C1332.75,980.999 1332.79,981.047 1332.82,981.143C1333.03,981.767 1333.5,983.071 1334.24,985.055C1334.81,986.607 1336.25,990.503 1338.53,996.743C1338.66,997.095 1338.83,997.319 1339.03,997.415C1339.23,997.511 1339.64,997.567 1340.26,997.583C1340.68,997.599 1340.89,997.679 1340.89,997.823ZM1334.36,992.087C1334.1,991.367 1333.68,990.175 1333.09,988.511L1331.93,985.223C1331.26,986.983 1330.45,989.271 1329.51,992.087L1334.36,992.087Z" style="fill-rule:nonzero;"/>
                    <path d="M1351.76,985.319C1351.76,986.871 1351.09,988.079 1349.77,988.943C1348.93,989.487 1347.88,989.759 1346.6,989.759C1346.05,989.759 1345.44,989.703 1344.75,989.591L1344.75,996.407C1344.75,996.775 1344.77,997.007 1344.8,997.103C1344.88,997.327 1345.05,997.463 1345.33,997.511C1345.79,997.575 1346.24,997.607 1346.67,997.607C1346.85,997.607 1346.93,997.663 1346.93,997.775C1346.93,997.935 1346.82,998.015 1346.6,998.015C1346.5,998.015 1346.42,998.007 1346.36,997.991C1345.48,998.007 1343.82,998.015 1341.39,998.015L1341.08,998.015C1340.6,998.015 1340.36,997.935 1340.36,997.775C1340.36,997.663 1340.53,997.607 1340.86,997.607C1341.61,997.607 1342.05,997.535 1342.16,997.391C1342.29,997.327 1342.36,997.167 1342.37,996.911L1342.37,982.751C1342.37,982.255 1342.24,981.951 1341.97,981.839C1341.81,981.775 1341.53,981.743 1341.13,981.743L1340.89,981.743C1340.84,981.759 1340.78,981.767 1340.72,981.767C1340.48,981.767 1340.36,981.695 1340.36,981.551C1340.36,981.391 1340.58,981.311 1341.03,981.311L1346.31,981.311C1348.13,981.311 1349.47,981.631 1350.32,982.271C1351.28,982.991 1351.76,984.007 1351.76,985.319ZM1349.24,985.367C1349.24,982.967 1348.23,981.767 1346.21,981.767C1345.54,981.767 1345.1,981.879 1344.89,982.103C1344.8,982.199 1344.75,982.447 1344.75,982.847L1344.75,989.231C1344.88,989.247 1345.02,989.255 1345.18,989.255C1346.24,989.255 1347.13,989.023 1347.87,988.559C1348.78,987.983 1349.24,986.919 1349.24,985.367Z" style="fill-rule:nonzero;"/>
                    <path d="M1367.43,997.823C1367.43,997.967 1367.31,998.039 1367.07,998.039C1366.91,998.039 1366.77,998.031 1366.64,998.015L1363.59,997.967L1360.54,998.015C1360.43,998.031 1360.31,998.039 1360.18,998.039C1359.86,998.039 1359.7,997.959 1359.7,997.799C1359.7,997.623 1359.92,997.535 1360.35,997.535C1361.76,997.519 1362.46,997.375 1362.46,997.103C1362.46,997.087 1362.45,997.023 1362.41,996.911L1362.22,996.263L1362.1,995.927C1361.96,995.431 1361.61,994.335 1361.05,992.639L1355.91,992.639C1354.95,995.199 1354.47,996.671 1354.47,997.055C1354.47,997.279 1354.57,997.415 1354.76,997.463C1354.81,997.479 1355.21,997.511 1355.96,997.559C1356.42,997.575 1356.65,997.655 1356.65,997.799C1356.65,997.959 1356.45,998.039 1356.03,998.039C1355.29,998.039 1354.44,998.007 1353.46,997.943C1353.22,997.927 1352.97,997.919 1352.72,997.919C1352.46,997.919 1352.21,997.935 1351.97,997.967C1351.85,997.983 1351.74,997.991 1351.66,997.991C1351.44,997.991 1351.33,997.919 1351.33,997.775C1351.33,997.631 1351.58,997.551 1352.08,997.535C1352.59,997.519 1352.95,997.443 1353.17,997.307C1353.4,997.171 1353.57,996.911 1353.7,996.527C1355.77,990.639 1357.45,985.911 1358.74,982.343C1358.77,982.151 1358.84,981.935 1358.93,981.695L1359.05,981.263C1359.1,981.087 1359.17,980.999 1359.25,980.999C1359.29,980.999 1359.33,981.047 1359.37,981.143C1359.57,981.767 1360.05,983.071 1360.78,985.055C1361.36,986.607 1362.79,990.503 1365.08,996.743C1365.21,997.095 1365.37,997.319 1365.57,997.415C1365.77,997.511 1366.18,997.567 1366.81,997.583C1367.22,997.599 1367.43,997.679 1367.43,997.823ZM1360.9,992.087C1360.65,991.367 1360.22,990.175 1359.63,988.511L1358.48,985.223C1357.81,986.983 1357,989.271 1356.05,992.087L1360.9,992.087Z" style="fill-rule:nonzero;"/>
                    <path d="M1381.76,981.551C1381.76,981.711 1381.56,981.783 1381.16,981.767L1380.63,981.743L1380.2,981.743C1379.94,981.743 1379.79,981.787 1379.74,981.875C1379.69,981.963 1379.67,982.231 1379.67,982.679L1379.67,996.503C1379.67,997.351 1379.66,997.847 1379.65,997.991C1379.63,998.135 1379.58,998.207 1379.5,998.207C1379.41,998.207 1379.29,998.119 1379.17,997.943L1376.09,993.455C1374.32,990.847 1372.16,987.591 1369.61,983.687L1369.64,997.079C1369.65,997.287 1369.77,997.419 1370,997.475C1370.22,997.531 1370.76,997.567 1371.61,997.583C1371.81,997.583 1371.92,997.647 1371.92,997.775C1371.92,997.935 1371.71,998.015 1371.29,998.015C1371.15,998.015 1370.69,997.991 1369.93,997.943C1369.67,997.927 1369.42,997.919 1369.18,997.919C1369.2,997.919 1369.06,997.935 1368.76,997.967C1368.47,997.999 1368.01,998.015 1367.41,998.015L1367.17,998.015C1366.8,998.015 1366.61,997.943 1366.61,997.799C1366.61,997.655 1366.77,997.583 1367.09,997.583C1368.04,997.567 1368.59,997.507 1368.74,997.403C1368.89,997.299 1368.97,996.959 1368.97,996.383L1368.97,984.551C1368.97,983.223 1368.69,982.391 1368.15,982.055C1367.89,981.895 1367.44,981.815 1366.78,981.815C1366.37,981.815 1366.16,981.735 1366.16,981.575C1366.16,981.431 1366.28,981.359 1366.52,981.359C1366.84,981.359 1367.25,981.367 1367.74,981.383C1368.24,981.399 1368.5,981.407 1368.53,981.407C1368.58,981.407 1368.81,981.399 1369.21,981.383C1369.73,981.383 1370.25,981.375 1370.74,981.359L1379.02,993.671L1379.02,982.991C1379.02,982.495 1379.01,982.195 1379,982.091C1378.98,981.987 1378.92,981.907 1378.81,981.851C1378.69,981.795 1378.31,981.767 1377.65,981.767C1377.08,981.767 1376.79,981.695 1376.79,981.551C1376.79,981.391 1376.98,981.311 1377.37,981.311L1378.88,981.311C1379.13,981.327 1379.29,981.335 1379.33,981.335C1379.35,981.335 1379.49,981.327 1379.77,981.311L1381.23,981.311C1381.58,981.311 1381.76,981.391 1381.76,981.551Z" style="fill-rule:nonzero;"/>
                </g>
            </g>
        </g>
        <g id="名称未設定-22.svg1" serif:id="名称未設定 22.svg">
        </g>
    </g>
</svg>
