<?xml version="1.0" encoding="UTF-8" standalone="no"?>
<svg
   xmlns="http://www.w3.org/2000/svg"
   width="500.48001"
   height="240.215"
   viewBox="0 0 132.41866 63.556886">
  <g
     id="g60"
     transform="scale(1.0009129)">
    <path
       fill="#1f6eb0"
       d="M 23.370542,15.561848 V 7.6533453 L 25.090361,6.8472607 C 35.77103,1.8412039 41.183586,0.35230473 50.024496,0.07809328 c 6.130576,-0.19014949 7.963193,0.35333576 9.706105,1.99710902 0.911039,0.8592236 1.027322,1.1426238 1.027322,2.5038411 0,1.7218327 0.694039,2.7313512 1.8778,2.7313512 0.374781,0 1.687072,-0.4822009 2.916216,-1.0715603 C 75.220152,1.603059 80.368358,0 87.340042,0 c 4.372993,0 6.805694,0.68245086 8.292081,2.0843033 0.900622,0.8493884 1.01768,1.1363476 1.01768,2.4947401 0,1.678884 0.690154,2.7313512 1.791087,2.7313512 0.327074,0 2.78987,-0.9944304 5.47288,-2.20984 C 112.23262,1.3320959 117.06254,0 123.49596,0 c 4.1977,0 6.52328,0.68789748 7.86442,1.9407137 l 0.8822,0.8240983 v 7.858259 7.858261 l -0.67298,-0.61535 c -1.86409,-1.704481 -4.87039,-2.345503 -9.74802,-2.078533 -5.83454,0.319344 -10.4333,1.61729 -18.1311,5.160507 -2.38691,1.098672 -4.313293,2.101415 -5.250105,2.101415 -1.23287,0 -1.790572,-1.08612 -1.790572,-2.754388 0,-3.255553 -3.869318,-4.882501 -10.720107,-4.507534 -5.834537,0.319344 -10.428841,1.626983 -18.131088,5.160507 -2.394842,1.098672 -4.455869,2.17962 -5.010473,2.17962 -1.232877,0 -2.030212,-1.164325 -2.030212,-2.832593 0,-3.78397 -5.217065,-5.318333 -14.592869,-4.291828 -6.922446,0.757899 -13.63376,2.860437 -21.074693,6.602334 l -1.719819,0.864859 z"
       id="path67" />
    <path
       id="path91-5"
       overflow="hidden"
       fill="#352444"
       d="M 0,4.1324424 V 63.4989 H 18.300587 V 4.1324424 Z M 56.920212,25.925317 V 63.4989 H 74.418767 V 25.925317 Z m -33.453304,0.02981 v 37.53768 h 31.384951 z m 89.331722,0.03956 -16.305243,0.08641 c -1.339957,-0.0069 -2.704302,0.583301 -4.011967,0.875048 -5.337099,1.928816 -9.973605,6.4986 -11.651307,12.37361 -0.758259,2.655333 -0.977791,7.36847 -0.270785,10.07281 1.73988,6.655121 6.830759,11.756688 13.462868,13.490863 1.791017,0.468314 3.303645,0.56246 9.262864,0.576262 l 7.1221,0.01638 v -6.092498 -6.261649 h -3.42152 -2.7807 c -1.91427,-0.198936 -3.51113,-0.81168 -4.555168,-1.79635 -2.858232,-2.69571 -2.780206,-7.022686 0.170392,-9.448472 1.081706,-0.889306 2.314626,-1.352105 4.623756,-1.501218 h 5.16378 l 6.04733,2e-6 v 12.096853 13.003325 h 8.39998 8.24299 V 44.78208 25.99468 Z" />
  </g>
</svg>