<?xml version="1.0" encoding="UTF-8" standalone="no"?>
<!-- Created with Inkscape (http://www.inkscape.org/) -->

<svg
   width="320mm"
   height="107mm"
   viewBox="0 0 320 107"
   version="1.1"
   id="svg1"
   xml:space="preserve"
   xmlns="http://www.w3.org/2000/svg"
   xmlns:svg="http://www.w3.org/2000/svg"><defs
     id="defs1" /><g
     id="layer1"
     transform="translate(212.36107,756.94171)"><g
       id="g12"
       transform="matrix(0.50400675,0,0,0.50189085,-105.32966,-377.04707)"><path
         id="path10-6"
         style="color:#000000;fill:#da281c;fill-opacity:1;fill-rule:evenodd;stroke-linecap:round;stroke-linejoin:round;-inkscape-stroke:none"
         d="m -140.14611,-748.04387 c -0.0378,0.005 -0.0755,0.0101 -0.11317,0.0155 -7.50745,1.16961 -13.97344,5.50125 -20.04891,12.59975 -5.40128,6.31085 -41.70256,55.87262 -49.86104,74.998 -3.21762,7.54295 -2.49456,15.12209 -0.38189,20.07475 8.1585,19.12538 44.45976,68.68715 49.86104,74.998 6.07547,7.09852 12.54148,11.43014 20.04891,12.59975 0.0377,0.005 0.0754,0.0105 0.11317,0.0155 91.582939,12.84275 413.68784,10.87756 491.24598,0.002 0.0378,-0.005 0.0755,-0.0105 0.11317,-0.0155 7.50744,-1.16961 13.97345,-5.50123 20.04891,-12.59975 5.40129,-6.31085 41.70255,-55.87262 49.86104,-74.998 2.11268,-4.95266 2.83574,-12.5318 -0.38189,-20.07475 -8.15848,-19.12538 -44.45975,-68.68715 -49.86104,-74.998 -6.07546,-7.0985 -12.54146,-11.43014 -20.0489,-12.59975 -0.0377,-0.005 -0.0754,-0.0105 -0.11318,-0.0155 -77.42202,-10.85696 -398.972241,-12.83409 -490.4822,-0.002 z" /><path
         id="path10"
         style="color:#000000;fill:#ffffff;fill-rule:evenodd;stroke:none;stroke-width:10.6671;stroke-linecap:round;stroke-linejoin:round;stroke-dasharray:none;stroke-opacity:1;paint-order:stroke fill markers"
         d="m -68.657308,-728.22461 c -14.75175,0.9453 -22.448124,1.17946 -26.852624,2.0686 -11.203068,1.89543 -16.952448,8.36483 -24.546818,18.99936 -33.78221,47.30579 -34.39888,51.03233 -34.3545,57.19341 0.0413,5.73719 0.62261,9.49196 34.3545,56.72729 7.59437,10.63453 13.34375,17.10394 24.546818,18.99935 4.404502,0.88916 12.100878,1.12331 26.852624,2.06861 90.642713,5.80843 273.235288,4.46749 347.645448,-0.30076 14.75174,-0.94529 22.44813,-1.17944 26.85262,-2.0686 11.20307,-1.89542 16.95245,-8.36431 24.54683,-18.99884 33.73188,-47.23533 34.31319,-50.9901 34.35449,-56.72729 0.0444,-6.16108 -0.57229,-9.88813 -34.35449,-57.19393 -7.59438,-10.63452 -13.34376,-17.10392 -24.54683,-18.99935 -4.40449,-0.88915 -12.10087,-1.12279 -26.85262,-2.06809 -90.65383,-5.80914 -273.237327,-4.46788 -347.645448,0.30024 z" /><g
         id="g7"
         style="opacity:1;fill:#161f6e;fill-opacity:1"
         transform="translate(-0.07902713,-328.05317)"><path
           id="rect1"
           style="opacity:1;fill:#161f6e;fill-opacity:1;fill-rule:evenodd;stroke:none;stroke-width:27.3847;paint-order:stroke fill markers"
           d="m -91.430078,-362.1817 -1.294495,1.10897 v 77.40839 l 1.32395,1.27331 h 25.368478 l 1.32395,-1.19269 v -26.81594 h 3.713468 l 16.13545,26.27798 c 0.501751,0.81715 1.121602,1.73065 2.080493,1.73065 h 29.096932 c 0.958891,0 1.581577,-0.91883 1.071252,-1.73065 l -24.808821,-39.46632 24.272937,-36.86306 c 0.528371,-0.80018 0.05249,-1.73064 -0.906405,-1.73064 H -42.13748 c -0.958891,0 -1.219818,0.91947 -1.73116,1.73064 l -17.177763,27.35253 h -3.661792 v -27.68016 l -1.353406,-1.40301 z" /><path
           id="rect2"
           style="opacity:1;fill:#161f6e;fill-opacity:1;fill-rule:evenodd;stroke:none;stroke-width:12.3382;paint-order:stroke fill markers"
           d="m -6.5939128,-362.18151 c -0.867569,0 -1.5657959,0.72739 -1.5657959,1.63142 v 76.52712 c 0,0.90405 0.6982269,1.63194 1.5657959,1.63194 H 18.380273 c 0.867571,0 1.565796,-0.72789 1.565796,-1.63194 v -21.43229 h 5.443596 l 10.420552,21.19457 c 0.512709,1.04281 1.430825,1.86966 2.027783,1.86966 h 28.880408 c 0.59696,0 0.677482,-0.84622 0.127124,-1.86966 l -13.921631,-25.88989 c 3.63908,-2.26198 6.921336,-5.41431 9.460922,-9.67228 4.360117,-7.31033 5.094069,-22.09889 -1.688269,-30.87253 -6.304509,-8.15552 -15.035612,-11.48612 -23.925155,-11.48612 z m 36.5218018,20.24734 c 4.37461,0 7.896676,3.74335 7.896676,8.39277 0,4.64942 -3.522066,8.39225 -7.896676,8.39225 -3.351394,0 -6.702774,-6.1e-4 -10.054167,-0.004 v -16.77779 -5.2e-4 c 3.351388,-0.005 6.702776,-0.003 10.054167,-0.003 z" /><path
           id="rect5"
           style="opacity:1;fill:#161f6e;fill-opacity:1;fill-rule:evenodd;stroke-width:4.99999;paint-order:stroke fill markers"
           d="m 95.888721,-362.26161 c -0.790987,0 -1.61872,0.60754 -1.855701,1.36219 l -24.20059,77.0661 c -0.236981,0.75466 0.208947,1.35742 0.999939,1.36219 l 23.866243,0.14573 c 0.790991,0.005 1.642939,-0.60035 1.855701,-1.36219 l 3.129008,-11.205 c 0.693539,0.0173 1.409399,0.0274 2.144569,0.0274 h 22.53454 10e-4 l 3.0918,11.17762 c 0.21087,0.76236 1.06472,1.36652 1.8557,1.36219 l 26.62732,-0.14573 c 0.79092,-0.004 1.23724,-0.60764 0.99993,-1.36219 l -24.20059,-76.94931 c -0.23731,-0.75455 -0.77325,-1.47898 -1.56424,-1.47898 z m 16.065169,24.03833 c 0.20652,-3e-5 0.38765,0.0961 0.44235,0.23461 l 6.9851,24.29102 h -14.70401 l 6.83318,-24.29102 c 0.0548,-0.13871 0.23656,-0.2349 0.44338,-0.23461 z" /><path
           id="rect7"
           style="opacity:1;fill:#161f6e;fill-opacity:1;fill-rule:evenodd;stroke:none;stroke-width:1.62965;stroke-linecap:butt;stroke-linejoin:round;stroke-dasharray:none;stroke-opacity:1;paint-order:normal"
           d="m 163.91351,-362.26161 c -0.79006,0 -1.42627,0.63621 -1.42627,1.42627 v 77.08367 c 0,0.79006 0.63621,1.42627 1.42627,1.42627 h 25.43359 c 0.79006,0 1.42627,-0.63621 1.42627,-1.42627 v -19.36575 h 34.21341 c 0.61459,0 1.1095,-0.49438 1.1095,-1.10897 v -19.89284 c 0,-0.6146 -0.49491,-1.1095 -1.1095,-1.1095 h -34.21341 v -12.94339 h 36.80395 c 0.64066,0 1.15652,-0.51586 1.15652,-1.15652 v -21.77645 c 0,-0.64066 -0.51586,-1.15652 -1.15652,-1.15652 z" /><path
           id="rect7-2"
           style="opacity:1;fill:#161f6e;fill-opacity:1;fill-rule:evenodd;stroke:none;stroke-width:1.62965;stroke-linecap:butt;stroke-linejoin:round;stroke-dasharray:none;stroke-opacity:1;paint-order:normal"
           d="m 236.22021,-362.26161 c -0.74331,0 -1.34152,0.59822 -1.34152,1.34152 v 21.40645 c 0,0.7433 0.59821,1.34152 1.34152,1.34152 h 22.11854 v 54.42045 c 0,0.79006 0.6357,1.42627 1.42576,1.42627 h 25.43359 c 0.79006,0 1.42627,-0.63621 1.42627,-1.42627 v -54.42045 h 22.11803 c 0.7433,0 1.34152,-0.59822 1.34152,-1.34152 v -21.40645 c 0,-0.7433 -0.59822,-1.34152 -1.34152,-1.34152 z" /></g></g></g></svg>
