<?xml version="1.0" encoding="UTF-8" standalone="no"?>
<svg
   xmlns:dc="http://purl.org/dc/elements/1.1/"
   xmlns:cc="http://creativecommons.org/ns#"
   xmlns:rdf="http://www.w3.org/1999/02/22-rdf-syntax-ns#"
   xmlns:svg="http://www.w3.org/2000/svg"
   xmlns="http://www.w3.org/2000/svg"
   xmlns:sodipodi="http://sodipodi.sourceforge.net/DTD/sodipodi-0.dtd"
   xmlns:inkscape="http://www.inkscape.org/namespaces/inkscape"
   width="32"
   height="32"
   viewBox="0 0 32 32"
   version="1.1"
   id="svg849"
   sodipodi:docname="AITO_logo.svg"
   inkscape:version="1.0.1 (3bc2e813f5, 2020-09-07)">
  <metadata
     id="metadata855">
    <rdf:RDF>
      <cc:Work
         rdf:about="">
        <dc:format>image/svg+xml</dc:format>
        <dc:type
           rdf:resource="http://purl.org/dc/dcmitype/StillImage" />
      </cc:Work>
    </rdf:RDF>
  </metadata>
  <defs
     id="defs853" />
  <sodipodi:namedview
     pagecolor="#ffffff"
     bordercolor="#666666"
     borderopacity="1"
     objecttolerance="10"
     gridtolerance="10"
     guidetolerance="10"
     inkscape:pageopacity="0"
     inkscape:pageshadow="2"
     inkscape:window-width="1920"
     inkscape:window-height="1001"
     id="namedview851"
     showgrid="false"
     inkscape:zoom="25.9375"
     inkscape:cx="16"
     inkscape:cy="12.915663"
     inkscape:window-x="-9"
     inkscape:window-y="-9"
     inkscape:window-maximized="1"
     inkscape:current-layer="组_38926" />
  <g
     id="组_38926"
     data-name="组 38926"
     transform="translate(-6014 -236)">
    <rect
       id="矩形_14673"
       data-name="矩形 14673"
       width="32"
       height="32"
       transform="translate(6014 236)"
       fill="#fff"
       style="fill:none" />
    <g
       id="组_38898"
       data-name="组 38898"
       transform="translate(3177.598 121.809)">
      <path
         id="联合_142"
         data-name="联合 142"
         d="M4.069,23.489l-3.4-3.509A2.413,2.413,0,0,1,0,18.3v-5.14H3.018v5.488a1.546,1.546,0,0,0,.432,1.08l1.162,1.2a.576.576,0,0,0,.414.179.57.57,0,0,0,.415-.179l1.162-1.2a1.542,1.542,0,0,0,.435-1.08V13.165h3.014V18.3a2.4,2.4,0,0,1-.67,1.675L5.987,23.489a1.257,1.257,0,0,1-.961.5A1.253,1.253,0,0,1,4.069,23.489ZM8.711,12.643A.839.839,0,0,1,8.4,12.53a.669.669,0,0,1-.224-.234.627.627,0,0,1-.078-.309.635.635,0,0,1,.31-.533.853.853,0,0,1,.3-.109,1.913,1.913,0,0,1,.324-.021,1.842,1.842,0,0,1,.322.021.874.874,0,0,1,.309.109.635.635,0,0,1,.305.533A.577.577,0,0,1,9.9,12.3a.63.63,0,0,1-.222.234.809.809,0,0,1-.31.114,1.9,1.9,0,0,1-.327.021A1.954,1.954,0,0,1,8.711,12.643Zm.09-.974a.567.567,0,0,0-.2.068.3.3,0,0,0-.152.254.283.283,0,0,0,.036.142.317.317,0,0,0,.11.116.575.575,0,0,0,.2.067,1.327,1.327,0,0,0,.242.017,1.3,1.3,0,0,0,.242-.017.537.537,0,0,0,.2-.067.334.334,0,0,0,.113-.119.273.273,0,0,0,.037-.139.307.307,0,0,0-.152-.254.6.6,0,0,0-.2-.068,2.093,2.093,0,0,0-.476,0Zm-2.887.94V11.73H5.152v-.35h1.9v.35H6.293v.879Zm-2.3,0v-1.23h.38v1.23Zm-1.654,0L1.3,11.925a.032.032,0,0,0-.019-.007c-.006,0-.014,0-.015.007-.224.227-.442.454-.661.681H.078q.541-.556,1.079-1.116a.173.173,0,0,1,.247,0c.359.372.721.745,1.079,1.116Zm5.081-1.782V5.335A1.546,1.546,0,0,0,6.6,4.255l-1.162-1.2a.57.57,0,0,0-.415-.177.577.577,0,0,0-.414.177L3.45,4.255a1.55,1.55,0,0,0-.432,1.08v5.488H0V5.684A2.414,2.414,0,0,1,.671,4.009L4.069.5A1.254,1.254,0,0,1,5.026,0a1.258,1.258,0,0,1,.961.5L9.382,4.009a2.406,2.406,0,0,1,.67,1.675v5.14Z"
         transform="translate(2847.376 118.197)"
         stroke="rgba(0,0,0,0)"
         stroke-miterlimit="10"
         stroke-width="1" />
    </g>
  </g>
</svg>
