<?xml version="1.0" encoding="UTF-8" standalone="no"?>
<svg
   xmlns:dc="http://purl.org/dc/elements/1.1/"
   xmlns:cc="http://creativecommons.org/ns#"
   xmlns:rdf="http://www.w3.org/1999/02/22-rdf-syntax-ns#"
   xmlns:svg="http://www.w3.org/2000/svg"
   xmlns="http://www.w3.org/2000/svg"
   xmlns:sodipodi="http://sodipodi.sourceforge.net/DTD/sodipodi-0.dtd"
   xmlns:inkscape="http://www.inkscape.org/namespaces/inkscape"
   version="1.1"
   id="Layer_1"
   x="0px"
   y="0px"
   width="718.66895"
   height="1000"
   viewBox="-252.435 -223.924 718.66894 1000"
   enable-background="new -252.435 -223.924 1000 887.039"
   xml:space="preserve"
   sodipodi:docname="Warner Bros. Pictures 2019.svg"
   inkscape:version="1.0.2 (e86c870879, 2021-01-15)"><metadata
   id="metadata47"><rdf:RDF><cc:Work
       rdf:about=""><dc:format>image/svg+xml</dc:format><dc:type
         rdf:resource="http://purl.org/dc/dcmitype/StillImage" /><dc:title></dc:title></cc:Work></rdf:RDF></metadata><defs
   id="defs45">
	
	
	
	
	
	
	
	
	
	
	
	
	
	
	
	
	
	
	
	
	
	
	
	
	
	
	
	
	
	
	
	
	
	
	
	
	
	
</defs><sodipodi:namedview
   pagecolor="#ffffff"
   bordercolor="#666666"
   borderopacity="1"
   objecttolerance="10"
   gridtolerance="10"
   guidetolerance="10"
   inkscape:pageopacity="0"
   inkscape:pageshadow="2"
   inkscape:window-width="1366"
   inkscape:window-height="705"
   id="namedview43"
   showgrid="false"
   inkscape:zoom="0.45963085"
   inkscape:cx="654.66734"
   inkscape:cy="498.44364"
   inkscape:window-x="-8"
   inkscape:window-y="-8"
   inkscape:window-maximized="1"
   inkscape:current-layer="Layer_1"
   inkscape:measure-start="0,0"
   inkscape:measure-end="0,0"
   inkscape:document-rotation="0" />

<g
   id="g181"><g
     id="g155"><path
       style="vector-effect:none;fill:#031272;fill-opacity:1;fill-rule:nonzero;stroke:none;stroke-width:0.810214;stroke-linecap:butt;stroke-linejoin:miter;stroke-miterlimit:4;stroke-dasharray:none;stroke-dashoffset:0;stroke-opacity:1"
       d="m 456.28468,669.55623 c -2.78091,0 -5.12486,0.98455 -7.06485,2.96028 -1.93928,2.01241 -2.88412,4.34813 -2.88412,7.01929 0,2.74427 0.94314,5.12591 2.88412,7.06511 1.93927,1.90246 4.28323,2.89923 7.06485,2.89923 2.67118,0 5.01037,-0.99634 6.98884,-2.89923 1.97537,-1.93927 2.96039,-4.3207 2.96039,-7.06511 0,-2.67109 -0.98408,-5.00688 -2.96039,-7.01929 -1.97537,-1.97585 -4.31932,-2.96028 -6.98884,-2.96028 z"
       id="path136" /><path
       id="path134"
       style="vector-effect:none;fill:#031272;fill-opacity:1;fill-rule:nonzero;stroke:none;stroke-width:0.810214;stroke-linecap:butt;stroke-linejoin:miter;stroke-miterlimit:4;stroke-dasharray:none;stroke-dashoffset:0;stroke-opacity:1"
       d="m 442.32227,808.39453 v 104.14453 h 14.58789 c 6.51292,0 12.48992,-0.88998 17.86914,-2.60937 5.34213,-1.75641 9.86649,-4.1349 13.67187,-7.17188 3.73202,-3.00043 6.69469,-6.58655 8.74414,-10.75781 2.08366,-4.17123 3.15821,-8.73216 3.15821,-13.67188 v -0.0156 c 0,-5.67145 -1.46737,-10.53469 -4.39454,-14.63281 -2.92698,-4.1346 -6.9511,-7.09518 -12.14648,-8.85157 3.07348,-2.59789 5.48885,-5.55651 7.17188,-8.8496 1.68423,-3.32972 2.51757,-6.66941 2.51757,-10.07227 0,-8.30593 -3.36064,-14.99115 -10.05664,-20.00391 -6.65946,-4.97627 -15.62767,-7.50781 -26.82422,-7.50781 z M 459,824.31055 c 5.63471,0.29307 10.07128,1.58234 13.29102,3.81445 3.2561,2.23185 4.82226,5.26213 4.82226,9.14062 0,3.65905 -1.31339,6.87921 -3.98242,9.66016 -2.67095,2.78057 -6.51913,4.65114 -11.45898,5.67578 L 459,853.18164 Z m 10.75,42.38281 c 0.59891,-0.008 1.18737,0.0103 1.76367,0.0527 2.30502,0.16842 4.42401,0.75232 6.36328,1.74024 3.8422,2.01242 5.82813,5.29497 5.82813,9.97851 0,5.34213 -2.34939,9.73581 -7.0332,13.13868 -4.64682,3.43941 -10.53673,5.1582 -17.67188,5.1582 v -28.10938 l 5.05078,-1.20507 c 2.00322,-0.47982 3.90248,-0.73038 5.69922,-0.75391 z"
       transform="translate(-252.435,-223.924)" /><path
       id="path132"
       style="vector-effect:none;fill:#031272;fill-opacity:1;fill-rule:nonzero;stroke:none;stroke-width:0.810214;stroke-linecap:butt;stroke-linejoin:miter;stroke-miterlimit:4;stroke-dasharray:none;stroke-dashoffset:0;stroke-opacity:1"
       d="m 114.82617,808.41016 -20.966795,104.1289 h 16.648435 l 3.73828,-19.5 h 23.19532 l 3.6914,19.5 h 17.27344 l -20.96484,-104.1289 z m 11.01758,24.0625 8.45313,44.49609 h -16.95313 z"
       transform="translate(-252.435,-223.924)" /><path
       id="path130"
       style="vector-effect:none;fill:#031272;fill-opacity:1;fill-rule:nonzero;stroke:none;stroke-width:0.810214;stroke-linecap:butt;stroke-linejoin:miter;stroke-miterlimit:4;stroke-dasharray:none;stroke-dashoffset:0;stroke-opacity:1"
       d="m 508.51758,808.41016 v 104.09961 h 16.80078 v -33.73829 l 1.93945,-0.62695 c 0.98649,-0.29307 1.97991,-0.61568 3.00586,-0.94531 0.98408,-0.32961 1.93568,-0.73194 2.95899,-1.09766 l 14.41992,36.40821 h 18.58594 l -18.29493,-44.17579 c 4.46419,-3.18331 7.97594,-7.0239 10.57422,-11.59765 2.56051,-4.57377 3.84571,-9.94813 3.84571,-16.20508 0,-5.04939 -0.92078,-9.58348 -2.82227,-13.53516 -1.86708,-3.95172 -4.49307,-7.31545 -7.85937,-10.13281 -3.36631,-2.74424 -7.40212,-4.87395 -12.08594,-6.30078 -4.64682,-1.42679 -9.75851,-2.15234 -15.32032,-2.15234 z m 16.80078,16.05273 c 6.76918,0.29306 11.82031,1.90889 15.25976,4.83594 3.40408,2.9272 5.12696,6.65866 5.12696,11.23242 0,4.86651 -1.53845,8.91927 -4.68555,12.17578 -3.10984,3.2931 -7.49645,5.92831 -13.16797,7.9043 l -2.5332,0.88476 z"
       transform="translate(-252.435,-223.924)" /><path
       id="path128"
       style="vector-effect:none;fill:#031272;fill-opacity:1;fill-rule:nonzero;stroke:none;stroke-width:0.810214;stroke-linecap:butt;stroke-linejoin:miter;stroke-miterlimit:4;stroke-dasharray:none;stroke-dashoffset:0;stroke-opacity:1"
       d="m 355.03906,808.41016 v 104.09961 h 16.78516 l 0.0156,-33.73829 1.93555,-0.62695 c 0.9865,-0.29307 1.97112,-0.61568 2.96094,-0.94531 0.98407,-0.32961 1.97135,-0.73194 2.96094,-1.09766 l 14.44921,36.40821 h 18.58594 l -18.2949,-44.17579 c 4.46419,-3.18331 7.97568,-7.0239 10.57422,-11.59765 2.56025,-4.57377 3.8457,-9.94813 3.8457,-16.20508 0,-5.04939 -0.9415,-9.58348 -2.80859,-13.53516 -1.90318,-3.95172 -4.50651,-7.31545 -7.87305,-10.13281 -3.40263,-2.74424 -7.42327,-4.87395 -12.07031,-6.30078 -4.64678,-1.42679 -9.77414,-2.15234 -15.33594,-2.15234 z m 16.78516,16.05273 c 6.73236,0.29306 11.82031,1.90889 15.25976,4.83594 3.40429,2.9272 5.12696,6.65866 5.12696,11.23242 0,4.86651 -1.57454,8.91927 -4.68555,12.17578 -3.11028,3.2931 -7.49644,5.92831 -13.16797,7.9043 l -2.5332,0.88476 z"
       transform="translate(-252.435,-223.924)" /><path
       id="path126"
       style="vector-effect:none;fill:#031272;fill-opacity:1;fill-rule:nonzero;stroke:none;stroke-width:0.810214;stroke-linecap:butt;stroke-linejoin:miter;stroke-miterlimit:4;stroke-dasharray:none;stroke-dashoffset:0;stroke-opacity:1"
       d="m 163.91602,808.41016 v 104.09961 h 16.78515 v -33.73829 l 1.9375,-0.62695 c 0.98646,-0.29307 1.98645,-0.61568 2.97461,-0.94531 0.98646,-0.32961 1.9735,-0.73194 2.96094,-1.09766 l 14.44922,36.40821 h 18.58594 l -18.29493,-44.17579 c 4.46416,-3.18331 7.97572,-7.0239 10.57422,-11.59765 2.56052,-4.57377 3.84571,-9.94813 3.84571,-16.20508 0,-5.04939 -0.95443,-9.58348 -2.82227,-13.53516 -1.90314,-3.95172 -4.4931,-7.31545 -7.85938,-10.13281 -3.40286,-2.74424 -7.42326,-4.87395 -12.07031,-6.30078 -4.64678,-1.42679 -9.7744,-2.15234 -15.33594,-2.15234 z m 16.78515,16.05273 c 6.73233,0.29306 11.82032,1.90889 15.25977,4.83594 3.40309,2.9272 5.12695,6.65866 5.12695,11.23242 0,4.86651 -1.57454,8.91927 -4.68555,12.17578 -3.11006,3.2931 -7.49671,5.92831 -13.16796,7.9043 l -2.53321,0.88476 z"
       transform="translate(-252.435,-223.924)" /><path
       id="path122"
       style="vector-effect:none;fill:#031272;fill-opacity:1;fill-rule:nonzero;stroke:none;stroke-width:0.810214;stroke-linecap:butt;stroke-linejoin:miter;stroke-miterlimit:4;stroke-dasharray:none;stroke-dashoffset:0;stroke-opacity:1"
       d="m 602.08789,806.89844 c -10.02596,0 -17.96896,4.47048 -23.89648,13.39844 -5.89194,8.92798 -8.82032,22.32178 -8.82032,40.17773 0,17.85588 2.92608,31.21554 8.74414,40.07031 5.85438,8.89142 13.87353,13.30664 23.97266,13.30664 10.09868,0 18.10799,-4.41522 23.92578,-13.30664 5.85514,-8.85477 8.77539,-22.21443 8.77539,-40.07031 0,-17.85595 -2.92378,-31.24975 -8.85156,-40.17773 -5.89096,-8.92796 -13.86065,-13.39844 -23.84961,-13.39844 z m 0,16.22265 c 4.86622,0 8.70253,3.14892 11.51953,9.36914 2.81843,6.25694 4.24219,15.58034 4.24219,27.98438 0,12.40395 -1.42448,21.69519 -4.24219,27.87891 -2.81726,6.18375 -6.65331,9.29296 -11.51953,9.29296 -4.86645,0 -8.72011,-3.10921 -11.53711,-9.29296 -2.85354,-6.18372 -4.24219,-15.47496 -4.24219,-27.87891 0,-12.40404 1.3908,-21.72744 4.24219,-27.98438 2.81749,-6.22022 6.67066,-9.36914 11.53711,-9.36914 z"
       transform="translate(-252.435,-223.924)" /><path
       style="vector-effect:none;fill:#031272;fill-opacity:1;fill-rule:nonzero;stroke:none;stroke-width:0.810214;stroke-linecap:butt;stroke-linejoin:miter;stroke-miterlimit:4;stroke-dasharray:none;stroke-dashoffset:0;stroke-opacity:1"
       d="M 45.473139,584.4708 V 688.60052 H 95.020087 V 672.53236 H 62.258181 V 643.08188 H 86.81042 V 626.5866 H 62.258181 v -26.06297 h 29.496431 l 3.265475,-16.05283 z"
       id="path110" /><path
       style="vector-effect:none;fill:#031272;fill-opacity:1;fill-rule:nonzero;stroke:none;stroke-width:0.810214;stroke-linecap:butt;stroke-linejoin:miter;stroke-miterlimit:4;stroke-dasharray:none;stroke-dashoffset:0;stroke-opacity:1"
       d="M -25.77292,584.4708 V 688.60052 H -9.4149646 V 623.91617 L 17.67058,688.60052 H 34.165959 V 584.4708 h -16.35822 v 64.7301 L -9.2621961,584.47065 Z"
       id="path108" /><path
       style="vector-effect:none;fill:#031272;fill-opacity:1;fill-rule:nonzero;stroke:none;stroke-width:0.810214;stroke-linecap:butt;stroke-linejoin:miter;stroke-miterlimit:4;stroke-dasharray:none;stroke-dashoffset:0;stroke-opacity:1"
       d="m -252.43501,584.4708 21.25619,104.12972 h 16.93807 l 12.66517,-66.19501 12.65001,66.19501 h 16.953 l 21.39358,-104.12972 h -16.78531 l -13.24502,67.69038 -12.77201,-67.69038 h -15.7781 l -12.80255,67.69038 -13.06217,-67.69038 z"
       id="path106" /><path
       style="vector-effect:none;fill:#031272;fill-opacity:1;fill-rule:nonzero;stroke:none;stroke-width:0.810214;stroke-linecap:butt;stroke-linejoin:miter;stroke-miterlimit:4;stroke-dasharray:none;stroke-dashoffset:0;stroke-opacity:1"
       d="m 416.29,583.43306 c -3.58549,0 -6.94893,0.6968 -10.13213,2.0141 -3.18342,1.35389 -5.91863,3.18231 -8.22482,5.52387 -2.34108,2.30523 -4.20934,5.12091 -5.60005,8.37741 -1.39068,3.29309 -2.09084,6.83346 -2.09084,10.71203 0,4.57376 1.06345,9.11385 3.11293,13.68759 2.08604,4.57377 5.78461,8.8143 11.01726,12.80266 l 12.36012,9.1861 c 3.03689,2.41493 5.57046,4.94322 7.50731,7.61441 1.93686,2.67105 2.88413,5.63356 2.88413,8.92664 0,2.96386 -1.02256,5.56552 -3.03667,7.79756 -2.04994,2.23208 -4.67856,3.35708 -7.93463,3.35708 -4.28156,0 -7.68397,-1.49199 -10.20862,-4.45571 -2.52465,-3.00043 -4.54262,-7.06354 -6.04279,-12.22279 l -13.97742,8.48421 c 2.59828,8.34257 6.43473,14.49685 11.52088,18.44856 5.12243,3.98811 11.20925,5.96639 18.23468,5.96639 3.76879,0 7.34899,-0.7798 10.78844,-2.24316 3.43945,-1.50017 6.40464,-3.50272 9.00295,-6.0274 2.56097,-2.52479 4.60373,-5.5667 6.10387,-9.07931 1.4629,-3.51263 2.24243,-7.322 2.24243,-11.38347 0,-5.63489 -1.33051,-10.74662 -3.89103,-15.32039 -2.56123,-4.53717 -6.54471,-8.82039 -11.88707,-12.7721 l -11.15441,-8.34685 c -3.36605,-2.4515 -5.89339,-5.00729 -7.53816,-7.56862 -1.60963,-2.59783 -2.45681,-5.2759 -2.45681,-8.05693 0,-2.48806 0.80364,-4.60367 2.30502,-6.46992 1.53744,-1.82932 3.6632,-2.71618 6.33245,-2.71618 3.47626,0 6.2213,1.2841 8.27052,3.84536 2.05236,2.5979 3.62952,6.00373 4.83738,10.28483 l 14.40474,-8.63681 c -2.48811,-7.6473 -5.99177,-13.16883 -10.52887,-16.57168 -4.5741,-3.43941 -10.00022,-5.15759 -16.22079,-5.15759 z"
       id="path104" /></g><g
     id="g100"><path
       sodipodi:nodetypes="cccccccccscscsccccccccczc"
       inkscape:connector-curvature="0"
       id="path68559-0-5"
       d="m 103.34454,-223.70855 -147.908902,27.39052 c -1.467705,0.29858 -2.516751,1.5555 -2.945236,3.86064 l -6.958039,30.01513 -56.780023,15.3204 c -1.58797,0.29858 -1.98977,1.42099 -2.31942,3.09759 l -7.7364,31.55631 -55.39146,14.542119 c -1.46766,0.298583 -2.21835,1.494161 -2.94497,4.638843 -4.54141,23.771729 -6.9583,49.07004 -6.9583,74.419756 0,221.271582 115.261777,413.404552 287.31821,527.896672 2.33627,1.49704 4.70094,3.09769 6.17994,3.09769 1.47973,0 3.86,-1.60074 6.19507,-3.09769 172.0562,-114.49212 287.30282,-306.62509 287.30282,-527.896672 0,-25.349716 -2.41833,-50.648027 -6.95804,-74.419756 -0.72903,-3.144795 -1.47972,-4.340601 -2.94406,-4.638843 l -55.39169,-14.541849 -7.73662,-31.55628 c -0.32731,-1.67652 -0.73145,-2.79931 -2.31704,-3.09759 l -56.77999,-15.3204 -6.95803,-30.01513 c -0.42826,-2.30498 -1.47973,-3.5624 -2.94403,-3.8606 l -147.9089,-27.37528 c -1.18617,-0.15156 -2.37238,-0.22375 -3.55518,-0.23093 -1.18375,-0.003 -2.36753,0.0624 -3.55563,0.21165 z"
       style="vector-effect:none;fill:#0143af;fill-opacity:1;fill-rule:nonzero;stroke:none;stroke-width:0.810214;stroke-linecap:butt;stroke-linejoin:miter;stroke-miterlimit:4;stroke-dasharray:none;stroke-dashoffset:0;stroke-opacity:1" /><path
       inkscape:connector-curvature="0"
       d="m 85.425034,407.25368 c 0,1.49705 -1.585589,2.39498 -3.167813,0.59887 C 40.114182,359.47868 11.702174,300.32948 -7.520929,235.79707 l -29.152569,18.47291 c -7.709447,5.38918 -13.943025,3.05387 -18.484696,-5.38918 -39.185784,-69.18206 -64.534896,-182.830817 -66.858666,-262.680434 0,-3.892182 0.74827,-6.227489 3.90716,-10.029858 9.92807,-12.245392 22.179642,-24.61058 33.798936,-35.382931 2.215938,-2.095636 4.541861,-0.598866 4.541861,3.173595 0,98.226752 16.901035,189.696048 43.832829,249.581778 2.215976,4.64068 4.541898,4.64068 7.709711,2.39498 l 8.344143,-5.38916 C -35.936074,119.15116 -45.232281,23.879494 -42.909004,-85.966881 c 0,-3.802395 0.837279,-5.389193 3.062893,-6.975991 8.449063,-5.26942 23.871055,-13.832208 36.8620158,-19.131558 3.90693744,-1.49704 4.6465536,-0.89821 4.6465536,2.09563 -2.3362784,159.807092 10.7723396,270.39 39.1855566,358.79644 0.748272,2.39498 3.062893,1.49705 3.062893,-0.59886 -1.588007,-32.3201 -1.588007,-60.73302 -1.588007,-95.27168 l -1.467667,-275.77611 c 0,-3.0539 0.748272,-4.6407 3.802283,-5.38919 13.095616,-3.05386 24.610444,-5.3892 38.446167,-6.85622 1.585589,0 2.336279,0.59887 2.336279,2.09567 z m 46.039656,0.32916 c -1.58559,1.49704 -3.06289,0.59887 -3.06289,-0.59886 v -540.04017 c 0,-1.49703 0.74585,-2.0959 2.33624,-2.0959 102.87475,6.85626 168.9938,49.852901 168.9938,112.064962 0,26.1973891 -10.03272,51.5415 -26.93399,69.921579 33.79916,9.191521 46.89595,34.535632 46.89595,68.334749 0,59.9935 -43.83305,159.06753 -188.21732,292.67721 M 254.37647,-25.611045 c 0,-30.736268 -35.27768,-56.08338 -82.17314,-59.149221 V 75.786282 C 231.35085,41.247668 254.37647,6.6042207 254.37647,-25.611045 m -6.14673,115.199621 c -16.16138,0 -30.73551,6.137672 -76.04712,38.445794 v 173.53449 c 78.37062,-87.55916 100.65685,-147.44492 100.65685,-178.18117 0,-21.5567 -10.03273,-33.799114 -24.61067,-33.799114"
       style="fill:#ffffff;fill-opacity:1;fill-rule:nonzero;stroke:none;stroke-width:105.621"
       id="path68666-2" /></g><g
     aria-label="PICTURES"
     id="text21"
     style="font-weight:bold;font-size:19.0503px;font-family:'Warner Bros. Sans';-inkscape-font-specification:'Warner Bros. Sans Bold';display:inline;fill:#031272;fill-opacity:1;stroke-width:0.360005;stop-color:#000000"
     transform="matrix(3.7795295,0,0,3.7795295,1517.549,332.26638)"><path
       d="M -419.99011,117.23853 V 103.8996 h 5.10675 q 2.66964,0 4.12074,1.17204 1.4604,1.17204 1.4604,3.22776 0,0.89299 -0.32557,1.66504 -0.31626,0.76276 -0.89298,1.37669 -0.56742,0.60462 -1.34878,1.06041 -0.78136,0.4558 -1.72085,0.74416 l -2.87429,0.85577 v 3.23706 z m 3.52542,-6.3811 1.59993,-0.4744 q 1.06972,-0.32557 1.54412,-0.80927 0.47439,-0.493 0.47439,-1.13483 0,-0.58602 -0.46509,-1.04181 -0.4651,-0.4651 -1.49761,-0.4651 h -1.65574 z"
       style="fill:#031272;fill-opacity:1;stroke-width:0.360005"
       id="path44-3" /><path
       d="M -407.50949,117.23853 V 103.8996 h 3.61844 v 13.33893 z"
       style="fill:#031272;fill-opacity:1;stroke-width:0.360005"
       id="path46" /><path
       d="m -402.05802,110.56907 q 0,-1.56272 0.493,-2.83708 0.493,-1.27436 1.35808,-2.15805 0.87438,-0.89298 2.05572,-1.37668 1.18134,-0.4837 2.53012,-0.4837 1.81387,0 3.31148,0.89299 1.50691,0.89298 2.26966,2.4371 l -2.89289,1.9627 q -0.39998,-1.03251 -1.11623,-1.59063 -0.71625,-0.55811 -1.57202,-0.55811 -1.10693,0 -1.9348,0.94879 -0.82787,0.93949 -0.82787,2.76267 0,1.81387 0.82787,2.76266 0.82787,0.9395 1.9348,0.9395 0.85577,0 1.57202,-0.55812 0.71625,-0.56741 1.11623,-1.59993 l 2.9301,1.88829 q -0.81857,1.54412 -2.35338,2.47431 -1.53482,0.93019 -3.30218,0.93019 -1.34877,0 -2.53012,-0.4837 -1.18134,-0.4837 -2.03711,-1.35808 -0.84648,-0.87438 -1.33948,-2.14874 -0.493,-1.28366 -0.493,-2.84638 z"
       style="fill:#031272;fill-opacity:1;stroke-width:0.360005"
       id="path48" /><path
       d="m -389.48502,106.89482 v -2.99522 h 12.28782 v 2.99522 h -4.32539 v 10.34371 h -3.61844 v -10.34371 z"
       style="fill:#031272;fill-opacity:1;stroke-width:0.360005"
       id="path50" /><path
       d="m -375.96902,112.1876 v -8.288 h 3.61844 v 8.12056 q 0,1.08833 0.59532,1.68365 0.60463,0.58602 1.57203,0.58602 1.03251,0 1.62783,-0.58602 0.60462,-0.59532 0.60462,-1.68365 v -8.12056 h 3.61844 v 8.288 q 0,1.25576 -0.41858,2.23246 -0.41859,0.96739 -1.18134,1.63713 -0.76276,0.66974 -1.84178,1.01391 -1.06972,0.33487 -2.36268,0.33487 -1.31157,0 -2.39059,-0.33487 -1.07903,-0.34417 -1.84178,-1.01391 -0.76276,-0.66974 -1.18134,-1.63713 -0.41859,-0.9767 -0.41859,-2.23246 z"
       style="fill:#031272;fill-opacity:1;stroke-width:0.360005"
       id="path52" /><path
       d="M -362.02702,117.23853 V 103.8996 h 5.19977 q 2.65104,0 4.10214,1.13483 1.4604,1.13484 1.4604,3.11614 0,1.18134 -0.62323,2.17665 -0.61393,0.986 -1.73016,1.65574 l 3.07894,5.25557 h -4.03703 l -2.25106,-4.01842 -1.67435,0.54881 v 3.46961 z m 3.52542,-6.39971 1.75806,-0.59532 q 1.06972,-0.36277 1.51622,-0.85577 0.44649,-0.49301 0.44649,-1.06042 0,-0.54881 -0.4651,-0.9674 -0.45579,-0.42789 -1.44179,-0.42789 h -1.81388 z"
       style="fill:#031272;fill-opacity:1;stroke-width:0.360005"
       id="path54" /><path
       d="M -349.36202,117.23853 V 103.8996 h 10.19489 l -0.66974,2.99522 h -5.98113 v 2.34408 h 5.59975 v 2.70685 h -5.59975 v 2.36268 h 6.65087 v 2.9301 z"
       style="fill:#031272;fill-opacity:1;stroke-width:0.360005"
       id="path56" /><path
       d="m -338.14602,114.93166 2.26967,-2.32548 q 0.61392,0.85578 1.51621,1.4325 0.90228,0.56741 2.19525,0.56741 0.89298,0 1.29296,-0.31626 0.39998,-0.32557 0.39998,-0.68834 0,-0.39998 -0.32556,-0.66974 -0.31627,-0.26975 -0.9674,-0.4744 l -2.39989,-0.76275 q -1.88829,-0.58602 -2.70686,-1.57202 -0.81856,-0.99531 -0.81856,-2.19525 0,-1.9255 1.38598,-3.06033 1.39528,-1.13483 3.70216,-1.13483 1.81387,0 3.25566,0.60462 1.4511,0.59532 2.4185,1.81387 l -2.29757,2.38129 q -0.53021,-0.78136 -1.41389,-1.33947 -0.87438,-0.56742 -2.05572,-0.56742 -0.65114,0 -1.02321,0.26976 -0.37208,0.26975 -0.37208,0.68834 0,0.36277 0.33487,0.65113 0.33487,0.27906 1.22785,0.54881 l 1.90689,0.56742 q 2.19525,0.66974 3.05103,1.63713 0.85577,0.9581 0.85577,2.15805 0,0.87437 -0.34417,1.65573 -0.34417,0.78136 -1.03251,1.36738 -0.67904,0.57672 -1.73015,0.92089 -1.05112,0.33487 -2.4371,0.33487 -1.98131,0 -3.48822,-0.65113 -1.50691,-0.66044 -2.39989,-1.84178 z"
       style="fill:#031272;fill-opacity:1;stroke-width:0.360005"
       id="path58" /></g></g></svg>
