<?xml version="1.0" encoding="UTF-8" standalone="no"?>
<!-- Generator: Adobe Illustrator 27.9.5, SVG Export Plug-In . SVG Version: 9.03 Build 54986)  -->

<svg
   version="1.1"
   id="iconfont"
   x="0px"
   y="0px"
   viewBox="0 0 1000 179.9004"
   xml:space="preserve"
   sodipodi:docname="HoYoLAB_logo.svg"
   inkscape:version="1.3.2 (091e20e, 2023-11-25, custom)"
   width="1000"
   height="179.90039"
   xmlns:inkscape="http://www.inkscape.org/namespaces/inkscape"
   xmlns:sodipodi="http://sodipodi.sourceforge.net/DTD/sodipodi-0.dtd"
   xmlns="http://www.w3.org/2000/svg"
   xmlns:svg="http://www.w3.org/2000/svg"><defs
   id="defs1">
	
	
	
	
	
	
	
</defs>
<style
   type="text/css"
   id="style1">
	.st0{fill:#6680FF;enable-background:new    ;}
</style>
<sodipodi:namedview
   bordercolor="#000000"
   borderopacity="0.25"
   id="namedview12"
   inkscape:current-layer="iconfont"
   inkscape:cx="608"
   inkscape:cy="7"
   inkscape:deskcolor="#d1d1d1"
   inkscape:pagecheckerboard="0"
   inkscape:pageopacity="0.0"
   inkscape:showpageshadow="2"
   inkscape:window-height="705"
   inkscape:window-maximized="1"
   inkscape:window-width="1366"
   inkscape:window-x="-8"
   inkscape:window-y="-8"
   inkscape:zoom="0.5"
   pagecolor="#ffffff"
   showgrid="false"
   showguides="true">
	
		<inkscape:grid
   color="#0099e5"
   dotted="false"
   empcolor="#0099e5"
   empopacity="0.30196078"
   empspacing="5"
   gridanglex="30"
   gridanglez="30"
   id="grid39"
   opacity="0.14902"
   originx="0"
   originy="1.3431444e-30"
   spacingx="1"
   spacingy="0.99999998"
   units="px"
   visible="false">
		</inkscape:grid>
</sodipodi:namedview>
<path
   id="path8"
   class="st0"
   d="M 9,0 C 4.000015,0 0,4.000015 0,9 v 159.80078 c 0,5 4.000015,9 9,9 h 16.699219 c 4.999985,0 9,-4 9,-9 V 107.5 h 79.701171 v 61.19922 c 0,4.99997 4.00003,9 9,9 h 16.69922 c 4.99997,0 9,-4.00003 9,-9 V 9 c 0,-4.999985 -4.00003,-9 -9,-9 h -16.69922 c -4.99997,0 -9,4.000015 -9,9 V 72.300781 H 34.699219 V 9 c 0,-4.999985 -4.000015,-9 -9,-9 z m 280.80078,0 c -5.39992,0 -8.78523,5.8908843 -6,10.599609 l 61.39844,103.800781 v 54.29883 c 0,4.99992 4,9 9,9 h 16.70117 c 5,0 9,-4.00008 9,-9 v -55 L 440.59961,10.599609 c 2.74997,-4.670904 -0.60008,-10.49999963 -6,-10.49999963 H 412.5 c -4.3,0 -8.37659,2.31267113 -10.5,6.09960943 L 362.30078,77 322.69922,6.0996094 C 320.58206,2.3091747 316.59914,0 312.19922,0 Z M 585,0 c -5,0 -9,4.00001 -9,9 v 131.80078 c 0,20.39996 16.60004,37 37,37 h 61.90039 c 5,0 9,-4 9,-9 v -17.10156 c 0,-5 -4,-9 -9,-9 h -57.20117 c -3.9,0 -7,-3.10002 -7,-7 V 9 c 0,-4.99999 -4.00002,-9 -9,-9 z M 775.30078,0 C 770.00083,0 765.15888,3.0353091 763,7.9003906 L 692,167.90039 c -2.05103,4.62204 1.30044,9.79883 6.40039,9.79883 H 719.5 c 4.5,0 8.50368,-2.69699 10.19922,-6.79883 L 775.5,60.099609 821.40039,170.90039 c 1.69869,4.10054 5.79922,6.79883 10.19922,6.79883 h 20.59961 c 5.09995,0 8.45382,-5.17786 6.40039,-9.79883 L 787.5,7.9003906 C 785.35582,3.075222 780.60078,0 775.30078,0 Z m 104.09961,0 c -5.49997,0 -10,4.5000165 -10,10 v 157.80078 c 0,5.5 4.50003,10 10,10 H 951 c 27.09991,0 49,-21.90009 49,-49 v -6.40039 c 0,-13.49997 -5.30003,-25.701198 -14,-34.701171 4.8,-7.199979 7.69922,-15.799637 7.69922,-25.09961 V 50 c 0,-27.599916 -22.40009,-50 -50,-50 z m 24.69922,35.300781 H 945 c 7.69997,0 14,6.300024 14,14 v 9.09961 c 0,7.699976 -6.30003,14 -14,14 H 904.09961 Z M 226.5,39.599609 c -31.49994,0 -57,25.500064 -57,57 v 26.300781 c 0,31.49994 25.50006,57 57,57 h 20.90039 c 31.49994,0 57,-25.50006 57,-57 V 96.599609 c 0,-31.499936 -25.50006,-57 -57,-57 z m 251.30078,0 c -31.49994,0 -57,25.500064 -57,57 v 26.300781 c 0,31.49994 25.50006,57 57,57 h 20.89844 c 31.49994,0 57,-25.50006 57,-57 V 96.599609 c 0,-31.499936 -25.50006,-57 -57,-57 z m -253.60156,35.09961 h 25.5 c 10.99998,0 20,9.000022 20,20 v 30.201171 c 0,10.99998 -9.00002,20 -20,20 h -25.5 c -10.99998,0 -20,-9.00002 -20,-20 V 94.699219 c 0,-11.099978 8.90002,-20 20,-20 z m 251.30078,0 H 501 c 10.99998,0 20,9.000022 20,20 v 30.201171 c 0,10.99998 -9.00002,20 -20,20 h -25.5 c -10.99998,0 -20,-9.00002 -20,-20 V 94.699219 c 0,-11.099978 8.90002,-20 20,-20 z m 428.59961,32.900391 h 47.20117 c 7.69997,0 14,6.30003 14,14 v 7.09961 c 0,7.69997 -6.30003,14 -14,14 h -47.20117 z" />
</svg>
