<?xml version="1.0"?>
<svg
   width="80.874443mm"
   height="81.254951mm"
   viewBox="0 0 80.874443 81.254951"
   xmlns="http://www.w3.org/2000/svg">

  <g
     transform="translate(-114.3,-67.997915)">
    <path
       id="path39"
       d="m 457.328,668.514 c -0.468,-0.303 -1.044,-0.612 -1.598,-0.642 -0.521,-10e-4 -0.819,0.312 -0.936,0.637 -0.164,0.45 0.021,0.874 0.42,1.115 0.26,0.154 0.544,0.265 0.819,0.397 0.777,0.374 1.187,1.144 1.266,1.948 0.234,2.45 -1.933,3.537 -2.907,1.698 -0.349,-0.656 -0.763,-2.733 -1.265,-3.806 -0.502,-1.072 -1.383,-1.794 -2.695,-1.776 -1.425,0.012 -2.298,0.764 -2.842,1.734 -0.762,1.355 -0.712,3.103 0.008,4.467 0.413,0.781 1.258,1.734 2.23,1.945 0.521,0.074 0.987,-0.112 1.139,-0.559 0.15,-0.456 -0.003,-0.966 -0.469,-1.237 -0.169,-0.099 -0.334,-0.204 -0.502,-0.301 -1.084,-0.66 -1.505,-2.326 -0.847,-3.313 0.556,-0.925 1.775,-0.982 2.249,-0.01 0.354,0.731 0.573,1.374 0.776,2.333 0.501,2.348 1.775,3.241 2.903,3.385 1.189,0.154 2.544,-0.279 3.377,-1.697 1.368,-2.328 0.455,-5.212 -1.126,-6.318"
       style="fill:#295e87;fill-opacity:1;fill-rule:evenodd;stroke:none"
       transform="matrix(0,0.35277776,0.35277776,0,-67.223422,-21.761096)"
       clip-path="none" />
    <path
       id="path41"
       d="m 452.181,602.255 h -2.997 v 3.131 c 0,0.766 0.544,1.613 1.498,1.613 0.912,0 1.499,-0.809 1.499,-1.613 z m 5.407,6.967 v 10e-4 l -3.829,-2.342 c -0.219,0.568 -0.619,1.188 -1.209,1.619 -1.189,0.87 -2.531,0.74 -3.277,0.352 -0.83,-0.424 -2.066,-1.419 -2.066,-3.346 v -4.333 c 0,-0.597 0.486,-1.081 1.081,-1.081 h 9.718 c 0.599,0 1.083,0.484 1.083,1.081 0,0.597 -0.484,1.082 -1.083,1.082 H 454 v 2.461 l 4.616,2.825 c 0.466,0.283 0.614,0.889 0.329,1.355 -0.284,0.463 -0.893,0.61 -1.357,0.326"
       style="fill:#295e87;fill-opacity:1;fill-rule:evenodd;stroke:none"
       transform="matrix(0,0.35277776,0.35277776,0,-67.223422,-21.761096)"
       clip-path="none" />
    <path
       id="path43"
       d="m 452.181,701.32 h -2.997 v 3.131 c 0,0.764 0.544,1.614 1.498,1.614 0.912,0 1.499,-0.81 1.499,-1.614 z m 5.407,6.965 -3.829,-2.339 c -0.219,0.567 -0.619,1.186 -1.209,1.616 -1.189,0.872 -2.531,0.741 -3.277,0.355 -0.83,-0.425 -2.066,-1.419 -2.066,-3.348 v -4.333 c 0,-0.597 0.486,-1.079 1.081,-1.079 h 9.718 c 0.599,0 1.083,0.482 1.083,1.079 0,0.599 -0.484,1.084 -1.083,1.084 H 454 v 2.462 l 4.616,2.822 c 0.466,0.283 0.614,0.891 0.329,1.356 -0.284,0.463 -0.893,0.609 -1.357,0.325"
       style="fill:#295e87;fill-opacity:1;fill-rule:evenodd;stroke:none"
       transform="matrix(0,0.35277776,0.35277776,0,-67.223422,-21.761096)"
       clip-path="none" />
    <path
       id="path45"
       d="m 447.235,631.369 c 0,-0.599 0.485,-1.081 1.082,-1.081 h 3.549 v -5.092 h -3.549 c -0.597,0 -1.082,-0.482 -1.082,-1.08 0,-0.598 0.485,-1.082 1.082,-1.082 h 9.67 c 0.596,0 1.08,0.484 1.08,1.082 0,0.598 -0.484,1.08 -1.08,1.08 h -4.129 v 5.092 h 4.129 c 0.596,0 1.08,0.482 1.08,1.081 0,0.599 -0.484,1.083 -1.08,1.083 h -9.67 c -0.597,0 -1.082,-0.484 -1.082,-1.083"
       style="fill:#295e87;fill-opacity:1;fill-rule:evenodd;stroke:none"
       transform="matrix(0,0.35277776,0.35277776,0,-67.223422,-21.761096)"
       clip-path="none" />
    <path
       id="path47"
       d="m 447.235,654.697 c 0,-0.596 0.485,-1.082 1.082,-1.082 h 6.86 l -7.271,-4.894 c -0.39,-0.24 -0.671,-0.645 -0.671,-1.135 0,-0.718 0.583,-1.3 1.3,-1.3 h 9.452 c 0.596,0 1.08,0.483 1.08,1.082 0,0.598 -0.484,1.084 -1.08,1.084 h -6.653 l 7.092,4.772 c 0.385,0.247 0.641,0.678 0.641,1.169 0,0.765 -0.622,1.386 -1.386,1.386 h -9.364 c -0.597,0 -1.082,-0.483 -1.082,-1.082"
       style="fill:#295e87;fill-opacity:1;fill-rule:evenodd;stroke:none"
       transform="matrix(0,0.35277776,0.35277776,0,-67.223422,-21.761096)"
       clip-path="none" />
    <path
       id="path49"
       d="m 447.233,665.728 v -7.567 c 0,-0.569 0.459,-1.03 1.03,-1.03 0.569,0 1.032,0.461 1.032,1.03 v 2.721 h 8.687 c 0.598,0 1.082,0.485 1.082,1.083 0,0.597 -0.484,1.082 -1.082,1.082 h -8.687 v 2.681 c 0,0.57 -0.463,1.03 -1.032,1.03 -0.571,0 -1.03,-0.46 -1.03,-1.03"
       style="fill:#295e87;fill-opacity:1;fill-rule:evenodd;stroke:none"
       transform="matrix(0,0.35277776,0.35277776,0,-67.223422,-21.761096)"
       clip-path="none" />
    <path
       id="path51"
       d="m 453.76,696.846 c -0.519,-0.009 -0.94,-0.434 -0.94,-0.956 v -3.591 c 0,-0.529 0.43,-0.962 0.957,-0.962 0.532,0 0.962,0.433 0.962,0.962 l -0.003,0.074 v 2.363 h 0.765 c 0.978,0 1.512,-1.36 1.326,-3.069 -0.205,-1.857 -1.68,-3.383 -3.753,-3.383 -2.07,0 -3.75,1.514 -3.75,3.383 0,1.097 0.582,2.068 1.477,2.687 l 0.007,0.004 c 0.55,0.362 0.831,0.709 0.862,1.145 0.047,0.688 -0.4,1.321 -1.085,1.189 -0.122,-0.024 -0.12,-0.023 -0.186,-0.04 -0.113,-0.035 -0.192,-0.066 -0.259,-0.096 -1.746,-0.978 -2.975,-2.821 -2.975,-4.889 0,-3.108 2.647,-5.672 5.909,-5.629 3.482,0.049 5.642,2.533 5.912,5.629 0.184,2.101 -0.775,5.041 -3.018,5.18 h -2.208"
       style="fill:#295e87;fill-opacity:1;fill-rule:evenodd;stroke:none"
       transform="matrix(0,0.35277776,0.35277776,0,-67.223422,-21.761096)"
       clip-path="none" />
    <path
       id="path53"
       d="m 456.973,715.367 c 0,-1.865 -1.703,-3.378 -3.806,-3.378 -2.104,0 -3.808,1.513 -3.808,3.378 0,1.866 1.704,3.378 3.808,3.378 2.103,0 3.806,-1.512 3.806,-3.378 m -9.805,0 c 0,-3.105 2.686,-5.623 5.999,-5.623 3.314,0 6.001,2.518 6.001,5.623 0,3.104 -2.687,5.62 -6.001,5.62 -3.313,0 -5.999,-2.516 -5.999,-5.62"
       style="fill:#295e87;fill-opacity:1;fill-rule:evenodd;stroke:none"
       transform="matrix(0,0.35277776,0.35277776,0,-67.223422,-21.761096)"
       clip-path="none" />
    <path
       id="path55"
       d="m 448.217,732.442 c -0.597,0 -1.081,-0.486 -1.081,-1.084 0,-0.598 0.484,-1.087 1.081,-1.087 h 6.768 c 0.954,0 2.195,-0.945 2.195,-2.51 0,-1.57 -1.155,-2.513 -2.195,-2.513 h -6.768 c -0.597,0 -1.081,-0.493 -1.081,-1.091 0,-0.596 0.484,-1.082 1.081,-1.082 h 6.599 c 2.233,0 4.193,1.689 4.193,4.719 0,3.03 -1.96,4.648 -4.193,4.648"
       style="fill:#295e87;fill-opacity:1;fill-rule:evenodd;stroke:none"
       transform="matrix(0,0.35277776,0.35277776,0,-67.223422,-21.761096)"
       clip-path="none" />
    <path
       id="path57"
       d="m 453.82,597.293 c 0,0.544 -0.441,0.984 -0.985,0.984 -0.544,0 -0.985,-0.44 -0.985,-0.984 v -5.363 h -2.673 v 5.363 c 0,0.544 -0.441,0.984 -0.984,0.984 -0.546,0 -0.986,-0.44 -0.986,-0.984 h -10e-4 v -6.651 h 10e-4 c 0,-0.544 0.44,-0.985 0.986,-0.985 h 9.745 c 0.544,0 0.986,0.441 0.986,0.985 v 6.651 c 0,0.544 -0.442,0.984 -0.986,0.984 -0.544,0 -0.985,-0.44 -0.985,-0.984 v -5.363 h -3.133"
       style="fill:#295e87;fill-opacity:1;fill-rule:evenodd;stroke:none"
       transform="matrix(0,0.35277776,0.35277776,0,-67.223422,-21.761096)"
       clip-path="none" />
    <path
       id="path59"
       d="m 448.182,587.232 c -0.74,-0.101 -1.309,-0.734 -1.309,-1.501 0,-0.683 0.45,-1.261 1.071,-1.451 l 6.981,-2.452 -6.998,-2.458 c -0.612,-0.195 -1.054,-0.768 -1.054,-1.444 0,-0.766 0.567,-1.398 1.305,-1.501 0.045,-0.006 0.131,-0.015 0.251,-0.015 h 9.558 c 0.596,0 1.08,0.485 1.08,1.081 0,0.597 -0.484,1.083 -1.08,1.083 h -5.773 l 6.06,2.225 c 0.011,0.004 0.748,0.244 0.748,1.031 0,0.784 -0.771,1.035 -0.782,1.038 l -6.026,2.214 h 5.773 c 0.596,0 1.08,0.485 1.08,1.082 0,0.596 -0.484,1.082 -1.08,1.082 h -9.566 c -0.104,0 -0.195,-0.007 -0.239,-0.014"
       style="fill:#295e87;fill-opacity:1;fill-rule:evenodd;stroke:none"
       transform="matrix(0,0.35277776,0.35277776,0,-67.223422,-21.761096)"
       clip-path="none" />
    <path
       id="path61"
       d="m 454.403,560.089 -4.058,1.562 4.058,1.562 z m 3.222,6.683 -9.378,-3.607 c -0.588,-0.247 -1.002,-0.829 -1.002,-1.509 0,-0.665 0.396,-1.236 0.963,-1.493 l 9.417,-3.635 c 0.557,-0.215 1.182,0.066 1.398,0.621 0.214,0.559 -0.064,1.185 -0.622,1.399 l -2.107,0.813 v 4.58 l 2.107,0.811 c 0.558,0.214 0.836,0.84 0.622,1.397 -0.216,0.559 -0.841,0.835 -1.398,0.623 m -10.39,-12.859 c 0,-0.597 0.484,-1.081 1.081,-1.081 h 6.86 l -7.273,-4.895 c -0.398,-0.222 -0.668,-0.645 -0.668,-1.134 0,-0.719 0.582,-1.301 1.299,-1.301 h 9.453 c 0.596,0 1.08,0.485 1.08,1.083 0,0.598 -0.484,1.082 -1.08,1.082 h -6.653 l 7.115,4.79 0.013,0.009 0.019,0.012 -10e-4,0.001 c 0.354,0.251 0.587,0.664 0.587,1.13 0,0.767 -0.621,1.387 -1.386,1.387 h -9.365 c -0.597,0 -1.081,-0.485 -1.081,-1.083 m 0,-16.936 c 0,-0.597 0.484,-1.084 1.081,-1.084 h 3.55 v -5.088 h -3.55 c -0.597,0 -1.081,-0.484 -1.081,-1.084 0,-0.597 0.484,-1.079 1.081,-1.079 h 9.671 c 0.596,0 1.08,0.482 1.08,1.079 0,0.6 -0.484,1.084 -1.08,1.084 h -4.129 v 5.088 h 4.129 c 0.596,0 1.08,0.487 1.08,1.084 0,0.598 -0.484,1.081 -1.08,1.081 h -9.671 c -0.597,0 -1.081,-0.483 -1.081,-1.081 m 7.143,-11.781 c 0.088,-0.456 0.349,-0.617 0.959,-1.035 0.897,-0.57 1.499,-1.512 1.462,-2.527 -0.059,-1.644 -1.556,-3.106 -3.627,-3.106 -2.015,0 -3.847,1.402 -3.847,3.132 0,1.019 0.595,1.864 1.491,2.435 0.553,0.307 0.761,0.608 0.854,1.002 0.13,0.562 -0.266,1.303 -1.11,1.235 -0.218,-0.016 -0.441,-0.129 -0.441,-0.129 -1.799,-0.882 -2.978,-2.651 -2.978,-4.569 0,-2.879 2.67,-5.212 5.933,-5.212 3.265,0 5.912,2.333 5.912,5.212 0,1.9 -1.11,3.571 -2.866,4.503 l -0.112,0.06 c -0.103,0.051 -0.264,0.121 -0.446,0.162 -0.891,0.2 -1.285,-0.625 -1.184,-1.163 m -7.143,16.556 c 0,-0.598 0.484,-1.085 1.081,-1.085 h 9.671 c 0.596,0 1.08,0.487 1.08,1.085 0,0.596 -0.484,1.079 -1.08,1.079 h -9.671 c -0.597,0 -1.081,-0.483 -1.081,-1.079"
       style="fill:#295e87;fill-opacity:1;fill-rule:evenodd;stroke:none"
       transform="matrix(0,0.35277776,0.35277776,0,-67.223422,-21.761096)"
       clip-path="none" />
    <path
       id="path63"
       d="m 454.403,637.667 -4.058,1.562 4.058,1.563 z m 3.222,6.683 -0.037,-0.015 -9.226,-3.548 c -0.65,-0.216 -1.117,-0.83 -1.117,-1.553 0,-0.737 0.482,-1.324 1.152,-1.566 l 9.191,-3.546 v 0.001 l 0.037,-0.016 c 0.557,-0.214 1.182,0.065 1.398,0.622 0.214,0.557 -0.064,1.186 -0.622,1.398 l -0.035,0.012 0.001,0.003 -2.073,0.797 v 4.58 l 2.073,0.798 -0.001,10e-4 0.035,0.012 c 0.558,0.217 0.836,0.841 0.622,1.4 -0.216,0.556 -0.841,0.832 -1.398,0.62"
       style="fill:#295e87;fill-opacity:1;fill-rule:evenodd;stroke:none"
       transform="matrix(0,0.35277776,0.35277776,0,-67.223422,-21.761096)"
       clip-path="none" />
    <path
       id="path65"
       d="m 452.529,737.015 h -3.345 v 2.781 c 0,0.766 0.716,1.614 1.673,1.614 0.91,0 1.672,-0.81 1.672,-1.614 z m -5.322,2.904 v -3.987 c 0,-0.596 0.485,-1.083 1.081,-1.083 h 9.718 c 0.599,0 1.083,0.487 1.083,1.083 0,0.6 -0.484,1.083 -1.083,1.083 h -3.657 v 2.935 c 0,2.305 -1.972,3.584 -3.568,3.584 -2.051,0 -3.574,-1.69 -3.574,-3.615"
       style="fill:#295e87;fill-opacity:1;fill-rule:evenodd;stroke:none"
       transform="matrix(0,0.35277776,0.35277776,0,-67.223422,-21.761096)"
       clip-path="none" />
    <path
       id="path67"
       d="m 454.379,619.715 c 0.088,-0.457 0.348,-0.617 0.958,-1.033 0.897,-0.572 1.5,-1.514 1.461,-2.528 -0.057,-1.646 -1.555,-3.108 -3.626,-3.108 -2.015,0 -3.847,1.403 -3.847,3.134 0,1.017 0.596,1.864 1.49,2.436 0.554,0.305 0.762,0.606 0.855,1 0.131,0.562 -0.266,1.304 -1.11,1.236 -0.218,-0.016 -0.441,-0.13 -0.441,-0.13 -1.8,-0.882 -2.978,-2.651 -2.978,-4.568 0,-2.88 2.671,-5.213 5.933,-5.213 3.265,0 5.913,2.333 5.913,5.213 0,1.899 -1.111,3.57 -2.867,4.502 l -0.112,0.061 c -0.103,0.05 -0.264,0.12 -0.446,0.162 -0.891,0.201 -1.284,-0.626 -1.183,-1.164"
       style="fill:#295e87;fill-opacity:1;fill-rule:evenodd;stroke:none"
       transform="matrix(0,0.35277776,0.35277776,0,-67.223422,-21.761096)"
       clip-path="none" />
    <path
       id="path69"
       d="m 408.848,541.436 c -1.833,-0.142 -5.621,2.649 -6.948,4.299 -3.301,3.973 -3.301,3.973 -4.298,4.96 -0.679,0.597 -1.757,0.25 -1.98,0 -0.225,-0.249 -0.04,-0.696 0,-1.319 0.124,-2.045 3.321,-5.628 3.959,-6.253 0.637,-0.625 0.386,-1.159 -0.318,-1.158 -2.198,0.007 -4.518,-0.924 -5.628,-0.195 -0.616,0.406 -1.984,2.315 -2.315,3.965 -0.33,0.996 -0.633,1.546 -0.934,2.052 -0.267,0.452 -1.049,1.242 -1.977,1.561 -0.725,0.253 -2.1,0.132 -3.04,0.028 -2.387,-0.261 -2.602,-1.826 -2.979,-2.645 -0.376,-0.821 -2.641,-3.31 -1.649,-4.961 l -0.022,-0.261 c -0.064,-0.12 -0.284,-0.118 -0.444,-0.138 -1.926,-0.238 -4.503,-0.096 -4.848,-0.261 -1.95,-0.923 -3.54,-3.939 -2.953,-5.624 0.539,-1.541 2.107,-1.888 4.609,-1.802 1.853,0.065 5.899,0.61 6.552,-1.731 0.038,-0.133 0.038,-0.367 0.48,-0.92 0.708,-0.879 1.431,-3.325 1.586,-3.812 0.115,-0.365 0.659,-0.996 0.659,-1.655 0,-0.327 -0.129,-0.533 0,-0.657 0.355,-0.354 1.13,-0.479 2.083,-0.036 0.302,0.142 0.833,0.577 1.918,0.954 0.923,0.321 2.945,1.063 3.61,2.717 0.665,1.655 0.187,5.727 4.292,3.969 0.357,-0.151 1.814,-0.32 2.583,-0.341 0.29,-0.009 4.438,0.02 5.68,-1.085 1.683,-1.498 9.864,-15.511 11.909,-16.433 0.442,-0.198 0.795,-0.047 0.992,0 0.546,0.132 0.445,0.584 0.787,0.704 0.341,0.117 1.547,0.636 2.191,0.62 0,0 0.33,0 0.66,0.331 0,0 0.224,0.23 0.302,0.448 0.078,0.218 0.832,1.362 1.021,1.867 0.238,0.642 0.507,2.131 -0.1,3.252 -0.878,1.621 -8.278,8.434 -8.826,8.983 -0.361,0.362 -0.373,0.631 0,0.661 0.375,0.026 6.795,0.683 8.262,-1.321 0.442,-0.605 0.664,-3.974 0.664,-4.96 0,-0.664 0,-1.328 0.33,-1.656 1.323,-0.663 2.647,0.896 3.247,1.14 0.405,0.166 1.05,0.843 1.382,1.177 0.992,1.321 3.9,3.03 6.284,3.634 1.165,0.298 1.502,2.343 0.655,3.333 -0.382,0.446 -1.318,1.629 -1.318,1.629 -0.991,1.322 -2.642,3.994 -3.306,4.959 -0.657,0.959 -2.589,1.216 -3.575,1.324 -2.572,0.283 -13,1.148 -19.239,0.657"
       style="fill:#295e87;fill-opacity:1;fill-rule:nonzero;stroke:none"
       transform="matrix(0,0.35277776,0.35277776,0,-67.223422,-21.761096)"
       clip-path="none" />
    <path
       id="path71"
       d="m 414.882,546.465 c -1.78,1.305 -5.636,5.277 -6.283,6.308 -4.039,6.42 -13.602,12.137 -14.628,12.802 -1.869,1.215 -4.937,0.951 -5.956,0.664 -1.019,-0.282 -1.335,0.449 -1.711,1.096 -0.587,1.007 -0.943,3.104 -0.603,3.534 0.37,0.467 1.682,-0.516 2.626,-0.701 1.94,-0.38 5.783,-1.832 7.442,-2.166 1.32,-0.33 2.776,-0.648 3.818,-1.763 1.304,-1.395 1.068,-5.922 3.952,-4.543 2.733,1.301 4.982,1.233 5.973,1.565 1.323,0.665 1.323,1.982 0.99,3.311 -0.332,1.651 -0.849,3.174 -1.329,3.632 -0.944,0.906 -1.434,1.667 -1.649,2.314 -0.215,0.648 -0.113,1.85 -1.321,2.978 -2.175,2.024 -6.616,3.64 -7.604,3.971 -1.328,0.327 -2.312,0.658 -3.974,1.32 -2.313,0.991 -4.73,1.942 -8.415,0 -1.658,-0.871 -4.149,0.805 -4.48,-2.644 -0.188,-2.004 -2.718,-11.723 -0.989,-18.185 0.445,-1.672 0.924,-5.798 1.981,-6.947 0.398,-0.434 1.357,-0.483 1.988,0 0.629,0.478 1.493,1.124 2.303,1.398 0.807,0.275 0.472,2.181 1.334,2.574 1.473,0.665 4.959,-1.327 5.624,-1.66 2.641,-1.319 5.43,-3.367 8.593,-4.628 6.21,-2.472 8.79,-5.181 9.258,-5.619 0.467,-0.44 0.867,-1.397 1.871,-1.713 0.652,-0.201 1.307,-0.112 1.769,0.39 0.349,0.376 0.533,1.895 -0.58,2.712"
       style="fill:#295e87;fill-opacity:1;fill-rule:nonzero;stroke:none"
       transform="matrix(0,0.35277776,0.35277776,0,-67.223422,-21.761096)"
       clip-path="none" />
    <path
       id="path73"
       d="m 424.055,565.243 c 0.549,-1.116 0.215,-2.031 0.995,-2.973 0.633,-0.762 0.511,-2.593 0,-2.973 -0.737,-0.55 -2.722,-0.306 -3.392,-0.311 -0.668,-0.004 -1.206,0.499 -1.234,1.297 -0.081,2.261 -0.916,4.455 -1.442,6.073 -0.231,0.714 0.261,0.978 0.8,0.883 1.488,-0.26 3.847,-1.127 4.273,-1.996 m -3.304,14.551 c -5.289,0 -5.926,-1.359 -6.943,-4.962 -0.253,-0.893 -2.089,-1.345 -1.985,-3.302 0.33,-2.646 2.088,-10.248 1.985,-15.874 -0.023,-1.318 -0.462,-3.794 -0.66,-4.299 -0.198,-0.502 0.296,-0.871 0.66,-0.99 0.849,-0.274 9.426,-2.156 17.193,3.637 0.81,0.605 2.455,1.947 2.976,2.646 0.52,0.701 0.838,1.424 0.332,1.653 -0.876,0.39 -1.324,1.98 -1.324,3.307 0,0 -0.325,7.606 -0.331,7.935 -0.01,0.575 0.615,0.264 0.663,1.324 0.056,1.258 -0.248,2.103 -0.823,2.619 -1.056,0.942 -3.12,0.907 -4.372,1.29 -1.04,0.315 -4.135,3.499 -5.626,4.457 -0.685,0.44 -1.414,0.559 -1.745,0.559"
       style="fill:#295e87;fill-opacity:1;fill-rule:nonzero;stroke:none"
       transform="matrix(0,0.35277776,0.35277776,0,-67.223422,-21.761096)"
       clip-path="none" />
    <path
       id="path75"
       d="m 416.786,632.374 c 0.989,-0.332 1.878,-0.503 2.314,-1.328 0.436,-0.824 0.569,-2.889 0.328,-3.306 -0.272,-0.466 -0.729,-0.955 -1.325,-0.991 -1.34,-0.082 -2.331,-0.588 -2.626,-0.377 -0.45,0.323 -0.347,2.029 -0.347,3.023 0,0.66 -0.098,0.866 -0.146,1.268 -0.128,1.118 -0.872,1.716 -0.512,2.039 0.379,0.338 1.648,0 2.314,-0.328 m -4.17,9.249 c -0.838,-0.136 -1.539,-1.755 -2.349,-3.792 -0.812,-2.024 -0.379,-2.482 0.08,-3.209 0.458,-0.731 0.157,-5.038 0.157,-9.003 0,-1.322 0.991,-3.851 0.969,-6.244 -0.009,-0.968 0.794,-1.118 1.342,-1.222 0.551,-0.106 0.702,-0.079 1.902,0.134 8.03,1.414 10.734,4.377 10.993,4.825 0.26,0.449 0.302,1.138 0,1.58 -0.66,0.997 -1.331,2.43 -1.323,3.709 0.012,1.806 0.08,5.702 -0.663,7.274 -0.599,1.264 -5.815,6.813 -11.108,5.948"
       style="fill:#295e87;fill-opacity:1;fill-rule:nonzero;stroke:none"
       transform="matrix(0,0.35277776,0.35277776,0,-67.223422,-21.761096)"
       clip-path="none" />
    <path
       id="path77"
       d="m 391.32,630.054 c 0.151,-0.539 -0.131,-1.376 -0.131,-1.913 0,-0.462 0.487,-2.149 0.131,-3.042 -0.421,-1.055 -1.292,1.049 -2.325,0.278 -0.38,-0.28 -2.965,-0.719 -3.626,-1.605 -0.659,-0.885 -1.57,-1.929 -1.982,-1.652 -0.413,0.278 -0.332,6.28 -0.332,6.28 0,1.986 -0.399,4.97 0,6.287 0.192,0.631 7.873,-3.224 8.265,-4.633 m -9.141,28.243 c 0.545,0.845 -0.176,1.73 -0.671,2.771 -0.708,1.477 -1.478,2.542 -2.485,1.965 -0.927,-0.531 -1.89,-0.402 -2.579,-2.227 -0.664,-1.32 -1.328,-1.649 -1.985,-2.646 -0.662,-0.99 -0.989,-1.937 -0.662,-3.303 0.154,-0.64 1.456,-3.267 1.656,-5.62 0.253,-2.983 0.861,-12.358 0.66,-14.525 -0.126,-1.355 -3.814,-4.83 -5.294,-7.629 -0.534,-1.015 -0.937,-2.736 -1.005,-3.395 -0.231,-2.238 1.915,-3.146 3.325,-2.231 1.022,0.663 2.785,1.857 3.364,1.704 1.105,-0.297 -0.602,-4.714 0.386,-9.293 1.16,-5.376 1.046,-8.795 1.126,-10.599 0.079,-1.807 -0.017,-3.359 1.402,-4.294 0.549,-0.361 1.246,-0.516 2.15,0.179 0.93,0.72 1.688,1.1 2.478,1.476 0.642,0.304 1.874,0.73 1.324,2.973 -0.809,3.301 -2.063,12.983 -1.982,13.431 0.063,0.349 1.224,-0.203 1.982,-0.205 0.758,-0.002 0.991,0.011 1.323,0 5.423,-0.177 5.644,2.215 6.099,1.938 1.428,-0.865 1.394,-2.633 2.646,-5.553 0.35,-0.82 -0.535,-2.828 1.175,-3.659 0.664,-0.322 3.129,-1.292 5.288,-1.323 2.646,-0.04 11.908,-1.323 13.888,-1.323 h 4.304 c 14.352,-0.798 15.082,3.913 14.547,5.625 -0.31,0.994 -1.318,0.835 -1.649,2.242 -0.123,0.523 -1.542,0.774 -2.349,1.112 -1.8,0.751 -2.638,-0.758 -7.449,0.276 -1.917,0.414 -7.429,-0.277 -12.592,0.172 -4.61,0.404 -8.961,-0.176 -10.35,0.161 -0.783,0.189 -1.987,3.063 -2.314,3.642 -0.616,1.09 -0.24,1.77 0,1.981 0.352,0.311 1.213,0.176 1.983,0 1.288,-0.293 4.09,-1.901 6.157,-3.643 1.52,-1.279 3.633,-0.757 3.761,-0.323 0.219,0.731 -0.15,2.962 -1.282,3.984 -0.808,0.732 -2.681,2.298 -4.009,3.619 -0.987,0.993 -1.801,1.91 -3.913,2.345 -1.723,0.353 -2.709,0.11 -3.283,0.379 -0.419,0.197 -0.621,0.863 -0.399,1.363 0.253,0.582 0.963,0.67 2.309,0.542 8.019,-0.251 7.9,2.062 8.62,3.203 1.094,1.721 0.308,4.069 0.308,5.063 0,0.995 -0.385,1.396 -0.992,1.656 -0.607,0.26 -4.139,1.579 -4.785,-0.8 -0.73,-2.693 -4.958,-3.158 -5.49,-2.265 -0.482,0.818 1.688,2.189 0.02,6.37 -0.133,0.33 -0.162,1.508 1.987,1.323 0.33,-0.029 6.946,-0.332 10.909,-0.661 2.979,0 6.612,-0.331 9.923,-0.662 1.321,0 7.891,0.087 9.255,-1.985 0.784,-1.917 -0.491,-5.731 0.301,-6.094 2.051,-0.946 4.365,2.672 4.952,3.64 1.143,1.886 2.574,1.209 3.616,1.591 1.038,0.384 1.323,1.902 0.951,3.189 -0.27,0.933 -1.765,2.478 -2.072,2.835 -0.455,0.532 -0.472,1.121 -0.472,1.784 0,1.651 -2.426,3.829 -4.96,4.959 -1.182,0.529 -3.863,0.658 -7.236,0.9 -1.701,0.121 -3.582,0.562 -5.529,0.508 -8.53,-0.242 -14.336,-0.394 -17.332,-0.416 -1.69,-0.009 -3.471,-0.979 -4.147,-1.847 -0.916,-1.177 -0.523,-1.895 -2.413,-4.21 -1.265,-1.552 -1.449,-3.792 -1.368,-4.523 0.432,-3.81 -0.546,-6.415 -0.664,-6.615 -0.114,-0.2 -0.33,-0.66 -0.657,-0.66 -0.334,0 -1.037,0.618 -0.995,2.648 0.012,0.658 0.131,2.097 -0.66,3.305 -1.14,1.732 -4.255,0.824 -4.629,0.659 -0.375,-0.166 -2.623,-1.535 -3.149,-0.532 -0.314,0.598 -0.551,4.126 -0.488,6.154 0.053,1.71 -0.583,5.331 -0.658,6.611 -0.079,1.286 0.183,1.869 0.773,2.783"
       style="fill:#295e87;fill-opacity:1;fill-rule:nonzero;stroke:none"
       clip-path="none"
       transform="matrix(0,0.35277776,0.35277776,0,-67.223422,-21.761096)" />
    <path
       id="path79"
       d="m 403.887,742.808 c -3.147,-0.995 -6.823,-3.127 -7.6,-3.964 -0.567,-0.609 -1.391,-1.764 -1.662,-2.313 -0.27,-0.548 -0.327,-0.998 0,-1.981 0,0 0.974,-2.162 0.523,-7.487 -0.202,-2.388 1.176,-9.049 1.464,-12.025 0.213,-2.179 0.856,-4.535 1.005,-5.747 0.345,-2.863 0.81,-5.111 3.466,-4.356 1.188,0.336 2.344,0.954 2.87,2.02 0.658,1.322 -0.545,3.098 -0.759,4.527 -1.343,9.095 -3.584,16.001 -2.648,20.583 0.132,0.648 1.285,1.029 2.018,1.155 4.866,0.837 12.503,0.25 13.885,-0.332 1.383,-0.583 2.468,-1.487 4.301,-1.98 0.717,-0.194 6.582,-2.134 4.991,-7.387 -0.23,-0.766 -0.344,-1.308 0.14,-1.582 1.336,-0.753 3.135,1.032 4.789,1.694 0.991,0.332 2.869,1.564 3.307,1.981 0.436,0.419 1.654,0.795 1.654,1.654 -0.327,1.325 -0.321,1.654 -0.327,1.988 -0.019,1.045 -1.457,1.59 -2.319,3.964 -0.154,0.431 -0.923,1.946 -1.654,2.647 -5.122,6.373 -17.192,7.938 -19.178,7.938 h -3.964 c -1.505,0 -2.592,-0.454 -4.302,-0.997"
       style="fill:#295e87;fill-opacity:1;fill-rule:nonzero;stroke:none"
       transform="matrix(0,0.35277776,0.35277776,0,-67.223422,-21.761096)"
       clip-path="none" />
    <path
       id="path81"
       d="m 413.148,712.061 c 0.637,-0.238 1.329,-1.572 1.324,-2.316 -0.005,-0.74 0.464,-1.464 0.328,-1.982 -0.293,-1.116 -2.464,-2.244 -3.726,-1.659 -0.46,0.215 0.003,2.63 -0.24,3.552 -0.291,1.094 -0.36,3.272 0,3.396 0.693,0.238 1.383,-0.642 2.314,-0.991 m -33.731,1.651 c 0,0 -1.281,5.294 -1.322,5.624 -0.086,0.668 0.573,0.741 1.244,0.367 0.267,-0.149 0.41,-0.367 0.741,-0.699 1.325,-0.994 1.65,-0.994 3.306,-1.651 0.993,-0.334 1.657,-1.328 1.657,-2.648 0,-0.332 -0.136,-0.675 0.325,-1.653 0.462,-0.978 1.232,-3.085 0.665,-3.307 -0.238,-0.09 -4.686,-0.151 -5.293,0 -1.062,0.269 -0.991,2.649 -1.323,3.967 m 26.456,4.96 c -0.99,-1.319 -0.799,-2.157 0.091,-4.097 0.35,-0.757 0.238,-6.486 0.238,-6.486 0,-0.99 0.331,-1.32 0.331,-1.985 0,-0.984 0.93,-5.877 0.229,-6.786 -0.392,-0.507 -2.492,0.985 -3.535,1.83 -3.405,2.771 -9.352,4.006 -9.592,5.29 -0.766,4.09 -1.035,6.64 -2.103,8.134 -0.621,0.869 -0.541,5.211 -0.541,6.204 0,1.437 -0.906,2.78 -1.613,4.137 -0.707,1.357 -1.878,1.106 -3.345,2.028 -2.245,1.412 -3.878,2.435 -7.938,3.966 -0.845,0.316 -2.196,0.121 -2.724,-1.079 -1.016,-2.302 -2.299,-3.269 -2.564,-4.872 -0.294,-1.782 0.425,-2.681 0.995,-3.978 0.612,-1.398 -0.014,-9.543 0.308,-12.11 0.117,-0.946 0.12,-0.756 0.516,-2.111 0.312,-1.077 -0.321,-2.173 -1.281,-2.814 -0.802,-0.532 -1.166,-2.375 0.126,-3.461 0.759,-0.635 1.774,-0.896 3.68,-0.605 3.063,0.464 8.108,-1.844 11.746,-3.387 1.616,-0.683 3.752,-1.932 5.727,-2.621 5.064,-1.763 8.158,-4.385 10.259,-4.953 1.977,-0.662 2.641,-0.662 3.964,-2.32 1.256,-1.315 5.452,-3.601 9.088,-5.823 3.516,-2.146 6.007,-4.014 7.115,-4.426 1.253,-0.464 4.294,-2.502 5.289,-2.973 0.996,-0.471 2.508,-0.826 2.647,0 0.185,1.101 -4.424,5.453 -4.962,6.943 -0.548,1.516 -2.118,4.775 -4.885,6.787 -1.47,1.067 -3.918,3.726 -10.655,7.429 -3.153,1.735 -4.903,3.789 -4.628,4.298 0.118,0.214 0.641,0.114 0.991,0 0.351,-0.115 0.991,-0.328 2.316,-0.328 2.182,0 4.314,1.152 7.273,1.987 1.983,0.558 2.646,1.649 2.978,2.641 0.353,1.281 -0.104,2.128 -0.663,2.646 -0.562,0.518 -0.769,1.656 -0.536,3.635 0.306,2.587 0.473,4.542 0,6.439 -0.134,0.533 0.447,0.681 0.192,1.486 -0.2,0.631 -0.648,0.648 -1.307,0.673 -2.668,0.114 -1.865,1.433 -3.638,1.984 -1.059,0.329 -2.259,1.033 -3.639,1.324 -1.825,0.38 -3.495,0.836 -4.026,0.538 -0.516,-0.287 -1.264,-2.52 -1.924,-3.184"
       style="fill:#295e87;fill-opacity:1;fill-rule:nonzero;stroke:none"
       clip-path="none"
       transform="matrix(0,0.35277776,0.35277776,0,-67.223422,-21.761096)" />
    <path
       id="path83"
       d="m 470.239,687.825 v -2.591 c 1.178,-0.861 2.197,-1.804 3.14,-2.668 l -0.156,-0.077 -0.315,-0.786 c -0.077,-0.157 -0.234,-0.078 -0.472,0.158 -1.568,1.569 -3.375,2.825 -5.417,3.767 l 0.316,0.708 c 0.313,0.785 0.549,0.785 0.706,0.157 l 1.178,-0.708 v 2.04 z m 10.285,0 v -6.907 h -0.942 v 3.298 h -5.575 v 3.609 h 1.02 v -2.433 h 4.555 v 2.433 z m -10.285,9.345 v -5.653 h 3.768 v 5.181 h 1.02 v -5.181 h 4.555 v 6.438 h 0.942 v -6.438 h 4.24 v -1.258 h -4.24 v -2.434 h -0.942 v 2.434 h -4.555 v -2.434 h -1.02 v 2.434 h -3.768 v -2.434 h -1.02 v 9.345"
       style="fill:#295e87;fill-opacity:1;fill-rule:nonzero;stroke:none"
       transform="matrix(0,0.35277776,0.35277776,0,-67.223422,-21.761096)"
       clip-path="none" />
    <path
       id="path85"
       d="m 472.122,592.672 h -4.71 l 0.236,1.258 c 0.156,0.627 0.315,0.627 0.551,-0.08 h 3.923 v 2.197 c 4.398,0.08 7.932,0 10.601,-0.234 1.097,-0.236 1.727,-0.864 1.884,-1.883 v -1.258 l -0.236,-0.157 -0.785,-0.236 c -0.159,-0.158 -0.235,-0.078 -0.314,0.236 v 1.179 c -0.236,0.548 -0.786,0.863 -1.65,0.94 -2.669,0.236 -5.495,0.315 -8.477,0.236 v -1.02 c 4.318,-0.315 8.084,-1.257 11.226,-2.903 0.079,-0.158 0.157,-0.236 0.079,-0.315 l -0.472,-0.944 c 0,-0.157 -0.158,-0.157 -0.314,-0.079 -3.217,1.807 -6.751,2.827 -10.519,2.984 v -1.254 h -1.023"
       style="fill:#295e87;fill-opacity:1;fill-rule:nonzero;stroke:none"
       transform="matrix(0,0.35277776,0.35277776,0,-67.223422,-21.761096)"
       clip-path="none" />
    <path
       id="path87"
       d="m 475.969,588.904 h 2.592 l -0.55,2.199 h 1.099 l 0.551,-2.199 c 1.725,-0.156 3.375,-0.785 4.867,-1.807 l 0.157,-0.315 -0.314,-0.861 c -0.079,-0.235 -0.236,-0.235 -0.393,-0.078 -1.178,0.939 -2.513,1.569 -4.003,1.883 l 0.392,-1.57 c 0.549,-0.235 0.549,-0.548 0,-0.784 l -0.863,-0.394 -0.786,2.748 h -2.749 v -2.276 h -0.942 v 5.653 h 0.942"
       style="fill:#295e87;fill-opacity:1;fill-rule:nonzero;stroke:none"
       transform="matrix(0,0.35277776,0.35277776,0,-67.223422,-21.761096)"
       clip-path="none" />
    <path
       id="path89"
       d="m 479.661,600.052 h 4.945 v -1.179 h -4.945 v -2.197 h -0.943 v 2.197 h -2.749 v -2.197 h -0.942 v 5.417 h 0.942 v -2.041 h 2.749 v 2.355 h 0.943"
       style="fill:#295e87;fill-opacity:1;fill-rule:nonzero;stroke:none"
       transform="matrix(0,0.35277776,0.35277776,0,-67.223422,-21.761096)"
       clip-path="none" />
    <path
       id="path91"
       d="m 474.008,599.816 c -0.707,0.393 -1.649,0.708 -2.827,1.101 l 0.313,0.706 c 0.236,0.784 0.394,0.863 0.628,0.234 0.943,-0.234 1.729,-0.548 2.357,-0.784"
       style="fill:#295e87;fill-opacity:1;fill-rule:nonzero;stroke:none"
       transform="matrix(0,0.35277776,0.35277776,0,-67.223422,-21.761096)"
       clip-path="none" />
    <path
       id="path93"
       d="m 474.4,597.539 c -0.943,-0.236 -1.806,-0.469 -2.592,-0.862 l -0.47,1.098 c 0.862,0.471 1.728,0.786 2.747,1.022"
       style="fill:#295e87;fill-opacity:1;fill-rule:nonzero;stroke:none"
       transform="matrix(0,0.35277776,0.35277776,0,-67.223422,-21.761096)"
       clip-path="none" />
    <path
       id="path95"
       d="m 469.69,598.874 h -2.591 l 0.236,1.022 c 0.077,0.628 0.313,0.628 0.706,0.156 h 1.649 v 2.198 h 1.02 v -5.887 h -1.02"
       style="fill:#295e87;fill-opacity:1;fill-rule:nonzero;stroke:none"
       transform="matrix(0,0.35277776,0.35277776,0,-67.223422,-21.761096)"
       clip-path="none" />
    <path
       id="path97"
       d="m 474.557,586.547 c -1.1,-0.313 -2.042,-0.625 -2.748,-1.019 l -0.471,1.098 c 0.784,0.471 1.727,0.785 2.827,1.178"
       style="fill:#295e87;fill-opacity:1;fill-rule:nonzero;stroke:none"
       transform="matrix(0,0.35277776,0.35277776,0,-67.223422,-21.761096)"
       clip-path="none" />
    <path
       id="path99"
       d="m 474.165,588.591 c -0.864,0.469 -1.806,0.861 -2.906,1.175 l 0.236,0.866 c 0.235,0.472 0.471,0.55 0.706,0.157 0.864,-0.315 1.649,-0.551 2.435,-0.865"
       style="fill:#295e87;fill-opacity:1;fill-rule:nonzero;stroke:none"
       transform="matrix(0,0.35277776,0.35277776,0,-67.223422,-21.761096)"
       clip-path="none" />
    <path
       id="path101"
       d="m 469.69,587.882 h -2.591 l 0.079,0.944 c 0.077,0.705 0.313,0.783 0.549,0.234 h 1.963 v 2.199 h 1.02 v -5.809 h -1.02"
       style="fill:#295e87;fill-opacity:1;fill-rule:nonzero;stroke:none"
       transform="matrix(0,0.35277776,0.35277776,0,-67.223422,-21.761096)"
       clip-path="none" />
    <path
       id="path103"
       d="m 480.29,566.292 v -2.982 h 4.317 v 1.177 H 483.9 v 1.805 h -1.021 v -1.805 h -1.57 v 1.805 z m -6.752,0 h 0.94 v -3.22 h 1.257 v 3.22 h 0.942 v -3.377 h 1.255 v 3.377 h 1.021 v -3.22 c 2.512,-0.392 4.24,-0.861 5.182,-1.49 0.078,-0.079 0.157,-0.156 0.157,-0.392 l -0.236,-0.707 -0.315,-0.08 c -1.726,0.865 -4.08,1.336 -7.064,1.415 h -3.139 z m -6.203,0 h 1.883 c 0.785,-0.863 1.491,-1.647 2.042,-2.513 v 2.513 h 1.02 v -2.669 h -0.863 c 0.549,-0.943 0.942,-1.726 1.177,-2.433 -0.235,-0.236 -0.393,-0.471 -0.472,-0.628 -0.235,-0.236 -0.314,-0.159 -0.471,0.157 -1.097,2.119 -2.59,4.004 -4.316,5.573 m 4.945,0 h -1.02 v 2.433 c -0.706,-0.704 -1.492,-1.411 -2.356,-2.198 0.079,-0.078 0.157,-0.157 0.314,-0.235 h -1.883 l -0.236,0.235 0.627,1.102 c 0.236,0.314 0.393,0.234 0.551,-0.236 1.649,1.41 2.825,2.905 3.531,4.552 0.158,0.079 0.236,0 0.314,-0.157 0.158,-0.236 0.314,-0.551 0.472,-0.706 -0.079,-0.392 -0.472,-1.099 -1.1,-2.043 h 0.786 z m 6.673,0 h -1.021 v 2.983 h -1.255 v -2.983 h -0.942 v 2.983 h -1.257 v -2.983 h -0.94 v 4.163 h 5.415 z m 4.947,0 h -1.021 v 3.219 h -1.57 v -3.219 h -1.019 v 4.398 h 4.395 v -1.179 H 483.9 Z m -14.446,7.46 h 11.617 v -1.177 h -11.853 z m 14.523,-0.315 c -0.313,-0.157 -0.55,-0.079 -0.55,0.315 h 1.18 c -0.079,-0.158 -0.158,-0.158 -0.315,-0.236 z m -2.906,0.315 h -10.989 c -0.314,0.391 -0.551,0.469 -0.628,0.077 v -0.077 z m 2.356,0 v 1.256 c 0,0.55 -0.391,0.863 -1.097,0.942 h -14.995 l 0.155,1.334 c 0.079,0.392 0.314,0.392 0.708,-0.156 h 14.603 c 1.099,0 1.727,-0.708 1.806,-2.277 v -1.099"
       style="fill:#295e87;fill-opacity:1;fill-rule:nonzero;stroke:none"
       transform="matrix(0,0.35277776,0.35277776,0,-67.223422,-21.761096)"
       clip-path="none" />
    <path
       id="path105"
       d="m 472.281,609.709 -0.08,1.648 v 1.413 h 2.512 c 0.628,0 1.178,-0.078 1.807,-0.078 1.255,-0.158 2.276,-0.235 3.062,-0.471 0.785,-0.234 1.572,-0.549 2.354,-1.02 0.787,-0.472 1.491,-1.1 1.964,-1.883 0.156,0.547 0.47,1.018 0.864,1.411 -1.337,1.177 -2.828,1.963 -4.397,2.434 -1.335,0.393 -2.904,0.629 -4.632,0.708 v 2.746 l 4.319,-0.234 c 0.863,0 1.333,-0.08 1.489,-0.08 0.393,-0.077 0.708,-0.235 0.787,-0.47 0.078,-0.236 0.157,-0.472 0.157,-0.864 0,-0.157 0,-0.706 -0.079,-1.648 0.392,0.314 0.943,0.55 1.569,0.706 -0.077,0.628 -0.157,1.177 -0.235,1.727 -0.156,0.706 -0.47,1.178 -0.863,1.414 -0.156,0.078 -0.471,0.157 -0.943,0.235 -0.549,0 -1.334,0.079 -2.354,0.157 l -1.885,0.079 c -0.549,0 -1.649,0 -3.14,0.156 0.079,-0.313 0.079,-0.47 0.079,-0.549 l 0.077,-1.962 v -1.413 l -2.512,0.077 0.08,4.319 v 0.236 h -1.179 v -0.785 c 0,-0.315 0.079,-0.63 0.079,-0.866 v -5.572 c 0,-0.472 -0.079,-1.021 -0.079,-1.571"
       style="fill:#295e87;fill-opacity:1;fill-rule:evenodd;stroke:none"
       transform="matrix(0,0.35277776,0.35277776,0,-67.223422,-21.761096)"
       clip-path="none" />
    <path
       id="path107"
       d="m 470.162,615.439 c -0.236,0.157 -0.472,0.471 -0.631,0.707 l -1.49,-1.333 c -0.078,-0.078 -0.314,-0.235 -0.786,-0.707 l -0.549,-0.472 c 0.157,-0.236 0.472,-0.472 0.785,-0.863 1.176,1.02 2.12,1.807 2.984,2.356 -0.08,0.076 -0.236,0.157 -0.313,0.312"
       style="fill:#295e87;fill-opacity:1;fill-rule:evenodd;stroke:none"
       transform="matrix(0,0.35277776,0.35277776,0,-67.223422,-21.761096)"
       clip-path="none" />
    <path
       id="path109"
       d="m 467.412,623.212 c 2.983,-0.864 6.438,-2.825 7.93,-5.337 0.314,0.549 0.548,0.864 1.02,1.256 -2.04,2.434 -4.081,3.217 -6.516,4.396 1.022,0.707 1.727,1.178 1.963,1.413 0.706,0.629 1.178,1.098 1.569,1.491 1.022,1.101 1.887,2.198 2.591,3.378 -0.627,0.393 -0.942,0.627 -1.018,0.706 -0.08,0.079 -0.237,0.235 -0.394,0.469 -0.314,-1.254 -1.02,-2.434 -2.042,-3.688 -0.706,-0.786 -1.335,-1.336 -1.882,-1.885 -0.471,-0.395 -1.102,-0.784 -1.887,-1.256 -0.156,0.079 -0.313,0.236 -0.391,0.393 l -0.156,0.157 c -0.158,0 -0.158,-0.078 -0.236,-0.157 -0.159,-0.472 -0.394,-0.864 -0.551,-1.336"
       style="fill:#295e87;fill-opacity:1;fill-rule:evenodd;stroke:none"
       transform="matrix(0,0.35277776,0.35277776,0,-67.223422,-21.761096)"
       clip-path="none" />
    <path
       id="path111"
       d="m 476.362,624.548 c -0.548,-0.55 -0.942,-1.022 -1.335,-1.414 0.315,-0.314 0.629,-0.707 0.864,-1.099 0.157,0.313 0.392,0.549 0.55,0.707 0.157,0.235 0.393,0.47 0.708,0.784 0.706,0.63 1.255,1.179 1.804,1.49 -0.392,0.395 -0.786,0.786 -1.021,1.101"
       style="fill:#295e87;fill-opacity:1;fill-rule:evenodd;stroke:none"
       transform="matrix(0,0.35277776,0.35277776,0,-67.223422,-21.761096)"
       clip-path="none" />
    <path
       id="path113"
       d="m 481.543,624.706 c -0.548,-0.472 -1.02,-0.944 -1.333,-1.416 0.313,-0.313 0.547,-0.627 0.862,-1.018 0.157,0.313 0.393,0.547 0.55,0.705 0.157,0.157 0.393,0.471 0.708,0.706 0.706,0.708 1.256,1.178 1.804,1.492 -0.469,0.47 -0.783,0.785 -1.019,1.178"
       style="fill:#295e87;fill-opacity:1;fill-rule:evenodd;stroke:none"
       transform="matrix(0,0.35277776,0.35277776,0,-67.223422,-21.761096)"
       clip-path="none" />
    <path
       id="path115"
       d="m 482.487,641.662 v -1.49 h -9.579 c 0.315,-0.393 0.706,-0.865 1.021,-1.415 0.314,-0.626 0.627,-1.098 0.784,-1.57 h -1.49 c -0.392,0.787 -0.864,1.57 -1.414,2.199 -0.549,0.628 -1.1,1.098 -1.648,1.336 v 0.94"
       style="fill:#295e87;fill-opacity:1;fill-rule:nonzero;stroke:none"
       transform="matrix(0,0.35277776,0.35277776,0,-67.223422,-21.761096)"
       clip-path="none" />
    <path
       id="path117"
       d="m 475.813,648.807 c -0.236,-0.627 -0.548,-1.098 -0.942,-1.413 -0.471,-0.314 -0.943,-0.471 -1.493,-0.471 -0.941,0 -1.648,0.314 -2.276,1.022 -0.627,0.626 -0.94,1.49 -0.94,2.512 h 1.254 c 0,-0.551 0.157,-1.022 0.55,-1.415 0.393,-0.391 0.785,-0.55 1.335,-0.55 0.549,0 1.021,0.159 1.413,0.55 0.392,0.393 0.551,0.864 0.551,1.415 h 1.255 c 0,-0.708 0.236,-1.258 0.708,-1.729 0.468,-0.471 1.017,-0.705 1.725,-0.705 0.393,0 0.865,0.077 1.256,0.315 0.393,0.154 0.707,0.469 0.944,0.861 0.157,0.392 0.312,0.864 0.312,1.258 h 1.179 c 0,-1.179 -0.315,-2.119 -1.022,-2.906 -0.706,-0.707 -1.647,-1.099 -2.669,-1.099 -0.787,0 -1.489,0.235 -2.04,0.628 -0.551,0.393 -0.865,0.943 -1.1,1.727 m -5.651,1.65 c 0,1.099 0.313,1.961 0.94,2.59 0.628,0.628 1.413,0.942 2.276,0.942 0.55,0 1.101,-0.078 1.493,-0.392 0.394,-0.314 0.706,-0.786 0.942,-1.415 0.235,0.787 0.628,1.337 1.179,1.729 0.549,0.391 1.253,0.627 1.961,0.627 1.1,0 1.963,-0.394 2.669,-1.098 0.707,-0.786 1.022,-1.729 1.022,-2.983 h -1.179 v 0.078 c 0,0.706 -0.236,1.254 -0.708,1.726 -0.468,0.472 -1.017,0.708 -1.804,0.708 -0.708,0 -1.257,-0.236 -1.725,-0.708 -0.472,-0.472 -0.708,-1.1 -0.708,-1.804 h -1.255 v 0.078 c 0,0.549 -0.159,1.021 -0.551,1.411 -0.392,0.315 -0.786,0.551 -1.336,0.551 -0.547,0 -1.019,-0.236 -1.412,-0.63 -0.393,-0.311 -0.55,-0.783 -0.55,-1.41"
       style="fill:#295e87;fill-opacity:1;fill-rule:nonzero;stroke:none"
       transform="matrix(0,0.35277776,0.35277776,0,-67.223422,-21.761096)"
       clip-path="none" />
    <path
       id="path119"
       d="m 471.809,657.05 h -1.415 v 7.93 h 1.179 c 0.786,-0.785 1.884,-1.569 3.298,-2.355 1.334,-0.785 2.826,-1.335 4.24,-1.727 1.021,-0.314 2.118,-0.549 3.376,-0.628 v -1.49 c -0.944,0 -2.12,0.155 -3.534,0.547 -1.336,0.314 -2.669,0.865 -3.926,1.571 -1.256,0.629 -2.354,1.333 -3.218,2.12"
       style="fill:#295e87;fill-opacity:1;fill-rule:nonzero;stroke:none"
       transform="matrix(0,0.35277776,0.35277776,0,-67.223422,-21.761096)"
       clip-path="none" />
    <path
       id="path121"
       d="m 480.995,675.265 h 1.492 v -8.087 c -0.393,0 -0.707,0.08 -1.022,0.236 -0.549,0.156 -1.098,0.471 -1.647,0.943 -0.55,0.472 -1.18,1.097 -1.886,1.961 -1.098,1.336 -1.963,2.276 -2.59,2.748 -0.628,0.393 -1.256,0.629 -1.805,0.629 -0.55,0 -1.1,-0.157 -1.492,-0.629 -0.394,-0.393 -0.629,-0.941 -0.629,-1.647 0,-0.708 0.235,-1.258 0.629,-1.728 0.47,-0.471 1.099,-0.628 1.805,-0.628 l -0.157,-1.571 c -1.099,0.078 -1.963,0.471 -2.591,1.179 -0.627,0.706 -0.94,1.647 -0.94,2.826 0,1.097 0.313,2.041 1.018,2.748 0.629,0.705 1.414,1.02 2.434,1.02 0.472,0 0.943,-0.079 1.413,-0.315 0.471,-0.156 0.942,-0.47 1.493,-0.94 0.55,-0.472 1.254,-1.259 2.118,-2.356 0.787,-0.864 1.337,-1.493 1.571,-1.729 0.314,-0.234 0.548,-0.471 0.786,-0.628"
       style="fill:#295e87;fill-opacity:1;fill-rule:nonzero;stroke:none"
       transform="matrix(0,0.35277776,0.35277776,0,-67.223422,-21.761096)"
       clip-path="none" />
    <path
       id="path1"
       d="m 317.684,638.387 c 1.332,-0.999 16.977,-9.988 16.977,-9.988 l -31.957,-18.637 c 4.992,-2.666 9.986,-5.664 14.98,-8.657 v 11.984 l 16.649,-9.655 -16.649,-9.651 -41.282,23.971 -0.998,0.662 c 6.994,3.996 13.655,7.987 20.642,11.649 l -20.642,12.318 38.619,21.97 20.638,-11.982 -31.957,-18.644 14.98,-8.321"
       style="fill:#a18774;fill-opacity:1;fill-rule:evenodd;stroke:none"
       transform="matrix(0,0.35277776,0.35277776,0,-67.223422,-21.761096)"
       clip-path="none" />
    <path
       id="path2"
       d="m 154.81561,70.698427 c 7.39704,0 13.38756,5.16643 14.79761,12.097102 h 2.81799 c -1.41005,-8.456788 -8.80674,-14.797616 -17.6156,-14.797616 -9.74831,0 -17.73308,7.986889 -17.73308,17.849497 0,9.748308 7.98477,17.73555 17.73308,17.73555 8.92457,0 16.20555,-6.460773 17.6156,-14.915798 h -2.70192 c -1.40935,7.046736 -7.51664,12.212108 -14.91368,12.212108 -8.33861,0 -15.03328,-6.692547 -15.03328,-15.03186 0,-8.338608 6.69467,-15.148983 15.03328,-15.148983"
       style="fill:#a18774;fill-opacity:1;fill-rule:evenodd;stroke:none;stroke-width:0.352778"
       clip-path="none" />
  </g>
</svg>
