<?xml version="1.0" encoding="UTF-8" standalone="no"?>
<!-- Created with Inkscape (http://www.inkscape.org/) -->

<svg
   xmlns:dc="http://purl.org/dc/elements/1.1/"
   xmlns:cc="http://creativecommons.org/ns#"
   xmlns:rdf="http://www.w3.org/1999/02/22-rdf-syntax-ns#"
   xmlns:svg="http://www.w3.org/2000/svg"
   xmlns="http://www.w3.org/2000/svg"
   xmlns:sodipodi="http://sodipodi.sourceforge.net/DTD/sodipodi-0.dtd"
   xmlns:inkscape="http://www.inkscape.org/namespaces/inkscape"
   width="264.58334mm"
   height="28.41337mm"
   viewBox="0 0 264.58334 28.41337"
   version="1.1"
   id="svg8"
   inkscape:version="0.92.4 (5da689c313, 2019-01-14)"
   sodipodi:docname="Toshiba 1969.svg">
  <defs
     id="defs2" />
  <sodipodi:namedview
     id="base"
     pagecolor="#ffffff"
     bordercolor="#666666"
     borderopacity="1.0"
     inkscape:pageopacity="0.0"
     inkscape:pageshadow="2"
     inkscape:zoom="1.979899"
     inkscape:cx="112.61321"
     inkscape:cy="0.38822228"
     inkscape:document-units="mm"
     inkscape:current-layer="layer1"
     showgrid="false"
     fit-margin-top="0"
     fit-margin-left="0"
     fit-margin-right="0"
     fit-margin-bottom="0"
     inkscape:window-width="1920"
     inkscape:window-height="1017"
     inkscape:window-x="-8"
     inkscape:window-y="-8"
     inkscape:window-maximized="1" />
  <metadata
     id="metadata5">
    <rdf:RDF>
      <cc:Work
         rdf:about="">
        <dc:format>image/svg+xml</dc:format>
        <dc:type
           rdf:resource="http://purl.org/dc/dcmitype/StillImage" />
        <dc:title></dc:title>
      </cc:Work>
    </rdf:RDF>
  </metadata>
  <g
     inkscape:label="Layer 1"
     inkscape:groupmode="layer"
     id="layer1"
     transform="translate(424.99212,-72.867291)">
    <g
       aria-label="TOSHIBA"
       style="font-style:normal;font-variant:normal;font-weight:bold;font-stretch:normal;font-size:10.58333302px;line-height:1.25;font-family:FederationWide;-inkscape-font-specification:'FederationWide Bold';text-align:center;letter-spacing:0px;word-spacing:0px;text-anchor:middle;fill:#000000;fill-opacity:1;stroke:none;stroke-width:0.26458332"
       id="text817"
       transform="matrix(3.9471145,0,0,3.9471145,1252.5006,-298.4857)">
      <path
         d="m -421.85023,101.20833 v -5.312339 h -3.14193 v -1.741496 h 8.4336 v 1.741496 h -3.14193 v 5.312339 z"
         style="font-style:normal;font-variant:normal;font-weight:bold;font-stretch:normal;font-family:'Eurostar Black Extended';-inkscape-font-specification:'Eurostar Black Extended Bold';stroke-width:0.26458332"
         id="path819"
         inkscape:connector-curvature="0" />
      <path
         d="m -410.77339,94.082148 q 2.69235,0 3.29179,0.108521 1.34876,0.242879 1.67432,1.390096 0.11886,0.418579 0.14469,1.131714 0.0155,0.413411 0.0155,1.018025 0,1.333252 -0.16537,1.958537 -0.3669,1.390099 -2.1394,1.529619 -0.78548,0.062 -2.56315,0.062 -1.53479,0 -1.86552,-0.0155 -1.25574,-0.0568 -1.81901,-0.32556 -0.79065,-0.37207 -0.99736,-1.493448 -0.0879,-0.475423 -0.0879,-1.788005 0,-0.888834 0.0155,-1.131713 0.0414,-0.640788 0.21188,-1.100708 0.40824,-1.100708 2.04122,-1.266073 0.76998,-0.07751 2.24275,-0.07751 z m 0.29973,1.720826 q -1.71049,0 -2.1084,0.165364 -0.37207,0.155029 -0.48059,0.733805 -0.0465,0.248047 -0.0465,0.930176 0,0.894002 0.10852,1.27124 0.1602,0.558106 1.02319,0.620118 0.50126,0.03617 1.2144,0.03617 1.92236,0 2.34094,-0.134359 0.47026,-0.149861 0.59428,-0.780314 0.0465,-0.237711 0.0465,-1.059367 0,-0.630452 -0.031,-0.847493 -0.0879,-0.609782 -0.49609,-0.790649 -0.23771,-0.108521 -0.99736,-0.139527 -0.12402,-0.0052 -1.16788,-0.0052 z"
         style="font-style:normal;font-variant:normal;font-weight:bold;font-stretch:normal;font-family:'Eurostar Black Extended';-inkscape-font-specification:'Eurostar Black Extended Bold';stroke-width:0.26458332"
         id="path821"
         inkscape:connector-curvature="0" />
      <path
         d="m -404.07354,98.960404 h 2.1084 q 0.0103,0.30489 0.0517,0.423746 0.0723,0.206706 0.29455,0.279053 0.18087,0.06201 0.57878,0.07235 l 0.83199,0.02584 q 0.18604,0.0052 1.5813,-0.02067 0.56327,-0.01034 0.79065,-0.08785 0.42375,-0.144694 0.42375,-0.573609 0,-0.532267 -0.62012,-0.614949 -0.15503,-0.02067 -1.08521,-0.02067 h -1.94303 q -1.43661,0 -1.94303,-0.155029 -0.64079,-0.196371 -0.89917,-0.744141 -0.19637,-0.418579 -0.19637,-1.188558 0,-1.229899 0.5736,-1.694987 0.47543,-0.39274 1.78284,-0.511596 0.51677,-0.04651 2.05672,-0.04651 2.20142,0 2.76469,0.124023 0.74931,0.165365 1.05937,0.625285 0.28422,0.418579 0.28422,1.209229 v 0.242879 h -2.0929 q -0.005,-0.54777 -0.57877,-0.666626 -0.12403,-0.02584 -1.02836,-0.02584 -1.26608,0 -1.9482,0.04651 -0.37208,0.02584 -0.53227,0.118855 -0.22738,0.134359 -0.22738,0.465088 0,0.444418 0.45475,0.563273 0.19637,0.05168 0.86817,0.05168 h 1.99988 q 0.20153,0 1.0542,0.03101 0.99218,0.03617 1.40043,0.206705 0.925,0.387574 0.925,1.922364 0,1.421101 -0.77514,1.844851 -0.72864,0.3979 -3.75688,0.3979 -2.30993,0 -3.02824,-0.14986 -0.69763,-0.14469 -0.98702,-0.61495 -0.24804,-0.40307 -0.24804,-1.162715 0,-0.08268 0.005,-0.37207 z"
         style="font-style:normal;font-variant:normal;font-weight:bold;font-stretch:normal;font-family:'Eurostar Black Extended';-inkscape-font-specification:'Eurostar Black Extended Bold';stroke-width:0.26458332"
         id="path823"
         inkscape:connector-curvature="0" />
      <path
         d="m -393.62456,101.20833 v -7.053835 h 2.14974 v 2.604493 h 4.88342 v -2.604493 h 2.14974 v 7.053835 h -2.14974 v -2.707847 h -4.88342 v 2.707847 z"
         style="font-style:normal;font-variant:normal;font-weight:bold;font-stretch:normal;font-family:'Eurostar Black Extended';-inkscape-font-specification:'Eurostar Black Extended Bold';stroke-width:0.26458332"
         id="path825"
         inkscape:connector-curvature="0" />
      <path
         d="m -382.60715,101.20833 v -7.053835 h 2.14974 v 7.053835 z"
         style="font-style:normal;font-variant:normal;font-weight:bold;font-stretch:normal;font-family:'Eurostar Black Extended';-inkscape-font-specification:'Eurostar Black Extended Bold';stroke-width:0.26458332"
         id="path827"
         inkscape:connector-curvature="0" />
      <path
         d="m -378.61773,101.20833 v -7.053835 h 6.37687 q 1.12655,0 1.62264,0.253215 0.81132,0.413411 0.81132,1.607137 0,0.930176 -0.45475,1.297078 -0.26872,0.217041 -0.93017,0.320394 0.83715,0.08268 1.16272,0.315226 0.50126,0.356568 0.50126,1.328085 0,1.25057 -0.81132,1.68465 -0.45992,0.24805 -1.61231,0.24805 z m 2.09807,-4.242637 h 3.60701 q 0.52193,0 0.69763,-0.08785 0.27906,-0.139526 0.27906,-0.521932 0,-0.454752 -0.37724,-0.578776 -0.1602,-0.05168 -0.65629,-0.05168 h -3.55017 z m 0,2.671672 h 3.84472 q 0.49093,0 0.65113,-0.05684 0.34106,-0.118856 0.34106,-0.573609 0,-0.470255 -0.36173,-0.599446 -0.1447,-0.05168 -0.6873,-0.05168 h -3.78788 z"
         style="font-style:normal;font-variant:normal;font-weight:bold;font-stretch:normal;font-family:'Eurostar Black Extended';-inkscape-font-specification:'Eurostar Black Extended Bold';stroke-width:0.26458332"
         id="path829"
         inkscape:connector-curvature="0" />
      <path
         d="m -368.66743,101.20833 3.96875,-7.053835 h 2.87838 l 3.86023,7.053835 h -2.34611 l -0.7028,-1.260907 h -4.5527 l -0.67696,1.260907 z m 3.8809,-2.728517 h 3.03341 l -1.53479,-2.811198 z"
         style="font-style:normal;font-variant:normal;font-weight:bold;font-stretch:normal;font-family:'Eurostar Black Extended';-inkscape-font-specification:'Eurostar Black Extended Bold';stroke-width:0.26458332"
         id="path831"
         inkscape:connector-curvature="0" />
    </g>
  </g>
</svg>
