<?xml version="1.0" encoding="UTF-8"?>
<!DOCTYPE svg PUBLIC "-//W3C//DTD SVG 1.1//EN" "http://www.w3.org/Graphics/SVG/1.1/DTD/svg11.dtd">
<svg version="1.2" xmlns="http://www.w3.org/2000/svg" xmlns:xlink="http://www.w3.org/1999/xlink" x="0mm" y="0mm" width="160mm" height="123mm" viewBox="0 0 160 123">
<style type="text/css"><![CDATA[
text { font:12px Dialog; }
]]></style>
<rect x="0" y="0" width="160" height="123" style="fill:rgb(255,255,255);stroke:none" />
<ellipse cx="20.8832526" cy="105.0115435" rx="42.9703209" ry="42.9703209" style="fill:rgb(153,202,202);opacity:0.5019607843137255;stroke:none" />
<ellipse cx="20.8832526" cy="105.0115435" rx="42.9703209" ry="42.9703209" style="fill:none;stroke:rgb(0,124,124);stroke-width:0.4900459;stroke-linecap:round" />
<ellipse cx="150.4441041" cy="68.4831547" rx="94.3475693" ry="94.3475693" style="fill:rgb(153,202,202);opacity:0.5019607843137255;stroke:none" />
<ellipse cx="150.4441041" cy="68.4831547" rx="94.3475693" ry="94.3475693" style="fill:none;stroke:rgb(0,124,124);stroke-width:0.4900459;stroke-linecap:round" />
<line x1="28.4226646" y1="18.4984686" x2="20.8832526" y2="105.0115435" style="fill:none;stroke:rgb(153,153,153);stroke-width:0.4900459;stroke-dasharray:2.4502296,2.4502296;stroke-dashoffset:0" />
<line x1="24.6138758" y1="62.2034726" x2="150.4441041" y2="68.4831547" style="fill:none;stroke:rgb(153,153,153);stroke-width:0.4900459;stroke-dasharray:2.4502296,2.4502296;stroke-dashoffset:0" />
<line x1="56.2138072" y1="63.7804985" x2="20.8832526" y2="105.0115435" style="fill:none;stroke:rgb(153,153,153);stroke-width:0.4900459;stroke-dasharray:2.4502296,2.4502296;stroke-dashoffset:0" />
<line x1="48.8432488" y1="72.3820002" x2="150.4441041" y2="68.4831547" style="fill:none;stroke:rgb(153,153,153);stroke-width:0.4900459;stroke-dasharray:2.4502296,2.4502296;stroke-dashoffset:0" />
<ellipse cx="20.8832526" cy="105.0115435" rx="0.9800919" ry="0.9800919" style="fill:rgb(255,255,255);stroke:none" />
<ellipse cx="20.8832526" cy="105.0115435" rx="0.9800919" ry="0.9800919" style="fill:none;stroke:rgb(0,0,0);stroke-width:0.4900459;stroke-linecap:round" />
<path d="M24.7127647,109.5426102 L25.0877647,109.6363602 Q24.9627647,110.1051102 24.6580772,110.3472977 Q24.3533897,110.5894852 23.9002647,110.5894852 Q23.4315147,110.5894852 23.1424522,110.4019852 Q22.8533897,110.2144852 22.7049522,109.8551102 Q22.5565147,109.4957352 22.5565147,109.0894852 Q22.5565147,108.6363602 22.7283897,108.3082352 Q22.9002647,107.9801102 23.2127647,107.8082352 Q23.5252647,107.6363602 23.9002647,107.6363602 Q24.3377647,107.6363602 24.6268272,107.8551102 Q24.9158897,108.0738602 25.0408897,108.4644852 L24.6658897,108.5582352 Q24.5565147,108.2457352 24.3690147,108.0972977 Q24.1815147,107.9488602 23.9002647,107.9488602 Q23.5721397,107.9488602 23.3455772,108.1129227 Q23.1190147,108.2769852 23.0330772,108.5426102 Q22.9471397,108.8082352 22.9471397,109.0894852 Q22.9471397,109.4488602 23.0487022,109.7222977 Q23.1502647,109.9957352 23.3768272,110.1285477 Q23.6033897,110.2613602 23.8690147,110.2613602 Q24.1815147,110.2613602 24.4080772,110.0816727 Q24.6346397,109.9019852 24.7127647,109.5426102 Z" style="fill:rgb(0,0,0);stroke:none" />
<ellipse cx="43.573311" cy="141.5027716" rx="0.9800919" ry="0.9800919" style="fill:rgb(255,255,255);stroke:none" />
<ellipse cx="43.573311" cy="141.5027716" rx="0.9800919" ry="0.9800919" style="fill:none;stroke:rgb(0,0,178);stroke-width:0.4900459;stroke-linecap:round" />
<ellipse cx="150.4441041" cy="68.4831547" rx="0.9800919" ry="0.9800919" style="fill:rgb(255,255,255);stroke:none" />
<ellipse cx="150.4441041" cy="68.4831547" rx="0.9800919" ry="0.9800919" style="fill:none;stroke:rgb(0,0,0);stroke-width:0.4900459;stroke-linecap:round" />
<path d="M152.2267456,74.0142212 L152.2267456,71.1548462 L153.2111206,71.1548462 Q153.5392456,71.1548462 153.7267456,71.1860962 Q153.9611206,71.2485962 154.1329956,71.3892212 Q154.3673706,71.5923462 154.4767456,71.8892212 Q154.5861206,72.1860962 154.5861206,72.5610962 Q154.5861206,72.8892212 154.5158081,73.1392212 Q154.4454956,73.3892212 154.3204956,73.5610962 Q154.1954956,73.7329712 154.0548706,73.8267212 Q153.9142456,73.9204712 153.7189331,73.9673462 Q153.5236206,74.0142212 153.2579956,74.0142212 L152.2267456,74.0142212 Z M152.6017456,73.6704712 L153.2111206,73.6704712 Q153.4923706,73.6704712 153.6564331,73.6235962 Q153.8204956,73.5767212 153.9142456,73.4673462 Q154.0548706,73.3423462 154.1251831,73.1157837 Q154.1954956,72.8892212 154.1954956,72.5610962 Q154.1954956,72.1079712 154.0470581,71.8657837 Q153.8986206,71.6235962 153.6954956,71.5454712 Q153.5392456,71.4829712 153.2111206,71.4829712 L152.6017456,71.4829712 L152.6017456,73.6704712 Z" style="fill:rgb(0,0,0);stroke:none" />
<ellipse cx="104.9307115" cy="151.126938" rx="0.9800919" ry="0.9800919" style="fill:rgb(255,255,255);stroke:none" />
<ellipse cx="104.9307115" cy="151.126938" rx="0.9800919" ry="0.9800919" style="fill:none;stroke:rgb(0,0,178);stroke-width:0.4900459;stroke-linecap:round" />
<ellipse cx="28.4226646" cy="18.4984686" rx="0.9800919" ry="0.9800919" style="fill:rgb(255,255,255);stroke:none" />
<ellipse cx="28.4226646" cy="18.4984686" rx="0.9800919" ry="0.9800919" style="fill:none;stroke:rgb(0,0,178);stroke-width:0.4900459;stroke-linecap:round" />
<path d="M29.03125,24 L29.78125,22.921875 L29.09375,21.921875 L29.53125,21.921875 L29.84375,22.40625 Q29.9375,22.546875 29.984375,22.640625 Q30.078125,22.515625 30.140625,22.421875 L30.5,21.921875 L30.921875,21.921875 L30.203125,22.90625 L30.96875,24 L30.546875,24 L30.109375,23.359375 L30,23.1875 L29.453125,24 L29.03125,24 Z" style="fill:rgb(0,0,178);stroke:none" />
<path d="M32.125,26 L31.859375,26 L31.859375,24.3125 Q31.765625,24.40625 31.609375,24.5 Q31.453125,24.59375 31.328125,24.640625 L31.328125,24.375 Q31.546875,24.28125 31.7109375,24.1328125 Q31.875,23.984375 31.953125,23.84375 L32.125,23.84375 L32.125,26 Z" style="fill:rgb(0,0,178);stroke:none" />
<ellipse cx="24.6138758" cy="62.2034726" rx="0.9800919" ry="0.9800919" style="fill:rgb(255,255,255);stroke:none" />
<ellipse cx="24.6138758" cy="62.2034726" rx="0.9800919" ry="0.9800919" style="fill:none;stroke:rgb(0,124,0);stroke-width:0.4900459;stroke-linecap:round" />
<path d="M26.25,68.796875 L26.203125,68.46875 Q26.328125,68.5 26.40625,68.5 Q26.53125,68.5 26.6015625,68.4609375 Q26.671875,68.421875 26.71875,68.359375 Q26.75,68.296875 26.828125,68.09375 Q26.828125,68.0625 26.859375,68 L26.0625,65.921875 L26.4375,65.921875 L26.875,67.125 Q26.953125,67.359375 27.03125,67.609375 Q27.09375,67.359375 27.171875,67.140625 L27.609375,65.921875 L27.96875,65.921875 L27.171875,68.03125 Q27.046875,68.375 26.984375,68.5 Q26.890625,68.6875 26.765625,68.765625 Q26.640625,68.84375 26.46875,68.84375 Q26.375,68.84375 26.25,68.796875 Z" style="fill:rgb(0,124,0);stroke:none" />
<path d="M29.125,70 L28.859375,70 L28.859375,68.3125 Q28.765625,68.40625 28.609375,68.5 Q28.453125,68.59375 28.328125,68.640625 L28.328125,68.375 Q28.546875,68.28125 28.7109375,68.1328125 Q28.875,67.984375 28.953125,67.84375 L29.125,67.84375 L29.125,70 Z" style="fill:rgb(0,124,0);stroke:none" />
<ellipse cx="56.2138072" cy="63.7804985" rx="0.9800919" ry="0.9800919" style="fill:rgb(255,255,255);stroke:none" />
<ellipse cx="56.2138072" cy="63.7804985" rx="0.9800919" ry="0.9800919" style="fill:none;stroke:rgb(0,0,178);stroke-width:0.4900459;stroke-linecap:round" />
<path d="M57.03125,70 L57.78125,68.921875 L57.09375,67.921875 L57.53125,67.921875 L57.84375,68.40625 Q57.9375,68.546875 57.984375,68.640625 Q58.078125,68.515625 58.140625,68.421875 L58.5,67.921875 L58.921875,67.921875 L58.203125,68.90625 L58.96875,70 L58.546875,70 L58.109375,69.359375 L58,69.1875 L57.453125,70 L57.03125,70 Z" style="fill:rgb(0,0,178);stroke:none" />
<path d="M60.515625,71.75 L60.515625,72 L59.09375,72 Q59.09375,71.90625 59.125,71.8125 Q59.171875,71.671875 59.296875,71.53125 Q59.421875,71.390625 59.640625,71.203125 Q59.984375,70.921875 60.109375,70.75 Q60.234375,70.578125 60.234375,70.4375 Q60.234375,70.28125 60.125,70.171875 Q60.015625,70.0625 59.828125,70.0625 Q59.640625,70.0625 59.5234375,70.1796875 Q59.40625,70.296875 59.40625,70.5 L59.140625,70.46875 Q59.171875,70.15625 59.3515625,70 Q59.53125,69.84375 59.84375,69.84375 Q60.140625,69.84375 60.3203125,70.015625 Q60.5,70.1875 60.5,70.4375 Q60.5,70.5625 60.453125,70.6875 Q60.40625,70.8125 60.28125,70.953125 Q60.15625,71.09375 59.875,71.328125 Q59.640625,71.53125 59.5703125,71.6015625 Q59.5,71.671875 59.453125,71.75 L60.515625,71.75 Z" style="fill:rgb(0,0,178);stroke:none" />
<ellipse cx="48.8432488" cy="72.3820002" rx="0.9800919" ry="0.9800919" style="fill:rgb(255,255,255);stroke:none" />
<ellipse cx="48.8432488" cy="72.3820002" rx="0.9800919" ry="0.9800919" style="fill:none;stroke:rgb(0,124,0);stroke-width:0.4900459;stroke-linecap:round" />
<path d="M50.25,78.796875 L50.203125,78.46875 Q50.328125,78.5 50.40625,78.5 Q50.53125,78.5 50.6015625,78.4609375 Q50.671875,78.421875 50.71875,78.359375 Q50.75,78.296875 50.828125,78.09375 Q50.828125,78.0625 50.859375,78 L50.0625,75.921875 L50.4375,75.921875 L50.875,77.125 Q50.953125,77.359375 51.03125,77.609375 Q51.09375,77.359375 51.171875,77.140625 L51.609375,75.921875 L51.96875,75.921875 L51.171875,78.03125 Q51.046875,78.375 50.984375,78.5 Q50.890625,78.6875 50.765625,78.765625 Q50.640625,78.84375 50.46875,78.84375 Q50.375,78.84375 50.25,78.796875 Z" style="fill:rgb(0,124,0);stroke:none" />
<path d="M53.515625,79.75 L53.515625,80 L52.09375,80 Q52.09375,79.90625 52.125,79.8125 Q52.171875,79.671875 52.296875,79.53125 Q52.421875,79.390625 52.640625,79.203125 Q52.984375,78.921875 53.109375,78.75 Q53.234375,78.578125 53.234375,78.4375 Q53.234375,78.28125 53.125,78.171875 Q53.015625,78.0625 52.828125,78.0625 Q52.640625,78.0625 52.5234375,78.1796875 Q52.40625,78.296875 52.40625,78.5 L52.140625,78.46875 Q52.171875,78.15625 52.3515625,78 Q52.53125,77.84375 52.84375,77.84375 Q53.140625,77.84375 53.3203125,78.015625 Q53.5,78.1875 53.5,78.4375 Q53.5,78.5625 53.453125,78.6875 Q53.40625,78.8125 53.28125,78.953125 Q53.15625,79.09375 52.875,79.328125 Q52.640625,79.53125 52.5703125,79.6015625 Q52.5,79.671875 52.453125,79.75 L53.515625,79.75 Z" style="fill:rgb(0,124,0);stroke:none" />
<ellipse cx="57.0399547" cy="81.7921256" rx="0.9800919" ry="0.9800919" style="fill:rgb(255,255,255);stroke:none" />
<ellipse cx="57.0399547" cy="81.7921256" rx="0.9800919" ry="0.9800919" style="fill:none;stroke:rgb(0,0,178);stroke-width:0.4900459;stroke-linecap:round" />
<path d="M58.5413437,87.3231888 L59.2913437,86.2450638 L58.6038437,85.2450638 L59.0413437,85.2450638 L59.3538437,85.7294388 Q59.4475937,85.8700638 59.4944687,85.9638138 Q59.5882187,85.8388138 59.6507187,85.7450638 L60.0100937,85.2450638 L60.4319687,85.2450638 L59.7132187,86.2294388 L60.4788437,87.3231888 L60.0569687,87.3231888 L59.6194687,86.6825638 L59.5100937,86.5106888 L58.9632187,87.3231888 L58.5413437,87.3231888 Z" style="fill:rgb(0,0,178);stroke:none" />
<ellipse cx="56.1659251" cy="72.1009988" rx="0.9800919" ry="0.9800919" style="fill:rgb(255,255,255);stroke:none" />
<ellipse cx="56.1659251" cy="72.1009988" rx="0.9800919" ry="0.9800919" style="fill:none;stroke:rgb(0,0,178);stroke-width:0.4900459;stroke-linecap:round" />
<path d="M57.03125,78 L57.78125,76.921875 L57.09375,75.921875 L57.53125,75.921875 L57.84375,76.40625 Q57.9375,76.546875 57.984375,76.640625 Q58.078125,76.515625 58.140625,76.421875 L58.5,75.921875 L58.921875,75.921875 L58.203125,76.90625 L58.96875,78 L58.546875,78 L58.109375,77.359375 L58,77.1875 L57.453125,78 L57.03125,78 Z" style="fill:rgb(0,0,178);stroke:none" />
<path d="M59.125,79.4375 L59.390625,79.390625 Q59.4375,79.625 59.546875,79.71875 Q59.65625,79.8125 59.8125,79.8125 Q60,79.8125 60.125,79.6875 Q60.25,79.5625 60.25,79.375 Q60.25,79.1875 60.1328125,79.0703125 Q60.015625,78.953125 59.828125,78.953125 Q59.75,78.953125 59.640625,78.984375 L59.671875,78.75 Q59.703125,78.75 59.71875,78.75 Q59.890625,78.75 60.0234375,78.6640625 Q60.15625,78.578125 60.15625,78.390625 Q60.15625,78.25 60.0546875,78.15625 Q59.953125,78.0625 59.796875,78.0625 Q59.65625,78.0625 59.5546875,78.15625 Q59.453125,78.25 59.421875,78.453125 L59.15625,78.40625 Q59.203125,78.140625 59.375,77.9921875 Q59.546875,77.84375 59.796875,77.84375 Q59.96875,77.84375 60.1171875,77.921875 Q60.265625,78 60.34375,78.125 Q60.421875,78.25 60.421875,78.40625 Q60.421875,78.546875 60.3515625,78.65625 Q60.28125,78.765625 60.125,78.84375 Q60.328125,78.875 60.4296875,79.015625 Q60.53125,79.15625 60.53125,79.359375 Q60.53125,79.640625 60.328125,79.8359375 Q60.125,80.03125 59.8125,80.03125 Q59.53125,80.03125 59.34375,79.8671875 Q59.15625,79.703125 59.125,79.4375 Z" style="fill:rgb(0,0,178);stroke:none" />
</svg>
