<?xml version="1.0" encoding="UTF-8" standalone="no"?>
<!-- Generator: Adobe Illustrator 16.0.3, SVG Export Plug-In . SVG Version: 6.00 Build 0)  -->

<svg
   xmlns:dc="http://purl.org/dc/elements/1.1/"
   xmlns:cc="http://creativecommons.org/ns#"
   xmlns:rdf="http://www.w3.org/1999/02/22-rdf-syntax-ns#"
   xmlns:svg="http://www.w3.org/2000/svg"
   xmlns="http://www.w3.org/2000/svg"
   xmlns:sodipodi="http://sodipodi.sourceforge.net/DTD/sodipodi-0.dtd"
   xmlns:inkscape="http://www.inkscape.org/namespaces/inkscape"
   version="1.1"
   id="Layer_1"
   x="0px"
   y="0px"
   width="1174.6765"
   height="398.81189"
   viewBox="0 0 1174.6765 398.81189"
   enable-background="new 0 0 250 250"
   xml:space="preserve"
   inkscape:version="0.91 r13725"
   sodipodi:docname="Toshiba logo 1969.svg"><metadata
   id="metadata5035"><rdf:RDF><cc:Work
       rdf:about=""><dc:format>image/svg+xml</dc:format><dc:type
         rdf:resource="http://purl.org/dc/dcmitype/StillImage" /><dc:title></dc:title></cc:Work></rdf:RDF></metadata><defs
   id="defs5033" /><sodipodi:namedview
   pagecolor="#ffffff"
   bordercolor="#666666"
   borderopacity="1"
   objecttolerance="10"
   gridtolerance="10"
   guidetolerance="10"
   inkscape:pageopacity="0"
   inkscape:pageshadow="2"
   inkscape:window-width="1366"
   inkscape:window-height="705"
   id="namedview5031"
   showgrid="false"
   inkscape:zoom="0.472"
   inkscape:cx="766.77798"
   inkscape:cy="550.77168"
   inkscape:window-x="-8"
   inkscape:window-y="-8"
   inkscape:window-maximized="1"
   inkscape:current-layer="Layer_1"
   fit-margin-top="0"
   fit-margin-left="0"
   fit-margin-right="0"
   fit-margin-bottom="0" />


<path
   style="fill:#000000"
   d="m 81.497139,398.23259 c -0.29041,-0.2905 -4.81818,-0.8325 -10.06171,-1.2046 -18.66174,-1.3243 -38.97464,-8.6651 -47.46163,-17.1521 -2.63817,-2.6382 -7.83374,-8.9034 -11.5457,-13.9227 -16.09727,-21.7668 -16.38267,-31.02436 -1.87099,-60.69076 5.43155,-11.10377 22.12386,-27.62205 33.91206,-33.55848 8.23194,-4.14554 9.45585,-4.40965 18.52578,-3.99777 8.6417,0.39244 10.11692,0.8294 13.39148,3.96664 2.86345,2.74335 3.69565,4.66306 3.7507,8.65206 0.10367,7.51159 -2.20043,11.79572 -11.59583,21.56069 -10.8314,11.25746 -13.92844,16.66875 -16.41129,28.67456 -2.2152,10.71156 -1.87919,12.40956 3.78858,19.14536 7.84924,9.3283 32.6588,11.9039 52.679821,5.469 13.90737,-4.4699 19.30092,-7.3199 28.01009,-14.8007 9.95938,-8.55475 30.21084,-33.0178 40.14043,-48.48822 1.76506,-2.75 4.28366,-6.62577 5.59688,-8.61284 1.31323,-1.98705 2.95019,-4.49041 3.63769,-5.56301 0.6875,-1.07259 3.07812,-4.64418 5.3125,-7.93684 2.23437,-3.29267 4.0625,-6.28256 4.0625,-6.6442 0,-0.59086 9.63022,-14.40612 12.19396,-17.49311 0.57096,-0.6875 2.87663,-4.47249 5.1237,-8.41109 2.24708,-3.9386 4.6243,-7.49402 5.28274,-7.90096 0.65842,-0.40692 2.58012,-3.46907 4.27045,-6.80475 3.53412,-6.97428 6.98002,-12.20917 13.21405,-20.07435 2.4233,-3.05737 6.06741,-8.07117 8.09805,-11.14179 2.03062,-3.07062 4.4263,-6.44562 5.32371,-7.5 0.89741,-1.05439 4.11621,-5.29206 7.15289,-9.41706 3.03669,-4.125 6.18864,-8.27501 7.00435,-9.22224 0.8157,-0.94722 5.43317,-6.57222 10.26104,-12.5 4.82786,-5.92777 9.80104,-11.51279 11.0515,-12.41114 1.25046,-0.89836 2.27356,-2.31981 2.27356,-3.15878 0,-1.56534 25.8162,-27.01885 37.61124,-37.08284 3.62589,-3.093747 10.66243,-9.281247 15.63679,-13.749997 11.21908,-10.07878 19.63904,-16.43881 26.49195,-20.01074 5.29318,-2.75896 7.28696,-4.62899 6.14878,-5.76716 -0.33636,-0.33637 -9.70563,1.65924 -20.82061,4.43468 -11.11497,2.77544 -20.59921,4.92137 -21.0761,4.76872 -0.47688,-0.15264 -3.3983,0.63265 -6.49205,1.74509 -3.09375,1.11243 -10.125,3.23512 -15.625,4.71707 -5.5,1.48195 -11.96875,3.45456 -14.375,4.38358 -2.40625,0.92901 -7.46875,2.38859 -11.25,3.2435 -3.78125,0.85491 -8.28125,2.25962 -10,3.1216 -2.84614,1.42737 -11.19633,4.80905 -26.25,10.63077 -8.92594,3.451937 -29.07513,13.275227 -32.5,15.844667 -1.71875,1.28945 -6.5,3.98948 -10.625,6.0001 -4.125,2.01059 -7.78125,4.01877 -8.125,4.46261 -0.34375,0.44384 -5.96805,4.01704 -12.49844,7.94046 -6.53038,3.92341 -12.99913,8.14128 -14.375,9.373 -1.37586,1.23174 -3.34747,2.5338 -4.38137,2.89348 -5.7319,1.99406 -25.92043,20.84222 -31.08993,29.0258 -9.21557,14.58871 -1.65098,23.46216 16.1202,18.90938 8.7516,-2.24205 12.64128,-3.94512 26.64609,-11.66686 l 9.79655,-5.40145 4.57845,2.23835 c 2.78785,1.36295 5.42609,3.97085 6.74582,6.66824 2.03583,4.16101 2.0416,4.88175 0.0951,11.875 -2.63298,9.45995 -7.12807,16.08697 -16.26304,23.97625 -8.78394,7.58612 -16.61039,11.57 -24.1245,12.28005 -3.09375,0.29234 -8.15625,0.76619 -11.25,1.053 -3.09375,0.28681 -8.52155,0.0556 -12.06178,-0.51366 -8.85526,-1.42405 -26.04136,-10.23893 -31.40356,-16.1071 -8.834871,-9.66855 -12.789951,-26.63345 -8.541661,-36.63852 3.45598,-8.13911 4.56845,-10.40831 6.707771,-13.68251 1.19583,-1.83017 3.9948,-6.4489 6.21994,-10.26382 6.71672,-11.51557 30.31664,-32.81989 60.25514,-54.39405 5.14075,-3.704517 11.15951,-7.492867 13.37501,-8.418567 2.2155,-0.9257 4.3651,-2.22822 4.77688,-2.8945 0.41178,-0.66627 8.18462,-5.25281 17.27298,-10.1923 9.08835,-4.93948 22.94374,-12.58697 30.78976,-16.99441 14.3336,-8.05179 44.25297,-20.59681 54.7135,-22.94107 3.08601,-0.69159 8.79695,-2.57858 12.69097,-4.19332 3.89403,-1.61473 11.29879,-4.15168 16.45504,-5.63767 5.15625,-1.48598 12.75,-3.75806 16.875,-5.04905 9.48821,-2.96952 18.92427,-5.74763 23.75,-6.99234 2.0625,-0.53199 4.3125,-1.11272 5,-1.29051 7.11464,-1.83987 19.26376,-4.66551 21.25,-4.94233 1.37501,-0.19162 6.15626,-1.19776 10.62501,-2.2358495 4.46875,-1.0381 11.5,-2.26014 15.625,-2.71566 4.125,-0.45552 10.875,-1.40146 15,-2.1021 35.1456,-5.9695 97.45415,-6.43966 136.25,-1.02809 4.8125,0.67129 12.125,1.49894 16.25,1.83923 4.125,0.34029 10.59375,1.18518 14.375,1.87754 3.78125,0.69235 13.34375,2.34757 21.25,3.6782695 18.6755,3.14325 29.43626,5.54166 42.5,9.47257 5.84375,1.75839 15.15423,4.55139 20.68994,6.20664 5.53571,1.65526 14.81696,4.79829 20.625,6.98451 5.80804,2.18621 14.21631,5.31998 18.68506,6.96393 4.46875,1.64394 9.61804,3.82746 11.44286,4.85227 1.82483,1.0248 4.35608,1.87152 5.625,1.8816 1.26893,0.0101 7.2208,2.49499 13.2264,5.52204 6.00559,3.02704 13.03684,6.19551 15.625,7.04104 5.15624,1.6845 14.34809,6.63334 25.95574,13.97444 4.125,2.6088 9.45115,5.63492 11.8359,6.72472 6.5329,2.98546 23.45515,13.99267 31.9141,20.758777 4.125,3.29949 9.49051,7.51306 11.92335,9.36348 2.43285,1.85043 6.01624,5.91992 7.9631,9.04331 10.57289,16.96231 7.93733,31.88157 -7.91485,44.80392 l -6.75044,5.50281 -8.86058,-0.49933 c -7.26597,-0.40948 -9.98538,-1.20716 -15.11058,-4.4323 -7.91861,-4.98299 -14.23524,-14.39658 -15.2158,-22.67595 -0.86382,-7.29367 2.0461,-17.13322 6.48266,-21.92034 2.73182,-2.94769 3.08672,-6.97494 0.61467,-6.97494 -0.5368,0 -3.71099,-1.84662 -7.05377,-4.10361 -3.34271,-2.25699 -10.29646,-6.22794 -15.45271,-8.82433 -5.15625,-2.596377 -10.21875,-5.199117 -11.25,-5.783847 -2.79285,-1.58356 -18.76539,-8.78821 -19.48325,-8.78821 -0.34155,0 -4.17704,-1.66258 -8.52331,-3.69463 -4.34626,-2.03203 -9.24468,-3.95637 -10.88537,-4.2763 -1.6407,-0.31992 -9.13368,-2.59485 -16.65111,-5.05537 -7.51741,-2.46054 -15.28876,-4.4737 -17.26967,-4.4737 -1.9809,0 -4.71549,-0.59611 -6.07687,-1.3247 -4.2897,-2.29578 -36.73701,-9.62061 -46.39746,-10.47402 -3.25162,-0.28724 -6.47282,-0.86885 -7.15822,-1.29245 -1.70717,-1.05509 -8.1558,-2.07251 -15.87407,-2.50451 -3.54437,-0.19839 -7.08418,-0.75616 -7.86626,-1.23951 -0.78207,-0.48335 -5.47587,-1.14071 -10.43067,-1.4608 -4.95482,-0.32009 -10.69624,-1.08031 -12.75874,-1.68938 -2.0625,-0.60907 -6.5625,-1.43491 -10,-1.8352 -3.4375,-0.40029 -7.65625,-0.98311 -9.375,-1.29516 -6.56924,-1.1927 -31.64279,-2.06113 -56.58634,-1.95989 -25.91994,0.1052 -31.38015,0.78695 -50.28866,6.27896 -12.71449,3.69295 -28.80406,12.68047 -56.4261,31.51922 -13.35721,9.10989 -40.3999,33.488627 -49.67038,44.777437 -1.97605,2.40625 -6.75647,7.77628 -10.62317,11.93339 -3.8667,4.15711 -8.15536,9.13852 -9.53036,11.0698 -1.375,1.93126 -7.28125,9.60428 -13.125,17.05116 -5.84375,7.44688 -14.5625,19.03289 -19.375,25.7467 -4.8125,6.7138 -10.877,14.67846 -13.47667,17.69922 -2.59968,3.02078 -6.70382,8.58307 -9.12032,12.36067 -2.4165,3.77758 -4.93803,7.51988 -5.60342,8.31621 -2.46313,2.9478 -7.42459,10.96859 -7.42459,12.0027 0,0.93055 -9.53696,14.72344 -25.82975,37.35643 -2.63738,3.6637 -8.4515,11.26298 -12.92025,16.88731 -4.46875,5.62431 -10.495,13.31424 -13.39166,17.08872 -4.99579,6.50973 -8.71469,10.8339 -17.40946,20.24295 -4.15938,4.50106 -26.31646,25.10106 -32.32387,30.05226 -2.0625,1.6999 -5.4375,4.0208 -7.5,5.1575 -5.43193,2.9938 -8.00822,4.6661 -14.20733,9.2225 -3.03995,2.2344 -6.29767,4.0625 -7.23939,4.0625 -0.94171,0 -2.68895,0.5126 -3.88275,1.1392 -1.1938,0.6265 -4.98303,2.0865 -8.42053,3.2443 -3.4375,1.1579 -8.54019,3.1322 -11.3393,4.3873 -2.79912,1.2552 -7.29912,2.696 -10,3.2018 -2.70089,0.5058 -6.720761,1.6752 -8.933061,2.5985 -3.7408,1.5614 -14.26992,2.3449 -15.464,1.1509 z M 1101.6085,342.48749 c -3.0938,-0.6025 -8.7188,-1.477 -12.5,-1.9434 -8.6582,-1.0679 -12.5467,-3.0445 -17.2756,-8.78145 l -3.7505,-4.55007 -4.1745,3.14679 c -5.4786,4.1299 -23.9164,9.89843 -29.0149,9.07783 -2.1502,-0.3462 -6.102,-0.9314 -8.7818,-1.3005 -13.2419,-1.82425 -22.0516,-6.28111 -26.60138,-13.4579 -4.46028,-7.03558 -7.89687,-16.25313 -7.92046,-21.24413 -0.0344,-7.26014 -1.22931,-7.41908 -10.62429,-1.41309 -4.80236,3.07005 -10.41907,6.3971 -12.48157,7.39345 -2.0625,0.99635 -8.25,4.6376 -13.75,8.09166 -15.90493,9.98848 -36.8532,19.86841 -46.33161,21.85151 -13.92237,2.9129 -29.72732,0.3702 -36.42148,-5.85966 l -2.75307,-2.56211 -6.10819,3.19389 c -7.43443,3.88738 -16.87498,5.72428 -22.76065,4.42868 -2.40625,-0.5297 -5.06228,-0.7248 -5.90228,-0.4335 -2.89213,1.0029 -8.60518,-1.9436 -10.72428,-5.53096 -2.50532,-4.24116 -2.66498,-6.75075 -0.63614,-9.99942 1.16044,-1.85817 1.13956,-2.80052 -0.095,-4.28805 -1.39501,-1.68088 -2.28961,-1.47128 -7.55915,1.7711 -3.28728,2.02268 -10.97891,5.95937 -17.09253,8.74818 -6.11361,2.78882 -12.5219,5.82082 -14.24065,6.7378 -1.71875,0.91695 -6.22181,2.35125 -10.0068,3.18735 -9.26571,2.0467 -16.55938,0.099 -22.25867,-5.9441 -4.88044,-5.1748 -6.4845,-8.80601 -6.4845,-14.67942 0,-2.32093 -0.4391,-4.49124 -0.97577,-4.82292 -0.53669,-0.33169 -4.89607,1.86342 -9.6875,4.87802 -11.30101,7.11016 -30.48117,16.43208 -39.87347,19.37922 -9.444,2.9634 -17.12506,1.6094 -23.8504,-4.20416 -5.24449,-4.5335 -9.36029,-13.91718 -9.36185,-21.34422 -9.2e-4,-4.44984 2.85631,-14.3607 6.88399,-23.87834 0.8728,-2.0625 1.98635,-5.15625 2.47455,-6.875 0.48819,-1.71875 2.26994,-6.11025 3.95943,-9.7589 1.6895,-3.64864 5.23797,-13.21114 7.88551,-21.25 2.64754,-8.03885 6.17947,-18.00201 7.84875,-22.14034 4.27456,-10.59713 5.21061,-17.40833 2.7329,-19.88605 -3.5445,-3.5445 -11.07961,-1.76742 -17.18249,4.05232 -4.30086,4.10133 -12.36185,18.47072 -16.37204,29.18453 -1.63115,4.35789 -4.77655,12.14219 -6.98976,17.29844 -2.21321,5.15625 -4.8531,11.34375 -5.86642,13.75 -1.01332,2.40625 -2.6936,6.0625 -3.73398,8.125 -1.04036,2.0625 -3.17586,7.125 -4.74555,11.25 -1.56969,4.125 -6.51445,15.09375 -10.98834,24.375 -9.9049,20.54802 -11.83166,22.23432 -25.90756,22.67412 -11.74059,0.3668 -18.05719,-2.3257 -22.00984,-9.38167 l -2.70711,-4.83255 2.76296,-8.91745 c 1.51964,-4.9046 3.37945,-10.04245 4.13293,-11.41745 9.09584,-16.59884 8.44125,-21.5827 -1.62216,-12.35066 -2.71248,2.48839 -7.18178,6.09671 -9.93178,8.01851 -2.75,1.9218 -7.9433,6.28535 -11.54066,9.69678 -4.50099,4.26833 -8.28726,6.64238 -12.14151,7.6129 -3.08045,0.77566 -10.39354,4.16815 -16.25129,7.53886 -9.86453,5.6763 -20.60256,9.90745 -30.2945,11.93703 -6.8048,1.4251 -24.06899,-1.72253 -31.0722,-5.66501 -6.09774,-3.43275 -17.14579,-13.94763 -20.18739,-19.2132 -3.41389,-5.91005 -5.56456,-11.64346 -6.25376,-16.67168 -0.40306,-2.94073 -1.18484,-5.62613 -1.73728,-5.96754 -0.87796,-0.54261 -4.6172,1.6697 -17.39641,10.29261 -1.71875,1.15974 -4.8125,3.61373 -6.875,5.4533 -2.0625,1.83956 -5.69699,4.40745 -8.07662,5.70639 -2.37965,1.29894 -6.70808,4.13332 -9.61872,6.29862 -2.91065,2.1653 -8.27616,5.31225 -11.92337,6.99323 -17.3947,8.01709 -21.09779,9.37547 -28.283,10.3749 -2.28344,0.31762 -5.12515,1.09846 -6.31491,1.7352 -3.09723,1.65758 -25.1383,-3.74458 -29.68779,-7.27634 -8.18953,-6.35751 -17.14629,-16.06207 -19.97325,-21.64082 -6.54583,-12.91757 -7.13193,-45.69392 -1.02231,-57.17079 1.66373,-3.12531 3.02497,-6.76758 3.02497,-8.09391 0,-1.32634 0.7753,-3.29957 1.7229,-4.38495 0.94759,-1.08539 4.3938,-7.03593 7.65824,-13.22343 3.26444,-6.1875 7.65589,-13.78125 9.75879,-16.875 5.12237,-7.53594 29.66106,-31.25 32.33668,-31.25 1.16922,0 2.45148,-0.52687 2.84947,-1.17085 0.891,-1.44166 8.0359,-5.07915 9.97667,-5.07915 0.78025,0 3.64264,-1.13386 6.36085,-2.51967 9.25158,-4.71673 21.57431,-7.17495 33.93015,-6.76863 13.50928,0.44425 16.91875,1.88776 26.06751,11.03653 5.07498,5.07496 7.0173,8.22556 9.16014,14.85832 4.96776,15.37691 4.85391,22.10224 -0.85096,50.26845 -2.37974,11.74931 -3.937,16.61698 -8.53035,26.66401 -1.04705,2.29022 -1.66571,4.40203 -1.37483,4.69293 0.2909,0.2909 2.27178,-0.34055 4.40195,-1.40323 2.61899,-1.30652 4.34997,-3.43315 5.34599,-6.56791 2.64504,-8.32466 10.94888,-23.90846 14.54489,-27.29637 6.21385,-5.85424 16.3682,-11.71443 20.29842,-11.71443 3.97506,0 15.09349,4.78746 15.09349,6.49909 0,2.28547 3.77431,0.64281 12.2606,-5.3361 10.21725,-7.19844 10.59905,-7.74849 12.5781,-18.12101 1.61467,-8.46284 4.88282,-15.62421 9.33279,-20.4506 1.63103,-1.769 5.28947,-6.35102 8.12986,-10.18224 8.16071,-11.00749 17.4485,-15.92513 37.40942,-19.80733 2.9853,-0.5806 5.63335,-0.55627 6.01128,0.0553 0.37152,0.60113 2.80911,1.09297 5.41686,1.09297 9.36205,0 17.4195,8.34124 15.897,16.4569 -0.85631,4.56451 -6.4517,9.64416 -25.24501,22.9181 -7.726,5.45696 -9.76323,8.95947 -8.6576,14.88458 1.44402,7.73868 1.88049,49.7044 0.6003,57.71808 -0.71611,4.4827 -0.97605,8.6778 -0.57763,9.32245 0.63528,1.0279 6.32484,-1.70552 8.09403,-3.88858 0.34375,-0.42417 4.28125,-3.43769 8.75,-6.6967 23.76106,-17.32871 28.44347,-23.79025 39.97477,-55.16346 6.39633,-17.40246 7.58519,-20.16732 18.78049,-43.67637 12.33686,-25.90627 14.0369,-30.625 11.03338,-30.625 -0.9528,0 -2.99123,0.88173 -4.52982,1.95941 -4.50006,3.15195 -8.14648,1.8773 -9.18118,-3.20941 -1.56892,-7.71296 0.0616,-11.36727 8.78418,-19.6875 4.50468,-4.29688 8.62014,-7.8125 9.14548,-7.8125 0.52532,0 3.66871,-1.66968 6.9853,-3.71041 13.62601,-8.384157 32.15994,-11.234257 39.65561,-6.098137 4.54559,3.114677 8.23461,10.647377 7.32544,14.957937 -2.66955,12.65678 -3.47126,15.05099 -9.57711,28.60061 -1.70395,3.78125 -3.52144,8.28125 -4.03887,10 -0.51742,1.71875 -3.70891,8.95378 -7.0922,16.07786 -3.38327,7.12407 -5.87897,13.22531 -5.54597,13.5583 0.33299,0.33299 4.41221,-0.91752 9.06494,-2.77889 9.5385,-3.81601 20.34317,-4.81132 26.05562,-2.40022 3.99276,1.68525 10.03849,7.62185 13.56641,13.32153 5.93885,9.59475 6.23767,26.0102 0.7879,43.28495 -1.44213,4.57132 -3.49013,11.40522 -4.55112,15.18647 -1.06099,3.78125 -2.98751,9.125 -4.28118,11.875 -4.21292,8.95559 -12.36207,32.13955 -12.36207,35.16948 0,3.50363 1.8295,3.7008 10.35005,1.11545 7.03051,-2.13324 11.69564,-4.62005 20.38102,-10.8644 9.17878,-6.59907 13.49737,-14.02461 22.41755,-38.54556 0.87535,-2.40625 4.201,-12.53125 7.39034,-22.5 3.18934,-9.96875 6.27003,-18.98721 6.84598,-20.04103 0.57595,-1.05382 1.4302,-3.58507 1.89833,-5.625 0.46815,-2.03993 2.66494,-6.80272 4.88177,-10.58397 3.02095,-5.15285 5.46348,-7.59078 9.75087,-9.73245 10.24583,-5.11809 28.77486,-3.16803 32.289,3.39821 2.52033,4.70925 1.45501,11.37578 -4.40792,27.58424 -2.79993,7.74052 -5.65588,16.74306 -6.93963,21.875 -0.6879,2.75 -1.78097,5.53437 -2.42905,6.1875 -0.64807,0.65312 -1.17831,1.96344 -1.17831,2.9118 0,0.94837 -1.32524,5.19525 -2.94496,9.4375 -1.61974,4.24226 -4.47817,11.93195 -6.35206,17.0882 -1.87392,5.15625 -3.8624,10.5 -4.41888,11.875 -2.65465,6.55944 -4.8721,15.84269 -4.20163,17.58991 0.99703,2.59823 6.14949,1.82801 17.29253,-2.58496 14.34312,-5.68031 20.2421,-11.6799 29.8782,-30.38781 2.78666,-5.41013 5.24134,-11.6814 12.57118,-32.11714 2.95908,-8.25 7.21502,-19.78125 9.45764,-25.625 2.24263,-5.84375 5.36843,-14.28125 6.94625,-18.75 5.44017,-15.40786 6.97128,-19.35939 7.98779,-20.61515 0.56091,-0.69291 1.85639,-4.3536 2.87885,-8.13485 1.02245,-3.78125 3.00366,-9.95781 4.4027,-13.72569 1.39904,-3.76789 2.27749,-7.28145 1.95211,-7.80792 -0.32538,-0.52648 -2.21925,-0.1155 -4.20858,0.9132 -5.04554,2.60915 -7.33069,2.3402 -8.87275,-1.04427 -1.84378,-4.04666 0.54159,-12.30616 4.85797,-16.8211 3.89733,-4.07657 13.33998,-11.51422 14.61819,-11.51422 0.47289,0 4.08742,-1.89166 8.03231,-4.2037 9.25726,-5.425537 15.62588,-7.479897 22.39428,-7.223887 7.20472,0.27251 9.21786,1.50694 13.84151,8.487357 3.23866,4.88949 3.88735,7.08983 3.88735,13.18577 0,4.24227 -1.08288,10.32405 -2.57699,14.47318 -1.41734,3.93595 -3.72454,10.81253 -5.12712,15.28128 -1.40258,4.46875 -3.8411,10.65625 -5.41894,13.75 -6.15078,12.06016 -8.28808,18.79626 -5.93945,18.71926 0.51562,-0.0169 4.03125,-1.04717 7.8125,-2.28949 14.47864,-4.75691 23.41211,-2.82048 34.36999,7.45007 5.40892,5.06965 10.63001,14.0196 10.63001,18.2219 0,1.3491 0.8906,5.06668 1.97911,8.2613 1.3681,4.01515 1.79088,8.42542 1.3694,14.28517 -0.79517,11.05506 -4.04587,28.39904 -6.44784,34.40213 -1.04537,2.61263 -1.90112,6.0045 -1.90166,7.53746 -5.4e-4,1.53296 -1.70795,6.39542 -3.79424,10.80546 -2.32166,4.90761 -3.34502,8.46649 -2.63788,9.17363 1.46907,1.46907 19.07155,-10.06224 23.6874,-15.51753 4.7867,-5.65721 6.70806,-9.1576 10.86781,-19.79936 2.0156,-5.15625 4.6059,-10.78125 5.7562,-12.5 1.1504,-1.71875 4.2087,-6.5 6.7963,-10.625 2.5876,-4.125 6.1612,-9.75 7.9412,-12.5 1.78,-2.75 8.5879,-10.34375 15.1287,-16.875 9.5333,-9.5195 13.9986,-12.93915 22.5113,-17.2398 19.2135,-9.70665 35.7179,-10.04118 48.602,-0.98511 7.3637,5.17577 8.3284,5.36405 10.14,1.979 2.7242,-5.09013 9.664,-7.2442 23.2153,-7.20589 6.9177,0.0195 13.7351,-0.58394 15.1499,-1.3411 2.0783,-1.11229 2.9861,-0.91941 4.7271,1.00435 1.2081,1.33497 1.7416,3.04964 1.2142,3.90292 -0.6001,0.97103 -0.4182,1.19907 0.5026,0.62999 1.8083,-1.11759 1.8903,4.52457 0.2163,14.88064 -1.1793,7.29537 -2.7876,12.04872 -7.6596,22.63691 -1.3,2.8253 -2.3636,5.52804 -2.3636,6.00609 0,0.47804 -1.0839,3.24844 -2.4086,6.15644 -1.3248,2.90801 -2.7838,6.95527 -3.2423,8.99392 -1.0204,4.53673 -3.5967,10.9325 -6.88,17.07929 -1.358,2.54245 -2.4691,5.19766 -2.4691,5.90045 0,1.15924 -2.2679,6.58813 -8.6586,20.7269 -7.3027,16.15657 -7.8499,17.8527 -7.0029,21.70879 0.5462,2.48696 1.6222,3.91366 2.9483,3.90923 5.8785,-0.0196 12.222,-3.22581 19.5861,-9.89947 7.966,-7.21914 11.6558,-8.84355 20.0875,-8.84355 6.0526,0 7.9213,3.3426 7.2169,12.90891 -0.8948,12.14996 -3.6608,19.84849 -8.9176,24.81977 -6.2048,5.86781 -12.9655,9.77129 -16.9235,9.77129 -1.784,0 -6.0607,1.1104 -9.5038,2.4676 -3.821,1.506 -8.8313,2.3948 -12.8588,2.2808 -3.6292,-0.1026 -9.4111,0.1533 -12.8486,0.5686 -3.4375,0.4154 -8.7813,0.2624 -11.875,-0.3401 z M 898.05517,306.74116 c 5.29818,-2.67168 16.7905,-14.40061 19.45504,-19.85559 1.34328,-2.75 3.65824,-7.53125 5.14438,-10.625 3.17028,-6.59973 10.55547,-31.02666 12.72913,-42.10231 2.1078,-10.74014 1.19178,-25.16634 -1.73383,-27.30559 -5.35699,-3.91713 -16.73419,1.47356 -20.66093,9.78947 -2.61757,5.54342 -9.08442,23.50882 -12.23631,33.99343 -1.03339,3.4375 -2.95106,8.53697 -4.26151,11.33215 -1.31045,2.79519 -2.38264,5.91706 -2.38264,6.9375 0,1.02045 -0.49321,2.38973 -1.09604,3.04285 -0.60282,0.65312 -2.52253,5.125 -4.26603,9.9375 -1.74349,4.8125 -4.48466,12.30333 -6.09147,16.64629 -2.79537,7.55551 -2.82427,7.96808 -0.66953,9.55991 2.61206,1.92967 10.95525,1.22845 16.06975,-1.35061 z m 173.91063,-5.57613 c 3.1669,-3.39929 9.6427,-15.91287 9.6427,-18.63324 0,-1.11167 0.5125,-2.5556 1.139,-3.20872 1.5055,-1.56964 9.2847,-21.67221 14.6849,-37.94818 2.3743,-7.15586 5.1289,-14.58106 6.1215,-16.50042 4.0729,-7.8762 0.7836,-14.5681 -7.7216,-15.70889 -8.3206,-1.11601 -20.4798,5.6949 -24.9346,13.96698 -1.2967,2.40791 -2.7253,4.37801 -3.1745,4.37801 -0.4493,0 -2.8992,4.21434 -5.4443,9.36519 -2.545,5.15085 -5.1,9.6573 -5.6777,10.01433 -0.5777,0.35703 -1.411,2.29133 -1.8519,4.29844 -0.4408,2.00711 -1.6091,4.31954 -2.5962,5.13873 -0.987,0.81918 -1.7946,2.41325 -1.7946,3.54237 0,1.12913 -1.0426,4.01338 -2.3168,6.40945 -1.2743,2.39606 -2.7215,6.5481 -3.216,9.22674 -0.4945,2.67864 -1.7515,6.17128 -2.7934,7.76143 -2.2422,3.42206 -2.6386,20.02852 -0.5284,22.1387 4.4234,4.42345 25.0674,1.5494 30.4619,-4.24092 z m -555.92815,-6.7 c 5.3669,-3.51652 7.45704,-13.86491 7.35471,-36.41361 -0.0501,-11.04629 -0.46355,-21.05465 -0.91872,-22.2408 -0.72078,-1.87831 -1.67699,-1.53056 -7.40886,2.69441 -3.6197,2.66809 -7.98753,5.58119 -9.70628,6.47355 -1.71875,0.89237 -6.04062,4.08858 -9.60416,7.10269 -5.66373,4.7905 -6.63076,6.30294 -7.68374,12.01726 -3.1796,17.25529 1.38705,28.74829 13.01069,32.7443 5.0384,1.73213 9.85174,0.96689 14.95636,-2.3778 z M 377.98548,280.13628 c 9.62018,-4.56027 16.41167,-13.18931 27.47352,-34.907 5.89045,-11.56468 6.63241,-13.91895 7.13775,-22.64837 0.69476,-12.00161 -1.1,-18.16753 -6.03029,-20.71708 -5.25408,-2.71698 -9.31113,-2.29547 -17.90425,1.86021 -13.18462,6.37617 -24.06647,18.82608 -33.1031,37.87322 -4.62205,9.74221 -5.20061,11.97496 -5.20061,20.06965 0,9.21979 1.27951,12.37712 7.52233,18.56212 4.06995,4.03227 11.47471,3.9981 20.10465,-0.0927 z M 677.8585,18.834343 c 0,-0.72807 0.5625,-1.32377 1.25,-1.32377 0.6875,0 1.25,0.24805 1.25,0.55123 0,0.30317 -0.5625,0.89887 -1.25,1.32377 -0.6875,0.4249 -1.25,0.17684 -1.25,-0.55123 z"
   id="path8139"
   inkscape:connector-curvature="0" /></svg>