<?xml version="1.0" encoding="UTF-8" standalone="no"?>
<!DOCTYPE svg PUBLIC "-//W3C//DTD SVG 1.1//EN" "http://www.w3.org/Graphics/SVG/1.1/DTD/svg11.dtd">
<!-- Created with Vectornator (http://vectornator.io/) -->
<svg height="100%" stroke-miterlimit="10" style="fill-rule:nonzero;clip-rule:evenodd;stroke-linecap:round;stroke-linejoin:round;" version="1.1" viewBox="0 0 2873.33 545.1" width="100%" xml:space="preserve" xmlns="http://www.w3.org/2000/svg" xmlns:vectornator="http://vectornator.io" xmlns:xlink="http://www.w3.org/1999/xlink">
<defs/>
<g id="Layer-2" vectornator:layerName="Layer 2">
<path d="M1210.05 545.1L0 545.1L0 0.30078L1210.05 0.30078L1210.05 545.1Z" fill="#ed1c24" fill-rule="evenodd" opacity="1" stroke="none" vectornator:layerName="path"/>
<path d="M683.174 72.699L757.705 72.699L790.841 313.296L823.908 72.699L896.372 72.699L833.041 471.561L748.974 471.561L683.174 72.699Z" fill="#ffffff" fill-rule="evenodd" opacity="1" stroke="none" vectornator:layerName="path 1"/>
<path d="M588.244 144.476C621.709 144.746 635.912 173.679 636.311 205.011C636.643 237.011 621.244 271.476 588.244 271.878L588.244 144.476ZM664.842 317.343L710.244 471.475L638.643 471.608L605.377 342.21C599.912 342.944 594.178 343.409 588.244 343.542L588.244 471.608L516.377 471.608L516.377 72.7459L588.244 72.8123C670.842 72.7459 709.912 142.746 710.842 208.343C711.443 250.277 696.576 291.609 664.842 317.343" fill="#ffffff" fill-rule="evenodd" opacity="1" stroke="none" vectornator:layerName="path 2"/>
<path d="M436.327 346.608L415.725 176.609L395.128 346.608L436.327 346.608ZM367.995 72.742L463.46 72.742L523.659 471.608L451.858 471.608L444.26 410.272L387.261 410.272L379.659 471.608L307.792 471.608L367.995 72.742Z" fill="#ffffff" fill-rule="evenodd" opacity="1" stroke="none" vectornator:layerName="path 3"/>
<path d="M65.9334 72.699L158.601 72.699L189.531 274.097L220.398 72.699L313.066 72.699L313.066 471.561L241.199 471.561L241.199 277.097L210.8 472.296L168.199 472.296L137.8 277.097L137.8 471.561L65.9334 471.561L65.9334 72.699Z" fill="#ffffff" fill-rule="evenodd" opacity="1" stroke="none" vectornator:layerName="path 4"/>
<path d="M1109.75 399.268L1170.68 399.268L1170.68 471.6L1037.88 471.6L1037.88 72.6717L1109.75 72.6717L1109.75 399.268Z" fill="#ffffff" fill-rule="evenodd" opacity="1" stroke="none" vectornator:layerName="path 5"/>
<path d="M961.489 399.268L1025.89 399.268L1025.89 471.6L889.626 471.6L889.626 72.6717L1025.89 72.6717L1025.89 146.336L961.489 146.336L961.489 235.402L1025.89 235.402L1025.89 308.671L961.489 308.671L961.489 399.268Z" fill="#ffffff" fill-rule="evenodd" opacity="1" stroke="none" vectornator:layerName="path 6"/>
<path d="M1276.5 545.1L2873.26 545.1L2873.26 520.151L1276.5 520.151L1276.5 545.1Z" fill="#000000" fill-rule="evenodd" opacity="1" stroke="none" vectornator:layerName="path 7"/>
<path d="M1276.5 24.8515L2873.26 24.8515L2873.26 0L1276.5 0L1276.5 24.8515Z" fill="#000000" fill-rule="evenodd" opacity="1" stroke="none" vectornator:layerName="path 8"/>
<path d="M1385.6 460.666L1328.09 460.666L1328.09 136.569L1276.5 136.569L1276.5 84.4344L1437.2 84.4344L1437.2 136.569L1385.6 136.569L1385.6 460.666Z" fill="#000000" fill-rule="nonzero" opacity="1" stroke="none"/>
<path d="M1459.77 84.4344L1587.69 84.4344L1587.69 136.569L1517.28 136.569L1517.28 242.989L1585.01 242.989L1585.01 295.124L1517.28 295.124L1517.28 408.531L1588.77 408.531L1588.77 460.666L1459.77 460.666L1459.77 84.4344Z" fill="#000000" fill-rule="nonzero" opacity="1" stroke="none"/>
<path d="M1619.4 84.4344L1676.91 84.4344L1676.91 408.531L1740.34 408.531L1740.34 460.666L1619.4 460.666L1619.4 84.4344Z" fill="#000000" fill-rule="nonzero" opacity="1" stroke="none"/>
<path d="M1766.67 84.4344L1894.59 84.4344L1894.59 136.569L1824.18 136.569L1824.18 242.989L1891.9 242.989L1891.9 295.124L1824.18 295.124L1824.18 408.531L1895.67 408.531L1895.67 460.666L1766.67 460.666L1766.67 84.4344Z" fill="#000000" fill-rule="nonzero" opacity="1" stroke="none"/>
<path d="M2006.38 361.771L2040.78 84.4344L2095.07 84.4344L2039.71 461.203L1969.3 461.203L1913.94 84.4344L1971.99 84.4344L2006.38 361.771Z" fill="#000000" fill-rule="nonzero" opacity="1" stroke="none"/>
<path d="M2176.76 84.4344L2176.76 460.666L2119.25 460.666L2119.25 84.4344L2176.76 84.4344Z" fill="#000000" fill-rule="nonzero" opacity="1" stroke="none"/>
<path d="M2341.23 267.713C2353.77 276.671 2362.46 285.897 2367.3 295.393C2372.14 304.888 2374.55 317.339 2374.55 332.747L2374.55 394.019C2374.55 440.6 2351.26 463.89 2304.68 463.89L2279.42 463.89C2233.2 463.89 2210.09 440.779 2210.09 394.556L2210.09 315.01L2265.98 315.01L2265.98 392.407C2265.98 406.739 2273.33 413.905 2288.02 413.905L2295.55 413.905C2310.24 413.905 2317.58 406.739 2317.58 392.407L2317.58 340.809C2317.58 328.268 2312.21 318.056 2301.46 310.173L2243.41 267.713C2230.87 258.755 2222.18 249.439 2217.34 239.764C2212.51 230.09 2210.09 217.728 2210.09 202.678L2210.09 151.081C2210.09 104.5 2233.38 81.2095 2279.96 81.2095L2304.15 81.2095C2350.37 81.2095 2373.48 104.321 2373.48 150.544L2373.48 218.803L2317.04 218.803L2317.04 152.693C2317.04 138.361 2309.88 131.195 2295.55 131.195L2288.56 131.195C2274.23 131.195 2267.06 138.361 2267.06 152.693L2267.06 194.616C2267.06 207.516 2272.43 217.728 2283.18 225.252L2341.23 267.713Z" fill="#000000" fill-rule="nonzero" opacity="1" stroke="none"/>
<path d="M2463.77 84.4344L2463.77 460.666L2406.26 460.666L2406.26 84.4344L2463.77 84.4344Z" fill="#000000" fill-rule="nonzero" opacity="1" stroke="none"/>
<path d="M2668.01 394.019C2668.01 440.6 2644.72 463.89 2598.14 463.89L2567.51 463.89C2520.93 463.89 2497.64 440.6 2497.64 394.019L2497.64 151.081C2497.64 104.5 2520.93 81.2095 2567.51 81.2095L2598.14 81.2095C2644.72 81.2095 2668.01 104.5 2668.01 151.081L2668.01 394.019ZM2610.5 153.768C2610.5 139.077 2603.34 131.732 2589.01 131.732L2577.18 131.732C2562.49 131.732 2555.15 139.077 2555.15 153.768L2555.15 391.332C2555.15 406.023 2562.49 413.368 2577.18 413.368L2589.01 413.368C2603.34 413.368 2610.5 406.023 2610.5 391.332L2610.5 153.768Z" fill="#000000" fill-rule="nonzero" opacity="1" stroke="none"/>
<path d="M2822.27 318.235L2821.73 84.4344L2873.33 84.4344L2873.33 460.666L2810.98 460.666L2752.4 206.978L2752.94 460.666L2701.34 460.666L2701.34 84.4344L2768.52 84.4344L2822.27 318.235Z" fill="#000000" fill-rule="nonzero" opacity="1" stroke="none"/>
</g>
</svg>
