<svg xmlns="http://www.w3.org/2000/svg" xml:space="preserve" width="1010" height="1179.994"><defs><clipPath id="a" clipPathUnits="userSpaceOnUse"><path d="M88.32 654.176h109.748v130.225H88.32Z"/></clipPath></defs><g clip-path="url(#a)" transform="matrix(11.66634 0 0 -11.66634 -1146.519 8981.467)"><path d="M0 0c.068 1.28.966 4.857 2.862 10.158 3.55 9.947 11.08 24.424 25.031 28.946l.023-3.908S14.432 30.884 4.153 9.655C2.085 5.383.676.988.101-.022Zm19.165 3.356c14.67 3.57 17.798 20.543 17.788 34.387-.006 10.315-1.751 18.896-1.751 18.896C2.485 43.973-4.882 31.963-4.947 23.765c0-3.037.864-5.496 1.557-6.529l.057.029c-.242.848-.588 2.521-.588 3.911-.068 7.285 6.205 17.933 35.529 29.286 0 0 1.558-7.627 1.571-16.784.019-11.797-2.352-26.093-14.098-30.254l.084-.068" style="fill:#0e8f32;fill-opacity:1;fill-rule:nonzero;stroke:none" transform="translate(117.255 698.725)"/><g style="fill:#0c247a;fill-opacity:1"><path d="M0 0c-12.47-4.752-21.96-9.495-28.85-14.314-6.948-4.859-11.314-9.79-13.351-15.08-.492-1.275-1.002-3.065-1.093-4.85-1.517 1.268-1.952 1.629-2.66 2.22-2.208 1.842-4.555 3.955-4.555 7.34 0 3.383 2.347 5.499 4.555 7.336 4.801 4.002 31.665 26.383 33.74 28.116.66.551 1.066.778 1.624.778.556 0 .962-.227 1.621-.778 2.074-1.733 28.942-24.114 33.743-28.116 2.204-1.837 4.549-3.953 4.549-7.336 0-3.385-2.345-5.498-4.549-7.34-4.801-4.002-31.669-26.382-33.743-28.11-.659-.555-1.065-.782-1.621-.782-.558 0-.964.227-1.624.782-.44.364-1.229 1.027-3.449 2.875 6.785 2.057 11.635 7.147 14.5 14.371 2.267 5.716 3.417 12.938 3.417 21.467C2.254-10.828.477-1.967 0 0" style="fill:#0c247a;fill-opacity:1;fill-rule:nonzero;stroke:none" transform="translate(153.825 757.887)"/></g><g style="fill:#0e8f32;fill-opacity:1"><path d="M0 0c-2.638 0-4.952-1.676-4.952-3.106 0-1.214 1.4-1.74 2.717-1.74 2.529 0 4.931 1.581 4.931 3.15C2.696-.715 1.597 0 0 0" style="fill:#0e8f32;fill-opacity:1;fill-rule:nonzero;stroke:none" transform="translate(113.01 680.408)"/></g><g style="fill:#0c247a;fill-opacity:1"><path d="m0 0-9.125 20.273h-5.27V-3.853h3.65v20.072h.081l9.04-20.072H1.66l9.045 20.072h.08V-3.853h3.649v24.126h-5.27L.016 0Zm-42.276 20.273h9.627c8.718 0 14.216-4.5 14.216-12.068 0-7.208-5.208-12.058-14.216-12.058h-9.627zm3.851-21.423h5.797c7.041 0 10.341 3.962 10.341 9.332 0 5.744-3.573 9.388-10.26 9.388h-5.878zm-19.296 18.518h-.059l-9.367-21.221h-4.05l11.314 24.126h4.409L-44.16-3.853h-4.335l-9.226 21.221" style="fill:#0c247a;fill-opacity:1;fill-rule:nonzero;stroke:none" transform="translate(169.901 672.998)"/></g><path d="M0 0c-1.286 0-2.469 1.009-2.469 2.476A2.459 2.459 0 0 0 .007 4.953a2.454 2.454 0 0 0 2.484-2.49C2.485 1.09 1.406 0 0 0m.022 4.654a2.172 2.172 0 0 1-2.191-2.178c0-1.223.981-2.177 2.176-2.177 1.231 0 2.179.962 2.186 2.172A2.153 2.153 0 0 1 .022 4.654m-.059-.774c.357 0 .529 0 .714-.064.311-.112.47-.368.47-.631 0-.389-.309-.614-.689-.67.331-.113.434-.276.495-.614.07-.407.091-.558.229-.808H.664c-.068.126-.096.25-.123.382-.015.063-.062.375-.077.444-.089.414-.336.463-.776.47h-.222V1.093h-.447V3.88Zm-.489-1.166h.516c.192 0 .702-.005.702.44a.384.384 0 0 1-.144.305c-.131.107-.282.107-.654.107h-.42v-.852" style="fill:#000;fill-opacity:1;fill-rule:nonzero;stroke:none" transform="translate(157.785 699.01)"/></g></svg>