<?xml version="1.0" encoding="UTF-8"?>
<svg width="146px" height="46px" viewBox="0 0 146 46" version="1.1" xmlns="http://www.w3.org/2000/svg" xmlns:xlink="http://www.w3.org/1999/xlink">
    <title>编组备份 8</title>
    <g id="页面-1" stroke="none" stroke-width="1" fill="none" fill-rule="evenodd">
        <g id="品牌介绍" transform="translate(-240.000000, -17.000000)" fill-rule="nonzero">
            <g id="编组备份-8" transform="translate(240.000000, 17.000000)">
                <g id="编组" transform="translate(42.000000, 33.000000)" fill="#E60012">
                    <path d="M29.4748837,0.364422202 L28.9363402,0.364422202 L28.9143589,0.364422202 L28.3472397,0.364422202 C27.3097193,0.364422202 26.4700311,1.14649682 26.4700311,2.11282985 L26.4700311,2.46701547 L26.4700311,2.78844404 L26.4700311,3.4988626 C26.4700311,4.46519563 27.3097193,5.24727025 28.3472397,5.24727025 L28.9143589,5.24727025 L28.964916,5.24727025 L29.4748837,5.24727025 C29.7804246,5.24727025 30.0683805,5.17766151 30.3233643,5.05686988 L30.3233643,6.07029117 C30.3233643,7.20040946 29.3385992,8.11760692 28.1252279,8.11760692 L27.1844255,8.11760692 C26.9228473,8.11760692 26.7118262,8.31414923 26.7118262,8.5577798 C26.7118262,8.80141037 26.9228473,8.99795268 27.1844255,8.99795268 L28.2087571,8.99795268 C29.9430867,8.99795268 31.3498984,7.68767061 31.3498984,6.07233849 L31.3498984,3.4988626 L31.3498984,2.78844404 L31.3498984,2.46701547 L31.3498984,2.11282985 C31.3520922,1.14649682 30.5124041,0.364422202 29.4748837,0.364422202 Z M30.3255625,2.46701547 L30.3255625,2.78844404 L30.3255625,3.4988626 C30.3255625,3.9799818 29.9079165,4.36897179 29.3913545,4.36897179 L28.964916,4.36897179 L28.9143589,4.36897179 L28.4307689,4.36897179 C27.9142068,4.36897179 27.4965609,3.9799818 27.4965609,3.4988626 L27.4965609,2.78844404 L27.4965609,2.46701547 L27.4965609,2.11282985 C27.4965609,1.63171065 27.9142068,1.24272066 28.4307689,1.24272066 L28.9143589,1.24272066 L28.9363402,1.24272066 L29.3891563,1.24272066 C29.9057184,1.24272066 30.3233643,1.63171065 30.3233643,2.11282985 L30.3233643,2.46701547 L30.3255625,2.46701547 Z" id="XMLID_62_"></path>
                    <path d="M35.3900688,0.364422202 L34.8515254,0.364422202 L34.829544,0.364422202 L34.2624248,0.364422202 C33.2249044,0.364422202 32.3852163,1.14649682 32.3852163,2.11282985 L32.3852163,2.46701547 L32.3852163,2.78844404 L32.3852163,3.4988626 C32.3852163,4.46519563 33.2249044,5.24727025 34.2624248,5.24727025 L34.829544,5.24727025 L34.8801012,5.24727025 L35.3900688,5.24727025 C35.6956098,5.24727025 35.9835657,5.17766151 36.2385495,5.05686988 L36.2385495,6.07029117 C36.2385495,7.20040946 35.2537844,8.11760692 34.0404131,8.11760692 L33.0996107,8.11760692 C32.8380324,8.11760692 32.6270113,8.31414923 32.6270113,8.5577798 C32.6270113,8.80141037 32.8380324,8.99795268 33.0996107,8.99795268 L34.1239422,8.99795268 C35.8582719,8.99795268 37.2650835,7.68767061 37.2650835,6.07233849 L37.2650835,3.4988626 L37.2650835,2.78844404 L37.2650835,2.46701547 L37.2650835,2.11282985 C37.2672774,1.14649682 36.4275892,0.364422202 35.3900688,0.364422202 Z M36.2407476,2.46701547 L36.2407476,2.78844404 L36.2407476,3.4988626 C36.2407476,3.9799818 35.8231017,4.36897179 35.3065397,4.36897179 L34.8801012,4.36897179 L34.829544,4.36897179 L34.345954,4.36897179 C33.829392,4.36897179 33.411746,3.9799818 33.411746,3.4988626 L33.411746,2.78844404 L33.411746,2.46701547 L33.411746,2.11282985 C33.411746,1.63171065 33.829392,1.24272066 34.345954,1.24272066 L34.829544,1.24272066 L34.8515254,1.24272066 L35.3043415,1.24272066 C35.8209036,1.24272066 36.2385495,1.63171065 36.2385495,2.11282985 L36.2385495,2.46701547 L36.2407476,2.46701547 Z" id="XMLID_59_"></path>
                    <path d="M46.3279958,3.70359418 C45.8422076,3.70359418 45.4465431,4.07006369 45.4465431,4.52456779 C45.4465431,4.97702457 45.8400095,5.3455414 46.3279958,5.3455414 C46.8159821,5.3455414 47.2094485,4.97907188 47.2094485,4.52456779 C47.2094485,4.07006369 46.8159821,3.70359418 46.3279958,3.70359418 Z" id="XMLID_58_"></path>
                    <path d="M19.765715,3.58280255 L17.0993755,3.58280255 L17.0993755,1.24272066 L19.315097,1.24272066 C19.5766753,1.24272066 19.7876964,1.04617834 19.7876964,0.802547771 C19.7876964,0.558917197 19.5766753,0.362374886 19.315097,0.362374886 L12.0546523,0.362374886 C11.7930741,0.362374886 11.582053,0.558917197 11.582053,0.802547771 C11.582053,1.04617834 11.7930741,1.24272066 12.0546523,1.24272066 L16.0706476,1.24272066 L16.0706476,3.58280255 L11.6040344,3.58280255 C11.3248711,3.58280255 11.098463,3.79367607 11.098463,4.05368517 C11.098463,4.31369427 11.3248711,4.52252047 11.6018362,4.52252047 L16.0684495,4.52252047 L16.0684495,6.77252047 C16.0684495,7.51569609 15.4221974,8.11760692 14.6242739,8.11760692 L13.7911801,8.11760692 C13.5296019,8.11760692 13.3185808,8.31414923 13.3185808,8.5577798 C13.3185808,8.80141037 13.5296019,8.99795268 13.7911801,8.99795268 L14.7100012,8.99795268 C16.028883,8.99795268 17.0971774,8.00295723 17.0971774,6.77456779 L17.0971774,4.52252047 L19.7635169,4.52252047 C20.0426802,4.52252047 20.2669525,4.31164695 20.2669525,4.05368517 C20.2712864,3.79367607 20.0426802,3.58280255 19.765715,3.58280255 Z" id="XMLID_57_"></path>
                    <path d="M42.7604203,0.364422202 L38.8103691,0.364422202 C38.5290077,0.364422202 38.3004015,0.56710646 38.3004015,0.818926297 C38.3004015,1.07074613 38.5290077,1.27343039 38.8103691,1.27343039 L42.0965831,1.27343039 L39.984174,8.42675159 C39.9116355,8.66833485 40.0742976,8.91810737 40.3468665,8.98157416 C40.3908292,8.99181074 40.434792,8.99795268 40.4765566,8.99795268 C40.7029646,8.99795268 40.9095894,8.86282985 40.9689391,8.65809827 L43.2506048,0.933575978 C43.2923694,0.798453139 43.2571992,0.653093722 43.1626793,0.540491356 C43.0659613,0.429936306 42.916488,0.364422202 42.7604203,0.364422202 Z" id="XMLID_56_"></path>
                    <path d="M23.8762301,0.423794359 L23.8762301,0.423794359 L22.4870079,1.05641492 C22.2320241,1.17311192 22.1265135,1.45973612 22.2518073,1.69722475 C22.3771011,1.93471338 22.6848402,2.03298453 22.939824,1.91628753 L23.6146519,1.60714286 L23.6146519,8.5188808 C23.6146519,8.78298453 23.8454562,8.99795268 24.1290158,8.99795268 C24.4125754,8.99795268 24.6433892,8.78298453 24.6433892,8.5188808 L24.6433892,0.843494086 C24.6455779,0.503639672 24.2631022,0.247725205 23.8762301,0.423794359 Z" id="XMLID_55_"></path>
                    <path d="M61.9457552,0.00818926297 C61.5852608,0.00818926297 61.2929087,0.280482257 61.2929087,0.616242038 C61.2929087,0.95200182 61.5852608,1.22429481 61.9457552,1.22429481 C62.3062496,1.22429481 62.5986017,0.95200182 62.5986017,0.616242038 C62.5986017,0.280482257 62.3062496,0.00818926297 61.9457552,0.00818926297 Z" id="XMLID_54_"></path>
                    <path d="M69.9887365,1.69313012 C70.2503147,1.69313012 70.4613358,1.49658781 70.4613358,1.25295723 C70.4613358,1.00932666 70.2503147,0.812784349 69.9887365,0.812784349 L69.6128551,0.812784349 L69.6128551,0.479071884 C69.6128551,0.214968153 69.3820508,0 69.0984912,0 C68.8149316,0 68.5841273,0.214968153 68.5841273,0.479071884 L68.5841273,0.812784349 L64.9308245,0.812784349 L64.9308245,0.479071884 C64.9308245,0.214968153 64.7000202,0 64.4164606,0 C64.132901,0 63.9020967,0.214968153 63.9020967,0.479071884 L63.9020967,0.812784349 L63.5262153,0.812784349 C63.2646371,0.812784349 63.053616,1.00932666 63.053616,1.25295723 C63.053616,1.49658781 63.2646371,1.69313012 63.5262153,1.69313012 L63.9020967,1.69313012 L63.9020967,5.85941765 L63.5262153,5.85941765 C63.2646371,5.85941765 63.053616,6.05595996 63.053616,6.29959054 C63.053616,6.54322111 63.2646371,6.73976342 63.5262153,6.73976342 L69.9865383,6.73976342 C70.2481166,6.73976342 70.4591377,6.54322111 70.4591377,6.29959054 C70.4591377,6.05595996 70.2481166,5.85941765 69.9865383,5.85941765 L69.610657,5.85941765 L69.610657,1.69313012 L69.9887365,1.69313012 Z M68.5863254,5.86146497 L64.9330226,5.86146497 L64.9330226,5.0589172 L68.5863254,5.0589172 L68.5863254,5.86146497 Z M68.5863254,4.17857143 L64.9330226,4.17857143 L64.9330226,3.37602366 L68.5863254,3.37602366 L68.5863254,4.17857143 Z M68.5863254,2.4977252 L64.9330226,2.4977252 L64.9330226,1.69517743 L68.5863254,1.69517743 L68.5863254,2.4977252 Z" id="XMLID_49_"></path>
                    <path d="M61.9457552,3.58484986 C61.6621956,3.58484986 61.4313913,3.79981802 61.4313913,4.06392175 L61.4313913,8.5188808 C61.4313913,8.78298453 61.6621956,8.99795268 61.9457552,8.99795268 C62.2293148,8.99795268 62.4601191,8.78298453 62.4601191,8.5188808 L62.4601191,4.06392175 C62.4601191,3.7977707 62.2293148,3.58484986 61.9457552,3.58484986 Z" id="XMLID_48_"></path>
                    <path d="M61.9457552,1.79549591 C61.5852608,1.79549591 61.2929087,2.0677889 61.2929087,2.40354868 C61.2929087,2.73930846 61.5852608,3.01160146 61.9457552,3.01160146 C62.3062496,3.01160146 62.5986017,2.73930846 62.5986017,2.40354868 C62.5986017,2.0677889 62.3062496,1.79549591 61.9457552,1.79549591 Z" id="XMLID_47_"></path>
                    <path d="M65.1946009,7.11237489 C65.0099574,6.94040036 64.7110109,6.94040036 64.5285655,7.11237489 L63.3107979,8.24658781 C63.1261545,8.41856233 63.1261545,8.69699727 63.3107979,8.86692448 C63.4954414,9.038899 63.794388,9.038899 63.9768333,8.86692448 L65.1946009,7.73271156 C65.3792443,7.56278435 65.3792443,7.28434941 65.1946009,7.11237489 L65.1946009,7.11237489 Z" id="XMLID_46_"></path>
                    <path d="M68.9907825,7.11237489 C68.8061391,6.94040036 68.5071925,6.94040036 68.322549,7.11237489 L68.322549,7.11237489 C68.1379056,7.28434941 68.1379056,7.56278435 68.322549,7.73271156 L69.5403166,8.86692448 C69.7249601,9.038899 70.0239066,9.038899 70.2085501,8.86692448 C70.3931936,8.69494995 70.3931936,8.41651501 70.2085501,8.24658781 L68.9907825,7.11237489 Z" id="XMLID_45_"></path>
                    <path d="M73.0441461,3.58484986 C72.7605865,3.58484986 72.5297822,3.79981802 72.5297822,4.06392175 L72.5297822,8.5188808 C72.5297822,8.78298453 72.7605865,8.99795268 73.0441461,8.99795268 C73.3277057,8.99795268 73.55851,8.78298453 73.55851,8.5188808 L73.55851,4.06392175 C73.55851,3.7977707 73.3299039,3.58484986 73.0441461,3.58484986 Z" id="XMLID_44_"></path>
                    <path d="M73.0441461,0.00818926297 C72.6836517,0.00818926297 72.3912996,0.280482257 72.3912996,0.616242038 C72.3912996,0.95200182 72.6836517,1.22429481 73.0441461,1.22429481 C73.4046405,1.22429481 73.6969926,0.95200182 73.6969926,0.616242038 C73.6969926,0.280482257 73.4046405,0.00818926297 73.0441461,0.00818926297 Z" id="XMLID_43_"></path>
                    <ellipse id="XMLID_42_" cx="73.0441461" cy="2.40354868" rx="1" ry="1"></ellipse>
                    <path d="M77.1744445,0.814831665 L76.3413508,0.814831665 L76.3413508,0.45655141 C76.3413508,0.208826206 76.1259334,0.00614194722 75.8577608,0.00614194722 C75.5895881,0.00614194722 75.3741708,0.20677889 75.3741708,0.45655141 L75.3741708,0.814831665 L74.541077,0.814831665 C74.2794988,0.814831665 74.0684777,1.01137398 74.0684777,1.25500455 C74.0684777,1.49863512 74.2794988,1.69517743 74.541077,1.69517743 L75.3741708,1.69517743 L75.3741708,8.54754322 C75.3741708,8.79526843 75.5895881,8.99795268 75.8577608,8.99795268 C76.1259334,8.99795268 76.3413508,8.79731574 76.3413508,8.54754322 L76.3413508,1.69517743 L77.1744445,1.69517743 C77.4360227,1.69517743 77.6470438,1.49863512 77.6470438,1.25500455 C77.6470438,1.01137398 77.4338246,0.814831665 77.1744445,0.814831665 Z" id="XMLID_41_"></path>
                    <path d="M81.0893255,0.814831665 L80.2562318,0.814831665 L80.2562318,0.45655141 C80.2562318,0.208826206 80.0408144,0.00614194722 79.7726418,0.00614194722 C79.5066673,0.00614194722 79.2890518,0.20677889 79.2890518,0.45655141 L79.2890518,0.814831665 L78.455958,0.814831665 C78.1943798,0.814831665 77.9833587,1.01137398 77.9833587,1.25500455 C77.9833587,1.49863512 78.1943798,1.69517743 78.455958,1.69517743 L79.2890518,1.69517743 L79.2890518,8.54754322 C79.2890518,8.79526843 79.5044691,8.99795268 79.7726418,8.99795268 C80.0386163,8.99795268 80.2562318,8.79731574 80.2562318,8.54754322 L80.2562318,1.69517743 L81.0893255,1.69517743 C81.3509037,1.69517743 81.5619248,1.49863512 81.5619248,1.25500455 C81.5619248,1.01137398 81.3487056,0.814831665 81.0893255,0.814831665 Z" id="XMLID_40_"></path>
                    <path d="M77.1063023,2.30732484 C76.9018756,2.30732484 76.7370153,2.46087352 76.7370153,2.65127389 L76.7370153,8.5188808 C76.7370153,8.70928116 76.9018756,8.86282985 77.1063023,8.86282985 C77.310729,8.86282985 77.4755892,8.70928116 77.4755892,8.5188808 L77.4755892,2.65127389 C77.4777873,2.46087352 77.310729,2.30732484 77.1063023,2.30732484 Z" id="XMLID_39_"></path>
                    <path d="M81.0233814,2.30732484 C80.8189547,2.30732484 80.6540945,2.46087352 80.6540945,2.65127389 L80.6540945,8.5188808 C80.6540945,8.70928116 80.8189547,8.86282985 81.0233814,8.86282985 C81.2278081,8.86282985 81.3926683,8.70928116 81.3926683,8.5188808 L81.3926683,2.65127389 C81.3926683,2.46087352 81.2278081,2.30732484 81.0233814,2.30732484 Z" id="XMLID_38_"></path>
                    <path d="M78.5636667,2.31141947 C78.3570419,2.31141947 78.1921817,2.46906278 78.1921817,2.65946315 C78.1921817,2.70245678 78.2207574,6.83598726 77.7415637,8.42675159 C77.6866103,8.61101001 77.8009134,8.80141037 78.0009438,8.85259327 C78.0339158,8.86078253 78.0668879,8.86692448 78.1020581,8.86692448 C78.2647202,8.86692448 78.4141935,8.76660601 78.4603543,8.61305732 C78.9681238,6.93016379 78.9395481,2.83143767 78.9395481,2.65536852 C78.9373499,2.46292084 78.7812822,2.31960874 78.5636667,2.31141947 Z" id="XMLID_37_"></path>
                    <path d="M74.6509839,2.31141947 C74.444359,2.31141947 74.2794988,2.46906278 74.2794988,2.65946315 C74.2794988,2.70245678 74.3080746,6.83598726 73.8288808,8.42675159 C73.7739274,8.61101001 73.8882305,8.80141037 74.0882609,8.85259327 C74.121233,8.86078253 74.154205,8.86692448 74.1893752,8.86692448 C74.3520373,8.86692448 74.5015106,8.76660601 74.5476714,8.61305732 C75.055441,6.93016379 75.0268652,2.83143767 75.0268652,2.65536852 C75.0246671,2.46292084 74.8685994,2.31960874 74.6509839,2.31141947 Z" id="XMLID_36_"></path>
                    <path d="M90.8556457,6.17265696 C90.8556457,5.92083712 90.6380302,5.71815287 90.3676594,5.71815287 L83.9798749,5.71815287 C83.7095041,5.71815287 83.4918886,5.92083712 83.4918886,6.17265696 C83.4918886,6.4244768 83.7095041,6.62716106 83.9798749,6.62716106 L90.3676594,6.62716106 C90.6358321,6.62716106 90.8556457,6.42242948 90.8556457,6.17265696 Z" id="XMLID_35_"></path>
                    <path d="M91.0249022,3.31869882 L86.2747294,3.31869882 C85.9230275,3.31869882 85.6196847,3.07097361 85.5977034,2.74545041 C85.5955052,2.70245678 85.5977034,2.65946315 85.6020996,2.61646952 L85.6020996,2.61646952 L85.7515729,1.69517743 L92.1723295,1.69517743 C92.422917,1.69517743 92.6427307,1.51910828 92.6581176,1.28571429 C92.6757027,1.02979982 92.4580872,0.816878981 92.1877164,0.816878981 L85.8922536,0.816878981 L85.9340182,0.558917197 C85.9801791,0.270245678 85.7405822,0.0102365787 85.4262487,0.0102365787 C85.1712649,0.0102365787 84.9558475,0.184258417 84.9184792,0.417652411 L84.5909569,2.44654231 C84.5909569,2.44654231 84.5909569,2.444495 84.5909569,2.444495 C84.5755699,2.53048226 84.5667774,2.61646952 84.5667774,2.70655141 C84.5667774,3.26751592 84.8921016,3.75477707 85.3756916,4.02092812 C85.6174866,4.15400364 85.9032443,4.22975432 86.204389,4.22975432 L90.972147,4.22975432 C91.3370376,4.22975432 91.6315879,4.50409463 91.6315879,4.84394904 L91.6315879,7.50750682 C91.6315879,7.84736124 91.3370376,8.12170155 90.972147,8.12170155 L87.1517858,8.12170155 C86.9011983,8.12170155 86.6813846,8.2977707 86.6659977,8.5311647 C86.6484126,8.78707916 86.8660281,9 87.1363989,9 L91.0249022,9 C91.9283363,9 92.6603157,8.31824386 92.6603157,7.47679709 L92.6603157,4.84394904 C92.6603157,4.00045496 91.9283363,3.31869882 91.0249022,3.31869882 Z" id="XMLID_34_"></path>
                    <path d="M8.28265021,4.60031847 L5.20086292,4.60031847 C4.70848035,4.60031847 4.31061766,4.97088262 4.31061766,5.42948135 L4.31061766,8.0377616 C4.31061766,8.49636033 4.70848035,8.86692448 5.20086292,8.86692448 L8.28265021,8.86692448 C8.77503278,8.86692448 9.17289547,8.49636033 9.17289547,8.0377616 L9.17289547,5.42948135 C9.17069734,4.97088262 8.77283464,4.60031847 8.28265021,4.60031847 Z M8.21450798,7.77365787 C8.21450798,7.89035487 8.11339371,7.98453139 7.98809993,7.98453139 L5.49321506,7.98453139 C5.36792129,7.98453139 5.26680701,7.89035487 5.26680701,7.77365787 L5.26680701,5.68949045 C5.26680701,5.57279345 5.36792129,5.47861692 5.49321506,5.47861692 L7.98590179,5.47861692 C8.11119557,5.47861692 8.21230985,5.57279345 8.21230985,5.68949045 L8.21230985,7.77365787 L8.21450798,7.77365787 Z" id="XMLID_31_"></path>
                    <path d="M5.19866478,3.91856233 L8.28045208,3.91856233 C8.88274146,3.91856233 9.31137807,3.37192903 9.12673461,2.8355323 L8.52224708,1.08917197 C8.45850113,0.904913558 8.27385767,0.780027298 8.06723284,0.780027298 C7.74190865,0.780027298 7.51110432,1.07484076 7.6122186,1.36146497 L8.09800675,2.76182894 C8.14416762,2.89899909 8.03645893,3.03821656 7.88258938,3.03821656 L5.60092375,3.03821656 C5.4470542,3.03821656 5.33714738,2.89899909 5.38550638,2.76182894 L6.13287277,0.601910828 C6.22299636,0.341901729 6.06473054,0.0675614195 5.77677467,0.0143312102 C5.53278152,-0.0307097361 5.29977906,0.102365787 5.22724055,0.315286624 L4.35458039,2.8355323 C4.16773879,3.37192903 4.5963754,3.91856233 5.19866478,3.91856233 Z" id="XMLID_30_"></path>
                    <path d="M2.90381033,6.95677889 C3.50170345,6.07643312 3.84461273,5.06710646 3.85999969,4.04959054 C3.86879223,3.4333485 3.86439596,2.8089172 3.85999969,2.20700637 C3.85780155,1.89171975 3.85560341,2.23771611 3.85560341,2.03912648 C3.85780155,2.02479527 3.85999969,2.00841674 3.85999969,1.99408553 L3.85999969,1.99408553 C3.85999969,1.75454959 3.65117672,1.55800728 3.39179662,1.55800728 L1.81133652,1.55800728 L1.90805452,0.530254777 C1.93223403,0.266151046 1.72341106,0.0348043676 1.43985146,0.0122838944 C1.15629186,-0.0102365787 0.907902443,0.184258417 0.883722942,0.448362147 L0.778212392,1.55800728 L0.468275154,1.55800728 C0.21109319,1.55800728 7.2091322e-05,1.75250227 7.2091322e-05,1.99408553 L7.2091322e-05,1.99408553 C7.2091322e-05,2.23362147 0.208895053,2.43016379 0.468275154,2.43016379 L0.694683208,2.43016379 L0.534219247,4.13762511 L0.463878881,4.89103731 C0.424312425,5.30459509 0.556200612,5.71815287 0.830967667,6.04572338 L1.33214278,6.64149227 L1.6530707,7.02434031 L1.65746697,7.03048226 C1.6530707,7.03457689 1.65087256,7.03867152 1.64647629,7.04276615 C1.31675582,7.41128298 0.93428008,7.74090082 0.505643473,8.0111465 C0.419916152,8.06642402 0.329792558,8.11760692 0.239668964,8.16674249 C0.033044138,8.27934486 -0.0548813198,8.51683348 0.0352422744,8.72156506 C0.145149097,8.9733849 0.47047329,9.07370337 0.721060845,8.93653321 C0.828769531,8.87716106 0.936478216,8.81369427 1.03979063,8.74818016 C1.48821046,8.46565059 1.89486571,8.13193813 2.24876567,7.76137398 C2.25316195,7.75727934 2.25536008,7.75318471 2.25975636,7.74909008 L3.05987802,8.70313922 C3.23572894,8.91196542 3.55885499,8.94881711 3.78086677,8.78503185 C4.00507669,8.62124659 4.04464315,8.32029117 3.86879223,8.11351228 L2.90381033,6.95677889 Z M2.26415263,6.19517743 L2.26195449,6.1910828 L1.73000547,5.55641492 C1.55855083,5.35373066 1.47941792,5.0978162 1.50359742,4.84190173 L1.73000547,2.42811647 L2.90381033,2.42811647 C2.90820661,2.96041856 2.91040474,3.50295723 2.9016122,4.03730664 C2.89062152,4.77229299 2.66201532,5.51956324 2.26415263,6.19517743 Z" id="XMLID_27_"></path>
                    <path d="M103.903784,4.66583258 L103.23555,3.80186533 C102.762951,3.19176524 102.002396,2.82939035 101.19568,2.82939035 L97.3951016,2.82939035 C96.5861874,2.82939035 95.8278304,3.19176524 95.355231,3.80186533 L94.6869975,4.66583258 C94.5353261,4.86032757 94.5661,5.13876251 94.7705267,5.28616924 C94.9815478,5.43767061 95.2848907,5.39467698 95.4409583,5.19608735 L96.1993154,4.21951774 C96.4477048,3.90013649 96.8433694,3.71178344 97.2654116,3.71178344 L101.329766,3.71178344 C101.751808,3.71178344 102.149671,3.90013649 102.395862,4.21951774 L103.154219,5.19608735 C103.310287,5.39672429 103.61363,5.43971793 103.824651,5.28616924 C104.026879,5.13876251 104.055455,4.86032757 103.903784,4.66583258 Z" id="XMLID_26_"></path>
                    <path d="M97.4434606,6.4510919 C97.2588172,6.27911738 96.9598706,6.27911738 96.7774253,6.4510919 L94.8496596,8.24658781 C94.6650162,8.41856233 94.6650162,8.69699727 94.8496596,8.86692448 C95.0343031,9.038899 95.3332497,9.038899 95.515695,8.86692448 L97.4434606,7.07142857 C97.6281041,6.90150136 97.6281041,6.62306642 97.4434606,6.4510919 Z" id="XMLID_25_"></path>
                    <path d="M101.813356,6.4510919 C101.628712,6.27911738 101.329766,6.27911738 101.147321,6.4510919 C100.962677,6.62306642 100.962677,6.90150136 101.147321,7.07142857 L103.075086,8.86692448 C103.25973,9.038899 103.558676,9.038899 103.74332,8.86692448 C103.927963,8.69494995 103.927963,8.41651501 103.74332,8.24658781 L101.813356,6.4510919 Z" id="XMLID_24_"></path>
                    <path d="M102.578307,5.29845314 C102.578307,5.05482257 102.367286,4.85828025 102.105708,4.85828025 L99.9669213,4.85828025 L99.9669213,4.58189263 C99.9669213,4.3177889 99.736117,4.10282075 99.4525574,4.10282075 C99.1689978,4.10282075 98.9381934,4.3177889 98.9381934,4.58189263 L98.9381934,4.85828025 L96.4784787,4.85828025 C96.2169005,4.85828025 96.0058794,5.05482257 96.0058794,5.29845314 C96.0058794,5.54208371 96.2169005,5.73862602 96.4784787,5.73862602 L98.9381934,5.73862602 L98.9381934,7.39490446 C98.9381934,7.79413103 98.5908879,8.11760692 98.1622513,8.11760692 L97.6544817,8.11760692 C97.3929035,8.11760692 97.1818824,8.31414923 97.1818824,8.5577798 C97.1818824,8.80141037 97.3929035,8.99795268 97.6544817,8.99795268 L98.2479786,8.99795268 C99.1953754,8.99795268 99.9647231,8.27934486 99.9647231,7.39695177 L99.9647231,5.74067334 L102.10351,5.74067334 C102.367286,5.73862602 102.578307,5.54208371 102.578307,5.29845314 Z" id="XMLID_23_"></path>
                    <path d="M95.1815782,1.69313012 L96.4169309,1.69313012 L96.4169309,2.06983621 C96.4169309,2.33393995 96.6477353,2.5489081 96.9312949,2.5489081 C97.2148545,2.5489081 97.4456588,2.33393995 97.4456588,2.06983621 L97.4456588,1.69313012 L101.142924,1.69313012 L101.142924,2.06983621 C101.142924,2.33393995 101.373729,2.5489081 101.657288,2.5489081 C101.940848,2.5489081 102.171652,2.33393995 102.171652,2.06983621 L102.171652,1.69313012 L103.407005,1.69313012 C103.668583,1.69313012 103.879604,1.49658781 103.879604,1.25295723 C103.879604,1.00932666 103.668583,0.812784349 103.407005,0.812784349 L102.171652,0.812784349 L102.171652,0.479071884 C102.171652,0.214968153 101.940848,0 101.657288,0 C101.373729,0 101.142924,0.214968153 101.142924,0.479071884 L101.142924,0.812784349 L97.4456588,0.812784349 L97.4456588,0.479071884 C97.4456588,0.214968153 97.2148545,0 96.9312949,0 C96.6477353,0 96.4169309,0.214968153 96.4169309,0.479071884 L96.4169309,0.812784349 L95.1815782,0.812784349 C94.92,0.812784349 94.7089789,1.00932666 94.7089789,1.25295723 C94.7089789,1.49658781 94.9221981,1.69313012 95.1815782,1.69313012 Z" id="XMLID_22_"></path>
                    <g transform="translate(50.192320, 0.007498)">
                        <path d="M0.650648387,0.00069117377 C0.292352147,0.00069117377 0,0.270936852 0,0.606696633 C0,0.942456415 0.290154011,1.21270209 0.650648387,1.21270209 C1.00894463,1.21270209 1.30129677,0.942456415 1.30129677,0.606696633 C1.30129677,0.270936852 1.01114276,0.00069117377 0.650648387,0.00069117377 Z" id="XMLID_21_"></path>
                        <path d="M0.670431615,1.93745187 C0.386872014,1.93745187 0.158265824,2.1503727 0.158265824,2.41447643 L0.158265824,8.46838908 C0.158265824,8.73249281 0.386872014,8.94541365 0.670431615,8.94541365 C0.953991217,8.94541365 1.18259741,8.73249281 1.18259741,8.46838908 L1.18259741,2.41447643 C1.18259741,2.15242002 0.953991217,1.93745187 0.670431615,1.93745187 Z" id="XMLID_20_"></path>
                        <path d="M5.22716846,0.00478580525 C4.97438277,0.0395901729 4.79193745,0.25251101 4.79193745,0.489999636 L4.79193745,7.4037849 C4.79193745,7.77025441 4.47320766,8.06916251 4.0775431,8.06916251 L3.95005119,8.06916251 C3.69067109,8.06916251 3.47964999,8.26570482 3.47964999,8.50728808 C3.47964999,8.74887134 3.69067109,8.94541365 3.95005119,8.94541365 L4.0775431,8.94541365 C5.00955296,8.94541365 5.76791003,8.26365751 5.81187276,7.40583221 L5.81407089,7.40583221 L5.81407089,0.477715742 C5.81407089,0.191091538 5.54370011,-0.0361605096 5.22716846,0.00478580525 Z" id="XMLID_19_"></path>
                        <path d="M7.38354031,3.38080946 C7.37694591,3.31324804 7.36375709,3.17198326 7.34177572,2.89354832 C7.33957759,2.87102784 7.33957759,2.84850737 7.33957759,2.8259869 C7.3285869,2.4881798 7.57038191,2.4226657 7.70446824,2.41242912 L7.79019556,2.41242912 L8.06056634,2.41447643 L8.68923336,2.42061838 C8.93542464,2.42061838 9.14204947,2.25478581 9.16842711,2.03572302 C9.18381406,1.90878944 9.14204947,1.77980855 9.05192588,1.68563203 C8.96400042,1.59350282 8.83870664,1.54231993 8.70901659,1.54231993 C8.70901659,1.54231993 7.48685273,1.53413066 7.38134218,1.54231993 C7.05381985,1.57098235 6.36800128,1.74500419 6.30645346,2.69086406 C6.29546278,2.87512247 6.30645346,3.08804331 6.35041619,3.33781583 C6.35261432,3.3460051 6.35261432,3.35214704 6.35481246,3.36033631 C6.4295491,4.11579581 6.57682424,4.85897143 6.79663788,5.57757925 C6.80103416,5.59191046 6.80543043,5.60624167 6.8098267,5.61852557 C7.13295276,6.65651465 7.60115582,7.64741547 8.21223775,8.56870755 C8.3836924,8.82871665 8.74198864,8.89627807 8.99037806,8.69768844 C9.1860122,8.54209245 9.22557865,8.28003603 9.09369047,8.07939909 C8.1726713,6.68517707 7.57038191,5.09031811 7.38354031,3.38080946 Z" id="路径"></path>
                        <path d="M3.41810217,1.55050919 C3.33237485,1.53413066 1.97172839,1.55050919 1.97172839,1.55050919 C1.84203834,1.55050919 1.71674456,1.6037394 1.6288191,1.69382129 C1.53869551,1.78799782 1.49693092,1.91493139 1.51231787,2.04391228 C1.53869551,2.26297507 1.74532034,2.42880764 1.99151162,2.42880764 L2.79602956,2.4226657 L2.98726743,2.4226657 C3.11915561,2.43290227 3.3477618,2.49432175 3.34336553,2.80141911 C3.24005312,4.73203785 2.61358423,6.53572302 1.58705451,8.08758835 C1.45516633,8.2882253 1.49473278,8.55028171 1.69036693,8.70587771 C1.94095448,8.90446733 2.29705258,8.83690591 2.46850723,8.57689682 C3.22466616,7.43244732 3.76540773,6.18358471 4.07534497,4.87125532 C4.13029838,4.63990864 4.17645924,4.40651465 4.21822384,4.17107334 C4.26218656,3.89468571 4.30834743,3.5282162 4.3545083,3.05528626 C4.35890457,2.98567752 4.36330084,2.91402147 4.36549898,2.84441274 C4.3786878,1.66515887 3.50382949,1.56688772 3.41810217,1.55050919 Z" id="路径"></path>
                    </g>
                </g>
                <g id="编组" transform="translate(42.000000, 4.000000)" fill="#E60012">
                    <path d="M101.29185,3.3877371 C102.223936,3.3877371 102.977959,2.6312307 102.977959,1.69607411 C102.977959,0.760917512 102.223936,0.00441111601 101.29185,0.00441111601 C100.359763,0.00441111601 99.6057406,0.760917512 99.6057406,1.69607411 C99.6057406,2.62902514 100.361962,3.3877371 101.29185,3.3877371 Z" id="XMLID_18_"></path>
                    <path d="M21.0027201,7.5474195 C20.8092682,6.95632995 20.1739546,6.63431848 19.5826073,6.83061315 L12.1457011,9.29422144 L4.71099321,6.82399647 C4.12184427,6.62770181 3.48653067,6.94971328 3.29088046,7.54080282 C3.09523025,8.13189237 3.41618453,8.76929863 4.00533347,8.9655933 L8.56684112,10.4808116 L4.00313515,11.9938244 C3.41398621,12.1901191 3.09303194,12.8275254 3.28868215,13.4186149 C3.44476265,13.8928099 3.88442604,14.1927658 4.35486586,14.1927658 C4.47137666,14.1927658 4.59008577,14.1751213 4.70659657,14.1354213 L12.1435028,11.671813 L19.5782107,14.1420379 C19.6947215,14.181738 19.8134306,14.1993824 19.9321397,14.1993824 C20.4025795,14.1993824 20.8422429,13.8994266 20.9983234,13.4252316 C21.1939736,12.834142 20.8730194,12.1967358 20.2838704,12.0004411 L15.7223628,10.4852228 L20.2860687,8.97220997 C20.877416,8.77591531 21.1983703,8.13850904 21.0027201,7.5474195 Z" id="XMLID_17_"></path>
                    <ellipse id="XMLID_16_" transform="translate(12.147660, 6.589600) rotate(-9.218364) translate(-12.147660, -6.589600) " cx="12.1476598" cy="6.58959969" rx="1.68627753" ry="1.69154645"></ellipse>
                    <ellipse id="XMLID_15_" cx="1.68830741" cy="10.4830172" rx="1.68610909" ry="1.69166299"></ellipse>
                    <ellipse id="XMLID_14_" cx="22.6030948" cy="10.4830172" rx="1.68610909" ry="1.69166299"></ellipse>
                    <path d="M23.0427582,21.2483458 C22.5964998,21.2483458 22.1810179,21.4865461 21.9633846,21.8791354 C21.7413546,22.280547 21.3148811,22.5540362 20.8246564,22.5540362 L13.4734845,22.5540362 L13.4734845,21.197618 L19.7101097,21.197618 C21.4863498,21.197618 22.930644,19.7485664 22.930644,17.9664755 C22.930644,16.1843846 21.4863498,14.735333 19.7101097,14.735333 L13.4734845,14.735333 L13.4734845,14.0626378 C13.4734845,13.4075871 12.9436902,12.8760476 12.29079,12.8760476 L12.0006122,12.8760476 C11.3477121,12.8760476 10.8179177,13.4075871 10.8179177,14.0626378 L10.8179177,14.735333 L4.58129251,14.735333 C2.80505242,14.735333 1.36075819,16.1843846 1.36075819,17.9664755 C1.36075819,19.7485664 2.80505242,21.197618 4.58129251,21.197618 L10.8179177,21.197618 L10.8179177,22.5540362 L1.21786759,22.5540362 C0.545182602,22.5540362 0,23.1010146 0,23.7759153 C0,24.4508161 0.545182602,24.9977944 1.21786759,24.9977944 L20.877416,24.9977944 L20.877416,24.9977944 C22.2623557,24.9977944 23.4736283,24.241288 24.1177352,23.1164535 C24.5969683,22.2849581 23.9968277,21.2483458 23.0427582,21.2483458 Z M19.5474342,16.9872078 C20.0838236,16.9872078 20.5212887,17.4261138 20.5212887,17.96427 C20.5212887,18.5024261 20.0838236,18.9413322 19.5474342,18.9413322 L13.4734845,18.9413322 L13.4734845,16.9872078 L19.5474342,16.9872078 Z M4.74396796,18.9413322 C4.20757863,18.9413322 3.77011356,18.5024261 3.77011356,17.96427 C3.77011356,17.4261138 4.20757863,16.9872078 4.74396796,16.9872078 L10.820116,16.9872078 L10.820116,18.9413322 L4.74396796,18.9413322 Z" id="XMLID_10_"></path>
                    <path d="M46.2503901,5.39258933 L41.5350003,5.39258933 C40.9964126,5.39258933 40.5611459,4.95588884 40.5611459,4.41552713 C40.5611459,3.87516542 40.9964126,3.43846493 41.5350003,3.43846493 L48.6135809,3.43846493 C49.2862658,3.43846493 49.8314484,2.89148655 49.8314484,2.2165858 L49.8314484,2.2165858 C49.8314484,1.54168505 49.2862658,0.994706661 48.6135809,0.994706661 L29.8553424,0.994706661 C29.1826574,0.994706661 28.6374748,1.54168505 28.6374748,2.2165858 L28.6374748,2.2165858 C28.6374748,2.89148655 29.1826574,3.43846493 29.8553424,3.43846493 L36.9339229,3.43846493 C37.4725106,3.43846493 37.9077773,3.87516542 37.9077773,4.41552713 C37.9077773,4.95588884 37.4725106,5.39258933 36.9339229,5.39258933 L32.2185331,5.39258933 C29.901507,5.39258933 28.0241444,7.27613586 28.0241444,9.600794 L28.0263427,9.600794 L28.0263427,9.600794 L28.0263427,13.4097927 C28.0263427,14.1001323 28.5847152,14.6603441 29.2727884,14.6603441 C29.9608616,14.6603441 30.5192341,14.1001323 30.5192341,13.4097927 L30.5192341,9.54344949 C30.5192341,8.60167622 31.2798518,7.8363476 32.2207314,7.8363476 L37.9099757,7.8363476 L37.9099757,13.0414645 C37.9099757,13.7759153 38.5035212,14.371416 39.2355608,14.371416 C39.9676003,14.371416 40.5611459,13.7759153 40.5611459,13.0414645 L40.5611459,7.8363476 L46.2503901,7.8363476 C47.1890715,7.8363476 47.9518875,8.59947067 47.9518875,9.54344949 L47.9518875,13.4097927 C47.9518875,14.1001323 48.51026,14.6603441 49.1983332,14.6603441 C49.8864064,14.6603441 50.4447789,14.1001323 50.4447789,13.4097927 L50.4447789,9.600794 L50.4447789,9.600794 L50.4469772,9.600794 C50.4447789,7.27613586 48.5674162,5.39258933 46.2503901,5.39258933 Z" id="XMLID_9_"></path>
                    <path d="M1.58718483,6.88354654 C2.27525803,6.88354654 2.83363054,6.3233348 2.83363054,5.63299515 L2.83363054,5.34847816 C2.83363054,4.79488311 3.27988888,4.34715483 3.83166643,4.34715483 L12.0072071,4.34715483 L12.2863934,4.34715483 L20.4619341,4.34715483 C21.0137116,4.34715483 21.45997,4.79488311 21.45997,5.34847816 L21.45997,5.63299515 C21.45997,6.3233348 22.0183425,6.88354654 22.7064157,6.88354654 C23.3944889,6.88354654 23.9528614,6.3233348 23.9528614,5.63299515 L23.9528614,5.34847816 L23.9506631,5.34847816 C23.9198866,3.44067049 22.3722715,1.90339656 20.4641324,1.90339656 L13.8186203,1.90339656 C13.8274136,1.83502426 13.8340085,1.7644464 13.8340085,1.69166299 C13.8340085,0.756506396 13.0799858,0 12.1478994,0 C11.215813,0 10.4617903,0.756506396 10.4617903,1.69166299 C10.4617903,1.76224085 10.4683853,1.8328187 10.4771785,1.90339656 L3.83386475,1.90339656 C1.92572564,1.90339656 0.375912197,3.44067049 0.347334077,5.34847816 L0.345129266,5.34847816 L0.345129266,5.63299515 C0.342937443,6.32554036 0.899111629,6.88354654 1.58718483,6.88354654 Z" id="XMLID_8_"></path>
                    <path d="M32.8538467,14.0582267 C33.2715269,14.4772828 33.9508069,14.4772828 34.3706854,14.0582267 L36.1139507,12.3092192 C36.4327067,11.9894133 36.5294326,11.4887517 36.3074026,11.0476401 C36.2568413,10.9461844 36.1842969,10.8579621 36.1051575,10.778562 L34.3728837,9.04058227 C33.9552035,8.62152625 33.2759235,8.62152625 32.856045,9.04058227 C32.4383648,9.45963829 32.4383648,10.1411557 32.856045,10.5624173 L33.840891,11.5505073 L32.856045,12.5385973 C32.4339682,12.9554477 32.4339682,13.6369652 32.8538467,14.0582267 Z" id="XMLID_7_"></path>
                    <path d="M45.6172749,9.03837671 C45.1995946,8.61932069 44.5203147,8.61932069 44.1004362,9.03837671 L42.3747574,10.7697397 C42.2692382,10.8756065 42.1791072,10.9991178 42.1241492,11.1380679 C41.9570772,11.5549184 42.060398,12.0114689 42.3571708,12.3092192 L44.1004362,14.0582267 C44.5181164,14.4772828 45.1973963,14.4772828 45.6150765,14.0582267 C46.0327568,13.6391707 46.0327568,12.9576533 45.6150765,12.5363917 L44.6302306,11.5483017 L45.6150765,10.5602117 C46.0349551,10.1389502 46.0349551,9.45743273 45.6172749,9.03837671 Z" id="XMLID_6_"></path>
                    <path d="M47.0549741,15.474195 L46.4856101,15.474195 L29.3980925,15.474195 C28.7254075,15.474195 28.1802249,16.0211734 28.1802249,16.6960741 C28.1802249,17.3709749 28.7254075,17.9179532 29.3980925,17.9179532 L44.0278917,17.9179532 L46.9450583,17.9179532 C47.2770042,17.9179532 47.5759753,18.1914424 47.5693803,18.5244817 C47.567182,18.667843 47.5100257,18.7979709 47.4220931,18.9016321 C47.3143755,19.0273489 47.1538984,19.1089546 46.9758347,19.1089546 L45.687621,19.1089546 L44.0256934,19.1089546 L29.3497295,19.1089546 C28.7342007,19.1089546 28.1978114,19.5853551 28.1802249,20.2029113 C28.16044,20.8425232 28.6704496,21.3652404 29.3035648,21.3652404 L44.0278917,21.3652404 L45.6898193,21.3652404 L46.978033,21.3652404 C47.1560967,21.3652404 47.3165739,21.4468461 47.4242914,21.5725629 C47.5122241,21.6740185 47.567182,21.8041464 47.5715786,21.9497133 C47.5781736,22.2827525 47.2792025,22.5562417 46.9472566,22.5562417 L44.03009,22.5562417 L29.4002908,22.5562417 C28.7276058,22.5562417 28.1824232,23.1032201 28.1824232,23.7781209 C28.1824232,24.4530216 28.7276058,25 29.4002908,25 L46.4878084,25 L47.0571725,25 C48.1409427,25 49.1719534,24.4552272 49.7193343,23.517865 C49.9853306,23.0613145 50.1370145,22.529775 50.1370145,21.9629466 L50.1370145,18.517865 C50.1370145,17.9510366 49.9853306,17.4194971 49.7193343,16.9629466 C49.169755,16.0189678 48.1365461,15.474195 47.0549741,15.474195 Z" id="XMLID_5_"></path>
                    <path d="M103.764956,23.02382 C102.731747,21.5924129 101.872205,20.0044111 101.157752,18.3590648 C102.459156,15.9616233 103.309905,13.2840759 103.595686,10.4411116 C103.66823,9.72871637 103.10766,9.10895457 102.393207,9.10895457 C101.777678,9.10895457 101.256677,9.5743273 101.195124,10.189678 C101.019258,11.9430966 100.59938,13.6259374 99.9706612,15.2051169 C98.9968068,12.1901191 98.4252444,9.18173798 98.0932986,6.73356859 L102.393207,6.73356859 C103.059297,6.73356859 103.600083,6.19100132 103.600083,5.52271725 L103.600083,5.52271725 C103.600083,4.85443317 103.059297,4.3118659 102.393207,4.3118659 L97.818509,4.3118659 C97.6492386,2.47022497 97.631652,1.29907367 97.631652,1.25055139 C97.6338503,0.566828408 97.0820728,0.00882223202 96.4005945,0.00661667402 C96.3983962,0.00661667402 96.3983962,0.00661667402 96.3961979,0.00661667402 C95.716918,0.00661667402 95.1629421,0.558006176 95.1607438,1.24172916 C95.1607438,1.3233348 95.1607438,2.48345831 95.308031,4.3118659 L91.2411447,4.3118659 L91.2411447,4.31627702 C89.3967568,4.36038818 87.9150911,5.87340097 87.9150911,7.73268637 L87.9128928,7.73268637 C87.9150911,8.03264226 87.9172895,8.33259815 87.9172895,8.63475959 C87.9172895,12.1504191 87.7216392,15.6352007 87.3435287,19.0802823 C87.0071862,18.8045876 86.5345481,18.7185708 86.1080746,18.8994266 L85.389225,19.2037936 L85.389225,6.73136303 L86.5851094,6.73136303 C87.2511994,6.73136303 87.7919854,6.18879577 87.7919854,5.52051169 L87.7919854,5.52051169 C87.7919854,4.85222761 87.2511994,4.30966034 86.5851094,4.30966034 L85.389225,4.30966034 L85.389225,1.32995148 C85.389225,0.595500662 84.7956794,0 84.0614415,0 C83.329402,0 82.7358564,0.595500662 82.7358564,1.32995148 L82.7358564,4.30966034 L81.539972,4.30966034 C80.873882,4.30966034 80.333096,4.85222761 80.333096,5.52051169 L80.333096,5.52051169 C80.333096,6.18879577 80.873882,6.73136303 81.539972,6.73136303 L82.7358564,6.73136303 L82.7358564,20.3330393 L81.0695322,21.0410234 C80.4562018,21.3012792 80.1682222,22.0114689 80.4276236,22.6268196 C80.687025,23.2421703 81.3948831,23.5310984 82.0082135,23.2708425 L87.0445576,21.1292457 C87.0621442,21.122629 87.0797307,21.1116012 87.0973172,21.1049846 C86.9895997,21.921041 86.8752872,22.7348919 86.7477848,23.5465373 C86.6268774,24.3052492 87.2116297,24.9933833 87.9788423,24.9933833 C88.5943711,24.9933833 89.1153722,24.5434495 89.2120981,23.9325099 C89.856205,19.8588443 90.2387121,15.7212175 90.3618179,11.5372739 L91.9753825,11.5372739 C92.5271601,11.5372739 92.9734184,11.9850022 92.9734184,12.5385973 L92.9734184,18.782532 C92.9734184,19.1971769 92.7228103,19.5522717 92.3644846,19.7044552 C92.3337082,19.7176886 92.3051301,19.7309219 92.2743536,19.7375386 C92.2347839,19.7441553 92.1952142,19.7507719 92.1512479,19.7573886 C91.5401158,19.8389943 91.0806675,20.3528893 91.0806675,20.9704455 C91.0806675,21.6696074 91.6654198,22.2276136 92.3622863,22.1923247 C92.4524173,22.1879135 92.5205651,22.1835024 92.5557382,22.1768858 C94.1846911,21.9033966 95.4289384,20.4896339 95.446525,18.7803264 L95.4487233,18.7803264 L95.4487233,12.5363917 L95.446525,12.5363917 C95.4157485,10.6418174 93.8769267,9.11557124 91.9797792,9.11557124 L90.4079826,9.11557124 C90.4079826,8.95456551 90.4123792,8.79576533 90.4123792,8.63475959 C90.4123792,8.33480371 90.4101809,8.03484782 90.4079826,7.73268637 L90.4101809,7.73268637 C90.4101809,7.17909131 90.8564392,6.73136303 91.4082168,6.73136303 L95.5608375,6.73136303 C95.66196,7.53639171 95.7872641,8.40097045 95.9433446,9.31407146 C96.5039154,12.565064 97.3502675,15.5778562 98.4230461,18.2531981 C97.4206136,19.8456109 96.1873578,21.2748125 94.7694434,22.4944861 C94.2352523,22.9532422 94.2022776,23.7692986 94.6990972,24.2699603 C95.1475539,24.7198941 95.8642052,24.7419497 96.3434383,24.3295104 C97.5503143,23.2906925 98.6362829,22.1195412 99.5837575,20.8359065 C100.252046,22.165858 100.981887,23.3877371 101.766686,24.4772828 C102.008501,24.8125276 102.384413,24.9889722 102.76692,24.9889722 C103.017529,24.9889722 103.272533,24.9117777 103.490167,24.7529775 C104.041944,24.3537715 104.16505,23.5796206 103.764956,23.02382 Z" id="XMLID_4_"></path>
                    <path d="M55.8174655,0.00441111601 C54.8853791,0.00441111601 54.1313564,0.760917512 54.1313564,1.69607411 C54.1313564,2.6312307 54.8853791,3.3877371 55.8174655,3.3877371 C56.7495519,3.3877371 57.5035746,2.6312307 57.5035746,1.69607411 C57.5035746,0.760917512 56.7473535,0.00441111601 55.8174655,0.00441111601 Z" id="XMLID_3_"></path>
                    <path d="M55.8658284,5.41905602 C55.1337889,5.41905602 54.5402433,6.01455668 54.5402433,6.7490075 L54.5402433,23.6634318 C54.5402433,24.3978827 55.1337889,24.9933833 55.8658284,24.9933833 C56.597868,24.9933833 57.1914196,24.3978827 57.1914196,23.6634318 L57.1914196,6.7490075 C57.1936119,6.01455668 56.597868,5.41905602 55.8658284,5.41905602 Z" id="XMLID_2_"></path>
                    <path d="M67.6839803,0.017644464 C67.0266836,0.112483458 66.5540454,0.70798412 66.5540454,1.3762682 L66.5540454,20.6947508 C66.5540454,21.7203352 65.7252799,22.5518306 64.7030626,22.5518306 L64.3711167,22.5518306 C63.6984317,22.5518306 63.1532491,23.098809 63.1532491,23.7737097 C63.1532491,24.4486105 63.6984317,24.9955889 64.3711167,24.9955889 L64.7030626,24.9955889 C67.1168146,24.9955889 69.0887048,23.0899868 69.2030173,20.6947508 L69.2096123,20.6947508 L69.2096123,1.33436259 C69.207414,0.535950596 68.5039525,-0.0992501103 67.6839803,0.017644464 Z" id="XMLID_1_"></path>
                    <path d="M73.2786969,9.45081606 C73.2633087,9.26113807 73.230334,8.86854874 73.1687811,8.08998677 C73.1643845,8.02823114 73.1643845,7.96426996 73.1599878,7.90030878 C73.133608,6.95632995 73.7601284,6.77326864 74.1074624,6.74680194 L74.3294924,6.74680194 L75.0307555,6.75121306 L76.6597084,6.76665196 C77.2994186,6.76665196 77.8336096,6.30348478 77.9039558,5.6881341 C77.9457238,5.3308337 77.835808,4.97573886 77.600588,4.7110719 C77.3741614,4.45522717 77.0488105,4.30745479 76.7102697,4.30745479 C76.7102697,4.30745479 73.5380983,4.28098809 73.2677054,4.30745479 C72.419155,4.38906043 70.6385183,4.87428319 70.4824378,7.51874724 C70.4516614,8.03484782 70.4824378,8.63034848 70.594552,9.32509925 C70.5989486,9.34715483 70.6011469,9.36479929 70.6055435,9.38685487 C70.7989954,11.4997794 71.1815026,13.5707984 71.753065,15.5800618 C71.7640566,15.6197618 71.7772465,15.6572563 71.7882381,15.6969563 C72.6235985,18.5950596 73.8436644,21.3652404 75.422056,23.9413322 C75.8683143,24.6691663 76.796004,24.8544332 77.4423092,24.3008381 C77.9501204,23.8663432 78.051243,23.1363035 77.7083056,22.5760918 C75.3231317,18.6832819 73.764525,14.2258491 73.2786969,9.45081606 Z" id="路径"></path>
                    <path d="M62.9905737,4.33392148 C62.7685436,4.28760476 59.2380466,4.33392148 59.2380466,4.33392148 C58.8995058,4.33392148 58.5763532,4.48169387 58.3477283,4.7375386 C58.1147067,5 58.0025925,5.3573004 58.0443605,5.71460079 C58.1147067,6.32995148 58.651096,6.79311866 59.2886079,6.79311866 L61.3726124,6.77547419 L61.8672337,6.77547419 C62.2101711,6.80414645 62.8037167,6.97838553 62.7905268,7.8363476 C62.5245305,13.233348 60.8955776,18.268637 58.2356141,22.6025584 C57.8926767,23.1627702 57.9937992,23.8950154 58.5016105,24.3273048 C59.150114,24.8808999 60.0756054,24.695633 60.5218637,23.9677989 C62.4827624,20.7719453 63.8852886,17.280547 64.6898726,13.612704 C64.8327633,12.9664755 64.9536707,12.3136303 65.0591899,11.6563741 C65.1713041,10.8866343 65.2944098,9.8632554 65.4109206,8.53771504 C65.4241105,8.34142038 65.4307055,8.14512572 65.441697,7.9466255 C65.4856634,4.65372739 63.214802,4.3802382 62.9905737,4.33392148 Z" id="路径"></path>
                </g>
                <g id="编组">
                    <path d="M11.0442125,15.1869004 C11.0442125,11.5505991 13.8945518,8.46292505 17.8527506,7.35689255 C17.8592931,7.35908706 17.8658356,7.36347608 17.8745589,7.36567059 C18.6792836,7.62681715 19.8460254,7.77604376 21.0738303,7.77604376 C22.3016353,7.77604376 23.468377,7.62681715 24.2731018,7.36567059 C24.2796442,7.36347608 24.2861867,7.36128157 24.29491,7.35689255 C28.2552897,8.46292505 31.1034481,11.5505991 31.1034481,15.1869004 C31.1034481,19.7514789 26.6131278,23.4536154 21.0738303,23.4536154 C15.5367137,23.4536154 11.0442125,19.7514789 11.0442125,15.1869004" id="路径" fill="#FFFFFF"></path>
                    <path d="M19.625762,11.9763338 C19.3182656,11.2477569 18.7381659,10.7583814 18.0730141,10.7583814 C17.8789206,10.7583814 17.6913695,10.800077 17.5147226,10.8790794 C17.4078622,10.911997 17.3031825,10.9668597 17.2028646,11.041473 C16.7143596,11.4057615 16.3654275,12.0860593 16.2978219,12.887055 C16.295641,12.9133891 16.2934602,12.9419177 16.2912794,12.9682518 C16.2890986,12.9880024 16.2890986,13.0055585 16.2890986,13.0253091 C16.2869177,13.0757828 16.2847369,13.124062 16.2847369,13.1745357 C16.2847369,13.9886985 16.5398935,14.611939 17.0174944,15.0881475 C17.4994569,15.5665504 18.27365,15.5621614 18.674922,14.9608659 C18.9540677,14.5417147 19.0478432,13.8087488 19.0085883,13.3391239 L18.437212,12.9901969 L18.9693334,12.5403226 C18.9388019,12.1233659 18.7970482,11.7283543 18.6138588,11.4299011 C18.8733771,11.5769332 19.0936405,11.8271072 19.2462983,12.1431165 C19.300819,12.257231 19.4425726,12.2989266 19.5472523,12.2287023 C19.6323045,12.1760341 19.6650169,12.0685032 19.625762,11.9763338" id="路径" fill="#0B318F"></path>
                    <path d="M25.4202161,14.7436096 C24.9535194,14.7260535 24.3799622,14.6338841 23.7300761,14.3398199 C23.243752,14.120369 22.8817349,14.0106436 22.7290771,13.9711424 C22.7138113,13.9667534 22.6985455,13.9623644 22.6854606,13.9601699 C22.6636523,13.9535863 22.6505674,13.9513918 22.6505674,13.9513918 L22.6505674,13.9513918 C22.5458877,13.9294467 22.4390273,13.9162797 22.3278052,13.9162797 C21.4903681,13.9162797 20.8099504,14.598772 20.8099504,15.4436579 C20.8099504,16.1612623 21.302817,16.7647523 21.9679689,16.9271459 L21.9679689,16.9271459 C23.4465688,17.311185 25.4420244,16.4662991 26.1682394,15.6477472 C26.8944544,14.8313899 25.9130828,14.7633601 25.4202161,14.7436096" id="路径" fill="#F39800"></path>
                    <path d="M36.8237542,38.5979214 L36.8172117,38.5759763 C36.5816825,37.638921 36.1804106,36.3353827 35.9732321,35.6748356 C36.162964,35.4795243 36.3287067,35.2578789 36.4682796,35.0120939 C37.1792288,33.7458622 37.1181657,31.9397814 36.2938135,29.9274167 C35.3582392,27.6407384 33.8796394,26.1967516 32.9048102,25.4681746 C32.5209849,23.831071 31.6791861,23.0871324 31.3520623,22.8501255 C31.2648292,22.7886792 31.1972236,22.7030934 31.1557879,22.602146 C30.9093546,21.998656 30.5844116,21.6431456 30.3423399,21.4434453 C30.2507452,21.368832 30.0195777,21.1888822 29.7208046,21.015516 C30.3379783,20.3681359 30.8482915,19.6549205 31.243021,18.8868424 C31.8427481,17.7171691 32.1480637,16.4728826 32.1480637,15.1869004 C32.1480637,13.9009181 31.8427481,12.6566316 31.243021,11.4869583 C30.6716446,10.3743423 29.8581966,9.37803526 28.826666,8.52876031 C27.6904558,7.59170501 26.3536096,6.88726765 24.8989988,6.43958783 C24.9077221,6.07749386 25.0014976,5.79440221 25.0320291,5.71320538 C25.0385716,5.69784382 25.0429333,5.68248225 25.0494757,5.66492618 L25.058199,5.63859208 L25.0669224,5.61664699 C25.0865498,5.56397877 25.1061772,5.51131056 25.1236238,5.45644784 L25.322079,4.8814865 L25.5401615,4.24946793 C26.286004,3.98612686 26.8072213,3.23560482 26.7221691,2.37974634 C26.6392977,1.55022197 25.9806884,0.876507735 25.1563362,0.784338361 C24.0855507,0.663640371 23.1761464,1.5085263 23.1761464,2.56189058 C23.1761464,2.68258857 23.1892313,2.80109205 23.2110396,2.91740102 C23.1085408,3.04029352 22.9907762,3.15221348 22.8860966,3.18732562 C22.8773733,3.19171464 22.8708308,3.19171464 22.8664691,3.19390915 C22.8293951,3.17854758 22.7290771,3.10173977 22.60477,2.90203946 C22.8664691,2.51141688 22.9776912,2.02204139 22.8882774,1.52388786 C22.7399812,0.698752513 22.042117,0.0689284553 21.2112224,0.00528769683 C20.1273519,-0.0759091329 19.2179476,0.788727379 19.2179476,1.86184224 C19.2179476,2.23929777 19.3313505,2.59919723 19.5319865,2.89984495 C19.4098603,3.09954526 19.3073614,3.17635308 19.2702874,3.19171464 C19.2659258,3.19171464 19.2593833,3.18952013 19.25066,3.18513111 C19.1481612,3.14782446 19.0282157,3.03809901 18.9257169,2.91520652 C18.949706,2.79889754 18.9606101,2.68039406 18.9606101,2.55969607 C18.9606101,1.50633179 18.0512058,0.661445862 16.9804203,0.782143852 C16.1560682,0.874313226 15.4974588,1.54802746 15.4145874,2.37755183 C15.3295352,3.23341031 15.8507526,3.98393236 16.596595,4.24727343 L16.8146776,4.87929199 L17.0131327,5.45425333 C17.0305793,5.50692154 17.0502068,5.56178426 17.0698342,5.61445248 L17.0785575,5.63639757 L17.0872808,5.66273167 C17.0938233,5.67809324 17.0981849,5.69564931 17.1047274,5.71101087 C17.135259,5.7922077 17.2290345,6.07310484 17.2377578,6.43519881 C15.783147,6.88287863 14.4463008,7.5895105 13.3100905,8.52656581 C12.2785599,9.37803526 11.4651119,10.3721478 10.8937356,11.4847638 C10.2940085,12.6544371 9.98869286,13.8987236 9.98869286,15.1847058 C9.98869286,16.4706881 10.2940085,17.7149746 10.8937356,18.8846479 C11.238306,19.5539731 11.6701095,20.1816026 12.1847844,20.760953 C11.6112272,21.0835458 11.1488922,21.5707268 10.876289,22.1456881 C10.8152258,22.2729696 10.7192695,22.3761116 10.5927816,22.4375578 C10.200233,22.6306746 9.30173273,23.1617457 8.78487702,24.1887759 C8.33344608,24.197554 7.77733551,24.1470802 7.22558658,23.9342129 C7.22122493,23.9320184 7.04675887,23.8661831 6.98787657,23.839849 L6.86138868,22.0820474 C6.96388749,22.0096286 7.05984382,21.9306262 7.14707685,21.8406514 C7.5570721,21.4302782 7.76206973,20.9035961 7.72281486,20.3571634 C7.69882578,20.0214035 7.58324201,19.7119777 7.39787182,19.4464422 C7.41531843,19.4091355 7.42840338,19.3696343 7.43276503,19.3279387 L8.74780298,9.66551593 C8.77179207,9.63479281 8.79360032,9.60187517 8.81540858,9.56895754 C9.12508584,9.10152714 9.19051062,8.47389759 8.98769382,7.92965938 C8.8503018,7.55878737 8.59514518,7.2691122 8.27238296,7.0979405 C8.32908443,6.88287863 8.34871186,6.66562225 8.32472278,6.44178234 C8.22876645,5.56617328 7.49600898,4.94951628 7.22122493,4.74762146 C7.4131376,4.15510405 7.34771283,3.66792307 7.23212906,3.32338517 C6.92027097,2.40169143 6.0348557,1.82234108 5.37188466,1.60508469 C5.1385363,1.52827688 5.01641006,1.39880086 4.9771552,1.18593349 C4.94008116,0.986233181 4.98805933,0.797505414 4.98805933,0.797505414 C5.03385667,0.641695282 4.9946018,0.472718095 4.88774134,0.352020105 C4.78088088,0.231322115 4.61949977,0.172070374 4.46029948,0.198404481 C4.39923636,0.209377026 2.94026391,0.455162024 2.20314479,1.64458585 C1.83894689,2.23271424 1.71682064,2.93276259 1.84112771,3.73156383 C1.8738401,3.9444312 1.79533037,4.15949307 1.63176844,4.29994164 C1.23049649,4.64667405 0.765980601,5.19091226 0.698375001,5.88218257 C0.661300963,6.26402712 0.687470872,6.68098381 0.879383542,7.05185582 C-0.112892192,7.72118103 -0.132519624,8.94571701 0.174976812,9.57773557 C0.275294799,9.78401941 0.438856733,10.0298044 0.696194176,10.2602278 L3.37860989,19.6241974 C3.39169485,19.6680876 3.40914146,19.7075887 3.43313054,19.7448954 C3.29137686,20.032376 3.22159044,20.3527743 3.24557952,20.6841452 C3.29573851,21.368832 3.72754202,21.9459878 4.34471572,22.2641916 L4.39487471,22.9620454 L4.12881397,22.9883795 C3.78206266,23.0234917 3.4549388,23.1376061 3.18015475,23.3153614 C2.17043241,23.9759086 2.03304038,25.2618908 2.22277223,26.1638339 C2.38633416,26.9363011 2.82468014,27.660489 3.5312677,28.3210362 C3.73190367,28.5075695 4.35780067,29.014501 4.84412482,29.2207849 L5.40459705,37.0112915 C5.24757759,37.5379736 5.08837731,38.0997679 4.97061272,38.5715873 L4.96407024,38.5935324 C4.77870005,39.3308874 4.46902279,40.5642014 5.68156193,41.6658449 C5.70118936,41.683401 5.72081679,41.6987625 5.74044422,41.7163186 L5.96288845,44.8237432 C5.98687754,45.1616976 6.14171617,45.4689288 6.39469196,45.6905742 C6.62585949,45.8924691 6.9137285,46 7.21686328,46 C7.24739484,46 7.2779264,46 7.31063879,45.995611 C7.67265587,45.9692769 7.99977974,45.7915217 8.22222397,45.499652 C8.41413664,45.2472834 8.49700802,44.9290797 8.47519976,44.6108759 L8.35089269,42.8947699 C9.31481769,43.1361659 10.2416686,43.3490332 11.0616591,43.537761 C11.5654299,43.65407 12.1695186,43.8032966 12.6994593,43.9393561 C13.4518442,44.1302784 14.1824208,44.3980085 14.8890084,44.7206013 C16.7296254,45.5567092 18.7708783,46 20.8862793,46 C22.9994995,46 25.0429333,45.5567092 26.8835502,44.7206013 C27.5901378,44.400203 28.3207144,44.1302784 29.0730993,43.9393561 C29.6008592,43.8054911 30.2071287,43.65407 30.7108995,43.537761 C31.5352516,43.3490332 32.4686451,43.1339714 33.4412934,42.8903809 C34.6516517,42.5853441 35.5174395,42.1859435 36.0909967,41.6658449 C37.3188016,40.5685904 37.0091244,39.3352764 36.8237542,38.5979214 M30.2965426,23.1836908 C30.3772331,23.4250868 30.6890912,23.6291761 30.8940889,23.8200984 C31.2103086,24.1141626 31.6835478,24.827378 31.6857286,25.0117168 C30.6193048,25.1236367 29.4176698,25.2311676 28.2967253,25.2311676 C28.0721003,25.2311676 27.8496561,25.2267786 27.6315735,25.2180006 C26.4146727,25.1631379 25.1432513,24.6232887 24.3472498,24.0922175 C26.0177624,23.6598993 27.5508829,22.8984047 28.8288468,21.8450404 C28.86374,21.8143173 28.9008141,21.7857887 28.9357073,21.7550655 C29.1952256,21.8669855 29.4830946,22.0491297 29.7055388,22.231274 C29.7927718,22.3036928 30.091545,22.5648393 30.2965426,23.1836908 M17.1919604,3.43969415 C16.7099979,3.43969415 16.3174493,3.04687705 16.3174493,2.55969607 C16.3174493,2.0747096 16.7078171,1.679698 17.1919604,1.679698 C17.6739229,1.679698 18.0664716,2.07251509 18.0664716,2.55969607 C18.0664716,2.73306228 18.0163126,2.89545593 17.9290795,3.03151549 L17.9312604,3.03151549 C17.9312604,3.03151549 18.3172665,3.81495517 18.9562485,4.0431841 C19.0674706,4.08268526 19.1765119,4.10243584 19.2811915,4.10243584 C19.8373021,4.10243584 20.3127221,3.57136468 20.6245802,2.70233915 C20.3279879,2.53994549 20.1273519,2.22613072 20.1273519,1.86403675 C20.1273519,1.33735461 20.552613,0.911619878 21.0760112,0.911619878 C21.5994093,0.911619878 22.0224896,1.33954912 22.0224896,1.86403675 C22.0224896,2.22613072 21.8218536,2.54214 21.5252613,2.70233915 C21.8371194,3.57355919 22.3125394,4.10243584 22.86865,4.10243584 C22.9733296,4.10243584 23.0823709,4.08268526 23.193593,4.0431841 C23.832575,3.81495517 24.2185811,3.03151549 24.2185811,3.03151549 L24.2207619,3.03151549 C24.1335289,2.89545593 24.0833699,2.73306228 24.0833699,2.55969607 C24.0833699,2.0747096 24.4737377,1.679698 24.9578811,1.679698 C25.4398436,1.679698 25.8323922,2.07251509 25.8323922,2.55969607 C25.8323922,3.04468254 25.4420244,3.43969415 24.9578811,3.43969415 C24.9273495,3.43969415 24.8989988,3.43749964 24.870648,3.43530513 L24.4737377,4.58303329 L24.2752826,5.15799462 C24.2556552,5.21285735 24.2360277,5.26991458 24.2142195,5.3247773 C24.2054962,5.3489169 24.1967729,5.3730565 24.1880496,5.3971961 C24.1291673,5.55739525 23.9983177,5.97435194 23.9983177,6.50103408 C23.3069959,6.72487399 22.2558379,6.86751707 21.0760112,6.86751707 C19.8961844,6.86751707 18.8428456,6.72487399 18.1537046,6.50103408 C18.1537046,5.97435194 18.0228551,5.55958976 17.9639728,5.3971961 C17.9552495,5.3730565 17.9465262,5.3489169 17.9378029,5.3247773 C17.9181754,5.26991458 17.8963672,5.21285735 17.8767397,5.15799462 L17.6782846,4.58303329 L17.2813743,3.43530513 C17.2508427,3.43749964 17.222492,3.43969415 17.1919604,3.43969415 M11.0442125,15.1869004 C11.0442125,11.5505991 13.8945518,8.46292505 17.8527506,7.35689255 C17.8592931,7.35908706 17.8658356,7.36347608 17.8745589,7.36567059 C18.6792836,7.62681715 19.8460254,7.77604376 21.0738303,7.77604376 C22.3016353,7.77604376 23.468377,7.62681715 24.2731018,7.36567059 C24.2796442,7.36347608 24.2861867,7.36128157 24.29491,7.35689255 C28.2552897,8.46292505 31.1034481,11.5505991 31.1034481,15.1869004 C31.1034481,19.7514789 26.6131278,23.4536154 21.0738303,23.4536154 C15.5367137,23.4536154 11.0442125,19.7514789 11.0442125,15.1869004 M10.9286288,23.4338648 C11.4236762,23.1617457 11.6134081,23.1178556 11.6984603,22.843542 C11.8903729,22.2203014 12.3941437,21.752871 12.9502543,21.5246421 C13.0701997,21.6343675 13.1945068,21.739704 13.3209947,21.8450404 C14.6425751,22.9335168 16.2367587,23.7125675 17.9705152,24.1361077 C17.5387117,24.4060323 16.9760587,24.6715679 16.4243098,24.7769043 C16.0317611,24.8515176 15.595596,24.8888243 15.1637924,24.8888243 C14.7908712,24.8888243 14.4201309,24.8602956 14.079922,24.8054329 C13.4431209,24.697902 12.6689277,24.4323664 12.2000502,24.3138629 C11.790055,24.2085265 11.0354892,24.0439383 10.1718621,24.0285768 C10.1697014,24.0263823 10.3441675,23.7520686 10.9286288,23.4338648 M1.03422217,9.14322281 C0.970978225,9.01374678 0.95789327,8.8689092 0.95789327,8.72626612 C0.95789327,8.48267563 1.03422217,8.26103023 1.17379502,8.06352442 C1.22831567,7.98671661 1.29155962,7.91210331 1.35916521,7.84626804 C1.39405843,7.8111559 1.52490797,7.65973478 1.57942862,7.69045791 C1.80405368,7.81554492 2.01123213,7.8594351 2.19660232,7.81993394 C2.32963269,7.79140532 2.44521646,7.65973478 2.45175893,7.52806425 C2.45612059,7.45783996 2.37106838,7.38981019 2.2969203,7.33055845 L2.28383535,7.3195859 C1.76043716,6.90262921 1.54017376,6.64806618 1.61868348,5.97435194 C1.69065073,5.35769494 2.40814242,4.8310128 2.67856482,4.68178619 C2.85957336,4.58083878 2.94898721,4.3635824 2.88792409,4.1660766 C2.6349483,3.34094124 2.66766069,2.65844897 2.98606125,2.14054487 C3.2608453,1.69067054 3.71227624,1.42952398 4.03940011,1.28907541 C4.04812341,1.28468639 4.05902754,1.28468639 4.06775084,1.29126992 C4.07647415,1.29565894 4.08301662,1.30443697 4.08519745,1.31540952 C4.13971809,1.64678036 4.34471572,2.23710326 5.10146227,2.48508277 C5.58560559,2.64308741 6.19187516,3.06882214 6.381607,3.62842191 C6.52990316,4.06512919 6.41868104,4.55889369 6.05012148,5.09874288 L6.03049405,5.1272715 C5.89528285,5.32697181 5.75352918,5.53106114 5.85166634,5.60128542 C5.94544185,5.66712069 6.37724535,5.61445248 6.63894445,5.48058743 C6.64984858,5.47400391 6.66293353,5.47619842 6.67383766,5.48278194 C6.9311751,5.66273167 7.38042521,6.09066091 7.43058421,6.5558968 C7.46547742,6.89165667 7.33244705,7.23619456 7.03149309,7.57853795 C6.92681345,7.69923595 6.88101611,7.78921081 6.89628189,7.85285157 C6.90718602,7.89674175 6.94862171,7.93185389 7.02058896,7.96257701 C7.10127951,7.99549465 7.47638155,7.98013309 7.66393257,7.8594351 C7.67265587,7.85285157 7.68574082,7.85285157 7.69446413,7.85724059 C7.971429,7.97793858 8.17642663,8.2061675 8.1829691,8.5243713 C8.18733076,8.72626612 8.12626763,8.87768723 8.02594965,9.02471933 C7.80132459,9.35609017 7.37606356,9.56456852 7.01840813,9.70501709 C6.38596866,9.95519111 5.57906311,10.1263628 4.74598766,10.1878091 C3.72754202,10.2624224 2.73526629,10.165864 2.02649791,9.92446798 C1.54453541,9.75768531 1.20214576,9.48776071 1.03422217,9.14322281 M1.79096872,10.8593288 C2.43431233,11.0678071 3.22159044,11.1775326 4.06775084,11.1775326 C4.31418416,11.1775326 4.56497912,11.1687545 4.81795491,11.149004 C5.75571,11.0809742 6.63894445,10.8922464 7.36734026,10.6025712 C7.50037063,10.549903 7.63558183,10.4928458 7.77079303,10.4270105 L6.59968958,19.040458 C6.15043947,19.3828014 5.60741385,19.5100829 4.98151685,19.4179135 C4.63694637,19.3674398 4.34689654,19.2621034 4.18115378,19.1896846 L1.79096872,10.8593288 Z M4.6391272,27.9216356 C3.84748744,27.3071731 3.37206742,26.6444314 3.22595209,25.9553556 C3.10164502,25.3694217 3.16488897,24.5508699 3.74498863,24.1712198 C3.88456148,24.0790505 4.05684671,24.0219932 4.24439773,24.0022427 C4.25966351,24.0000481 4.27274847,23.9978536 4.28801425,23.9956591 C4.95752776,25.4550076 4.80486996,27.05261 4.6391272,27.9216356 M4.13317562,20.6226989 C4.12009066,20.4559163 4.1571647,20.2957171 4.22695113,20.148685 C4.53226674,20.2452434 4.92917703,20.3330238 5.36534219,20.3330238 C5.79496487,20.3330238 6.26602324,20.2474379 6.72399665,20.0038474 C6.80032555,20.1311289 6.84830372,20.273772 6.85920785,20.4251931 C6.87883528,20.7104793 6.76543234,20.9935709 6.53862646,21.2196054 C6.29437397,21.4631958 5.95198432,21.614617 5.57470146,21.6409511 C4.82449739,21.6958138 4.17679213,21.2393559 4.13317562,20.6226989 M7.58106119,45.0344161 C7.50255146,45.1265855 7.39132934,45.1836427 7.2692031,45.1924207 L7.2692031,45.1924207 C7.14707685,45.2011988 7.03149309,45.1616976 6.93989841,45.0826953 C6.84830372,45.003693 6.79160225,44.891773 6.78287895,44.7688805 L5.55943568,27.7416858 C5.69464688,26.8375482 5.75571,25.5010922 5.30427906,24.1778034 L5.18433365,22.5121711 C5.2737475,22.5209491 5.36534219,22.5275327 5.45693687,22.5275327 C5.51799999,22.5275327 5.57906311,22.5253382 5.64012624,22.5209491 C5.79496487,22.5099766 5.94544185,22.4836425 6.09155717,22.4463358 L7.6922833,44.7030452 C7.69882578,44.8237432 7.65957092,44.9422467 7.58106119,45.0344161 M11.3080925,42.5173144 C10.488102,42.3285866 9.561251,42.1157192 8.59950683,41.8743232 C8.49264637,41.8479891 8.38796673,41.8194605 8.28546792,41.7909319 L7.95180157,37.1561291 C8.0979169,37.6103924 8.27238296,38.0580722 8.47738059,38.496974 C9.16434071,39.9694895 10.1457123,41.2905839 11.3931447,42.4229505 C11.4498461,42.4756187 11.5087284,42.5260924 11.5676107,42.5765661 C11.4847393,42.5568155 11.3975063,42.5370649 11.3080925,42.5173144 M20.9015451,44.8500773 C14.0908262,44.8500773 8.54934784,39.8246519 8.54934784,33.6493038 C8.54934784,31.8673626 8.99641712,30.1644237 9.87965157,28.5865718 C9.91454478,28.5251255 9.91236395,28.4329562 9.87965157,28.384677 C9.84693918,28.3385923 9.78369523,28.3166472 9.71608963,28.3254252 C9.56343183,28.3473703 9.35625338,28.5053749 9.17960649,28.652407 C8.77179207,28.9925559 8.51445462,29.376595 8.27020214,29.751856 C7.971429,29.7079658 7.64648596,29.5938514 7.40659512,29.497293 L7.07947126,24.9590485 C7.65520926,25.1499708 8.21786232,25.2092226 8.69764399,25.2092226 C9.46311384,25.2092226 10.0126819,25.0578014 10.049756,25.0468289 C10.0541176,25.0446344 10.0606601,25.0424399 10.0650218,25.0424399 L10.1566164,25.0446344 C10.725812,25.0534124 11.3299007,25.1389983 11.9536169,25.2991974 C12.0888281,25.3343096 12.2676558,25.3869778 12.4573876,25.4418405 C12.8891912,25.569122 13.4256743,25.7271267 13.9119984,25.8083235 C14.3067279,25.8741588 14.7254465,25.9070764 15.1637924,25.9070764 C15.6653824,25.9070764 16.1647915,25.8631862 16.6140416,25.7776004 C17.5583392,25.5976506 18.4721052,25.0753575 19.01295,24.6474283 L19.3357122,24.3906707 C19.9070885,24.465284 20.489369,24.5047852 21.078192,24.5047852 C21.7368014,24.5047852 22.3845066,24.456506 23.0191269,24.3621421 L23.4531113,24.7000965 C24.3712389,25.4133119 26.0068583,26.1660284 27.587957,26.2362527 C27.812582,26.2472253 28.0524729,26.2516143 28.2967253,26.2516143 C29.4809137,26.2516143 30.7261653,26.1374998 31.7904083,26.0255799 L31.8623755,26.0189963 C32.5515165,26.4381476 34.3027196,27.8141046 35.3298885,30.3268173 C36.5031728,33.192846 35.8205743,35.1108468 34.222029,35.5124419 C34.2285715,35.4663572 34.2372948,35.422467 34.2438373,35.3763824 C34.3943142,34.3120455 34.4292075,33.1709009 34.1478809,32.1131476 C34.1173494,31.9946441 34.0802753,31.8783351 34.0410205,31.7620262 C33.9232559,31.4196828 33.7815022,31.0839229 33.5917704,30.7766917 C33.4696441,30.5791859 33.1294353,29.9800849 32.8284813,30.11395 C32.7063551,30.1688127 32.7019934,30.3268173 32.7368866,30.4321538 C33.0814571,31.472351 33.2559232,32.5564384 33.2559232,33.6514983 C33.2537424,39.8246519 27.712264,44.8500773 20.9015451,44.8500773 M35.4040366,40.8889887 C34.9678714,41.2861949 34.2263907,41.6175657 33.2014025,41.8743232 C32.2396584,42.1157192 31.3128074,42.3285866 30.4928169,42.5173144 C30.4055839,42.5370649 30.3183508,42.5568155 30.2311178,42.5765661 C30.2900001,42.5260924 30.3488824,42.4734242 30.4055839,42.4229505 C31.6530162,41.2905839 32.6343878,39.9694895 33.321348,38.496974 C33.6026745,37.8934841 33.8272995,37.26366 33.9930423,36.6184744 C34.0453821,36.6140854 34.0977219,36.6075019 34.1478809,36.5987238 C34.4793664,36.5482501 34.7912245,36.4516917 35.0790935,36.3156322 C35.2949953,37.009097 35.6090342,38.0558777 35.8053085,38.8349284 L35.811851,38.8568735 C35.9863171,39.5525328 36.1520598,40.2108855 35.4040366,40.8889887" id="形状" fill="#231815"></path>
                    <path d="M30.2965426,23.1836908 C30.3772331,23.4250868 30.6890912,23.6291761 30.8940889,23.8200984 C31.2103086,24.1141626 31.6835478,24.827378 31.6857286,25.0117168 C30.6193048,25.1236367 29.4176698,25.2311676 28.2967253,25.2311676 C28.0721003,25.2311676 27.8496561,25.2267786 27.6315735,25.2180006 C26.4146727,25.1631379 25.1432513,24.6232887 24.3472498,24.0922175 C26.0177624,23.6598993 27.5508829,22.8984047 28.8288468,21.8450404 C28.86374,21.8143173 28.9008141,21.7857887 28.9357073,21.7550655 C29.1952256,21.8669855 29.4830946,22.0491297 29.7055388,22.231274 C29.7927718,22.3036928 30.091545,22.5648393 30.2965426,23.1836908" id="路径" fill="#E60012"></path>
                    <path d="M17.1919604,3.43969415 C16.7099979,3.43969415 16.3174493,3.04687705 16.3174493,2.55969607 C16.3174493,2.0747096 16.7078171,1.679698 17.1919604,1.679698 C17.6761038,1.679698 18.0664716,2.07251509 18.0664716,2.55969607 C18.0664716,2.73306228 18.0163126,2.89545593 17.9290795,3.03151549 L17.9312604,3.03151549 C17.9312604,3.03151549 18.3172665,3.81495517 18.9562485,4.0431841 C19.0674706,4.08268526 19.1765119,4.10243584 19.2811915,4.10243584 C19.8373021,4.10243584 20.3127221,3.57136468 20.6245802,2.70014464 C20.3279879,2.53775098 20.1273519,2.22393621 20.1273519,1.86184224 C20.1273519,1.3351601 20.552613,0.909425369 21.0738303,0.909425369 C21.5972285,0.909425369 22.0203087,1.33735461 22.0203087,1.86184224 C22.0203087,2.22393621 21.8196728,2.53994549 21.5230804,2.70014464 C21.8349385,3.57136468 22.3103586,4.10243584 22.8664691,4.10243584 C22.9711488,4.10243584 23.0801901,4.08268526 23.1914122,4.0431841 C23.8303941,3.81495517 24.2164003,3.03151549 24.2164003,3.03151549 L24.2185811,3.03151549 C24.1313481,2.89545593 24.0811891,2.73306228 24.0811891,2.55969607 C24.0811891,2.0747096 24.4715569,1.679698 24.9557002,1.679698 C25.4376627,1.679698 25.8302114,2.07251509 25.8302114,2.55969607 C25.8302114,3.04468254 25.4398436,3.43969415 24.9557002,3.43969415 C24.9251687,3.43969415 24.8968179,3.43749964 24.8684672,3.43530513 L24.4715569,4.58303329 L24.2731018,5.15799462 C24.2534743,5.21285735 24.2338469,5.26991458 24.2120386,5.3247773 C24.2033153,5.3489169 24.194592,5.3730565 24.1858687,5.3971961 C24.1269864,5.55739525 23.9961369,5.97435194 23.9961369,6.50103408 C23.3048151,6.72487399 22.2536571,6.86751707 21.0738303,6.86751707 C19.8940036,6.86751707 18.8406647,6.72487399 18.1515238,6.50103408 C18.1515238,5.97435194 18.0206742,5.55958976 17.9617919,5.3971961 C17.9530686,5.3730565 17.9443453,5.3489169 17.935622,5.3247773 C17.9159946,5.26991458 17.8941863,5.21285735 17.8745589,5.15799462 L17.6761038,4.58303329 L17.2791935,3.43530513 C17.2508427,3.43749964 17.222492,3.43969415 17.1919604,3.43969415" id="路径" fill="#FFFFFF"></path>
                    <path d="M10.9286288,23.4338648 C11.4236762,23.1617457 11.6134081,23.1178556 11.6984603,22.843542 C11.8903729,22.2203014 12.3941437,21.752871 12.9502543,21.5246421 C13.0701997,21.6343675 13.1945068,21.739704 13.3209947,21.8450404 C14.6425751,22.9335168 16.2367587,23.7125675 17.9705152,24.1361077 C17.5387117,24.4060323 16.9760587,24.6715679 16.4243098,24.7769043 C16.0317611,24.8515176 15.595596,24.8888243 15.1637924,24.8888243 C14.7908712,24.8888243 14.4201309,24.8602956 14.079922,24.8054329 C13.4431209,24.697902 12.6689277,24.4323664 12.2000502,24.3138629 C11.790055,24.2085265 11.0354892,24.0439383 10.1718621,24.0285768 C10.1697014,24.0263823 10.3441675,23.7520686 10.9286288,23.4338648" id="路径" fill="#E60012"></path>
                    <path d="M1.03422217,9.14322281 C0.970978225,9.01374678 0.95789327,8.8689092 0.95789327,8.72626612 C0.95789327,8.48267563 1.03422217,8.26103023 1.17379502,8.06352442 C1.22831567,7.98671661 1.29155962,7.91210331 1.35916521,7.84626804 C1.39405843,7.8111559 1.52490797,7.65973478 1.57942862,7.69045791 C1.80405368,7.81554492 2.01123213,7.8594351 2.19660232,7.81993394 C2.32963269,7.79140532 2.44521646,7.65973478 2.45175893,7.52806425 C2.45612059,7.45783996 2.37106838,7.38981019 2.2969203,7.33055845 L2.28383535,7.3195859 C1.76043716,6.90262921 1.54017376,6.64806618 1.61868348,5.97435194 C1.69065073,5.35769494 2.40814242,4.8310128 2.67856482,4.68178619 C2.86175418,4.58083878 2.94898721,4.3635824 2.88792409,4.1660766 C2.6349483,3.34094124 2.66766069,2.65844897 2.98606125,2.14054487 C3.2608453,1.69067054 3.71227624,1.42952398 4.03940011,1.29126992 C4.04812341,1.2868809 4.05902754,1.2868809 4.06775084,1.29346443 C4.07647415,1.29785345 4.08301662,1.30663148 4.08519745,1.31760403 C4.13971809,1.64897487 4.34471572,2.23929777 5.10146227,2.48727728 C5.58560559,2.64528192 6.19187516,3.07101665 6.381607,3.63061642 C6.52990316,4.06732369 6.41868104,4.5610882 6.05012148,5.10093739 L6.03049405,5.12946601 C5.89528285,5.32916632 5.75352918,5.53325565 5.85166634,5.60347993 C5.94544185,5.6693152 6.37724535,5.61664699 6.63894445,5.48278194 C6.64984858,5.47619842 6.66293353,5.47839293 6.67383766,5.48497645 C6.9311751,5.66492618 7.38042521,6.09285542 7.43058421,6.55809131 C7.46547742,6.89385117 7.33244705,7.23838907 7.03149309,7.58073246 C6.92681345,7.70143045 6.88101611,7.79140532 6.89628189,7.85504608 C6.90718602,7.89893626 6.94862171,7.9340484 7.02058896,7.96477152 C7.10127951,7.99768916 7.47638155,7.98232759 7.66393257,7.8616296 C7.67265587,7.85504608 7.68574082,7.85504608 7.69446413,7.8594351 C7.971429,7.98013309 8.17642663,8.20836201 8.1829691,8.52656581 C8.18733076,8.72846063 8.12626763,8.87988174 8.02594965,9.02691384 C7.80132459,9.35828468 7.37606356,9.56676303 7.01840813,9.7072116 C6.38596866,9.95738562 5.57906311,10.1285573 4.74598766,10.1900036 C3.72754202,10.2646169 2.73526629,10.1680585 2.02649791,9.92666249 C1.54453541,9.75768531 1.20214576,9.48776071 1.03422217,9.14322281" id="路径" fill="#FFFFFF"></path>
                    <path d="M1.79096872,10.8593288 C2.43431233,11.0678071 3.22159044,11.1775326 4.06775084,11.1775326 C4.31418416,11.1775326 4.56497912,11.1687545 4.81795491,11.149004 C5.75571,11.0809742 6.63894445,10.8922464 7.36734026,10.6025712 C7.50037063,10.549903 7.63558183,10.4928458 7.77079303,10.4270105 L6.59968958,19.040458 C6.15043947,19.3828014 5.60741385,19.5078884 4.98151685,19.4179135 C4.63694637,19.3674398 4.34689654,19.2621034 4.18115378,19.1896846 L1.79096872,10.8593288 Z" id="路径" fill="#FAC02C"></path>
                    <path d="M4.6391272,27.9216356 C3.84748744,27.3071731 3.37206742,26.6444314 3.22595209,25.9553556 C3.10164502,25.3694217 3.16488897,24.5508699 3.74498863,24.1712198 C3.88456148,24.0790505 4.05684671,24.0219932 4.24439773,24.0022427 C4.25966351,24.0000481 4.27274847,23.9978536 4.28801425,23.9956591 C4.95752776,25.4550076 4.80486996,27.05261 4.6391272,27.9216356" id="路径" fill="#FFFFFF"></path>
                    <path d="M4.13317562,20.6226989 C4.12009066,20.4559163 4.1571647,20.2957171 4.22695113,20.148685 C4.53226674,20.2452434 4.92917703,20.3330238 5.36534219,20.3330238 C5.79496487,20.3330238 6.26602324,20.2474379 6.72399665,20.0038474 C6.80032555,20.1311289 6.84830372,20.273772 6.86138868,20.4251931 L6.86138868,20.4251931 C6.88101611,20.7104793 6.76761317,20.9935709 6.54080729,21.2196054 C6.2965548,21.4631958 5.95416515,21.614617 5.57688229,21.6409511 C4.82449739,21.6958138 4.17679213,21.2393559 4.13317562,20.6226989" id="路径" fill="#FAC02C"></path>
                    <path d="M7.58106119,45.0344161 C7.50255146,45.1265855 7.39132934,45.1836427 7.2692031,45.1924207 L7.2692031,45.1924207 C7.14707685,45.2011988 7.03149309,45.1616976 6.93989841,45.0826953 C6.84830372,45.003693 6.79160225,44.891773 6.78287895,44.7688805 L5.55943568,27.7416858 C5.69464688,26.8375482 5.75571,25.5010922 5.30427906,24.1778034 L5.18433365,22.5121711 C5.2737475,22.5231437 5.36534219,22.5275327 5.45693687,22.5275327 C5.51799999,22.5275327 5.57906311,22.5253382 5.64012624,22.5209491 C5.79496487,22.5099766 5.94544185,22.4836425 6.09155717,22.4463358 L7.6922833,44.7030452 C7.69882578,44.8237432 7.65957092,44.9422467 7.58106119,45.0344161" id="路径" fill="#FAC02C"></path>
                    <path d="M11.3080925,42.5173144 C10.488102,42.3285866 9.561251,42.1157192 8.59950683,41.8743232 C8.49264637,41.8479891 8.38796673,41.8194605 8.28546792,41.7909319 L7.95180157,37.1561291 C8.0979169,37.6103924 8.27238296,38.0580722 8.47738059,38.496974 C9.16434071,39.9694895 10.1457123,41.2905839 11.3931447,42.4229505 C11.4498461,42.4756187 11.5087284,42.5260924 11.5676107,42.5765661 C11.4847393,42.5568155 11.3975063,42.5370649 11.3080925,42.5173144" id="路径" fill="#E60012"></path>
                    <path d="M20.9015451,44.8500773 C14.0908262,44.8500773 8.54934784,39.8246519 8.54934784,33.6493038 C8.54934784,31.8673626 8.99641712,30.1644237 9.87965157,28.5865718 C9.91454478,28.522931 9.91236395,28.4329562 9.87965157,28.384677 C9.84693918,28.3385923 9.78369523,28.3144527 9.71608963,28.3254252 C9.56343183,28.3473703 9.35407255,28.5053749 9.17960649,28.652407 C8.77179207,28.9925559 8.51445462,29.376595 8.27020214,29.751856 C7.971429,29.7079658 7.64648596,29.5938514 7.40659512,29.497293 L7.07947126,24.9590485 C7.65520926,25.1499708 8.21786232,25.2092226 8.69764399,25.2092226 C9.46311384,25.2092226 10.0126819,25.0578014 10.049756,25.0468289 C10.0541176,25.0446344 10.0606601,25.0424399 10.0650218,25.0424399 L10.1566164,25.0446344 C10.725812,25.0534124 11.3299007,25.1389983 11.9536169,25.2991974 C12.0888281,25.3343096 12.2676558,25.3869778 12.4573876,25.4418405 C12.8891912,25.569122 13.4256743,25.7271267 13.9119984,25.8083235 C14.3067279,25.8741588 14.7254465,25.9070764 15.1637924,25.9070764 C15.6653824,25.9070764 16.1647915,25.8631862 16.6140416,25.7776004 C17.5583392,25.5976506 18.4721052,25.0753575 19.01295,24.6474283 L19.3357122,24.3906707 C19.9070885,24.465284 20.489369,24.5047852 21.078192,24.5047852 C21.7368014,24.5047852 22.3845066,24.456506 23.0191269,24.3621421 L23.4531113,24.7000965 C24.3712389,25.4133119 26.0068583,26.1660284 27.587957,26.2362527 C27.812582,26.2472253 28.0524729,26.2516143 28.2967253,26.2516143 C29.4809137,26.2516143 30.7261653,26.1374998 31.7904083,26.0255799 L31.8623755,26.0189963 C32.5515165,26.4381476 34.3027196,27.8141046 35.3298885,30.3268173 C36.5031728,33.192846 35.8205743,35.1086523 34.222029,35.5124419 C34.2285715,35.4663572 34.2372948,35.422467 34.2438373,35.3763824 C34.3943142,34.3120455 34.4292075,33.1709009 34.1478809,32.1131476 C34.1173494,31.9946441 34.0802753,31.8783351 34.0410205,31.7620262 C33.9232559,31.4196828 33.7815022,31.0839229 33.5917704,30.7766917 C33.4696441,30.5791859 33.1294353,29.9800849 32.8284813,30.11395 C32.7063551,30.1688127 32.7019934,30.3268173 32.7368866,30.4321538 C33.0814571,31.472351 33.2559232,32.5564384 33.2559232,33.6514983 C33.2537424,39.8246519 27.712264,44.8500773 20.9015451,44.8500773" id="路径" fill="#FFFFFF"></path>
                    <path d="M35.4040366,40.8889887 C34.9678714,41.2861949 34.2263907,41.6175657 33.2014025,41.8743232 C32.2396584,42.1157192 31.3128074,42.3285866 30.4928169,42.5173144 C30.4055839,42.5370649 30.3183508,42.5568155 30.2311178,42.5765661 C30.2900001,42.5260924 30.3488824,42.4734242 30.4055839,42.4229505 C31.6530162,41.2905839 32.6343878,39.9694895 33.321348,38.496974 C33.6026745,37.8934841 33.8272995,37.26366 33.9930423,36.6184744 C34.0453821,36.6140854 34.0977219,36.6075019 34.1478809,36.5987238 C34.4793664,36.5482501 34.7912245,36.4516917 35.0790935,36.3156322 C35.2949953,37.009097 35.6090342,38.0558777 35.8053085,38.8349284 L35.811851,38.8568735 C35.9863171,39.5525328 36.1520598,40.2108855 35.4040366,40.8889887" id="路径" fill="#E60012"></path>
                    <path d="M6.00432414,18.8670918 C6.24857663,18.7222542 6.47320169,18.5752221 6.68038014,18.432579 L6.80250638,17.5262469 C6.40123444,17.3923818 6.02395157,17.2519332 5.67501945,17.1070957 C6.20277929,16.7779193 6.63676362,16.4553265 6.9900574,16.1524843 L7.08819456,15.4348799 C7.04893969,15.474381 7.007504,15.5116877 6.96606831,15.5511888 C6.4492126,15.3800171 5.97161176,15.1912894 5.53326577,14.9937836 C6.0261324,14.6536347 6.43612765,14.3200693 6.77633647,14.0084491 C6.9311751,14.0830624 7.09037538,14.1554812 7.25393732,14.2279 L7.31936209,13.753886 C7.25611814,13.7253574 7.19069337,13.6968288 7.12963025,13.6661057 C7.21468245,13.5805198 7.29101136,13.4971285 7.36515943,13.4159317 L7.48510485,12.5337391 C7.30191549,12.7861076 7.04457804,13.0999224 6.68692261,13.4532383 C6.17660938,13.1964808 5.71645514,12.9331397 5.30645989,12.6719931 C5.72954009,12.2945376 6.08065304,11.9324436 6.3641604,11.6076563 C6.68474179,11.8073566 7.0751096,12.024613 7.52654054,12.2308968 L7.59196532,11.7546884 C7.24085236,11.5879057 6.92899428,11.4145395 6.66293353,11.2521459 C6.82649546,11.0480565 6.95952584,10.8659123 7.0663863,10.7122967 C6.83521877,10.791299 6.58878545,10.8593288 6.33580966,10.9185805 C6.3140014,10.9449146 6.29437397,10.9712487 6.27256571,10.9975828 C6.24857663,10.9822213 6.22458755,10.9646652 6.20277929,10.9493036 C5.99996249,10.9931938 5.79278404,11.0305005 5.58124394,11.0612236 C5.68156193,11.1402259 5.81241147,11.2389788 5.97379258,11.3487043 C5.68592358,11.6712971 5.3326298,12.033391 4.90518795,12.4064576 C4.42976792,12.0816702 4.02849598,11.7678555 3.69701046,11.4803748 C3.82786001,11.3662603 3.94344377,11.2631184 4.03940011,11.1731436 C3.81477505,11.1731436 3.59451165,11.1643655 3.38079072,11.1468094 C3.37206742,11.1555875 3.36334411,11.162171 3.35462081,11.170949 C3.34371668,11.162171 3.33499338,11.1511985 3.32408925,11.1424204 C3.06675181,11.1204753 2.81595684,11.0897522 2.57824683,11.0480565 C2.69601142,11.1753381 2.83340345,11.3179811 2.99260373,11.4694023 C2.73744711,11.6712971 2.44739728,11.8797754 2.1442625,12.0685032 L2.27511205,12.524961 C2.66329904,12.2945376 3.02531612,12.0311965 3.33499338,11.7810225 C3.6664789,12.0728922 4.06557002,12.3889015 4.53880921,12.7180778 C4.15934553,13.0275036 3.72972285,13.3435129 3.24557952,13.6529386 C2.914094,13.4071536 2.63276747,13.1723412 2.39941912,12.9594738 L2.63276747,13.7714421 C2.6938306,13.8197213 2.75489372,13.8680005 2.82031849,13.9184742 C2.7788828,13.9426138 2.73744711,13.9667534 2.69601142,13.990893 L2.82686097,14.4451563 C2.96207217,14.3683485 3.09510254,14.2915407 3.22377126,14.2125384 C3.62068156,14.491241 4.07865497,14.7765272 4.60423399,15.0508408 C4.19423874,15.3010148 3.73626532,15.5533833 3.22377126,15.8013629 C3.22159044,15.7991683 3.21722879,15.7969738 3.21504796,15.7947793 L3.40914146,16.4728826 C3.77115854,16.694528 4.18987709,16.9271459 4.66965876,17.1597639 C4.38178976,17.3133795 4.07211249,17.4669951 3.73844615,17.6184162 L4.01104937,18.5664441 C4.28583342,18.6981146 4.57806408,18.8275906 4.89428382,18.9526776 C4.7067328,19.0470415 4.51045848,19.1414054 4.30546085,19.2335748 C4.47556527,19.2994101 4.7154561,19.3740234 4.99024015,19.4135245 C4.99242098,19.4135245 4.9946018,19.4135245 4.99678263,19.4135245 C5.16252539,19.3323277 5.3239065,19.2489364 5.4765643,19.1677395 C5.65103036,19.2291858 5.83203891,19.286243 6.0174091,19.3433002 C6.2289492,19.2752705 6.42740435,19.1743231 6.60841289,19.036069 C6.39251113,18.9877898 6.19623681,18.9285381 6.00432414,18.8670918 M3.64467064,13.9448083 C4.12663314,13.628799 4.55843665,13.3062062 4.93571951,12.9923914 C5.34789558,13.257927 5.81023065,13.5256571 6.32490553,13.7911927 C5.97597341,14.1006184 5.55507403,14.4297948 5.04694162,14.7655546 C4.51700096,14.4978246 4.05030424,14.2191219 3.64467064,13.9448083 M3.66429807,16.0932325 C4.18987709,15.827697 4.66093546,15.5621614 5.07747318,15.2966258 C5.52890412,15.5116877 6.02395157,15.7179715 6.56479637,15.9045048 C6.18969433,16.2139305 5.72517844,16.5453014 5.15598291,16.8832557 C4.57806408,16.6199147 4.08301662,16.3499901 3.66429807,16.0932325 M5.42422448,18.669586 C4.87247556,18.4676912 4.38178976,18.2482403 3.94998625,18.0265949 C4.40359801,17.8225056 4.81359326,17.6118327 5.18433365,17.4033544 C5.60741385,17.5876931 6.07411057,17.7698373 6.58006215,17.9388145 C6.2463958,18.1758215 5.86257047,18.4216065 5.42422448,18.669586" id="形状" fill="#F39800"></path>
                    <path d="M23.7300761,14.3398199 C24.3799622,14.6338841 24.9535194,14.723859 25.4202161,14.7436096 C25.4289394,14.7436096 25.4376627,14.7436096 25.4485669,14.7458041 C25.5925014,14.3442089 25.6404795,13.8460554 25.6077671,13.4927395 L25.0472949,13.1482016 L25.5706931,12.7049108 C25.5401615,12.2945376 25.4005887,11.9061095 25.221761,11.6120453 C25.4769176,11.7568829 25.6950002,12.0048624 25.8432963,12.3142882 C25.897817,12.4262081 26.035209,12.4679038 26.1398886,12.399874 C26.22276,12.3450113 26.2554724,12.2396749 26.2162175,12.1497 C25.9130828,11.4342901 25.3417064,10.9514982 24.6874587,10.9514982 C24.495546,10.9514982 24.3123566,10.9931938 24.1378906,11.0700016 C24.0332109,11.1029193 23.9307121,11.1555875 23.8303941,11.2302008 C23.3484316,11.5879057 23.006042,12.2594255 22.9384364,13.0472542 C22.9362556,13.0735883 22.9340747,13.0999224 22.9318939,13.128451 C22.9297131,13.1482016 22.9297131,13.1657576 22.9297131,13.1855082 C22.9275323,13.2337874 22.9253514,13.2842611 22.9253514,13.3325403 C22.9253514,13.5936869 22.9515213,13.8350829 23.0038612,14.0567283 C23.1914122,14.11598 23.4378455,14.2081494 23.7300761,14.3398199" id="路径" fill="#0B318F"></path>
                    <path d="M17.7284436,17.0456494 C17.6215831,16.824004 17.5038185,16.6111366 17.3489799,16.4224089 C17.0807383,16.095427 16.7012746,15.8671981 16.2716519,15.8759762 C15.9096349,15.8825597 15.569426,16.086649 15.3731517,16.4158253 C15.1463458,16.7954754 15.1703349,17.2870454 15.3229927,17.695224 C15.4974588,18.1604599 15.883465,18.5181649 16.3174493,18.7398103 C16.7950501,18.9834008 17.3446182,19.1040988 17.8767397,19.1216548 C18.4873709,19.1435999 19.0347582,18.9943733 19.0478432,19.0031514 C18.624763,18.6937256 18.3434364,18.294325 18.0970031,17.8356726 C17.9661536,17.5833041 17.8549315,17.311185 17.7284436,17.0456494" id="路径" fill="#E60012"></path>
                    <path d="M26.0003158,17.5964711 C25.998135,17.5942766 25.9959541,17.5920821 25.9959541,17.5920821 C25.8542005,17.449439 25.6252138,17.4626061 25.496545,17.6162217 C24.6438421,18.6454464 23.1892313,19.3213551 21.5383462,19.3213551 C20.3628811,19.3213551 19.287734,18.9768172 18.4590202,18.4084394 C18.624763,18.6300848 18.8144948,18.8319797 19.050024,19.0031514 C19.0391199,18.9965678 18.711996,19.0821537 18.2845542,19.1128768 C19.1939585,19.6790601 20.3192646,20.01482 21.5383462,20.01482 C23.394229,20.01482 25.0363908,19.2379638 26.0177624,18.0551235 C26.1311653,17.9212585 26.1246229,17.7215581 26.0003158,17.5964711" id="路径" fill="#0B318F"></path>
                </g>
            </g>
        </g>
    </g>
</svg>