<?xml version="1.0" encoding="UTF-8" standalone="no"?>
<svg
   xmlns:dc="http://purl.org/dc/elements/1.1/"
   xmlns:cc="http://creativecommons.org/ns#"
   xmlns:rdf="http://www.w3.org/1999/02/22-rdf-syntax-ns#"
   xmlns:svg="http://www.w3.org/2000/svg"
   xmlns="http://www.w3.org/2000/svg"
   xmlns:sodipodi="http://sodipodi.sourceforge.net/DTD/sodipodi-0.dtd"
   xmlns:inkscape="http://www.inkscape.org/namespaces/inkscape"
   class="cursor-pointer"
   width="102"
   height="31"
   viewBox="0 0 102 31"
   fill="none"
   version="1.1"
   id="svg12"
   sodipodi:docname="4ush1t4612jlx0nfafi.svg"
   inkscape:version="1.0.1 (3bc2e813f5, 2020-09-07)">
  <metadata
     id="metadata18">
    <rdf:RDF>
      <cc:Work
         rdf:about="">
        <dc:format>image/svg+xml</dc:format>
        <dc:type
           rdf:resource="http://purl.org/dc/dcmitype/StillImage" />
      </cc:Work>
    </rdf:RDF>
  </metadata>
  <defs
     id="defs16" />
  <sodipodi:namedview
     pagecolor="#ffffff"
     bordercolor="#666666"
     borderopacity="1"
     objecttolerance="10"
     gridtolerance="10"
     guidetolerance="10"
     inkscape:pageopacity="0"
     inkscape:pageshadow="2"
     inkscape:window-width="1920"
     inkscape:window-height="1001"
     id="namedview14"
     showgrid="false"
     inkscape:zoom="11.911765"
     inkscape:cx="51"
     inkscape:cy="15.5"
     inkscape:window-x="-9"
     inkscape:window-y="-9"
     inkscape:window-maximized="1"
     inkscape:current-layer="svg12" />
  <path
     fill-rule="evenodd"
     clip-rule="evenodd"
     d="M14.8875 1.36768C19.4922 1.36768 23.259 1.65793 25.8804 4.2612C28.5101 6.86717 28.7749 10.6378 28.7749 15.2295C28.7749 19.8213 28.5101 23.5793 25.8886 26.1898C23.2671 28.8002 19.4967 29.0644 14.8875 29.0644C10.2782 29.0644 6.50508 28.7993 3.88542 26.1898C1.26576 23.5802 1 19.8222 1 15.2295C1 10.6369 1.26486 6.88069 3.88452 4.27111C6.50418 1.66153 10.2827 1.36768 14.8875 1.36768Z"
     fill="#FF5B29"
     id="path2" />
  <path
     d="M18.4514 20.4689C18.4841 20.4372 18.5028 20.3938 18.5035 20.3483L18.4981 15.2148C18.4981 13.5165 18.415 11.7416 17.5381 10.8664C16.6613 9.99111 14.8823 9.91358 13.182 9.91358H6.67349C6.65081 9.91335 6.62831 9.91757 6.60728 9.926C6.58624 9.93443 6.56707 9.94691 6.55087 9.96273C6.53467 9.97855 6.52175 9.9974 6.51286 10.0182C6.50396 10.039 6.49926 10.0613 6.49902 10.084V20.3483C6.49974 20.3938 6.51849 20.4372 6.55118 20.4689C6.58388 20.5007 6.62785 20.5182 6.67349 20.5178H8.93337C8.97918 20.5182 9.02335 20.5007 9.05633 20.469C9.08931 20.4373 9.10846 20.394 9.10965 20.3483V12.2924C9.11036 12.2468 9.12908 12.2033 9.16175 12.1714C9.19442 12.1395 9.23839 12.1218 9.28411 12.122H13.3727C14.1745 12.1419 14.9474 12.2374 15.3614 12.6512C15.8432 13.1316 15.8983 14.088 15.8983 15.0192V20.3483C15.8993 20.3939 15.9182 20.4372 15.9511 20.469C15.9839 20.5007 16.028 20.5182 16.0737 20.5178H18.3291C18.3747 20.5182 18.4187 20.5007 18.4514 20.4689Z"
     fill="white"
     fill-opacity="0.9"
     id="path4" />
  <path
     d="M13.8143 20.4688C13.8468 20.4371 13.8655 20.3938 13.8662 20.3485V14.1684C13.8657 14.1229 13.8472 14.0794 13.8147 14.0475C13.7821 14.0156 13.7383 13.9978 13.6926 13.998H11.3243C11.3015 13.9977 11.2788 14.0018 11.2576 14.0102C11.2364 14.0185 11.2171 14.031 11.2007 14.0468C11.1844 14.0626 11.1713 14.0815 11.1622 14.1024C11.1532 14.1232 11.1484 14.1457 11.148 14.1684V20.3485C11.1489 20.3942 11.168 20.4377 11.2011 20.4695C11.2341 20.5012 11.2784 20.5187 11.3243 20.5179H13.6926C13.7381 20.5182 13.7819 20.5005 13.8143 20.4688Z"
     fill="white"
     fill-opacity="0.9"
     id="path6" />
  <path
     d="M23.148 20.3483C23.147 20.3939 23.1281 20.4372 23.0952 20.469C23.0624 20.5007 23.0183 20.5182 22.9726 20.5178H20.7172C20.6716 20.5182 20.6276 20.5007 20.5949 20.4689C20.5622 20.4372 20.5435 20.3938 20.5428 20.3483V10.084C20.543 10.0613 20.5477 10.039 20.5566 10.0182C20.5655 9.9974 20.5784 9.97855 20.5946 9.96273C20.6108 9.94691 20.63 9.93443 20.651 9.926C20.6721 9.91757 20.6946 9.91335 20.7172 9.91358H22.9726C23.0184 9.91334 23.0625 9.93107 23.0953 9.96294C23.1281 9.99482 23.147 10.0383 23.148 10.084V20.3483Z"
     fill="white"
     fill-opacity="0.9"
     id="path8" />
  <path
     d="M44.128 21.1797C44.5013 21.1797 44.7733 21.1477 44.944 21.0837C45.1147 21.0197 45.2267 20.9023 45.28 20.7317C45.344 20.561 45.376 20.289 45.376 19.9157V8.53967H46.896V20.3637C46.896 20.961 46.816 21.425 46.656 21.7557C46.5067 22.0863 46.2613 22.3157 45.92 22.4437C45.5787 22.5717 45.088 22.6357 44.448 22.6357H42.448L42.16 21.1797H44.128ZM38.752 19.5797C39.3493 18.4703 39.904 17.169 40.416 15.6757C40.9387 14.1717 41.344 12.7743 41.632 11.4837L43.104 11.7717C42.7627 13.2117 42.3253 14.689 41.792 16.2037C41.2587 17.7183 40.6933 19.0517 40.096 20.2037L38.752 19.5797ZM49.792 11.2917C50.1653 12.081 50.6453 13.1903 51.232 14.6197C51.8293 16.049 52.352 17.3557 52.8 18.5397L53.216 19.6917L51.744 20.2997C51.36 19.1263 50.8373 17.6917 50.176 15.9957C49.5147 14.289 48.9387 12.8917 48.448 11.8037L49.792 11.2917ZM68.784 14.2037V15.5637H55.2V14.2037H68.784ZM62.72 8.39567V22.9877H61.296V8.39567H62.72ZM54.848 20.6357C56.288 19.8357 57.5413 18.929 58.608 17.9157C59.6853 16.9023 60.5707 15.825 61.264 14.6837L62.032 15.7077C61.296 16.9023 60.4107 18.0223 59.376 19.0677C58.3413 20.113 57.0933 21.0837 55.632 21.9797L54.848 20.6357ZM62.608 14.6517C63.3333 15.8037 64.2453 16.881 65.344 17.8837C66.4427 18.8757 67.7173 19.761 69.168 20.5397L68.368 21.9317C66.9707 21.0783 65.7227 20.1077 64.624 19.0197C63.536 17.9317 62.6293 16.7957 61.904 15.6117L62.608 14.6517ZM57.072 9.17968C57.168 9.27568 57.2693 9.38234 57.376 9.49967C57.4933 9.60634 57.6053 9.72368 57.712 9.85168C58.6293 10.8223 59.36 11.665 59.904 12.3797L58.88 13.3877C58.528 12.9077 58.064 12.337 57.488 11.6757C56.9227 11.0143 56.448 10.4917 56.064 10.1077L57.072 9.17968ZM64 12.4917C64.4267 12.0757 64.912 11.5423 65.456 10.8917C66 10.241 66.4533 9.66501 66.816 9.16368L67.888 10.0117C67.5253 10.5237 67.056 11.1157 66.48 11.7877C65.9147 12.449 65.4187 12.9877 64.992 13.4037L64 12.4917ZM72.416 8.57168C72.4587 8.60367 72.8 8.85967 73.44 9.33967C73.728 9.56368 74.0107 9.77701 74.288 9.97968C74.5653 10.1823 74.816 10.3743 75.04 10.5557L74.256 11.6917C74.064 11.5423 73.8507 11.377 73.616 11.1957C73.3813 11.0143 73.136 10.8223 72.88 10.6197C72.656 10.449 72.4373 10.2837 72.224 10.1237C72.0213 9.96368 71.824 9.81434 71.632 9.67568L72.416 8.57168ZM71.68 12.4757L72.752 13.2917C73.0613 13.5263 73.3653 13.761 73.664 13.9957C73.9733 14.2197 74.256 14.433 74.512 14.6357L73.696 15.7557C73.12 15.2757 72.1813 14.5343 70.88 13.5317L71.68 12.4757ZM71.248 22.2997L73.44 16.9077L74.016 17.1637L74.704 17.4837L72.576 22.8917L71.248 22.2997ZM74.432 13.3557C75.0293 12.6303 75.5893 11.8037 76.112 10.8757C76.6347 9.93701 77.0453 9.01434 77.344 8.10768L78.672 8.50768C78.3093 9.54234 77.8507 10.5557 77.296 11.5477C76.7413 12.5397 76.1333 13.473 75.472 14.3477L74.432 13.3557ZM77.536 9.86767H84.592V11.1477H77.056L77.536 9.86767ZM76.832 12.5237H83.68V13.7717H76.832V12.5237ZM75.232 15.1477H82.56V17.6757C82.56 18.401 82.5867 19.0197 82.64 19.5317C82.6933 20.0437 82.7627 20.4223 82.848 20.6677C82.9227 20.913 82.9973 21.089 83.072 21.1957C83.1467 21.2917 83.2267 21.3397 83.312 21.3397C83.3973 21.3397 83.4773 21.2917 83.552 21.1957C83.6267 21.089 83.7067 20.897 83.792 20.6197C83.8133 20.5023 83.84 20.369 83.872 20.2197C83.904 20.0703 83.936 19.9157 83.968 19.7557C84 19.585 84.032 19.4303 84.064 19.2917C84.096 19.153 84.1173 19.025 84.128 18.9077L85.232 19.4357C85.136 19.8943 85.0293 20.3423 84.912 20.7797C84.8053 21.217 84.6987 21.553 84.592 21.7877C84.4427 22.193 84.2667 22.4863 84.064 22.6677C83.8613 22.8597 83.6213 22.9557 83.344 22.9557C83.0667 22.9557 82.8053 22.8703 82.56 22.6997C82.3253 22.5397 82.1173 22.2943 81.936 21.9637C81.7227 21.5477 81.552 20.993 81.424 20.2997C81.296 19.6063 81.232 18.817 81.232 17.9317V16.4117H75.232V15.1477ZM100.496 10.4597V11.7557H87.488V10.4597H100.496ZM88.72 15.1957C89.3173 14.353 89.9733 13.217 90.688 11.7877C91.4133 10.3583 91.9467 9.13701 92.288 8.12368L93.728 8.49168C93.3333 9.54768 92.8107 10.7263 92.16 12.0277C91.5093 13.3183 90.9173 14.3743 90.384 15.1957H99.68V16.4917H88.72V15.1957ZM95.072 12.6517V23.0357H93.664V12.6517H95.072ZM100.976 18.8597V20.2197H87.024V18.8597H100.976Z"
     fill="#FFFFFF"
     fill-opacity="0.9"
     id="path10"
     style="fill:#000000" />
</svg>
