<?xml version="1.0" encoding="UTF-8" standalone="no"?>
<svg
   xmlns:dc="http://purl.org/dc/elements/1.1/"
   xmlns:cc="http://creativecommons.org/ns#"
   xmlns:rdf="http://www.w3.org/1999/02/22-rdf-syntax-ns#"
   xmlns:svg="http://www.w3.org/2000/svg"
   xmlns="http://www.w3.org/2000/svg"
   xmlns:sodipodi="http://sodipodi.sourceforge.net/DTD/sodipodi-0.dtd"
   xmlns:inkscape="http://www.inkscape.org/namespaces/inkscape"
   version="1.2"
   x="0mm"
   y="0mm"
   width="135mm"
   height="91mm"
   viewBox="0 0 135 91"
   id="svg2"
   inkscape:version="0.48.2 r9819"
   sodipodi:docname="dykstra_algorithm.svg">
  <metadata
     id="metadata154">
    <rdf:RDF>
      <cc:Work
         rdf:about="">
        <dc:format>image/svg+xml</dc:format>
        <dc:type
           rdf:resource="http://purl.org/dc/dcmitype/StillImage" />
      </cc:Work>
    </rdf:RDF>
  </metadata>
  <defs
     id="defs152" />
  <sodipodi:namedview
     pagecolor="#ffffff"
     bordercolor="#666666"
     borderopacity="1"
     objecttolerance="10"
     gridtolerance="10"
     guidetolerance="10"
     inkscape:pageopacity="0"
     inkscape:pageshadow="2"
     inkscape:window-width="947"
     inkscape:window-height="745"
     id="namedview150"
     showgrid="false"
     inkscape:zoom="0.73191696"
     inkscape:cx="239.17323"
     inkscape:cy="161.22047"
     inkscape:window-x="0"
     inkscape:window-y="0"
     inkscape:window-maximized="0"
     inkscape:current-layer="svg2" />
  <style
     type="text/css"
     id="style4">
text { font:12px Dialog; }
</style>
  <rect
     x="0"
     y="0"
     width="135"
     height="91"
     style="fill:rgb(255,255,255);stroke:none"
     id="rect6" />
  <ellipse
     cx="-103.4447164"
     cy="46.2141526"
     rx="131.6659054"
     ry="131.6659054"
     style="fill:rgb(153,202,202);opacity:0.5019607843137255;stroke:none"
     id="ellipse8" />
  <ellipse
     cx="-103.4447164"
     cy="46.2141526"
     rx="131.6659054"
     ry="131.6659054"
     style="fill:none;stroke:rgb(0,124,124);stroke-width:0.2364273;stroke-linecap:round"
     id="ellipse10" />
  <path
     d="m 26.584949,86.488626 0.375,0.09375 q -0.125,0.46875 -0.429687,0.710937 -0.304688,0.242188 -0.757813,0.242188 -0.46875,0 -0.757812,-0.1875 -0.289063,-0.1875 -0.4375,-0.546875 -0.148438,-0.359375 -0.148438,-0.765625 0,-0.453125 0.171875,-0.78125 0.171875,-0.328125 0.484375,-0.5 0.3125,-0.171875 0.6875,-0.171875 0.4375,0 0.726563,0.21875 0.289062,0.21875 0.414062,0.609375 l -0.375,0.09375 q -0.109375,-0.3125 -0.296875,-0.460938 -0.1875,-0.148437 -0.46875,-0.148437 -0.328125,0 -0.554687,0.164062 -0.226563,0.164063 -0.3125,0.429688 -0.08594,0.265625 -0.08594,0.546875 0,0.359375 0.101563,0.632812 0.101562,0.273438 0.328125,0.40625 0.226562,0.132813 0.492187,0.132813 0.3125,0 0.539063,-0.179688 0.226562,-0.179687 0.304687,-0.539062 z"
     style="fill:#007c7c;stroke:none"
     id="path12"
     inkscape:connector-curvature="0" />
  <ellipse
     cx="89.2653714"
     cy="-54.2184603"
     rx="89.1031255"
     ry="89.1031255"
     style="fill:rgb(153,202,202);opacity:0.5019607843137255;stroke:none"
     id="ellipse14" />
  <ellipse
     cx="89.2653714"
     cy="-54.2184603"
     rx="89.1031255"
     ry="89.1031255"
     style="fill:none;stroke:rgb(0,124,124);stroke-width:0.2364273;stroke-linecap:round"
     id="ellipse16" />
  <path
     d="m 113.88901,36.777386 0,-2.859375 0.98438,0 q 0.32812,0 0.51562,0.03125 0.23438,0.0625 0.40625,0.203125 0.23438,0.203125 0.34375,0.5 0.10938,0.296875 0.10938,0.671875 0,0.328125 -0.0703,0.578125 -0.0703,0.25 -0.19531,0.421875 -0.125,0.171875 -0.26562,0.265625 -0.14063,0.09375 -0.33594,0.140625 -0.19531,0.04687 -0.46094,0.04687 l -1.03125,0 z m 0.375,-0.34375 0.60938,0 q 0.28125,0 0.44531,-0.04687 0.16406,-0.04687 0.25781,-0.15625 0.14063,-0.125 0.21094,-0.351562 0.0703,-0.226563 0.0703,-0.554688 0,-0.453125 -0.14844,-0.695312 -0.14843,-0.242188 -0.35156,-0.320313 -0.15625,-0.0625 -0.48437,-0.0625 l -0.60938,0 0,2.1875 z"
     style="fill:#007c7c;stroke:none"
     id="path18"
     inkscape:connector-curvature="0" />
  <line
     x1="90.3088082"
     y1="70.985088"
     x2="89.2653714"
     y2="-54.2184603"
     style="fill:none;stroke:rgb(153,202,202);stroke-width:0.2364273;stroke-dasharray:1.1821367,1.1821367;stroke-dashoffset:0"
     id="line20" />
  <line
     x1="90.0079243"
     y1="34.881571"
     x2="90.3088082"
     y2="70.985088"
     style="fill:none;stroke:rgb(0,124,0);stroke-width:0.2364273;stroke-linecap:round"
     id="line22" />
  <path
     d="M90.3088082,70.985088 L89.5594943,68.7426972 L91.0206448,68.73052 L90.3088082,70.985088"
     style="fill:rgb(153,202,153);stroke:none"
     id="path24" />
  <path
     d="M90.3088082,70.985088 L89.5594943,68.7426972 L91.0206448,68.73052 L90.3088082,70.985088"
     style="fill:none;stroke:rgb(0,124,0);stroke-width:0.2364273;stroke-linecap:round"
     id="path26" />
  <path
     d="M91.265625,52.796875 L91.265625,49.921875 L91.578125,49.921875 L91.578125,50.1875 Q91.703125,50.03125 91.84375,49.953125 Q91.984375,49.875 92.1875,49.875 Q92.453125,49.875 92.65625,50.015625 Q92.859375,50.15625 92.9609375,50.40625 Q93.0625,50.65625 93.0625,50.953125 Q93.0625,51.265625 92.953125,51.5234375 Q92.84375,51.78125 92.625,51.9140625 Q92.40625,52.046875 92.15625,52.046875 Q91.984375,52.046875 91.84375,51.96875 Q91.703125,51.890625 91.609375,51.78125 L91.609375,52.796875 L91.265625,52.796875 Z M91.578125,50.96875 Q91.578125,51.375 91.7421875,51.5625 Q91.90625,51.75 92.140625,51.75 Q92.375,51.75 92.5390625,51.5546875 Q92.703125,51.359375 92.703125,50.9375 Q92.703125,50.546875 92.5390625,50.3515625 Q92.375,50.15625 92.15625,50.15625 Q91.921875,50.15625 91.75,50.3671875 Q91.578125,50.578125 91.578125,50.96875 Z"
     style="fill:rgb(0,124,0);stroke:none"
     id="path28" />
  <path
     d="M94.125,54 L93.859375,54 L93.859375,52.3125 Q93.765625,52.40625 93.609375,52.5 Q93.453125,52.59375 93.328125,52.640625 L93.328125,52.375 Q93.546875,52.28125 93.7109375,52.1328125 Q93.875,51.984375 93.953125,51.84375 L94.125,51.84375 L94.125,54 Z"
     style="fill:rgb(0,124,0);stroke:none"
     id="path30" />
  <line
     x1="90.0079243"
     y1="34.881571"
     x2="-103.4447164"
     y2="46.2141526"
     style="fill:none;stroke:rgb(153,202,202);stroke-width:0.2364273;stroke-dasharray:1.1821367,1.1821367;stroke-dashoffset:0"
     id="line32" />
  <line
     x1="27.9958504"
     y1="38.5142786"
     x2="90.0079243"
     y2="34.881571"
     style="fill:none;stroke:rgb(0,124,0);stroke-width:0.2364273;stroke-linecap:round"
     id="line34" />
  <path
     d="M90.0079243,34.881571 L87.8059409,35.7424178 L87.7204893,34.2837173 L90.0079243,34.881571"
     style="fill:rgb(153,202,153);stroke:none"
     id="path36" />
  <path
     d="M90.0079243,34.881571 L87.8059409,35.7424178 L87.7204893,34.2837173 L90.0079243,34.881571"
     style="fill:none;stroke:rgb(0,124,0);stroke-width:0.2364273;stroke-linecap:round"
     id="path38" />
  <path
     d="M57.59375,31.796875 L57.59375,30.78125 Q57.5,30.890625 57.3515625,30.96875 Q57.203125,31.046875 57.046875,31.046875 Q56.671875,31.046875 56.40625,30.75 Q56.140625,30.453125 56.140625,29.9375 Q56.140625,29.625 56.25,29.3828125 Q56.359375,29.140625 56.5625,29.0078125 Q56.765625,28.875 57.015625,28.875 Q57.40625,28.875 57.625,29.203125 L57.625,28.921875 L57.9375,28.921875 L57.9375,31.796875 L57.59375,31.796875 Z M56.5,29.953125 Q56.5,30.359375 56.671875,30.5546875 Q56.84375,30.75 57.078125,30.75 Q57.296875,30.75 57.4609375,30.5625 Q57.625,30.375 57.625,29.984375 Q57.625,29.578125 57.453125,29.3671875 Q57.28125,29.15625 57.046875,29.15625 Q56.828125,29.15625 56.6640625,29.3515625 Q56.5,29.546875 56.5,29.953125 Z"
     style="fill:rgb(0,124,0);stroke:none"
     id="path40" />
  <path
     d="M59.125,33 L58.859375,33 L58.859375,31.3125 Q58.765625,31.40625 58.609375,31.5 Q58.453125,31.59375 58.328125,31.640625 L58.328125,31.375 Q58.546875,31.28125 58.7109375,31.1328125 Q58.875,30.984375 58.953125,30.84375 L59.125,30.84375 L59.125,33 Z"
     style="fill:rgb(0,124,0);stroke:none"
     id="path42" />
  <line
     x1="29.1818489"
     y1="180.8240286"
     x2="26.9317677"
     y2="-89.1665955"
     style="fill:none;stroke:rgb(153,202,202);stroke-width:0.2364273;stroke-dasharray:1.1821367,1.1821367;stroke-dashoffset:0"
     id="line44" />
  <line
     x1="203.8347876"
     y1="64.3346622"
     x2="-65.7031228"
     y2="80.1243684"
     style="fill:none;stroke:rgb(153,202,202);stroke-width:0.2364273;stroke-dasharray:1.1821367,1.1821367;stroke-dashoffset:0"
     id="line46" />
  <line
     x1="28.2967343"
     y1="74.6177956"
     x2="89.2653714"
     y2="-54.2184603"
     style="fill:none;stroke:rgb(153,202,202);stroke-width:0.2364273;stroke-dasharray:1.1821367,1.1821367;stroke-dashoffset:0"
     id="line48" />
  <line
     x1="51.1516989"
     y1="26.3216846"
     x2="28.2967343"
     y2="74.6177956"
     style="fill:none;stroke:rgb(0,124,0);stroke-width:0.2364273;stroke-linecap:round"
     id="line50" />
  <path
     d="M28.2967343,74.6177956 L28.5981615,72.272816 L29.9189385,72.8978417 L28.2967343,74.6177956"
     style="fill:rgb(153,202,153);stroke:none"
     id="path52" />
  <path
     d="M28.2967343,74.6177956 L28.5981615,72.272816 L29.9189385,72.8978417 L28.2967343,74.6177956"
     style="fill:none;stroke:rgb(0,124,0);stroke-width:0.2364273;stroke-linecap:round"
     id="path54" />
  <path
     d="M42.265625,52.796875 L42.265625,49.921875 L42.578125,49.921875 L42.578125,50.1875 Q42.703125,50.03125 42.84375,49.953125 Q42.984375,49.875 43.1875,49.875 Q43.453125,49.875 43.65625,50.015625 Q43.859375,50.15625 43.9609375,50.40625 Q44.0625,50.65625 44.0625,50.953125 Q44.0625,51.265625 43.953125,51.5234375 Q43.84375,51.78125 43.625,51.9140625 Q43.40625,52.046875 43.15625,52.046875 Q42.984375,52.046875 42.84375,51.96875 Q42.703125,51.890625 42.609375,51.78125 L42.609375,52.796875 L42.265625,52.796875 Z M42.578125,50.96875 Q42.578125,51.375 42.7421875,51.5625 Q42.90625,51.75 43.140625,51.75 Q43.375,51.75 43.5390625,51.5546875 Q43.703125,51.359375 43.703125,50.9375 Q43.703125,50.546875 43.5390625,50.3515625 Q43.375,50.15625 43.15625,50.15625 Q42.921875,50.15625 42.75,50.3671875 Q42.578125,50.578125 42.578125,50.96875 Z"
     style="fill:rgb(0,124,0);stroke:none"
     id="path56" />
  <path
     d="M45.515625,53.75 L45.515625,54 L44.09375,54 Q44.09375,53.90625 44.125,53.8125 Q44.171875,53.671875 44.296875,53.53125 Q44.421875,53.390625 44.640625,53.203125 Q44.984375,52.921875 45.109375,52.75 Q45.234375,52.578125 45.234375,52.4375 Q45.234375,52.28125 45.125,52.171875 Q45.015625,52.0625 44.828125,52.0625 Q44.640625,52.0625 44.5234375,52.1796875 Q44.40625,52.296875 44.40625,52.5 L44.140625,52.46875 Q44.171875,52.15625 44.3515625,52 Q44.53125,51.84375 44.84375,51.84375 Q45.140625,51.84375 45.3203125,52.015625 Q45.5,52.1875 45.5,52.4375 Q45.5,52.5625 45.453125,52.6875 Q45.40625,52.8125 45.28125,52.953125 Q45.15625,53.09375 44.875,53.328125 Q44.640625,53.53125 44.5703125,53.6015625 Q44.5,53.671875 44.453125,53.75 L45.515625,53.75 Z"
     style="fill:rgb(0,124,0);stroke:none"
     id="path58" />
  <line
     x1="201.0934088"
     y1="17.5380016"
     x2="-68.4445017"
     y2="33.3277078"
     style="fill:none;stroke:rgb(153,202,202);stroke-width:0.2364273;stroke-dasharray:1.1821367,1.1821367;stroke-dashoffset:0"
     id="line60" />
  <line
     x1="-51.4443735"
     y1="109.3625578"
     x2="187.4609829"
     y2="-16.4318406"
     style="fill:none;stroke:rgb(153,202,202);stroke-width:0.2364273;stroke-dasharray:1.1821367,1.1821367;stroke-dashoffset:0"
     id="line62" />
  <line
     x1="113.1637728"
     y1="22.6889769"
     x2="-103.4447164"
     y2="46.2141526"
     style="fill:none;stroke:rgb(153,202,202);stroke-width:0.2364273;stroke-dasharray:1.1821367,1.1821367;stroke-dashoffset:0"
     id="line64" />
  <line
     x1="27.451462"
     y1="31.9979249"
     x2="113.1637728"
     y2="22.6889769"
     style="fill:none;stroke:rgb(0,124,0);stroke-width:0.2364273;stroke-linecap:round"
     id="line66" />
  <path
     d="M113.1637728,22.6889769 L111.0072449,23.6580876 L110.8494762,22.2054286 L113.1637728,22.6889769"
     style="fill:rgb(153,202,153);stroke:none"
     id="path68" />
  <path
     d="M113.1637728,22.6889769 L111.0072449,23.6580876 L110.8494762,22.2054286 L113.1637728,22.6889769"
     style="fill:none;stroke:rgb(0,124,0);stroke-width:0.2364273;stroke-linecap:round"
     id="path70" />
  <path
     d="M68.59375,21.796875 L68.59375,20.78125 Q68.5,20.890625 68.3515625,20.96875 Q68.203125,21.046875 68.046875,21.046875 Q67.671875,21.046875 67.40625,20.75 Q67.140625,20.453125 67.140625,19.9375 Q67.140625,19.625 67.25,19.3828125 Q67.359375,19.140625 67.5625,19.0078125 Q67.765625,18.875 68.015625,18.875 Q68.40625,18.875 68.625,19.203125 L68.625,18.921875 L68.9375,18.921875 L68.9375,21.796875 L68.59375,21.796875 Z M67.5,19.953125 Q67.5,20.359375 67.671875,20.5546875 Q67.84375,20.75 68.078125,20.75 Q68.296875,20.75 68.4609375,20.5625 Q68.625,20.375 68.625,19.984375 Q68.625,19.578125 68.453125,19.3671875 Q68.28125,19.15625 68.046875,19.15625 Q67.828125,19.15625 67.6640625,19.3515625 Q67.5,19.546875 67.5,19.953125 Z"
     style="fill:rgb(0,124,0);stroke:none"
     id="path72" />
  <path
     d="M70.515625,22.75 L70.515625,23 L69.09375,23 Q69.09375,22.90625 69.125,22.8125 Q69.171875,22.671875 69.296875,22.53125 Q69.421875,22.390625 69.640625,22.203125 Q69.984375,21.921875 70.109375,21.75 Q70.234375,21.578125 70.234375,21.4375 Q70.234375,21.28125 70.125,21.171875 Q70.015625,21.0625 69.828125,21.0625 Q69.640625,21.0625 69.5234375,21.1796875 Q69.40625,21.296875 69.40625,21.5 L69.140625,21.46875 Q69.171875,21.15625 69.3515625,21 Q69.53125,20.84375 69.84375,20.84375 Q70.140625,20.84375 70.3203125,21.015625 Q70.5,21.1875 70.5,21.4375 Q70.5,21.5625 70.453125,21.6875 Q70.40625,21.8125 70.28125,21.953125 Q70.15625,22.09375 69.875,22.328125 Q69.640625,22.53125 69.5703125,22.6015625 Q69.5,22.671875 69.453125,22.75 L70.515625,22.75 Z"
     style="fill:rgb(0,124,0);stroke:none"
     id="path74" />
  <ellipse
     cx="-103.4447164"
     cy="46.2141526"
     rx="0.709282"
     ry="0.709282"
     style="fill:rgb(255,255,255);stroke:none"
     id="ellipse76" />
  <ellipse
     cx="-103.4447164"
     cy="46.2141526"
     rx="0.709282"
     ry="0.709282"
     style="fill:none;stroke:rgb(153,153,224);stroke-width:0.2364273;stroke-linecap:round"
     id="ellipse78" />
  <ellipse
     cx="-133.2568247"
     cy="174.4605905"
     rx="0.709282"
     ry="0.709282"
     style="fill:rgb(255,255,255);stroke:none"
     id="ellipse80" />
  <ellipse
     cx="-133.2568247"
     cy="174.4605905"
     rx="0.709282"
     ry="0.709282"
     style="fill:none;stroke:rgb(153,153,224);stroke-width:0.2364273;stroke-linecap:round"
     id="ellipse82" />
  <ellipse
     cx="89.2653714"
     cy="-54.2184603"
     rx="0.709282"
     ry="0.709282"
     style="fill:rgb(255,255,255);stroke:none"
     id="ellipse84" />
  <ellipse
     cx="89.2653714"
     cy="-54.2184603"
     rx="0.709282"
     ry="0.709282"
     style="fill:none;stroke:rgb(153,153,224);stroke-width:0.2364273;stroke-linecap:round"
     id="ellipse86" />
  <ellipse
     cx="170.5912618"
     cy="-17.8115033"
     rx="0.709282"
     ry="0.709282"
     style="fill:rgb(255,255,255);stroke:none"
     id="ellipse88" />
  <ellipse
     cx="170.5912618"
     cy="-17.8115033"
     rx="0.709282"
     ry="0.709282"
     style="fill:none;stroke:rgb(153,153,224);stroke-width:0.2364273;stroke-linecap:round"
     id="ellipse90" />
  <ellipse
     cx="90.3088082"
     cy="70.985088"
     rx="0.709282"
     ry="0.709282"
     style="fill:rgb(255,255,255);stroke:none"
     id="ellipse92" />
  <ellipse
     cx="90.3088082"
     cy="70.985088"
     rx="0.709282"
     ry="0.709282"
     style="fill:none;stroke:rgb(0,0,178);stroke-width:0.2364273;stroke-linecap:round"
     id="ellipse94" />
  <path
     d="M91.03125,75 L91.78125,73.921875 L91.09375,72.921875 L91.53125,72.921875 L91.84375,73.40625 Q91.9375,73.546875 91.984375,73.640625 Q92.078125,73.515625 92.140625,73.421875 L92.5,72.921875 L92.921875,72.921875 L92.203125,73.90625 L92.96875,75 L92.546875,75 L92.109375,74.359375 L92,74.1875 L91.453125,75 L91.03125,75 Z"
     style="fill:rgb(0,0,178);stroke:none"
     id="path96" />
  <path
     d="M93.125,75.9375 Q93.125,75.5625 93.203125,75.328125 Q93.28125,75.09375 93.4375,74.96875 Q93.59375,74.84375 93.828125,74.84375 Q94,74.84375 94.1328125,74.9140625 Q94.265625,74.984375 94.34375,75.1171875 Q94.421875,75.25 94.4765625,75.4375 Q94.53125,75.625 94.53125,75.9375 Q94.53125,76.3125 94.453125,76.546875 Q94.375,76.78125 94.21875,76.90625 Q94.0625,77.03125 93.828125,77.03125 Q93.515625,77.03125 93.34375,76.8125 Q93.125,76.546875 93.125,75.9375 Z M93.390625,75.9375 Q93.390625,76.46875 93.515625,76.640625 Q93.640625,76.8125 93.828125,76.8125 Q94,76.8125 94.125,76.640625 Q94.25,76.46875 94.25,75.9375 Q94.25,75.40625 94.125,75.234375 Q94,75.0625 93.828125,75.0625 Q93.640625,75.0625 93.53125,75.21875 Q93.390625,75.40625 93.390625,75.9375 Z"
     style="fill:rgb(0,0,178);stroke:none"
     id="path98" />
  <ellipse
     cx="90.0079243"
     cy="34.881571"
     rx="0.709282"
     ry="0.709282"
     style="fill:rgb(255,255,255);stroke:none"
     id="ellipse100" />
  <ellipse
     cx="90.0079243"
     cy="34.881571"
     rx="0.709282"
     ry="0.709282"
     style="fill:none;stroke:rgb(0,0,178);stroke-width:0.2364273;stroke-linecap:round"
     id="ellipse102" />
  <path
     d="M90.25,39.796875 L90.203125,39.46875 Q90.328125,39.5 90.40625,39.5 Q90.53125,39.5 90.6015625,39.4609375 Q90.671875,39.421875 90.71875,39.359375 Q90.75,39.296875 90.828125,39.09375 Q90.828125,39.0625 90.859375,39 L90.0625,36.921875 L90.4375,36.921875 L90.875,38.125 Q90.953125,38.359375 91.03125,38.609375 Q91.09375,38.359375 91.171875,38.140625 L91.609375,36.921875 L91.96875,36.921875 L91.171875,39.03125 Q91.046875,39.375 90.984375,39.5 Q90.890625,39.6875 90.765625,39.765625 Q90.640625,39.84375 90.46875,39.84375 Q90.375,39.84375 90.25,39.796875 Z"
     style="fill:rgb(0,0,178);stroke:none"
     id="path104" />
  <path
     d="M92.125,39.9375 Q92.125,39.5625 92.203125,39.328125 Q92.28125,39.09375 92.4375,38.96875 Q92.59375,38.84375 92.828125,38.84375 Q93,38.84375 93.1328125,38.9140625 Q93.265625,38.984375 93.34375,39.1171875 Q93.421875,39.25 93.4765625,39.4375 Q93.53125,39.625 93.53125,39.9375 Q93.53125,40.3125 93.453125,40.546875 Q93.375,40.78125 93.21875,40.90625 Q93.0625,41.03125 92.828125,41.03125 Q92.515625,41.03125 92.34375,40.8125 Q92.125,40.546875 92.125,39.9375 Z M92.390625,39.9375 Q92.390625,40.46875 92.515625,40.640625 Q92.640625,40.8125 92.828125,40.8125 Q93,40.8125 93.125,40.640625 Q93.25,40.46875 93.25,39.9375 Q93.25,39.40625 93.125,39.234375 Q93,39.0625 92.828125,39.0625 Q92.640625,39.0625 92.53125,39.21875 Q92.390625,39.40625 92.390625,39.9375 Z"
     style="fill:rgb(0,0,178);stroke:none"
     id="path106" />
  <ellipse
     cx="27.9958504"
     cy="38.5142786"
     rx="0.709282"
     ry="0.709282"
     style="fill:rgb(255,255,255);stroke:none"
     id="ellipse108" />
  <ellipse
     cx="27.9958504"
     cy="38.5142786"
     rx="0.709282"
     ry="0.709282"
     style="fill:none;stroke:rgb(0,0,178);stroke-width:0.2364273;stroke-linecap:round"
     id="ellipse110" />
  <path
     d="M28.03125,43 L28.78125,41.921875 L28.09375,40.921875 L28.53125,40.921875 L28.84375,41.40625 Q28.9375,41.546875 28.984375,41.640625 Q29.078125,41.515625 29.140625,41.421875 L29.5,40.921875 L29.921875,40.921875 L29.203125,41.90625 L29.96875,43 L29.546875,43 L29.109375,42.359375 L29,42.1875 L28.453125,43 L28.03125,43 Z"
     style="fill:rgb(0,0,178);stroke:none"
     id="path112" />
  <path
     d="M31.125,45 L30.859375,45 L30.859375,43.3125 Q30.765625,43.40625 30.609375,43.5 Q30.453125,43.59375 30.328125,43.640625 L30.328125,43.375 Q30.546875,43.28125 30.7109375,43.1328125 Q30.875,42.984375 30.953125,42.84375 L31.125,42.84375 L31.125,45 Z"
     style="fill:rgb(0,0,178);stroke:none"
     id="path114" />
  <ellipse
     cx="28.2967343"
     cy="74.6177956"
     rx="0.709282"
     ry="0.709282"
     style="fill:rgb(255,255,255);stroke:none"
     id="ellipse116" />
  <ellipse
     cx="28.2967343"
     cy="74.6177956"
     rx="0.709282"
     ry="0.709282"
     style="fill:none;stroke:rgb(0,0,178);stroke-width:0.2364273;stroke-linecap:round"
     id="ellipse118" />
  <path
     d="M29.2736931,79.0484161 L30.0236931,77.9702911 L29.3361931,76.9702911 L29.7736931,76.9702911 L30.0861931,77.4546661 Q30.1799431,77.5952911 30.2268181,77.6890411 Q30.3205681,77.5640411 30.3830681,77.4702911 L30.7424431,76.9702911 L31.1643181,76.9702911 L30.4455681,77.9546661 L31.2111931,79.0484161 L30.7893181,79.0484161 L30.3518181,78.4077911 L30.2424431,78.2359161 L29.6955681,79.0484161 L29.2736931,79.0484161 Z M32.6174431,79.0484161 L32.2736931,79.0484161 L32.2736931,76.8140411 Q32.1486931,76.9234161 31.9377556,77.0484161 Q31.7268181,77.1734161 31.5705681,77.2359161 L31.5705681,76.8921661 Q31.8674431,76.7515411 32.0861931,76.5562286 Q32.3049431,76.3609161 32.3986931,76.1734161 L32.6174431,76.1734161 L32.6174431,79.0484161 Z M34.2360191,78.5796661 L34.2360191,77.7984161 L33.4547691,77.7984161 L33.4547691,77.4702911 L34.2360191,77.4702911 L34.2360191,76.6890411 L34.5641441,76.6890411 L34.5641441,77.4702911 L35.3453941,77.4702911 L35.3453941,77.7984161 L34.5641441,77.7984161 L34.5641441,78.5796661 L34.2360191,78.5796661 Z M35.7098351,79.8452911 L35.7098351,76.9702911 L36.0223351,76.9702911 L36.0223351,77.2359161 Q36.1473351,77.0796661 36.2879601,77.0015411 Q36.4285851,76.9234161 36.6317101,76.9234161 Q36.8973351,76.9234161 37.1004601,77.0640411 Q37.3035851,77.2046661 37.4051476,77.4546661 Q37.5067101,77.7046661 37.5067101,78.0015411 Q37.5067101,78.3140411 37.3973351,78.5718536 Q37.2879601,78.8296661 37.0692101,78.9624786 Q36.8504601,79.0952911 36.6004601,79.0952911 Q36.4285851,79.0952911 36.2879601,79.0171661 Q36.1473351,78.9390411 36.0535851,78.8296661 L36.0535851,79.8452911 L35.7098351,79.8452911 Z M36.0223351,78.0171661 Q36.0223351,78.4234161 36.1863976,78.6109161 Q36.3504601,78.7984161 36.5848351,78.7984161 Q36.8192101,78.7984161 36.9832726,78.6031036 Q37.1473351,78.4077911 37.1473351,77.9859161 Q37.1473351,77.5952911 36.9832726,77.3999786 Q36.8192101,77.2046661 36.6004601,77.2046661 Q36.3660851,77.2046661 36.1942101,77.4156036 Q36.0223351,77.6265411 36.0223351,78.0171661 Z M39.0315361,79.0484161 L38.6877861,79.0484161 L38.6877861,76.8140411 Q38.5627861,76.9234161 38.3518486,77.0484161 Q38.1409111,77.1734161 37.9846611,77.2359161 L37.9846611,76.8921661 Q38.2815361,76.7515411 38.5002861,76.5562286 Q38.7190361,76.3609161 38.8127861,76.1734161 L39.0315361,76.1734161 L39.0315361,79.0484161 Z"
     style="fill:rgb(0,0,178);stroke:none"
     id="path120" />
  <ellipse
     cx="51.1516989"
     cy="26.3216846"
     rx="0.709282"
     ry="0.709282"
     style="fill:rgb(255,255,255);stroke:none"
     id="ellipse122" />
  <ellipse
     cx="51.1516989"
     cy="26.3216846"
     rx="0.709282"
     ry="0.709282"
     style="fill:none;stroke:rgb(0,0,178);stroke-width:0.2364273;stroke-linecap:round"
     id="ellipse124" />
  <path
     d="M52.25,31.796875 L52.203125,31.46875 Q52.328125,31.5 52.40625,31.5 Q52.53125,31.5 52.6015625,31.4609375 Q52.671875,31.421875 52.71875,31.359375 Q52.75,31.296875 52.828125,31.09375 Q52.828125,31.0625 52.859375,31 L52.0625,28.921875 L52.4375,28.921875 L52.875,30.125 Q52.953125,30.359375 53.03125,30.609375 Q53.09375,30.359375 53.171875,30.140625 L53.609375,28.921875 L53.96875,28.921875 L53.171875,31.03125 Q53.046875,31.375 52.984375,31.5 Q52.890625,31.6875 52.765625,31.765625 Q52.640625,31.84375 52.46875,31.84375 Q52.375,31.84375 52.25,31.796875 Z"
     style="fill:rgb(0,0,178);stroke:none"
     id="path126" />
  <path
     d="M55.125,33 L54.859375,33 L54.859375,31.3125 Q54.765625,31.40625 54.609375,31.5 Q54.453125,31.59375 54.328125,31.640625 L54.328125,31.375 Q54.546875,31.28125 54.7109375,31.1328125 Q54.875,30.984375 54.953125,30.84375 L55.125,30.84375 L55.125,33 Z"
     style="fill:rgb(0,0,178);stroke:none"
     id="path128" />
  <ellipse
     cx="113.1637728"
     cy="22.6889769"
     rx="0.709282"
     ry="0.709282"
     style="fill:rgb(255,255,255);stroke:none"
     id="ellipse130" />
  <ellipse
     cx="113.1637728"
     cy="22.6889769"
     rx="0.709282"
     ry="0.709282"
     style="fill:none;stroke:rgb(0,0,178);stroke-width:0.2364273;stroke-linecap:round"
     id="ellipse132" />
  <path
     d="M114.3594818,27.9164696 L114.3126068,27.5883446 Q114.4376068,27.6195946 114.5157318,27.6195946 Q114.6407318,27.6195946 114.7110443,27.5805321 Q114.7813568,27.5414696 114.8282318,27.4789696 Q114.8594818,27.4164696 114.9376068,27.2133446 Q114.9376068,27.1820946 114.9688568,27.1195946 L114.1719818,25.0414696 L114.5469818,25.0414696 L114.9844818,26.2445946 Q115.0626068,26.4789696 115.1407318,26.7289696 Q115.2032318,26.4789696 115.2813568,26.2602196 L115.7188568,25.0414696 L116.0782318,25.0414696 L115.2813568,27.1508446 Q115.1563568,27.4945946 115.0938568,27.6195946 Q115.0001068,27.8070946 114.8751068,27.8852196 Q114.7501068,27.9633446 114.5782318,27.9633446 Q114.4844818,27.9633446 114.3594818,27.9164696 Z M117.4844818,27.1195946 L117.1407318,27.1195946 L117.1407318,24.8852196 Q117.0157318,24.9945946 116.8047943,25.1195946 Q116.5938568,25.2445946 116.4376068,25.3070946 L116.4376068,24.9633446 Q116.7344818,24.8227196 116.9532318,24.6274071 Q117.1719818,24.4320946 117.2657318,24.2445946 L117.4844818,24.2445946 L117.4844818,27.1195946 Z M119.1030579,26.6508446 L119.1030579,25.8695946 L118.3218079,25.8695946 L118.3218079,25.5414696 L119.1030579,25.5414696 L119.1030579,24.7602196 L119.4311829,24.7602196 L119.4311829,25.5414696 L120.2124329,25.5414696 L120.2124329,25.8695946 L119.4311829,25.8695946 L119.4311829,26.6508446 L119.1030579,26.6508446 Z M121.9049988,27.9164696 L121.9049988,26.9008446 Q121.8112488,27.0102196 121.6628113,27.0883446 Q121.5143738,27.1664696 121.3581238,27.1664696 Q120.9831238,27.1664696 120.7174988,26.8695946 Q120.4518738,26.5727196 120.4518738,26.0570946 Q120.4518738,25.7445946 120.5612488,25.5024071 Q120.6706238,25.2602196 120.8737488,25.1274071 Q121.0768738,24.9945946 121.3268738,24.9945946 Q121.7174988,24.9945946 121.9362488,25.3227196 L121.9362488,25.0414696 L122.2487488,25.0414696 L122.2487488,27.9164696 L121.9049988,27.9164696 Z M120.8112488,26.0727196 Q120.8112488,26.4789696 120.9831238,26.6742821 Q121.1549988,26.8695946 121.3893738,26.8695946 Q121.6081238,26.8695946 121.7721863,26.6820946 Q121.9362488,26.4945946 121.9362488,26.1039696 Q121.9362488,25.6977196 121.7643738,25.4867821 Q121.5924988,25.2758446 121.3581238,25.2758446 Q121.1393738,25.2758446 120.9753113,25.4711571 Q120.8112488,25.6664696 120.8112488,26.0727196 Z M123.8985748,27.1195946 L123.5548248,27.1195946 L123.5548248,24.8852196 Q123.4298248,24.9945946 123.2188873,25.1195946 Q123.0079498,25.2445946 122.8516998,25.3070946 L122.8516998,24.9633446 Q123.1485748,24.8227196 123.3673248,24.6274071 Q123.5860748,24.4320946 123.6798248,24.2445946 L123.8985748,24.2445946 L123.8985748,27.1195946 Z"
     style="fill:rgb(0,0,178);stroke:none"
     id="path134" />
  <ellipse
     cx="27.451462"
     cy="31.9979249"
     rx="0.709282"
     ry="0.709282"
     style="fill:rgb(255,255,255);stroke:none"
     id="ellipse136" />
  <ellipse
     cx="27.451462"
     cy="31.9979249"
     rx="0.709282"
     ry="0.709282"
     style="fill:none;stroke:rgb(0,0,178);stroke-width:0.2364273;stroke-linecap:round"
     id="ellipse138" />
  <path
     d="M28.03125,36 L28.78125,34.921875 L28.09375,33.921875 L28.53125,33.921875 L28.84375,34.40625 Q28.9375,34.546875 28.984375,34.640625 Q29.078125,34.515625 29.140625,34.421875 L29.5,33.921875 L29.921875,33.921875 L29.203125,34.90625 L29.96875,36 L29.546875,36 L29.109375,35.359375 L29,35.1875 L28.453125,36 L28.03125,36 Z"
     style="fill:rgb(0,0,178);stroke:none"
     id="path140" />
  <path
     d="M31.515625,37.75 L31.515625,38 L30.09375,38 Q30.09375,37.90625 30.125,37.8125 Q30.171875,37.671875 30.296875,37.53125 Q30.421875,37.390625 30.640625,37.203125 Q30.984375,36.921875 31.109375,36.75 Q31.234375,36.578125 31.234375,36.4375 Q31.234375,36.28125 31.125,36.171875 Q31.015625,36.0625 30.828125,36.0625 Q30.640625,36.0625 30.5234375,36.1796875 Q30.40625,36.296875 30.40625,36.5 L30.140625,36.46875 Q30.171875,36.15625 30.3515625,36 Q30.53125,35.84375 30.84375,35.84375 Q31.140625,35.84375 31.3203125,36.015625 Q31.5,36.1875 31.5,36.4375 Q31.5,36.5625 31.453125,36.6875 Q31.40625,36.8125 31.28125,36.953125 Q31.15625,37.09375 30.875,37.328125 Q30.640625,37.53125 30.5703125,37.6015625 Q30.5,37.671875 30.453125,37.75 L31.515625,37.75 Z"
     style="fill:rgb(0,0,178);stroke:none"
     id="path142" />
  <ellipse
     cx="20.9032979"
     cy="2.9304143"
     rx="0.709282"
     ry="0.709282"
     style="fill:rgb(0,0,178);stroke:none"
     id="ellipse144" />
  <ellipse
     cx="20.9032979"
     cy="2.9304143"
     rx="0.709282"
     ry="0.709282"
     style="fill:none;stroke:rgb(0,0,178);stroke-width:0.2364273;stroke-linecap:round"
     id="ellipse146" />
  <path
     d="M21.8802567,8.3978672 L22.8333817,7.0541172 L21.9583817,5.8041172 L22.5052567,5.8041172 L22.9115067,6.4134922 Q23.0208817,6.5853672 23.0833817,6.7103672 Q23.1927567,6.5384922 23.2865067,6.4134922 L23.7240067,5.8041172 L24.2396317,5.8041172 L23.3490067,7.0228672 L24.3177567,8.3978672 L23.7708817,8.3978672 L23.2396317,7.5853672 L23.0990067,7.3822422 L22.4115067,8.3978672 L21.8802567,8.3978672 Z"
     style="fill:rgb(0,0,178);stroke:none"
     id="path148" />
</svg>
