<svg fill-rule="evenodd" height="174.133801" image-rendering="optimizeQuality" shape-rendering="geometricPrecision" text-rendering="geometricPrecision" viewBox="0 0 1724 524" width="574.271046" xmlns="http://www.w3.org/2000/svg"><g fill="#1f1a17"><path d="m827 384c-26 0-56-8-76-21l-12-44h1c34 32 61 44 87 44 27 0 50-14 50-47 1-25-16-33-56-54-46-25-75-45-75-84 0-44 43-59 85-58 23 0 45 4 61 8l10 40h-1c-16-15-45-28-73-28-22 0-44 10-44 34 0 20 11 31 65 58 54 28 70 48 70 83 0 50-47 70-92 69z"/><path d="m1188 203-47 179h-3c-10 0-19-5-26-26l-51-134-46 130c-6 18-13 30-30 30h-2l-44-172c-6-24-10-28-21-37v-1h62v1c-6 5-8 10-8 16s2 12 3 19l30 118 47-136c4-13 10-19 23-19h5l57 150 29-113c1-5 2-10 2-14 0-8-3-14-11-21h50v1c-9 8-14 12-19 29z"/><path d="m1266 205v143c0 15 2 23 13 32v1l-61-1v-1c11-8 13-17 13-31l1-143c0-14-2-23-13-31v-1h61v1c-11 8-14 17-14 31z"/><path d="m1447 381c-15 0-28-1-42-26l-33-59c-7-11-7-11-16-11h-12v63c-1 15 1 24 12 32v1h-61v-1c12-9 14-17 14-32v-143c0-14-2-23-13-31v-1h78c47 1 76 16 76 54 0 29-20 47-48 55l36 63c12 20 25 28 41 35v1zm-77-192h-14c-9 0-12 2-12 13v67h22c25 0 47-14 47-42 0-29-18-38-43-38z"/><path d="m1622 382-146-1v-1c11-8 14-17 14-31v-143c0-14-2-23-14-31v-1h136l7 31c-12-10-19-15-43-15h-39c-10 0-13 7-13 11v63l74 1 2 23h-1c-4-3-10-7-21-7l-54-1v66c0 17 3 20 12 20h39c30 0 37-4 56-20h1z"/></g><path d="m631 419-510-2 2-337 510 1z" fill="#fff"/><path d="m123 81 254 168-256 166z" fill="#de413a"/><path d="m633 83-256 166 254 168z" fill="#de413a"/><path d="m411 418h-69l1-338 69 1z" fill="#014183"/><path d="m118 75-1 346 519 2 1-346zm509 339-501-2 1-328 501 2z" fill="#1f1a17"/></svg>